<svg xmlns="http://www.w3.org/2000/svg" xmlns:xlink="http://www.w3.org/1999/xlink" width="124" height="124" viewBox="0 0 124 124">
  <defs>
    <filter id="Elipse_5230" x="0" y="0" width="124" height="124" filterUnits="userSpaceOnUse">
      <feOffset dy="3" input="SourceAlpha"/>
      <feGaussianBlur stdDeviation="3" result="blur"/>
      <feFlood flood-opacity="0.161"/>
      <feComposite operator="in" in2="blur"/>
      <feComposite in="SourceGraphic"/>
    </filter>
    <clipPath id="clip-path">
      <rect id="Rectángulo_361554" data-name="Rectángulo 361554" width="59.854" height="59.854" fill="none"/>
    </clipPath>
  </defs>
  <g id="Grupo_1084176" data-name="Grupo 1084176" transform="translate(-171 -948)">
    <g id="Grupo_1083919" data-name="Grupo 1083919" transform="translate(180 954)">
      <g transform="matrix(1, 0, 0, 1, -9, -6)" filter="url(#Elipse_5230)">
        <circle id="Elipse_5230-2" data-name="Elipse 5230" cx="53" cy="53" r="53" transform="translate(9 6)" fill="#ffd947"/>
      </g>
      <circle id="Elipse_5248" data-name="Elipse 5248" cx="45.5" cy="45.5" r="45.5" transform="translate(8 8)" fill="#fff"/>
    </g>
    <g id="Grupo_1083920" data-name="Grupo 1083920" transform="translate(204.146 975.661)">
      <g id="Grupo_1083917" data-name="Grupo 1083917" clip-path="url(#clip-path)">
        <path id="Trazado_716620" data-name="Trazado 716620" d="M3.724,0C5.632,1.155,6.971,2.931,8.549,4.445c1.042,1,1.994,2.094,3.2,3.369.207-1.087.337-1.8.48-2.516a2.9,2.9,0,0,1,3.4-2.383A2.774,2.774,0,0,1,17.9,6.129q-.561,3.789-1.316,7.549a4.1,4.1,0,0,1-3.648,3.34c-2.3.413-4.6.79-6.905,1.191a2.9,2.9,0,0,1-3.39-2.184A2.948,2.948,0,0,1,4.9,12.52c.9-.187,1.815-.308,3.03-.509C6.461,10.557,5.144,9.3,3.881,7.986,2.548,6.6.993,5.417,0,3.724V2.394A3.364,3.364,0,0,1,2.394,0ZM10.96,15.489l-.015.022c.7-.106,1.4-.179,2.087-.327a2.317,2.317,0,0,0,1.891-1.973c.441-2.338.851-4.682,1.265-7.025.146-.825-.173-1.466-1.011-1.565-.773-.092-1.2.488-1.321,1.208-.221,1.3-.4,2.61-.594,3.915-.571.844-1.2.69-1.855.108Q7.637,6.038,3.86,2.228a1.107,1.107,0,0,0-1.721-.1c-.754.832-.218,1.438.365,2.022q3.7,3.712,7.411,7.42c.33.332.786.639.6,1.219-.2.61-.749.682-1.274.771-1.26.214-2.528.394-3.781.641-.707.139-1.282.546-1.144,1.36.134.79.738,1.057,1.5.917,1.342-.247,2.681-.515,4.021-.775.387,0,.793.1,1.123-.209" fill="#0e0e0d"/>
        <path id="Trazado_716621" data-name="Trazado 716621" d="M174.972,3.723c-1.15,1.911-2.939,3.236-4.439,4.826-1.058,1.121-2.178,2.182-3.343,3.343a9.249,9.249,0,0,0,2.627.585,2.946,2.946,0,0,1,2.513,3.544,2.878,2.878,0,0,1-3.52,2.149c-2.214-.38-4.427-.771-6.644-1.135a4.246,4.246,0,0,1-3.859-3.608c-.463-2.378-.858-4.77-1.208-7.167a2.79,2.79,0,0,1,2.252-3.346,2.884,2.884,0,0,1,3.409,2.513c.129.643.249,1.288.373,1.927.435.189.554-.2.743-.391q2.55-2.519,5.07-5.068a11.35,11.35,0,0,1,2.3-1.9h1.33a3.337,3.337,0,0,1,2.394,2.394Zm-6.919,12.484a2.168,2.168,0,0,0,1.122.289c.736.068,1.351-.137,1.5-.918.15-.8-.416-1.212-1.094-1.381s-1.369-.216-2.056-.317c-.962-.385-2.1-.122-2.975-.833-.316-.667.108-1.07.523-1.483q2.492-2.486,4.979-4.978c.845-.845,1.675-1.707,2.539-2.533.628-.6.925-1.291.254-1.948s-1.38-.314-1.95.309c-.236.258-.468.52-.7.781q-3.261,3.221-6.525,6.439c-.363.356-.689.916-1.325.642-.559-.241-.607-.8-.685-1.344-.15-1.047-.336-2.09-.538-3.128-.139-.714-.529-1.3-1.323-1.2a1.184,1.184,0,0,0-1.025,1.565c.422,2.391.844,4.782,1.306,7.165a2.187,2.187,0,0,0,1.725,1.822,45.135,45.135,0,0,0,6.253,1.054" transform="translate(-115.117 0.001)" fill="#0e0e0d"/>
        <path id="Trazado_716622" data-name="Trazado 716622" d="M0,170.408c1.285-2.031,3.2-3.478,4.819-5.2.934-.995,1.924-1.936,2.958-2.972a9.346,9.346,0,0,0-2.62-.58,2.946,2.946,0,0,1-2.512-3.547,2.857,2.857,0,0,1,3.517-2.137c2.26.381,4.521.754,6.779,1.146a4.181,4.181,0,0,1,3.7,3.46c.484,2.418.882,4.856,1.242,7.3a2.8,2.8,0,0,1-2.264,3.344,2.887,2.887,0,0,1-3.406-2.516c-.124-.644-.246-1.288-.37-1.936-.48-.15-.616.28-.838.5q-2.554,2.516-5.073,5.069a10.279,10.279,0,0,1-2.21,1.8H2.394A3.365,3.365,0,0,1,0,171.738Zm11.691-11.666c-1.9-.364-3.807-.744-5.715-1.085-.823-.147-1.585.04-1.679,1.007-.085.879.613,1.2,1.358,1.336,1.127.2,2.261.37,3.39.564.549.094,1.186.048,1.423.735.245.71-.337,1.038-.721,1.425Q6.1,166.4,2.43,170.05c-.707.707-1.056,1.416-.043,2.156a1.245,1.245,0,0,0,1.544-.345q3.61-3.662,7.228-7.317c1.487-1.2,1.84-1.055,2.194.885q.259,1.422.522,2.843c.228.742.512,1.495,1.5,1.2.926-.277.923-1.055.78-1.851-.35-1.95-.7-3.9-1.03-5.854-.377-2.221-1.1-2.871-3.431-3.024" transform="translate(0 -114.278)" fill="#0e0e0d"/>
        <path id="Trazado_716623" data-name="Trazado 716623" d="M170.183,166.63a1.059,1.059,0,0,1,1.525.122,19.638,19.638,0,0,1,3.187,3.595v1.6a4.593,4.593,0,0,1-2.128,2.128h-1.6c-2.1-1.34-3.6-3.327-5.389-5.008-.857-.807-1.644-1.689-2.647-2.728-.194,1.063-.3,1.831-.478,2.586a2.947,2.947,0,0,1-3.4,2.234,2.764,2.764,0,0,1-2.275-3.1c.375-2.571.85-5.129,1.341-7.681a4.018,4.018,0,0,1,3.526-3.3c2.339-.447,4.693-.809,7.041-1.2a2.844,2.844,0,0,1,3.364,2.2,2.944,2.944,0,0,1-2.285,3.481c-.9.186-1.811.316-2.766.479.4,1.1,2.075,1.419,1.518,2.893-.447.195-.895.394-1.324-.037q-1.388-1.391-2.775-2.783a.953.953,0,0,1-.152-1.086c.863-.731,2.012-.436,2.969-.831.472-.072.943-.158,1.417-.212.926-.1,1.889-.319,1.715-1.489-.168-1.123-1.17-.962-2-.862a2.553,2.553,0,0,0-.6.233,48.46,48.46,0,0,0-6.232,1.045,2.105,2.105,0,0,0-1.7,1.673c-.5,2.458-.914,4.935-1.351,7.407a1.145,1.145,0,0,0,.969,1.475c.769.119,1.226-.413,1.372-1.138.208-1.033.4-2.073.535-3.117.079-.588.11-1.213.74-1.435.687-.242,1.015.4,1.4.786,2.176,2.136,4.334,4.29,6.5,6.437l.065.057a.082.082,0,0,0,.107.079c.135.169.264.343.407.5.593.67,1.321,1.018,2.023.291.645-.667.313-1.35-.309-1.931-.642-.6-1.218-1.268-1.872-1.852a1.3,1.3,0,0,1-.447-1.517" transform="translate(-115.042 -114.216)" fill="#0e0e0d"/>
        <path id="Trazado_716624" data-name="Trazado 716624" d="M66.447,46.345A15.788,15.788,0,0,0,52.284,49.23c-.68.508-1.192.684-1.793,0-.182-.829.427-1.222.958-1.588,6.216-4.288,12.816-4.995,19.473-1.382,6.6,3.584,9.831,9.41,9.427,16.947a18.072,18.072,0,0,1-35.893,1.748A17.523,17.523,0,0,1,47.5,51.734c.455-.65.913-.911,1.651-.607.524.773-.022,1.3-.41,1.886a16.354,16.354,0,0,0,8.712,24.73,14.967,14.967,0,0,0,9,.177,3.082,3.082,0,0,0,.517-.07,16.453,16.453,0,0,0,11.431-19.01c-1.088-5.895-6.232-11.276-11.948-12.5" transform="translate(-32.402 -32.206)" fill="#111010"/>
        <path id="Trazado_716625" data-name="Trazado 716625" d="M185.832,180.884a1.3,1.3,0,0,0,.447,1.517c.654.583,1.231,1.253,1.872,1.852.622.581.955,1.264.309,1.931-.7.726-1.43.379-2.023-.291-.143-.162-.272-.336-.407-.5l.071-.162-.178.083-.065-.057c.391-.688-.112-1.063-.517-1.469-2.037-2.039-4.081-4.07-6.108-6.118-.447-.452-1.189-.848-.833-1.64.31-.691,1.038-.743,1.721-.747a.953.953,0,0,0,.152,1.086q1.385,1.394,2.775,2.783c.43.43.877.232,1.324.037l1.459,1.7" transform="translate(-130.69 -128.47)" fill="#afafaf"/>
        <path id="Trazado_716626" data-name="Trazado 716626" d="M14.692,21.527c-1.34.259-2.679.527-4.021.775-.76.14-1.364-.127-1.5-.917-.138-.814.437-1.221,1.144-1.36,1.254-.247,2.521-.427,3.782-.641.524-.089,1.078-.16,1.273-.771.185-.579-.6-1.219-.6-1.219S9.829,12.45,7.36,9.975c-.583-.585-1.119-1.191-.365-2.022.559,0,.832.447,1.166.779,2.054,2.043,4.118,4.076,6.133,6.157a2.222,2.222,0,0,0,1.969.792c.654.582,1.284.736,1.855-.108-.064,2.207-.346,4.326-2.317,5.766l.014-.022c-.4-.05-.806-.17-1.123.209" transform="translate(-4.855 -5.829)" fill="#ffa686"/>
        <path id="Trazado_716627" data-name="Trazado 716627" d="M40.988,28.168c1.971-1.44,2.254-3.559,2.317-5.766.2-1.305.372-2.614.594-3.915.123-.72.547-1.3,1.32-1.208.837.1,1.156.74,1.011,1.565-.413,2.343-.824,4.687-1.264,7.025a2.317,2.317,0,0,1-1.891,1.972c-.687.148-1.391.221-2.087.327" transform="translate(-30.042 -12.657)" fill="#ffa686"/>
        <path id="Trazado_716628" data-name="Trazado 716628" d="M36.837,58.049c.316-.379.726-.259,1.123-.209-.33.307-.735.209-1.123.209" transform="translate(-27 -42.351)" fill="#de576b"/>
        <path id="Trazado_716629" data-name="Trazado 716629" d="M169.142,21.826c.87.711,2.014.448,2.975.833a3.184,3.184,0,0,1,.531,2.327,45.136,45.136,0,0,1-6.253-1.054,2.187,2.187,0,0,1-1.725-1.822c-.461-2.383-.883-4.775-1.306-7.166a1.184,1.184,0,0,1,1.025-1.564c.793-.1,1.184.491,1.323,1.2.2,1.038.387,2.081.538,3.128.078.542.126,1.1.685,1.344.636.275.962-.285,1.325-.642q3.272-3.21,6.525-6.439c.6.625-.03.939-.36,1.274-2.139,2.165-4.3,4.3-6.446,6.466-1.031,1.042-.891,1.549.516,2a4.631,4.631,0,0,0,.647.112" transform="translate(-119.714 -8.777)" fill="#adce32"/>
        <path id="Trazado_716630" data-name="Trazado 716630" d="M180.052,17.848a4.63,4.63,0,0,1-.647-.112c-1.407-.45-1.547-.957-.516-2,2.141-2.163,4.307-4.3,6.446-6.466.33-.334.961-.648.36-1.274.234-.261.466-.523.7-.781.57-.623,1.269-.975,1.95-.309s.374,1.347-.254,1.947c-.864.826-1.694,1.687-2.539,2.533q-2.489,2.49-4.979,4.978c-.414.413-.839.816-.523,1.483" transform="translate(-130.624 -4.799)" fill="#adce32"/>
        <path id="Trazado_716631" data-name="Trazado 716631" d="M196.765,54.307a3.184,3.184,0,0,0-.531-2.326c.686.1,1.386.15,2.056.317s1.244.58,1.094,1.381c-.146.781-.761.985-1.5.918a2.168,2.168,0,0,1-1.122-.289" transform="translate(-143.83 -38.1)" fill="#adce32"/>
        <path id="Trazado_716632" data-name="Trazado 716632" d="M18.691,172.933q-.261-1.421-.522-2.843c-.354-1.941-.707-2.084-2.194-.885a2.173,2.173,0,0,0-1.645.735C12,172.29,9.425,174.4,7.2,176.866c-1.013-.739-.664-1.449.043-2.156q3.662-3.66,7.317-7.326c.384-.387.965-.715.72-1.425-.237-.687-.874-.641-1.422-.735-1.129-.194-2.263-.36-3.39-.564-.745-.135-1.444-.456-1.359-1.336.094-.967.856-1.154,1.679-1.007,1.909.342,3.811.721,5.716,1.086a5.21,5.21,0,0,1,1.573,3.111c.168,1.48.455,2.932.733,4.391a2.622,2.622,0,0,1-.122,2.028" transform="translate(-4.817 -118.938)" fill="#fae296"/>
        <path id="Trazado_716633" data-name="Trazado 716633" d="M45.961,176.035a2.622,2.622,0,0,0,.122-2.028c-.277-1.458-.565-2.911-.733-4.391a5.21,5.21,0,0,0-1.573-3.111c2.328.153,3.054.8,3.431,3.024.331,1.953.68,3.9,1.03,5.854.143.8.146,1.574-.78,1.851-.986.3-1.269-.457-1.5-1.2" transform="translate(-32.087 -122.04)" fill="#fcd25f"/>
        <path id="Trazado_716634" data-name="Trazado 716634" d="M8.938,195.889c2.222-2.467,4.792-4.576,7.127-6.926a2.172,2.172,0,0,1,1.645-.735q-3.615,3.658-7.228,7.317a1.245,1.245,0,0,1-1.544.345" transform="translate(-6.551 -137.961)" fill="#fcd25f"/>
        <path id="Trazado_716635" data-name="Trazado 716635" d="M169.152,166.6c-.683,0-1.411.056-1.721.747-.356.792.386,1.188.833,1.64,2.027,2.048,4.071,4.079,6.108,6.118.4.406.908.781.517,1.469-2.164-2.148-4.323-4.3-6.5-6.437-.39-.383-.718-1.028-1.4-.786-.63.222-.661.847-.74,1.435-.139,1.044-.327,2.084-.535,3.117-.146.726-.6,1.257-1.372,1.138a1.145,1.145,0,0,1-.97-1.475c.437-2.472.849-4.948,1.351-7.407a2.106,2.106,0,0,1,1.7-1.673,48.461,48.461,0,0,1,6.232-1.045,3.162,3.162,0,0,1-.529,2.33c-.957.395-2.106.1-2.969.831" transform="translate(-119.721 -119.795)" fill="#afafaf"/>
        <path id="Trazado_716636" data-name="Trazado 716636" d="M196.22,164.938a3.163,3.163,0,0,0,.529-2.33,2.548,2.548,0,0,1,.6-.233c.835-.1,1.836-.262,2,.862.175,1.17-.789,1.385-1.715,1.489-.474.054-.945.14-1.417.212" transform="translate(-143.82 -118.961)" fill="#afafaf"/>
        <path id="Trazado_716637" data-name="Trazado 716637" d="M206.829,212.611l.177-.083-.071.162a.083.083,0,0,1-.107-.079" transform="translate(-151.596 -155.773)" fill="#9fc9e5"/>
        <path id="Trazado_716638" data-name="Trazado 716638" d="M83.752,66.193A16.047,16.047,0,1,1,67.7,50.146,16.047,16.047,0,0,1,83.752,66.193" transform="translate(-37.862 -36.264)" fill="#fff8da"/>
        <path id="Trazado_716639" data-name="Trazado 716639" d="M82.327,66c-.287.4-.567.782-.845,1.17-.253.353-.5.711-.755,1.063a.58.58,0,0,1-.8.152.563.563,0,0,1-.124-.8q.576-.827,1.165-1.644c.294-.409.6-.81.9-1.216a.577.577,0,0,1,.889-.037c.381.489.744.992,1.113,1.49.084.113.165.23.256.357l.183-.291c.484-.763.951-1.537,1.457-2.285.559-.827,1.154-1.63,1.734-2.442a.808.808,0,0,1,.445-.39.591.591,0,0,1,.595.188c.52.712,1.046,1.421,1.55,2.144.424.607.828,1.227,1.227,1.851a32.613,32.613,0,0,1,1.666,2.9,15.3,15.3,0,0,1,.994,2.39,5.361,5.361,0,0,1-.292,3.812,6.116,6.116,0,0,1-3.19,3.156l-.063.029c.085.343.177.678.25,1.016a6.144,6.144,0,0,1,.109,1.735,8.286,8.286,0,0,1-.426,2.13A8.407,8.407,0,0,1,88.8,85.227a8.518,8.518,0,0,1-3.91,2.606A8.5,8.5,0,0,1,74,81.356a7.188,7.188,0,0,1,.181-3.57,20.121,20.121,0,0,1,1.573-3.652c.494-.91,1.021-1.8,1.538-2.7a.558.558,0,0,1,.749-.218.579.579,0,0,1,.227.791c-.237.4-.479.8-.712,1.2a31.029,31.029,0,0,0-1.664,3.262,14.3,14.3,0,0,0-.778,2.235,5.443,5.443,0,0,0-.053,2.1,7.162,7.162,0,0,0,.612,2.042,7.357,7.357,0,0,0,2.078,2.632A7.342,7.342,0,0,0,89.285,82.09a6.95,6.95,0,0,0,.38-2.627,5.954,5.954,0,0,0-.342-1.542,24.781,24.781,0,0,0-2.052-4.414c-.41-.721-.832-1.437-1.277-2.137-.621-.977-1.263-1.94-1.909-2.9-.413-.614-.847-1.214-1.274-1.819-.154-.217-.317-.427-.484-.652M88.1,62.591c-.361.511-.717.986-1.041,1.482-.691,1.059-1.358,2.133-2.049,3.192-.142.217-.163.384.025.567a.569.569,0,0,1,.064.1c.534.807,1.084,1.6,1.6,2.424.547.87,1.071,1.755,1.589,2.644a28.043,28.043,0,0,1,1.5,2.951c.082.188.163.377.247.573.056-.023.1-.041.15-.063a5.011,5.011,0,0,0,2.848-3.905,4.12,4.12,0,0,0-.227-1.915,12.644,12.644,0,0,0-.85-1.947c-.411-.76-.833-1.514-1.278-2.253-.4-.671-.838-1.323-1.274-1.973-.42-.625-.86-1.236-1.307-1.874" transform="translate(-54.135 -44.789)" fill="#1a1818"/>
        <path id="Trazado_716640" data-name="Trazado 716640" d="M108.955,118.9v-.157q0-1.015,0-2.031a.574.574,0,0,1,.294-.562.552.552,0,0,1,.588.023.54.54,0,0,1,.251.481c0,.405,0,.81,0,1.216q0,1.908,0,3.816a.548.548,0,0,1-.457.6.554.554,0,0,1-.663-.439,1.1,1.1,0,0,1-.011-.18q0-.731,0-1.462v-.16h-2.261v.144q0,.757,0,1.513a.566.566,0,1,1-1.131.029c-.007-.133,0-.267,0-.4q0-2.257,0-4.514a.769.769,0,0,1,.144-.546.6.6,0,0,1,.639-.146.552.552,0,0,1,.35.511q0,1.061,0,2.121v.147Z" transform="translate(-77.369 -85.08)" fill="#1a1818"/>
        <path id="Trazado_716641" data-name="Trazado 716641" d="M89.778,130.069c0,.221.01.42,0,.617a.544.544,0,0,1-.571.513.533.533,0,0,1-.549-.535q-.008-1.72,0-3.439a.512.512,0,0,1,.481-.53,13.015,13.015,0,0,1,1.535.028,1.69,1.69,0,0,1-.147,3.342,6.966,6.966,0,0,1-.745,0m.028-2.268a.253.253,0,0,0-.019.061c0,.331-.007.662-.011.993,0,.067.029.091.093.089.176,0,.353,0,.529-.006a.558.558,0,0,0,.5-.45.538.538,0,0,0-.258-.593c-.266-.16-.553-.064-.831-.094" transform="translate(-64.977 -92.855)" fill="#1a1818"/>
        <path id="Trazado_716642" data-name="Trazado 716642" d="M92.085,92.121a.538.538,0,0,1-.587.542.548.548,0,0,1-.535-.549.558.558,0,0,1,.566-.575.548.548,0,0,1,.555.581" transform="translate(-66.672 -67.094)" fill="#1a1818"/>
        <path id="Trazado_716643" data-name="Trazado 716643" d="M118.389,66.661c.446.639.887,1.25,1.307,1.874.436.65.87,1.3,1.274,1.973.445.739.867,1.493,1.278,2.253a12.645,12.645,0,0,1,.85,1.947,4.12,4.12,0,0,1,.227,1.915,5.011,5.011,0,0,1-2.848,3.905c-.046.021-.094.039-.15.063-.085-.2-.165-.385-.247-.573a28.044,28.044,0,0,0-1.5-2.951c-.518-.888-1.041-1.774-1.589-2.644-.516-.82-1.065-1.617-1.6-2.424a.569.569,0,0,0-.064-.1c-.188-.183-.167-.35-.025-.567.692-1.059,1.359-2.133,2.049-3.192.324-.5.681-.971,1.041-1.482" transform="translate(-84.426 -48.859)" fill="#e8e8e8"/>
      </g>
    </g>
  </g>
</svg>
