<svg xmlns="http://www.w3.org/2000/svg" xmlns:xlink="http://www.w3.org/1999/xlink" width="138" height="138" viewBox="0 0 138 138">
  <defs>
    <clipPath id="clip-path">
      <rect id="Rectángulo_361504" data-name="Rectángulo 361504" width="44.313" height="45.824" fill="none"/>
    </clipPath>
  </defs>
  <g id="Grupo_1083945" data-name="Grupo 1083945" transform="translate(-1044 -2390)">
    <circle id="Elipse_4907" data-name="Elipse 4907" cx="69" cy="69" r="69" transform="translate(1044 2390)" fill="#fff"/>
    <circle id="Elipse_4908" data-name="Elipse 4908" cx="56" cy="56" r="56" transform="translate(1057 2403)" fill="#fff2be"/>
    <text id="Amonio" transform="translate(1116 2493)" fill="#12263f" font-size="20" font-family="Roboto-Bold, Roboto" font-weight="700"><tspan x="-34.712" y="0">Amonio</tspan></text>
    <g id="Grupo_1083809" data-name="Grupo 1083809" transform="translate(1092.844 2422.932)">
      <g id="Grupo_1083808" data-name="Grupo 1083808" clip-path="url(#clip-path)">
        <path id="Trazado_502633" data-name="Trazado 502633" d="M31.772,32.372c-.386,1.24-.665,2.448-1.13,3.58A15.744,15.744,0,0,1,14.16,45.71,15.856,15.856,0,0,1,.092,31.8a15.776,15.776,0,0,1,1.282-7.784A83.841,83.841,0,0,1,8.845,9.8C10.77,6.748,12.8,3.768,14.81.771c.682-1.018,1.52-1.033,2.2-.019C18.976,3.664,20.9,6.6,22.844,9.527c.155.234.308.47.457.7,5.067-3.786,10.308-4.291,15.614-.775A12.551,12.551,0,0,1,39.535,29.6a12.716,12.716,0,0,1-7.763,2.774m-2.395-.189c-5.567-1.764-7.078-3.1-9.692-8.5a.565.565,0,0,0-.331-.3A5.89,5.89,0,0,1,16.43,21.86a2.246,2.246,0,0,0-2.277-.407,5.529,5.529,0,0,0-1.353.9,4.69,4.69,0,0,1-5.976,0A14.522,14.522,0,0,0,5.6,21.508c-.368-.224-.646-.148-.824.3-.5,1.254-1.071,2.482-1.545,3.747a12.433,12.433,0,0,0-.866,5.927A13.611,13.611,0,0,0,21.518,42.293a13.438,13.438,0,0,0,7.859-10.109M42,19.713A10.322,10.322,0,1,0,31.689,30.045,10.305,10.305,0,0,0,42,19.713M19.1,20.988a12.957,12.957,0,0,1,2.342-8.651.919.919,0,0,0-.077-.8C20.4,9.964,19.4,8.405,18.393,6.855c-.786-1.207-1.6-2.394-2.467-3.68a157.212,157.212,0,0,0-9.789,15.9c.746.519,1.4,1.032,2.109,1.444a4.347,4.347,0,0,0,1.558.576,2.592,2.592,0,0,0,1.958-.858A4.673,4.673,0,0,1,18,20.172c.309.245.633.47,1.1.816" transform="translate(0 0.001)"/>
        <path id="Trazado_502634" data-name="Trazado 502634" d="M43.15,160.459a13.438,13.438,0,0,1-7.859,10.109,13.611,13.611,0,0,1-19.155-10.814A12.435,12.435,0,0,1,17,153.827c.474-1.264,1.042-2.493,1.545-3.747.178-.445.456-.521.824-.3a14.522,14.522,0,0,1,1.226.842,4.689,4.689,0,0,0,5.976,0,5.521,5.521,0,0,1,1.353-.9,2.246,2.246,0,0,1,2.277.407,5.891,5.891,0,0,0,2.924,1.525.566.566,0,0,1,.331.3c2.614,5.394,4.125,6.731,9.692,8.5M20.722,161.5c-1.01,0-1.5.75-1.164,1.513a10.3,10.3,0,0,0,3.148,4.06,1.034,1.034,0,0,0,1.471-.08,1.047,1.047,0,0,0-.153-1.518,10.159,10.159,0,0,1-2.606-3.334c-.162-.313-.548-.51-.7-.641m-.179-2.082c-.062-.627-.111-1.122-.159-1.616-.007-.071,0-.143-.015-.213a.979.979,0,0,0-1.035-.951.949.949,0,0,0-1.026,1.025,10.133,10.133,0,0,0,.224,1.968.93.93,0,0,0,1.19.737.946.946,0,0,0,.821-.951" transform="translate(-13.774 -128.275)" fill="#fff"/>
        <path id="Trazado_502635" data-name="Trazado 502635" d="M170.551,76.524a10.322,10.322,0,1,1-10.36-10.276,10.3,10.3,0,0,1,10.36,10.276m-14.087-.1-.031,0c.037-.472.054-.947.114-1.417a2.117,2.117,0,0,1,1.579-1.975,2.3,2.3,0,0,1,2.476.994c.437.622.864.768,1.354.464a.98.98,0,0,0,.2-1.491,4.014,4.014,0,0,0-4.033-1.872,3.54,3.54,0,0,0-3.262,2.931,16.928,16.928,0,0,0-.119,4.308A4.078,4.078,0,0,0,162.1,79.79c.389-.616.351-1.116-.108-1.448s-1-.192-1.445.4a2.047,2.047,0,0,1-2.361.882,2.223,2.223,0,0,1-1.665-1.992c-.038-.4-.04-.806-.058-1.209m9.435.162q0-1.422,0-2.845c0-.474.03-.952-.017-1.421a.894.894,0,0,0-.922-.9.879.879,0,0,0-.935.874,5.1,5.1,0,0,0-.033.567q0,3.734,0,7.467c0,.816.337,1.246.943,1.26.585.014.955-.451.96-1.235.007-1.256,0-2.513,0-3.769" transform="translate(-128.554 -56.811)" fill="#fff"/>
        <path id="Trazado_502636" data-name="Trazado 502636" d="M56.045,40.106c-.468-.346-.792-.571-1.1-.816a4.673,4.673,0,0,0-6.242.063,2.592,2.592,0,0,1-1.958.858,4.347,4.347,0,0,1-1.558-.576c-.711-.412-1.363-.925-2.109-1.444a157.212,157.212,0,0,1,9.789-15.9c.864,1.286,1.681,2.473,2.467,3.68,1.01,1.55,2.006,3.109,2.976,4.684a.919.919,0,0,1,.077.8,12.957,12.957,0,0,0-2.342,8.651" transform="translate(-36.941 -19.118)" fill="#fff"/>
        <path id="Trazado_502637" data-name="Trazado 502637" d="M41.126,233.247c.148.131.533.328.7.641a10.156,10.156,0,0,0,2.606,3.334,1.048,1.048,0,0,1,.153,1.518,1.034,1.034,0,0,1-1.471.08,10.3,10.3,0,0,1-3.148-4.06c-.34-.763.154-1.515,1.164-1.513" transform="translate(-34.178 -200.021)"/>
        <path id="Trazado_502638" data-name="Trazado 502638" d="M34.054,201.9a.946.946,0,0,1-.821.951.93.93,0,0,1-1.19-.737,10.133,10.133,0,0,1-.224-1.968.949.949,0,0,1,1.026-1.025.979.979,0,0,1,1.035.951c.01.07.008.142.015.213.048.494.1.989.159,1.616" transform="translate(-27.286 -170.753)"/>
        <path id="Trazado_502639" data-name="Trazado 502639" d="M185.09,105.535c.018.4.02.808.058,1.209a2.223,2.223,0,0,0,1.665,1.992,2.047,2.047,0,0,0,2.361-.882c.44-.589.976-.737,1.445-.4s.5.832.108,1.448a4.078,4.078,0,0,1-7.354-1.432,16.921,16.921,0,0,1,.119-4.308,3.541,3.541,0,0,1,3.261-2.931,4.014,4.014,0,0,1,4.033,1.872.98.98,0,0,1-.2,1.491c-.49.3-.917.158-1.354-.463a2.3,2.3,0,0,0-2.476-.994,2.117,2.117,0,0,0-1.579,1.975c-.06.469-.077.944-.114,1.417Z" transform="translate(-157.18 -85.926)" fill="#fff"/>
        <path id="Trazado_502640" data-name="Trazado 502640" d="M250.671,107.7c0,1.256.005,2.513,0,3.769,0,.784-.374,1.249-.959,1.235-.606-.014-.941-.444-.943-1.26q-.011-3.734,0-7.467a5.062,5.062,0,0,1,.033-.567.879.879,0,0,1,.935-.874.894.894,0,0,1,.922.9c.048.469.017.947.017,1.421q0,1.422,0,2.845" transform="translate(-213.326 -87.93)" fill="#fff"/>
        <path id="Trazado_502641" data-name="Trazado 502641" d="M184.581,117.053c0,1.186,0,2.372,0,3.558,0,.421.1.947-.556.961-.619.013-.625-.459-.624-.914,0-1.639,0-3.278,0-4.917,0-.42-.1-.928.5-1.046a1.118,1.118,0,0,1,1.344.574,25.966,25.966,0,0,0,2.25,3.649c0-1.1-.005-2.21,0-3.314,0-.429-.052-.916.6-.937.7-.023.582.5.585.907.012,1.639.007,3.278.007,4.917,0,.434.052.926-.508,1.055a1.032,1.032,0,0,1-1.184-.618q-1.074-1.956-2.143-3.914l-.271.039" transform="translate(-158.816 -99.207)" fill="#111010"/>
        <path id="Trazado_502642" data-name="Trazado 502642" d="M225.546,118.035c0,.914-.006,1.828,0,2.742,0,.435-.111.782-.6.8-.52.019-.621-.342-.605-.775.008-.24,0-.481,0-.722,0-1.473-.951-2.127-2.322-1.594-.639.248-.254.829-.386,1.242-.2.613.522,1.767-.54,1.779-1.163.013-.581-1.183-.628-1.834-.093-1.292-.044-2.6-.022-3.895.008-.483-.2-1.177.671-1.132.786.041.519.7.51,1.1-.021.963-.105,1.726,1.345,1.679,1.187-.038,1.471-.414,1.4-1.489-.031-.459-.4-1.33.6-1.284.929.043.523.861.569,1.359.061.668.015,1.346.015,2.019" transform="translate(-189.163 -99.195)" fill="#1a1a1a"/>
        <path id="Trazado_502643" data-name="Trazado 502643" d="M254.275,144.635c.581-.386,1.477.481,1.667-.412s-.924-.377-1.247-.875c.066-.622,1.3-.136,1.052-.985-.214-.747-.852.033-1.3-.288.271-.748.847-.762,1.459-.559a.848.848,0,0,1,.543,1.264.777.777,0,0,0,.073.787.97.97,0,0,1-.381,1.478,1.307,1.307,0,0,1-1.87-.41" transform="translate(-217.009 -121.167)" fill="#2d2623"/>
      </g>
    </g>
  </g>
</svg>
