<svg id="Grupo_1083529" data-name="Grupo 1083529" xmlns="http://www.w3.org/2000/svg" xmlns:xlink="http://www.w3.org/1999/xlink" width="105.834" height="154.057" viewBox="0 0 105.834 154.057">
  <defs>
    <clipPath id="clip-path">
      <rect id="Rectángulo_361287" data-name="Rectángulo 361287" width="105.834" height="154.057" fill="none"/>
    </clipPath>
  </defs>
  <g id="Grupo_1083528" data-name="Grupo 1083528" clip-path="url(#clip-path)">
    <path id="Trazado_501636" data-name="Trazado 501636" d="M0,105.316c.573-.611.5-1.447.738-2.172A16.451,16.451,0,0,1,9.493,92.99c5.228-2.472,10.505-4.842,15.785-7.2a1.711,1.711,0,0,0,1.24-1.88c-.09-2.6-.052-5.214-.016-7.821A2.585,2.585,0,0,0,25.82,74.2a35.68,35.68,0,0,1-8.96-24.186q-.016-10.455,0-20.909A28.909,28.909,0,0,1,40.625.412,22.611,22.611,0,0,1,44.952,0c5.311.03,10.621-.013,15.932.017C74.055.092,86.092,10.3,88.393,23.3a36.19,36.19,0,0,1,.574,6.421c-.018,6.719-.008,13.438-.006,20.157A35.89,35.89,0,0,1,79.992,74.22a2.418,2.418,0,0,0-.678,1.739c.038,2.707.066,5.416-.013,8.122a1.535,1.535,0,0,0,1.122,1.655c5.093,2.288,10.193,4.56,15.245,6.936,6.668,3.136,10.092,8.462,10.123,15.827.057,13.939,0,27.879.043,41.819a4.748,4.748,0,0,1-1.218,3.74h-2.1c-.471-.674-1.288-1.137-1.28-2.1.013-14.78.126-29.562-.019-44.341a11.388,11.388,0,0,0-6.954-10.571c-4.894-2.34-9.87-4.508-14.793-6.787-.665-.308-1.024-.3-1.441.369A6.867,6.867,0,0,1,73.7,93.608a75.014,75.014,0,0,1-16.4,2.431c-2.571.1-2.109-.058-2.111,2.109q-.018,26.081,0,52.163c0,.547.063,1.094.1,1.641a4.034,4.034,0,0,1-1.473,2.106h-1.8a3.963,3.963,0,0,1-1.474-2.106,8.028,8.028,0,0,0,.1-.889q.007-26.834.03-53.667c0-1.119-.434-1.327-1.393-1.344A73.358,73.358,0,0,1,34.43,94.188c-2.649-.6-5.311-1.165-6.811-3.808-.452-.8-.964-.237-1.394-.043-4.673,2.109-9.333,4.244-14,6.37-5.126,2.336-7.654,6.359-7.685,11.957s-.013,11.224-.005,16.837q.017,13.227.048,26.454c.011.967-.822,1.42-1.277,2.1H2.1c-2.1,0-2.1,0-2.1-2.106.494-.443.29-1.032.29-1.556q.017-21.012,0-42.024c0-.522.219-1.113-.29-1.551ZM38.482,48.13c1.2.022,2.4,0,3.593.078a5.5,5.5,0,0,0,4.657-1.936c.4-.443.837-.861,1.276-1.271,2.845-2.663,7.078-2.876,9.677-.009A9.18,9.18,0,0,0,66.2,48.206c.592-.072,1.2-.01,1.8-.041a7.08,7.08,0,0,0,6.6-6.555c.43-2.128-.016-4.284.2-6.411.149-1.482-.378-1.872-1.812-1.792-2.123.12-2.573-.3-3.1-2.193.477-1.791,1.1-2.292,2.941-2.3,3-.011,6,0,9,0,2.614,0,2.614,0,2.379-2.678C83.172,14.452,72.78,4.722,60.958,4.547,55.607,4.468,50.253,4.5,44.9,4.552a16.833,16.833,0,0,0-6.418,1.179.48.48,0,0,0-.149,0A24.29,24.29,0,0,0,21.4,28.1c-.027.722.28.82.875.816q8.1-.047,16.207-.063l23.058.056c2.2.005,2.635.3,3.382,2.336-.395,1.7-1.482,2.23-3.184,2.22-9.7-.055-19.393,0-29.089-.062-1.367-.009-1.706.388-1.629,1.681.11,1.844-.017,3.7.039,5.551.135,4.477,3.25,7.6,7.423,7.492M51.109,72.184c12.324,1.493,24.127-9.4,23.577-21.992-3.2,2.719-6.971,2.523-10.736,2.575a10.625,10.625,0,0,1-8.265-3.483c-2.333-2.45-3.2-2.446-5.514-.035a10.435,10.435,0,0,1-7.192,3.528c-.85-.016-1.7-.09-2.549-.039a13.82,13.82,0,0,1-9.11-2.275c-.049-.034-.166.029-.269.05a21.515,21.515,0,0,0,5.367,14.276,20.65,20.65,0,0,0,14.692,7.4m-5.594,3.677c0,4.945.014,9.752-.014,14.559,0,.824.368.993,1.084,1.033A83.227,83.227,0,0,0,72.19,89.345c1.932-.5,2.572-1.28,2.585-3.285.021-3.459-.037-6.918.032-10.376.021-1.062-.384-1.249-1.312-1.234-2.9.045-5.81.02-8.715.014a3.6,3.6,0,0,0-1.463.263,26.916,26.916,0,0,1-17.8,1.136m-4.535,6.83c0-2.4-.027-4.807.015-7.209.014-.789-.244-1.043-1.029-1.032q-3.9.058-7.8,0c-.806-.011-1.157.192-1.146,1.088.045,3.6.008,7.209.024,10.814a2.735,2.735,0,0,0,2.282,2.909c2.13.51,4.271.957,6.422,1.373C41,90.878,41.016,90.394,41,89.45c-.048-2.252-.016-4.506-.016-6.759M35,69.842a28.138,28.138,0,0,1-5.137-6.533c-2.9-5.1-3.506-10.643-3.373-16.373.092-4,.018-3.976-4-3.873-.842.021-1.127.243-1.112,1.106a92.1,92.1,0,0,0,.29,10.215,30.766,30.766,0,0,0,6.511,15.541c.223.28.345.8.9.536,1.8-.849,3.749-.387,5.921-.619m35.814,0c2.158.241,4.1-.232,5.9.615.549.258.676-.228.91-.51a29.444,29.444,0,0,0,3.525-5.539c2.837-5.6,3.432-11.6,3.289-17.758-.083-3.57-.018-3.486-3.573-3.607-1.43-.049-1.6.465-1.585,1.691.062,3.845.233,7.712-.637,11.5a26.579,26.579,0,0,1-7.827,13.607M23.774,38.554c2.73,0,2.73,0,2.73-2.687v-.15c0-2.271,0-2.271-2.273-2.271-2.827,0-2.827,0-2.827,2.783,0,2.325,0,2.325,2.37,2.325m58.128,0c2.515,0,2.515,0,2.515-2.484v-.15c0-2.478,0-2.478-2.538-2.478-2.567,0-2.567,0-2.567,2.58,0,2.531,0,2.531,2.59,2.531" transform="translate(0 0)" fill="#0b0c0c"/>
    <path id="Trazado_501637" data-name="Trazado 501637" d="M59.056,422.187h-1.8a3.465,3.465,0,0,1-1.529-2.1c.02-.549.057-1.1.057-1.647q.005-15.768.006-31.536c0-1.985.826-2.989,2.371-2.949,1.475.038,2.15.95,2.151,2.955.005,6.758-.006,13.516,0,20.273.007,4.3.041,8.606.063,12.909-.034.956-.784,1.46-1.321,2.1" transform="translate(-38.915 -268.13)" fill="#0b0c0c"/>
    <path id="Trazado_501638" data-name="Trazado 501638" d="M282.764,422.187h-1.8c-.541-.637-1.287-1.144-1.324-2.1.023-.548.065-1.1.065-1.645q.006-15.844.006-31.688c0-1.867.709-2.768,2.148-2.805,1.5-.039,2.366.944,2.372,2.8.016,5.056,0,10.112.008,15.168q.017,9.083.058,18.167a3.492,3.492,0,0,1-1.528,2.105" transform="translate(-195.283 -268.13)" fill="#0b0c0c"/>
    <path id="Trazado_501639" data-name="Trazado 501639" d="M66.771,505.837c.537-.639,1.287-1.144,1.321-2.1l29.07-.006a3.963,3.963,0,0,0,1.474,2.106Z" transform="translate(-46.629 -351.78)" fill="#fdfcfc"/>
    <path id="Trazado_501640" data-name="Trazado 501640" d="M208.93,503.737c.038.955.783,1.463,1.324,2.1H178.388a4.033,4.033,0,0,0,1.473-2.106l29.069.006" transform="translate(-124.577 -351.78)" fill="#fdfcfc"/>
    <path id="Trazado_501641" data-name="Trazado 501641" d="M24.465,503.734a3.465,3.465,0,0,0,1.529,2.1H10.963c.455-.683,1.289-1.135,1.277-2.1l12.225,0" transform="translate(-7.656 -351.782)" fill="#fdfcfc"/>
    <path id="Trazado_501642" data-name="Trazado 501642" d="M290.005,505.838a3.493,3.493,0,0,0,1.528-2.105l12.222,0c-.008.966.809,1.428,1.28,2.1Z" transform="translate(-202.524 -351.781)" fill="#fdfcfc"/>
    <path id="Trazado_501643" data-name="Trazado 501643" d="M0,354.119c.508.438.289,1.029.29,1.551q.018,21.012,0,42.023c0,.524.2,1.113-.29,1.556Z" transform="translate(0 -247.298)" fill="#1e1d1d"/>
    <path id="Trazado_501644" data-name="Trazado 501644" d="M228.929,360.449l-12.223,0q-.029-9.083-.057-18.166c-.01-5.056.008-10.112-.008-15.168-.006-1.853-.869-2.836-2.372-2.8-1.439.037-2.147.938-2.147,2.805q-.009,15.843-.006,31.687c0,.548-.043,1.1-.066,1.645l-29.068-.006c-.033-.547-.1-1.094-.1-1.641q-.008-26.081,0-52.162c0-2.167-.46-2.01,2.111-2.109a75.012,75.012,0,0,0,16.4-2.431,6.864,6.864,0,0,0,4.321-2.984c.416-.673.776-.677,1.44-.369,4.923,2.28,9.9,4.448,14.793,6.787a11.388,11.388,0,0,1,6.954,10.572c.145,14.779.032,29.56.019,44.341" transform="translate(-127.698 -208.494)" fill="#f6f6f6"/>
    <path id="Trazado_501645" data-name="Trazado 501645" d="M27.284,360.227l-12.225,0q-.024-13.227-.048-26.454c-.007-5.612-.025-11.225.005-16.837s2.559-9.622,7.685-11.957c4.665-2.126,9.325-4.262,14-6.37.43-.194.943-.753,1.394.043,1.5,2.643,4.162,3.213,6.811,3.808a73.337,73.337,0,0,0,14.837,1.863c.959.017,1.4.225,1.393,1.344q-.055,26.833-.03,53.667a8.024,8.024,0,0,1-.1.89l-29.07.006c-.022-4.3-.056-8.606-.063-12.909-.011-6.758,0-13.516,0-20.273,0-2.005-.677-2.917-2.151-2.955-1.546-.04-2.37.963-2.372,2.949q-.009,15.768-.005,31.536c0,.549-.037,1.1-.057,1.647m19.2-21.977c1.6,0,3.205.042,4.806-.009a4.606,4.606,0,0,0,4.658-4.524,50.063,50.063,0,0,0-.043-5.556,4.425,4.425,0,0,0-4.1-4.052c-.945-.06-2.123.265-2.779-.188-.74-.511-.163-1.778-.312-2.706a2.037,2.037,0,0,0-1.942-1.924,2.078,2.078,0,0,0-2.4,1.564,5.991,5.991,0,0,0-.143,2.236c.043.79-.23,1.1-1.021,1.005a9.32,9.32,0,0,0-1.2-.008,4.712,4.712,0,0,0-5.021,4.931c-.036,1.452-.047,2.908,0,4.359a4.792,4.792,0,0,0,4.99,4.872c1.5.024,3,0,4.505,0" transform="translate(-10.474 -208.275)" fill="#f6f6f6"/>
    <path id="Trazado_501646" data-name="Trazado 501646" d="M154.011,41.662c-.746-2.033-1.178-2.331-3.382-2.336l-23.058-.056q0-11.564,0-23.127a16.838,16.838,0,0,1,6.418-1.179c5.352-.057,10.706-.084,16.058-.005,11.822.175,22.214,9.905,23.249,21.688.235,2.678.235,2.678-2.379,2.678-3,0-6-.008-9,0-1.841.007-2.464.508-2.941,2.3l-4.961.033" transform="translate(-89.089 -10.413)" fill="#e8e8e8"/>
    <path id="Trazado_501647" data-name="Trazado 501647" d="M132.5,162.612a10.436,10.436,0,0,0,7.193-3.528c2.315-2.411,3.181-2.415,5.514.035a10.625,10.625,0,0,0,8.265,3.483c3.765-.052,7.532.144,10.736-2.575.55,12.6-11.253,23.484-23.577,21.992a.951.951,0,0,0-.544-.835,21.868,21.868,0,0,1-6.487-5.4,23.33,23.33,0,0,1-5.386-12.118c-.1-.772.135-.823.732-.862,1.184-.077,2.39.246,3.554-.191" transform="translate(-89.524 -109.835)" fill="#e8e8e8"/>
    <path id="Trazado_501648" data-name="Trazado 501648" d="M150.854,248.216a26.917,26.917,0,0,0,17.8-1.136,3.6,3.6,0,0,1,1.463-.263c2.9.006,5.81.031,8.715-.014.928-.014,1.333.173,1.312,1.235-.069,3.457-.011,6.917-.032,10.376-.012,2.005-.653,2.788-2.585,3.285a83.216,83.216,0,0,1-25.605,2.109c-.716-.04-1.088-.209-1.084-1.033.028-4.807.014-9.614.014-14.559" transform="translate(-105.339 -172.354)" fill="#e8e8e8"/>
    <path id="Trazado_501649" data-name="Trazado 501649" d="M136.713,103.515l4.961-.033c.526,1.9.976,2.313,3.1,2.193,1.434-.081,1.961.309,1.812,1.791-.214,2.127.233,4.283-.2,6.411-.018-.3-.047-.6-.051-.9-.027-2.364.323-2.188-2.146-2.189q-14.62-.006-29.241,0a4.708,4.708,0,0,0-4.677,4.652c-.012,1.651,0,3.3,0,4.953-4.173.106-7.288-3.014-7.423-7.492-.056-1.849.072-3.706-.038-5.551-.077-1.293.262-1.69,1.629-1.681,9.7.066,19.393.007,29.089.062,1.7.01,2.789-.52,3.184-2.22" transform="translate(-71.791 -72.266)" fill="#adce88"/>
    <path id="Trazado_501650" data-name="Trazado 501650" d="M88.023,18.977q0,11.564,0,23.127-8.1.028-16.207.063c-.6,0-.9-.095-.875-.816A24.291,24.291,0,0,1,87.873,18.973a.49.49,0,0,1,.149,0" transform="translate(-49.54 -13.246)" fill="#e8e8e8"/>
    <path id="Trazado_501651" data-name="Trazado 501651" d="M127.556,137.307c0-1.651-.013-3.3,0-4.953a4.707,4.707,0,0,1,4.677-4.652q14.62-.012,29.241,0c2.469,0,2.119-.174,2.147,2.189,0,.3.033.6.05.9a7.081,7.081,0,0,1-6.6,6.554c-.6.031-1.206-.031-1.8.041a9.181,9.181,0,0,1-8.517-3.214c-2.6-2.867-6.831-2.654-9.677.009-.438.41-.872.827-1.275,1.271a5.5,5.5,0,0,1-4.657,1.936c-1.194-.08-2.4-.055-3.593-.078" transform="translate(-89.074 -89.177)" fill="#c9da88"/>
    <path id="Trazado_501652" data-name="Trazado 501652" d="M112.786,255.05c0,2.253-.032,4.507.015,6.759.02.944,0,1.428-1.251,1.186-2.151-.416-4.293-.863-6.422-1.373a2.735,2.735,0,0,1-2.282-2.909c-.017-3.6.02-7.21-.024-10.814-.011-.9.34-1.1,1.146-1.088q3.9.052,7.8,0c.785-.012,1.043.243,1.029,1.032-.042,2.4-.015,4.806-.015,7.209" transform="translate(-71.806 -172.358)" fill="#e8e8e8"/>
    <path id="Trazado_501653" data-name="Trazado 501653" d="M84.489,169.47c-2.172.232-4.118-.23-5.921.619-.558.262-.68-.256-.9-.536a30.765,30.765,0,0,1-6.511-15.541,92.1,92.1,0,0,1-.29-10.215c-.016-.864.27-1.085,1.111-1.107,4.023-.1,4.1-.127,4,3.873-.132,5.73.478,11.278,3.373,16.373a28.15,28.15,0,0,0,5.137,6.533" transform="translate(-49.487 -99.628)" fill="#e8e8e8"/>
    <path id="Trazado_501654" data-name="Trazado 501654" d="M234.761,169.48a26.578,26.578,0,0,0,7.827-13.607c.87-3.79.7-7.656.637-11.5-.02-1.226.155-1.74,1.585-1.691,3.555.121,3.49.037,3.573,3.607.143,6.159-.452,12.161-3.289,17.758a29.453,29.453,0,0,1-3.526,5.539c-.234.283-.361.769-.91.51-1.8-.847-3.74-.373-5.9-.614" transform="translate(-163.945 -99.639)" fill="#e8e8e8"/>
    <path id="Trazado_501655" data-name="Trazado 501655" d="M114.861,169.577c-1.163.436-2.37.114-3.554.191-.6.039-.831.089-.732.862a23.33,23.33,0,0,0,5.386,12.118,21.868,21.868,0,0,0,6.487,5.4.951.951,0,0,1,.544.835,20.651,20.651,0,0,1-14.692-7.4,21.518,21.518,0,0,1-5.367-14.276c.1-.021.22-.085.269-.05a13.82,13.82,0,0,0,9.11,2.275c.846-.051,1.7.023,2.549.039" transform="translate(-71.883 -116.801)" fill="#e8e8e8"/>
    <path id="Trazado_501656" data-name="Trazado 501656" d="M73.325,115.985c-2.37,0-2.37,0-2.37-2.325,0-2.783,0-2.783,2.827-2.783,2.273,0,2.273,0,2.273,2.271v.149c0,2.687,0,2.687-2.73,2.687" transform="translate(-49.551 -77.431)" fill="#e8e8e8"/>
    <path id="Trazado_501657" data-name="Trazado 501657" d="M265.514,115.982c-2.59,0-2.59,0-2.59-2.531,0-2.58,0-2.58,2.567-2.58,2.538,0,2.538,0,2.538,2.478v.15c0,2.484,0,2.484-2.515,2.484" transform="translate(-183.613 -77.427)" fill="#e8e8e8"/>
    <path id="Trazado_501658" data-name="Trazado 501658" d="M97.326,386.95c-1.5,0-3,.022-4.505,0a4.792,4.792,0,0,1-4.99-4.872c-.051-1.451-.039-2.907,0-4.359a4.712,4.712,0,0,1,5.021-4.931,9.314,9.314,0,0,1,1.2.008c.79.1,1.063-.216,1.02-1.006a6,6,0,0,1,.143-2.236,2.078,2.078,0,0,1,2.4-1.564,2.037,2.037,0,0,1,1.942,1.924c.149.928-.428,2.195.312,2.706.656.453,1.834.128,2.779.188a4.425,4.425,0,0,1,4.1,4.052,50.06,50.06,0,0,1,.043,5.556,4.606,4.606,0,0,1-4.658,4.524c-1.6.051-3.2.009-4.806.011m.068-9.638h-1.2c-4.012,0-3.987,0-3.864,4.024.026.843.254,1.142,1.116,1.111,1.651-.06,3.306-.017,4.958-.017,3.983,0,3.983,0,3.9-3.983a1.958,1.958,0,0,1,0-.3c.09-.66-.2-.866-.848-.846-1.351.041-2.7.012-4.057.012" transform="translate(-61.313 -256.972)" fill="#0b0c0c"/>
    <path id="Trazado_501659" data-name="Trazado 501659" d="M107.8,398.9c1.352,0,2.706.029,4.057-.012.648-.019.938.187.848.847a1.958,1.958,0,0,0,0,.3c.087,3.983.087,3.983-3.9,3.983-1.653,0-3.307-.042-4.958.018-.862.031-1.091-.268-1.116-1.111-.122-4.025-.148-4.024,3.864-4.024h1.2" transform="translate(-71.72 -278.563)" fill="#f6f6f5"/>
  </g>
</svg>
