<svg xmlns="http://www.w3.org/2000/svg" xmlns:xlink="http://www.w3.org/1999/xlink" width="130" height="130" viewBox="0 0 130 130">
  <defs>
    <clipPath id="clip-path">
      <rect id="Rect치ngulo_361559" data-name="Rect치ngulo 361559" width="92.522" height="92.69" fill="none"/>
    </clipPath>
  </defs>
  <g id="Grupo_1084171" data-name="Grupo 1084171" transform="translate(-995 -681.785)">
    <g id="Grupo_86327" data-name="Grupo 86327" transform="translate(0 -6824.215)">
      <circle id="Elipse_4924" data-name="Elipse 4924" cx="53" cy="53" r="53" transform="translate(1007 7521)" fill="#eff5d6"/>
      <g id="Grupo_86323" data-name="Grupo 86323" transform="translate(675 -27)">
        <rect id="Rect치ngulo_34475" data-name="Rect치ngulo 34475" width="130" height="130" transform="translate(320 7533)" fill="none"/>
      </g>
    </g>
    <g id="Grupo_1083936" data-name="Grupo 1083936" transform="translate(1016.983 691.258)">
      <g id="Grupo_1083935" data-name="Grupo 1083935" clip-path="url(#clip-path)">
        <path id="Trazado_716702" data-name="Trazado 716702" d="M0,74.6V17.927a2.874,2.874,0,0,1,1.326-1.012q18.229-6.894,36.442-13.83c2.646-1.008,5.339-1.9,7.914-3.085H46.84c.077.174.251.17.4.226Q69.042,8.5,90.847,16.773c1.507.572,1.676.8,1.676,2.377V73.5c0,1.585-.174,1.848-1.644,2.408q-21.746,8.279-43.49,16.562a2.916,2.916,0,0,1-2.225,0Q23.385,84.081,1.589,75.734A3.132,3.132,0,0,1,0,74.6M89.438,20.775c-.237.081-.354.117-.468.161Q68.863,28.567,48.75,36.183c-.68.257-.971.508-.97,1.316q.049,25.2.025,50.4v.923a1.67,1.67,0,0,0,.99-.24q19.79-7.528,39.582-15.051a1.379,1.379,0,0,0,1.086-1.554q-.049-25.009-.024-50.018Zm-86.285.01a1.8,1.8,0,0,0-.054.224Q3.092,46.69,3.07,72.371c0,.557.285.7.685.85Q20.9,79.791,38.034,86.365c2.2.843,4.4,1.689,6.622,2.544a3.015,3.015,0,0,0,.059-.373q0-25.682.022-51.363c0-.6-.3-.75-.735-.916-4.068-1.536-8.131-3.085-12.2-4.615-.285-.107-.565-.336-.957-.177V32.5c0,7.42-.042,14.841.033,22.26.016,1.608-.9,2.607-2.732,1.867-3.2-1.289-6.438-2.494-9.659-3.735-1.338-.516-1.521-.781-1.522-2.192,0-7.9-.015-15.8.022-23.706a1.175,1.175,0,0,0-.96-1.359c-.975-.3-1.916-.713-2.873-1.074l-10-3.776M5.929,18.51c3.994,1.513,7.726,2.912,11.441,4.351A2.075,2.075,0,0,0,19,22.844q10.47-4.008,20.958-7.969a2.506,2.506,0,0,1,1.859-.2q5.641,2.149,11.283,4.3a1.494,1.494,0,0,1,1.071,1.442,1.548,1.548,0,0,1-1.079,1.539c-.117.051-.238.093-.357.138q-6.988,2.643-13.975,5.287c-1.522.576-3.039,1.163-4.705,1.8,3.865,1.463,7.547,2.835,11.206,4.261a2.558,2.558,0,0,0,2.009.011Q63.66,27.2,80.068,21c2.1-.8,4.2-1.606,6.295-2.407-.093-.339-.336-.293-.494-.353Q66.425,10.844,46.981,3.455a2.019,2.019,0,0,0-1.559.055q-13.706,5.208-27.416,10.4c-3.936,1.494-7.869,3-12.077,4.6m14.119,8.676v1.174q0,9.492.006,18.983c0,.926-.367,2.069.144,2.718.5.632,1.622.78,2.481,1.114,1.658.643,3.324,1.267,5.078,1.934V46.03q0-7.564-.009-15.129c0-.311.195-.716-.3-.9-2.445-.923-4.886-1.856-7.4-2.814M22.562,24.8c2.2.837,4.231,1.582,6.238,2.392a2.2,2.2,0,0,0,1.738-.008c5.581-2.134,11.171-4.246,16.754-6.376.236-.09.556-.092.727-.448-1.469-.563-2.945-1.006-4.305-1.682a5.169,5.169,0,0,0-5.138.021,15.316,15.316,0,0,1-1.963.761L22.562,24.8" transform="translate(-0.001)" fill="#090908"/>
        <path id="Trazado_716703" data-name="Trazado 716703" d="M288.9,107.505v1.187q0,25.009.024,50.018a1.379,1.379,0,0,1-1.086,1.553q-19.8,7.494-39.582,15.052a1.672,1.672,0,0,1-.99.24v-.923q0-25.2-.025-50.4c0-.807.29-1.059.97-1.316q20.119-7.6,40.221-15.247c.114-.043.231-.079.468-.161m-24.662,42.419a1.466,1.466,0,0,0-1.661-1.549,6,6,0,0,0-1.364.422c-2.745,1.032-5.491,2.064-8.228,3.116a1.571,1.571,0,0,0-1.051,1.99,1.52,1.52,0,0,0,1.926.985c3.138-1.167,6.262-2.369,9.385-3.574a1.446,1.446,0,0,0,.993-1.39m-10.806,11.233a5.73,5.73,0,0,0,.581-.161c3.041-1.152,6.085-2.295,9.116-3.471a1.535,1.535,0,0,0,1.051-1.979,1.605,1.605,0,0,0-2.143-.913c-.963.336-1.9.736-2.857,1.1-2.056.782-4.115,1.555-6.171,2.338a1.524,1.524,0,0,0-1.108,1.785,1.551,1.551,0,0,0,1.53,1.3m10.806,1.1a1.466,1.466,0,0,0-1.669-1.54,6.084,6.084,0,0,0-1.363.423c-2.745,1.032-5.49,2.065-8.228,3.118a1.57,1.57,0,0,0-1.042,1.994,1.522,1.522,0,0,0,1.931.974c3.137-1.167,6.262-2.368,9.385-3.573a1.44,1.44,0,0,0,.986-1.4m9.248-15.9a1.5,1.5,0,0,0-1.971-1.454c-1.06.343-2.1.756-3.132,1.176a1.527,1.527,0,0,0-1.026,1.985,1.561,1.561,0,0,0,2.052.909c1.057-.354,2.1-.754,3.128-1.189a1.452,1.452,0,0,0,.948-1.427m-.011,5.8a1.462,1.462,0,0,0-1.91-1.1c-1.092.347-2.162.771-3.223,1.206a1.531,1.531,0,1,0,1.016,2.888c1.089-.359,2.162-.772,3.217-1.221.6-.255.935-.76.9-1.769m-4.5,9.267a17.174,17.174,0,0,0,4-1.619,1.3,1.3,0,0,0,.382-1.728,1.359,1.359,0,0,0-1.622-.9,29.673,29.673,0,0,0-3.741,1.44,1.346,1.346,0,0,0-.634,1.743,1.545,1.545,0,0,0,1.614,1.064" transform="translate(-199.467 -86.73)" fill="#ffdfbb"/>
        <path id="Trazado_716704" data-name="Trazado 716704" d="M15.967,107.56l10,3.776c.957.362,1.9.773,2.873,1.074a1.175,1.175,0,0,1,.96,1.359c-.037,7.9-.023,15.8-.022,23.706,0,1.411.183,1.676,1.521,2.191,3.221,1.242,6.457,2.446,9.659,3.735,1.836.74,2.749-.259,2.733-1.867-.075-7.419-.033-14.84-.033-22.26v-1.037c.392-.158.672.07.958.177,4.07,1.53,8.133,3.079,12.2,4.615.439.166.736.312.735.916q-.034,25.682-.022,51.363a2.98,2.98,0,0,1-.059.373c-2.226-.855-4.424-1.7-6.622-2.544Q33.709,166.567,16.569,160c-.4-.153-.686-.294-.685-.85q.035-25.681.029-51.362a1.778,1.778,0,0,1,.054-.224" transform="translate(-12.815 -86.775)" fill="#e2c09a"/>
        <path id="Trazado_716705" data-name="Trazado 716705" d="M30.678,32.382c4.208-1.6,8.141-3.1,12.076-4.6q13.708-5.2,27.416-10.4a2.019,2.019,0,0,1,1.559-.055q19.437,7.409,38.887,14.782c.158.06.4.014.494.353-2.094.8-4.193,1.609-6.3,2.407q-16.4,6.221-32.8,12.454a2.557,2.557,0,0,1-2.009-.011c-3.66-1.427-7.341-2.8-11.206-4.261,1.666-.638,3.184-1.224,4.705-1.8Q70.5,38.6,77.485,35.962c.119-.045.24-.087.357-.138a1.548,1.548,0,0,0,1.079-1.539,1.494,1.494,0,0,0-1.071-1.442q-5.638-2.155-11.283-4.3a2.506,2.506,0,0,0-1.859.2q-10.482,3.978-20.958,7.969a2.076,2.076,0,0,1-1.632.017c-3.716-1.439-7.447-2.837-11.441-4.351" transform="translate(-24.75 -13.871)" fill="#ffd8ad"/>
        <path id="Trazado_716706" data-name="Trazado 716706" d="M103.234,140.684c2.517.958,4.958,1.891,7.4,2.814.492.186.3.59.3.9q.019,7.564.009,15.129v7.078c-1.754-.667-3.42-1.291-5.077-1.934-.86-.333-1.984-.482-2.481-1.114-.511-.649-.142-1.792-.144-2.718q-.017-9.491-.006-18.983Z" transform="translate(-83.186 -113.498)" fill="#ffd947"/>
        <path id="Trazado_716707" data-name="Trazado 716707" d="M116.751,99.993,130.8,94.654a15.315,15.315,0,0,0,1.963-.761,5.169,5.169,0,0,1,5.138-.021c1.36.676,2.836,1.118,4.305,1.682-.171.356-.491.357-.727.448-5.583,2.13-11.173,4.241-16.754,6.376a2.2,2.2,0,0,1-1.738.008c-2.007-.81-4.041-1.555-6.238-2.392" transform="translate(-94.19 -75.189)" fill="#ffd947"/>
        <path id="Trazado_716708" data-name="Trazado 716708" d="M283.495,320.5a1.446,1.446,0,0,1-.993,1.391c-3.123,1.2-6.247,2.407-9.385,3.574a1.52,1.52,0,0,1-1.926-.984,1.571,1.571,0,0,1,1.051-1.99c2.738-1.052,5.483-2.084,8.228-3.116a6.015,6.015,0,0,1,1.364-.422,1.466,1.466,0,0,1,1.661,1.549" transform="translate(-218.72 -257.308)" fill="#0c0c0b"/>
        <path id="Trazado_716709" data-name="Trazado 716709" d="M272.776,357.435a1.551,1.551,0,0,1-1.53-1.3,1.525,1.525,0,0,1,1.109-1.785c2.055-.783,4.115-1.556,6.17-2.338.954-.363,1.894-.763,2.857-1.1a1.606,1.606,0,0,1,2.143.913,1.536,1.536,0,0,1-1.052,1.979c-3.031,1.176-6.075,2.319-9.116,3.471a5.78,5.78,0,0,1-.581.161" transform="translate(-218.808 -283.007)" fill="#0c0c0b"/>
        <path id="Trazado_716710" data-name="Trazado 716710" d="M283.494,384.337a1.44,1.44,0,0,1-.986,1.4c-3.123,1.206-6.248,2.407-9.385,3.573a1.522,1.522,0,0,1-1.931-.974,1.57,1.57,0,0,1,1.042-1.994c2.737-1.053,5.483-2.086,8.228-3.118a6.083,6.083,0,0,1,1.363-.423,1.465,1.465,0,0,1,1.669,1.54" transform="translate(-218.719 -308.814)" fill="#0c0c0b"/>
        <path id="Trazado_716711" data-name="Trazado 716711" d="M357.075,302.164a1.453,1.453,0,0,1-.948,1.428c-1.027.435-2.071.835-3.129,1.188a1.561,1.561,0,0,1-2.052-.909,1.527,1.527,0,0,1,1.026-1.985c1.033-.42,2.072-.833,3.132-1.176a1.5,1.5,0,0,1,1.971,1.454" transform="translate(-283.052 -242.536)" fill="#0e0d0c"/>
        <path id="Trazado_716712" data-name="Trazado 716712" d="M357.065,333.687c.036,1.009-.3,1.514-.9,1.769-1.055.449-2.129.862-3.217,1.221a1.531,1.531,0,1,1-1.017-2.887c1.061-.435,2.131-.859,3.223-1.206a1.462,1.462,0,0,1,1.91,1.1" transform="translate(-283.054 -268.256)" fill="#0e0d0c"/>
        <path id="Trazado_716713" data-name="Trazado 716713" d="M352.587,368.586a1.545,1.545,0,0,1-1.614-1.064,1.346,1.346,0,0,1,.634-1.743,29.675,29.675,0,0,1,3.741-1.44,1.359,1.359,0,0,1,1.622.9,1.3,1.3,0,0,1-.382,1.728,17.174,17.174,0,0,1-4,1.619" transform="translate(-283.077 -293.888)" fill="#0e0d0c"/>
      </g>
    </g>
  </g>
</svg>
