<svg id="Grupo_1083990" data-name="Grupo 1083990" xmlns="http://www.w3.org/2000/svg" xmlns:xlink="http://www.w3.org/1999/xlink" width="84.219" height="90.026" viewBox="0 0 84.219 90.026">
  <defs>
    <clipPath id="clip-path">
      <rect id="Rectángulo_361647" data-name="Rectángulo 361647" width="84.219" height="90.026" fill="none"/>
    </clipPath>
  </defs>
  <g id="Grupo_1083990-2" data-name="Grupo 1083990" clip-path="url(#clip-path)">
    <path id="Trazado_716737" data-name="Trazado 716737" d="M3.38,90.026c-.119-.324-.461-.242-.69-.357A4.346,4.346,0,0,1,.014,85.612q-.03-13.6,0-27.195a4.424,4.424,0,0,1,4.415-4.4c3.25-.016,6.5-.031,9.75.016.728.011.85-.205.848-.879q-.031-20.49-.015-40.98a4.314,4.314,0,0,1,4.639-4.68c3.282,0,6.563-.011,9.844.01a1.023,1.023,0,0,0,1.079-.618,4.312,4.312,0,0,1,4.408-2.378,1.4,1.4,0,0,0,1.637-1.013A5.539,5.539,0,0,1,42.19,0a5.607,5.607,0,0,1,5.3,3.635c.268.621.515.934,1.254.869a4.519,4.519,0,0,1,4.883,2.684c.216.455.578.292.885.293,3.344.012,6.688,0,10.032.009a4.287,4.287,0,0,1,4.472,4.472q.008,5.626,0,11.253V24.1l.157.031c.583-1.218,1.171-2.434,1.746-3.655a3.181,3.181,0,0,1,2.19-1.882c.421-.1.545-.348.692-.656.59-1.235,1.17-2.474,1.776-3.7a4.521,4.521,0,1,1,8.156,3.9c-.336.735-.688,1.464-1.04,2.192-.5,1.037-1.2,1.987-.59,3.286a2.33,2.33,0,0,1-.279,1.984c-.292.549-.537,1.123-.8,1.685a6.618,6.618,0,0,0-.8,1.775c-.1.741.845.8,1.229,1.293a4.425,4.425,0,0,1,.754,4.815c-1.812,3.96-3.721,7.875-5.612,11.8a1.469,1.469,0,0,1-2.069.857,1.52,1.52,0,0,1-.632-2.226q2.657-5.607,5.348-11.2a1.9,1.9,0,0,0,.216-1.522c-.106-.291-.271-.641-.583-.687-.349-.052-.364.367-.474.6q-2.931,6.1-5.84,12.208c-1.073,2.245-2.134,4.5-3.226,6.732a3.133,3.133,0,0,0-.324,1.432q.014,13.129.006,26.257A4.31,4.31,0,0,1,64.4,84.023q-13.689,0-27.377-.015c-.757,0-1.1.082-1.034.976.2,2.614-1.154,4.21-3.543,5.042ZM54.764,67.138q2.205-1.78,4.412-3.559c.482-.388.57-.67-.113-.96-1.029-.437-2.028-.944-3.037-1.424-.306-.146-.652-.277-.674.228-.085,1.919-.68,3.785-.582,5.721l-.049.074.043-.079m5.245-.287c-.351.28-.586.462-.815.65q-2.713,2.231-5.423,4.466a1.579,1.579,0,0,1-1.894.267,1.487,1.487,0,0,1-.722-1.676c.351-2.754.644-5.516,1.052-8.261.108-.73-.063-.8-.7-.8-4.032.026-8.063.014-12.1.012-1.21,0-1.87-.512-1.9-1.457-.029-.985.653-1.543,1.9-1.543,4.188,0,8.376-.013,12.564.014a1.046,1.046,0,0,0,1.122-.7c2.206-4.664,4.447-9.312,6.675-13.966a2.2,2.2,0,0,0,.248-.979q-.015-12.332-.012-24.664A1.532,1.532,0,0,0,58.268,16.5c-1.594-.013-3.188.01-4.782-.012a1.426,1.426,0,0,0-1.078.409,4.15,4.15,0,0,1-2.9,1.1q-7.5,0-15,0a3.068,3.068,0,0,1-2.2-.632c-1-1-2.176-.874-3.372-.871-1.031,0-2.063-.006-3.094,0-1.271.01-1.828.555-1.828,1.82Q24.006,35.808,24,53.3c0,.565.116.74.711.729,2.187-.04,4.375-.018,6.563-.015a4.492,4.492,0,0,1,4.74,4.763c0,5.1.017,10.191-.017,15.286-.005.747.125.989.94.981C41.715,75,46.5,75.02,51.279,75.02c2.344,0,4.688.008,7.032,0,.995-.005,1.663-.5,1.682-1.384.048-2.205.016-4.412.016-6.78m-27,5.262q0-6.564,0-13.127c0-1.432-.547-1.967-1.988-1.972-1.531,0-3.064.036-4.593-.017-.722-.025-.945.161-.937.916.041,3.844.021,7.689.018,11.533,0,2.606-2.119,4.122-4.43,2.913a6.164,6.164,0,0,0-6.189.024c-2.275,1.15-4.38-.351-4.382-2.9,0-3.844-.027-7.689.019-11.533.01-.806-.231-.989-.992-.958-1.5.061-3,.015-4.5.019s-2.028.525-2.029,2.024q0,12.987,0,25.973c0,1.489.533,2.012,2.043,2.012q12.937,0,25.875,0c1.569,0,2.085-.511,2.086-2.064q0-6.423,0-12.846M61.56,60.472c.372.084.375-.274.461-.455Q68.9,45.66,75.773,31.3c.225-.469.181-.692-.294-.922q-2.1-1.014-4.164-2.1c-.448-.238-.661-.251-.907.265Q63.54,42.956,56.626,57.354c-.264.551-.105.741.379.96,1.386.627,2.752,1.3,4.126,1.949.14.066.279.136.429.209M18.009,32.73v19.4c0,1.878,0,1.829,1.892,1.9.873.032,1.136-.154,1.133-1.092q-.057-17.434-.022-34.869A4.468,4.468,0,0,1,25.557,13.5c.75-.005,1.5,0,2.249,0,2.234,0,2.2,0,2.224-2.221.007-.7-.24-.8-.854-.793-3.092.03-6.185.013-9.278.014-1.452,0-1.888.438-1.889,1.9q0,10.17,0,20.341m48.01,26.3L65.881,59c-.138.26-.285.517-.412.782a32.554,32.554,0,0,1-1.844,3.768,4.083,4.083,0,0,0-.612,2.436c.015,2.342.006,4.685.005,7.027,0,3.189-1.8,5.007-4.962,5.008H38.1c-2.095,0-2.054,0-2.11,2.054-.021.785.192.969.97.966,9.056-.03,18.112-.019,27.168-.02,1.446,0,1.888-.444,1.889-1.9q0-9.651,0-19.3ZM42.013,7.493c-2.375,0-4.75-.008-7.125,0a1.652,1.652,0,0,0-1.872,1.826q-.024,1.922,0,3.844a1.652,1.652,0,0,0,1.873,1.825q7.125.012,14.25,0c1.263,0,1.864-.631,1.874-1.92.009-1.188.006-2.375,0-3.563-.006-1.443-.588-2.013-2.063-2.015q-3.469-.005-6.938,0m-19.5,62.238c0-4.155-.01-8.149.011-12.142,0-.554-.257-.584-.683-.582-2.528.012-5.056.028-7.583-.01-.643-.01-.762.215-.759.8.023,3.808.011,7.615.016,11.423,0,.138-.064.31.187.444,1.012-.429,2.087-.837,3.117-1.336a2.611,2.611,0,0,1,2.405,0c1.037.483,2.105.9,3.289,1.4M63.018,36.637l.186.022c.885-1.855,1.764-3.714,2.662-5.563a1.97,1.97,0,0,0,.153-.907q0-9,0-18.007c0-1.2-.507-1.685-1.722-1.687q-3.985-.008-7.97,0c-2.422,0-2.4,0-2.323,2.4.017.52.2.617.658.606,1.187-.026,2.375-.01,3.563-.008a4.5,4.5,0,0,1,4.8,4.8q0,8.722,0,17.444v.894M79.129,24.242c.049-.255-.18-.327-.371-.42-1.481-.72-2.969-1.428-4.443-2.163-.373-.186-.568-.1-.731.254-.459.984-.913,1.972-1.4,2.94-.185.366-.138.527.241.707,1.516.72,3.015,1.476,4.52,2.219.16.079.363.266.48.03.58-1.169,1.13-2.353,1.707-3.567m.322-9.626a1.344,1.344,0,0,0-1.08.827c-.32.675-.619,1.36-.94,2.034-1.022,2.146-1.253,1.64,1.048,2.817.5.258.8.141,1.028-.367.5-1.107,1.047-2.193,1.538-3.3.44-1-.237-2-1.594-2.007M44.513,4.447a2.9,2.9,0,0,0-4.993,0Z" transform="translate(0 0)" fill="#070707"/>
    <path id="Trazado_716738" data-name="Trazado 716738" d="M163.626,138.04c0,2.368.032,4.575-.016,6.78-.019.88-.687,1.379-1.682,1.384-2.344.013-4.688,0-7.032,0-4.782,0-9.564-.023-14.345.023-.814.008-.945-.235-.939-.981.035-5.1.02-10.191.017-15.286a4.492,4.492,0,0,0-4.74-4.763c-2.188,0-4.376-.025-6.563.015-.6.011-.712-.164-.711-.729q.026-17.49.015-34.98c0-1.266.558-1.811,1.828-1.82,1.031-.008,2.063,0,3.094,0,1.2,0,2.373-.134,3.372.871a3.069,3.069,0,0,0,2.2.632q7.5-.008,15,0a4.151,4.151,0,0,0,2.9-1.1,1.425,1.425,0,0,1,1.077-.409c1.594.021,3.188,0,4.782.012A1.532,1.532,0,0,1,163.63,89.4q.012,12.332.012,24.664a2.2,2.2,0,0,1-.247.979c-2.229,4.654-4.469,9.3-6.675,13.966a1.047,1.047,0,0,1-1.122.7c-4.188-.027-8.376-.015-12.564-.013-1.249,0-1.931.558-1.9,1.543.028.945.688,1.456,1.9,1.457,4.032,0,8.064.013,12.1-.012.637,0,.809.067.7.8-.408,2.745-.7,5.507-1.052,8.26a1.488,1.488,0,0,0,.722,1.676,1.58,1.58,0,0,0,1.894-.267q2.708-2.237,5.423-4.466c.229-.188.463-.37.815-.65M145.641,98.189h10.031a3.989,3.989,0,0,0,.748-.024,1.521,1.521,0,0,0,1.208-1.653,1.537,1.537,0,0,0-1.745-1.322q-10.171-.006-20.342,0c-1.254,0-1.934.551-1.911,1.534.022.946.684,1.465,1.888,1.466q5.063,0,10.125,0m-10.454,6c-.937,0-1.875-.007-2.812,0-1.173.011-1.737.551-1.744,1.7q-.018,2.813,0,5.625a1.5,1.5,0,0,0,1.671,1.677q2.812.02,5.624,0a1.5,1.5,0,0,0,1.7-1.651q.023-2.859,0-5.719A1.487,1.487,0,0,0,138,104.194c-.937-.017-1.875,0-2.812,0m-.016,10.5c-1,0-2-.019-3,.006a1.444,1.444,0,0,0-1.537,1.521q-.036,2.953,0,5.906a1.46,1.46,0,0,0,1.591,1.565q2.906.028,5.811,0a1.463,1.463,0,0,0,1.588-1.57q.031-2.906,0-5.813a1.485,1.485,0,0,0-1.641-1.612c-.937-.015-1.875,0-2.812,0m15.7-4.5q3.984,0,7.968,0c1.115,0,1.772-.551,1.791-1.471.019-.953-.656-1.527-1.825-1.528q-7.922,0-15.842,0c-1.177,0-1.846.561-1.835,1.515s.677,1.483,1.87,1.484q3.937,0,7.874,0m-.043,10.5q3.984,0,7.968,0c1.171,0,1.847-.57,1.833-1.522-.014-.921-.67-1.476-1.783-1.477q-7.968-.006-15.936,0c-1.116,0-1.768.55-1.784,1.473-.017.953.658,1.524,1.827,1.526q3.937.007,7.874,0" transform="translate(-103.617 -71.189)" fill="#f2f3f3"/>
    <path id="Trazado_716739" data-name="Trazado 716739" d="M45.988,318.193q0,6.423,0,12.846c0,1.553-.518,2.064-2.086,2.064q-12.937,0-25.875,0c-1.51,0-2.042-.523-2.043-2.012q0-12.987,0-25.973c0-1.5.526-2.021,2.029-2.025s3,.043,4.5-.019c.761-.031,1,.152.992.958-.046,3.844-.024,7.689-.019,11.533,0,2.547,2.107,4.048,4.382,2.9a6.164,6.164,0,0,1,6.189-.024c2.312,1.209,4.428-.307,4.43-2.913,0-3.844.023-7.689-.018-11.533-.008-.756.215-.942.937-.916,1.529.054,3.062.013,4.593.017,1.441,0,1.987.54,1.988,1.972q.007,6.564,0,13.127M25.033,322.6c-1.465,0-2.93-.01-4.394,0a1.5,1.5,0,1,0-.007,2.994q4.348.017,8.7,0a1.5,1.5,0,1,0,.007-2.995c-1.433-.013-2.867,0-4.3,0m-.053,4.5c-1.434,0-2.867-.008-4.3,0-1.047.008-1.671.554-1.7,1.454-.026.939.619,1.54,1.7,1.543q4.3.013,8.6,0a1.491,1.491,0,0,0,1.7-1.454c.025-.937-.621-1.534-1.7-1.542-1.434-.01-2.867,0-4.3,0" transform="translate(-12.976 -246.08)" fill="#afafaf"/>
    <path id="Trazado_716740" data-name="Trazado 716740" d="M305.515,181.85c-.15-.073-.289-.143-.429-.209-1.374-.653-2.741-1.322-4.126-1.949-.485-.219-.644-.41-.38-.96q6.916-14.4,13.781-28.819c.246-.516.459-.5.907-.265q2.059,1.1,4.164,2.1c.476.23.52.453.295.922q-6.887,14.356-13.752,28.722c-.086.18-.089.538-.461.455" transform="translate(-243.955 -121.378)" fill="#ffa686"/>
    <path id="Trazado_716741" data-name="Trazado 716741" d="M95.768,77.977q0-10.17,0-20.341c0-1.458.436-1.895,1.888-1.9,3.093,0,6.185.016,9.278-.014.615-.006.862.094.854.793-.023,2.221.01,2.221-2.224,2.221-.75,0-1.5,0-2.249,0a4.468,4.468,0,0,0-4.545,4.577q-.008,17.435.022,34.869c0,.938-.26,1.124-1.133,1.092-1.89-.07-1.892-.021-1.892-1.9v-19.4" transform="translate(-77.759 -45.248)" fill="#ffd947"/>
    <path id="Trazado_716742" data-name="Trazado 716742" d="M221.421,313.779v.792q0,9.651,0,19.3c0,1.454-.442,1.9-1.889,1.9-9.056,0-18.112-.01-27.168.02-.778,0-.991-.181-.97-.966.056-2.053.015-2.054,2.11-2.054h19.954c3.16,0,4.961-1.819,4.962-5.008,0-2.343.01-4.685-.005-7.028a4.084,4.084,0,0,1,.612-2.436,32.53,32.53,0,0,0,1.844-3.768c.127-.266.274-.522.412-.782l.137.03" transform="translate(-155.402 -254.75)" fill="#ffd947"/>
    <path id="Trazado_716743" data-name="Trazado 716743" d="M184.52,39.831q3.469,0,6.938,0c1.475,0,2.057.571,2.063,2.015,0,1.188.008,2.376,0,3.563-.01,1.288-.611,1.918-1.874,1.92q-7.125.013-14.25,0a1.652,1.652,0,0,1-1.873-1.825q-.024-1.922,0-3.844a1.652,1.652,0,0,1,1.872-1.826c2.375-.011,4.75,0,7.125,0" transform="translate(-142.507 -32.338)" fill="#343333"/>
    <path id="Trazado_716744" data-name="Trazado 716744" d="M80.783,315.833c-1.183-.5-2.251-.916-3.289-1.4a2.611,2.611,0,0,0-2.405,0c-1.03.5-2.1.907-3.117,1.336-.25-.134-.187-.306-.187-.444,0-3.808.008-7.616-.016-11.423,0-.583.115-.808.759-.8,2.527.038,5.055.022,7.583.01.426,0,.686.028.683.582-.021,3.993-.011,7.987-.011,12.142" transform="translate(-58.274 -246.102)" fill="#ffa686"/>
    <path id="Trazado_716745" data-name="Trazado 716745" d="M296.083,81.939v-.894q0-8.722,0-17.444a4.494,4.494,0,0,0-4.8-4.8c-1.188,0-2.376-.018-3.563.008-.461.01-.64-.086-.658-.606-.08-2.4-.1-2.4,2.323-2.4q3.985,0,7.97,0c1.215,0,1.721.491,1.722,1.687q.008,9,0,18.007a1.97,1.97,0,0,1-.153.907c-.9,1.849-1.776,3.707-2.662,5.563l-.186-.022" transform="translate(-233.065 -45.303)" fill="#ffd947"/>
    <path id="Trazado_716746" data-name="Trazado 716746" d="M390.339,117.352c-.578,1.214-1.128,2.4-1.707,3.567-.117.237-.32.05-.48-.029-1.5-.744-3-1.5-4.52-2.219-.379-.18-.427-.342-.241-.708.491-.968.945-1.956,1.4-2.94.163-.35.358-.44.731-.254,1.474.735,2.962,1.443,4.443,2.163.191.093.421.165.371.42" transform="translate(-311.21 -93.11)" fill="#ffa686"/>
    <path id="Trazado_716747" data-name="Trazado 716747" d="M410.585,77.724c1.357.01,2.034,1.011,1.594,2.008-.491,1.111-1.039,2.2-1.538,3.3-.229.508-.524.625-1.028.367-2.3-1.177-2.071-.671-1.048-2.817.321-.674.621-1.359.94-2.034a1.343,1.343,0,0,1,1.08-.827" transform="translate(-331.134 -63.108)" fill="#333"/>
    <path id="Trazado_716748" data-name="Trazado 716748" d="M291.211,330.806c-.1-1.936.5-3.8.582-5.721.022-.505.368-.374.674-.228,1.01.48,2.009.987,3.037,1.424.684.29.6.572.113.96q-2.209,1.776-4.412,3.559Z" transform="translate(-236.441 -263.663)" fill="#333"/>
    <path id="Trazado_716749" data-name="Trazado 716749" d="M215.153,17.516H210.16a2.9,2.9,0,0,1,4.993,0" transform="translate(-170.64 -13.07)" fill="#f4f3f3"/>
    <path id="Trazado_716750" data-name="Trazado 716750" d="M291.041,357.031l-.043.079.049-.074-.006-.006" transform="translate(-236.277 -289.893)" fill="#333"/>
    <path id="Trazado_716751" data-name="Trazado 716751" d="M171.608,130.619q-5.062,0-10.125,0c-1.2,0-1.866-.52-1.888-1.466-.023-.983.658-1.534,1.911-1.534q10.171,0,20.343,0a1.537,1.537,0,0,1,1.745,1.322,1.521,1.521,0,0,1-1.207,1.654,4.009,4.009,0,0,1-.748.023H171.608" transform="translate(-129.584 -103.619)" fill="#070707"/>
    <path id="Trazado_716752" data-name="Trazado 716752" d="M148.172,175.478c.937,0,1.875-.013,2.812,0a1.487,1.487,0,0,1,1.626,1.628q.025,2.859,0,5.719a1.5,1.5,0,0,1-1.7,1.651q-2.812.017-5.624,0a1.5,1.5,0,0,1-1.671-1.677q-.019-2.812,0-5.625c.007-1.146.572-1.686,1.745-1.7.937-.008,1.875,0,2.812,0m1.441,4.494c0-1.491,0-1.491-1.063-1.492-1.936,0-1.936,0-1.937,1.086,0,1.914,0,1.914,1.2,1.914,1.8,0,1.8,0,1.8-1.508" transform="translate(-116.602 -142.476)" fill="#070707"/>
    <path id="Trazado_716753" data-name="Trazado 716753" d="M148.14,231.331c.937,0,1.875-.012,2.812,0a1.485,1.485,0,0,1,1.641,1.612q.027,2.906,0,5.813a1.463,1.463,0,0,1-1.588,1.57q-2.906.029-5.811,0a1.46,1.46,0,0,1-1.591-1.565q-.03-2.953,0-5.906a1.444,1.444,0,0,1,1.537-1.521c1-.025,2-.005,3-.006m0,3c-1.546,0-1.546,0-1.546,1.477,0,1.523,0,1.523,1.5,1.523s1.5,0,1.5-1.524c0-1.476,0-1.476-1.453-1.476" transform="translate(-116.585 -187.825)" fill="#070707"/>
    <path id="Trazado_716754" data-name="Trazado 716754" d="M209.234,194.458q-3.937,0-7.874,0c-1.193,0-1.859-.536-1.87-1.484s.659-1.515,1.836-1.516q7.921,0,15.842,0c1.169,0,1.845.575,1.825,1.528-.019.92-.675,1.468-1.791,1.471q-3.984.008-7.968,0" transform="translate(-161.976 -155.453)" fill="#070808"/>
    <path id="Trazado_716755" data-name="Trazado 716755" d="M209.191,250.316q-3.937,0-7.874,0c-1.169,0-1.844-.573-1.827-1.526.016-.923.668-1.472,1.784-1.473q7.968-.006,15.936,0c1.112,0,1.769.556,1.783,1.477.014.952-.662,1.52-1.833,1.522q-3.984.006-7.968,0" transform="translate(-161.976 -200.807)" fill="#070808"/>
    <path id="Trazado_716756" data-name="Trazado 716756" d="M38,406.906c1.434,0,2.868-.01,4.3,0a1.5,1.5,0,1,1-.007,2.995q-4.348.016-8.7,0a1.5,1.5,0,1,1,.007-2.994c1.465-.013,2.93,0,4.394,0" transform="translate(-25.939 -330.386)" fill="#070807"/>
    <path id="Trazado_716757" data-name="Trazado 716757" d="M37.939,430.849c1.434,0,2.867-.008,4.3,0,1.081.008,1.728.6,1.7,1.542a1.491,1.491,0,0,1-1.7,1.455q-4.3.013-8.6,0c-1.082,0-1.727-.6-1.7-1.543.025-.9.649-1.446,1.7-1.454,1.434-.01,2.867,0,4.3,0" transform="translate(-25.936 -349.827)" fill="#070807"/>
    <path id="Trazado_716758" data-name="Trazado 716758" d="M162.6,192.955c0,1.508,0,1.508-1.8,1.508-1.2,0-1.2,0-1.2-1.914,0-1.088,0-1.088,1.937-1.086,1.063,0,1.063,0,1.063,1.492" transform="translate(-129.585 -155.459)" fill="#adce32"/>
    <path id="Trazado_716759" data-name="Trazado 716759" d="M161.144,247.324c1.453,0,1.453,0,1.453,1.476,0,1.524,0,1.524-1.5,1.524s-1.5,0-1.5-1.523c0-1.477,0-1.477,1.546-1.477" transform="translate(-129.586 -200.816)" fill="#adce32"/>
  </g>
</svg>
