<svg id="Grupo_80570" data-name="Grupo 80570" xmlns="http://www.w3.org/2000/svg" width="36.978" height="47.116" viewBox="0 0 36.978 47.116">
  <g id="Grupo_80366" data-name="Grupo 80366" transform="translate(1.064 0)">
    <path id="Trazado_113924" data-name="Trazado 113924" d="M74.51,201.409a17.951,17.951,0,0,0-14.148,28.432l-.005,0,.175.238.025.034L73.27,247.408a2.729,2.729,0,0,0,4.464-.093L89.226,230.23a19.447,19.447,0,0,0,3.666-10.87A17.956,17.956,0,0,0,74.51,201.409Zm.427,31.009a13.5,13.5,0,1,1,13.5-13.5A13.5,13.5,0,0,1,74.937,232.418Z" transform="translate(-56.98 -201.404)" fill="#ff725e"/>
  </g>
  <g id="Grupo_80367" data-name="Grupo 80367" transform="translate(1.064 0)" opacity="0.3">
    <path id="Trazado_113925" data-name="Trazado 113925" d="M74.51,201.409a17.951,17.951,0,0,0-14.148,28.432l-.005,0,.175.238.025.034L73.27,247.408a2.729,2.729,0,0,0,4.464-.093L89.226,230.23a19.447,19.447,0,0,0,3.666-10.87A17.956,17.956,0,0,0,74.51,201.409Zm.427,31.009a13.5,13.5,0,1,1,13.5-13.5A13.5,13.5,0,0,1,74.937,232.418Z" transform="translate(-56.98 -201.404)"/>
  </g>
  <g id="Grupo_80368" data-name="Grupo 80368" transform="translate(0 0)">
    <path id="Trazado_113926" data-name="Trazado 113926" d="M73.244,201.409A17.951,17.951,0,0,0,59.1,229.841l-.005,0,.175.238.025.034L72,247.408a2.729,2.729,0,0,0,4.464-.093L87.96,230.23a19.447,19.447,0,0,0,3.666-10.87A17.956,17.956,0,0,0,73.244,201.409Zm.427,28.575A10.224,10.224,0,1,1,83.894,219.76,10.224,10.224,0,0,1,73.671,229.984Z" transform="translate(-55.714 -201.404)" fill="#ffa686"/>
  </g>
</svg>
