<svg xmlns="http://www.w3.org/2000/svg" xmlns:xlink="http://www.w3.org/1999/xlink" width="118.618" height="119.458" viewBox="0 0 118.618 119.458">
  <defs>
    <radialGradient id="radial-gradient" cx="0.076" cy="0.019" r="1.465" gradientTransform="translate(0.001)" gradientUnits="objectBoundingBox">
      <stop offset="0" stop-color="#f6f6f7"/>
      <stop offset="0.477" stop-color="#f9f9fa"/>
      <stop offset="0.715" stop-color="#fff"/>
    </radialGradient>
    <filter id="Trazado_40937" x="0" y="0.962" width="118.618" height="118.496" filterUnits="userSpaceOnUse">
      <feOffset dy="7" input="SourceAlpha"/>
      <feGaussianBlur stdDeviation="2.5" result="blur"/>
      <feFlood flood-opacity="0.102"/>
      <feComposite operator="in" in2="blur"/>
      <feComposite in="SourceGraphic"/>
    </filter>
    <clipPath id="clip-path">
      <rect id="Rectángulo_348373" data-name="Rectángulo 348373" width="63" height="63" fill="none"/>
    </clipPath>
  </defs>
  <g id="Grupo_1084176" data-name="Grupo 1084176" transform="translate(-279.808 -2654.678)">
    <g id="Grupo_1083515" data-name="Grupo 1083515" transform="translate(285.967 2654.678)">
      <g id="Grupo_18423" data-name="Grupo 18423" transform="translate(0 0)">
        <g id="Grupo_18421" data-name="Grupo 18421">
          <g id="Grupo_18420" data-name="Grupo 18420">
            <g id="Grupo_18419" data-name="Grupo 18419">
              <path id="Trazado_40936" data-name="Trazado 40936" d="M299.581,2198.2a52.479,52.479,0,1,1-52.478-52.478A52.479,52.479,0,0,1,299.581,2198.2Z" transform="translate(-194.623 -2145.721)" fill="#fff"/>
            </g>
          </g>
        </g>
        <g transform="matrix(1, 0, 0, 1, -6.16, 0)" filter="url(#Trazado_40937)">
          <path id="Trazado_40937-2" data-name="Trazado 40937" d="M299.095,2197.668a52.478,52.478,0,1,0-52.478,52.48A52.271,52.271,0,0,0,299.095,2197.668Z" transform="translate(-187.98 -2145.19)" fill="url(#radial-gradient)"/>
        </g>
        <g id="Grupo_18422" data-name="Grupo 18422" transform="translate(9.297 29.463)">
          <path id="Trazado_40939" data-name="Trazado 40939" d="M290.9,2164.488a52.485,52.485,0,0,1-90.355,52.261,52.319,52.319,0,0,0,90.355-52.261Z" transform="translate(-200.545 -2164.488)" fill="#eceef0"/>
        </g>
      </g>
    </g>
    <g id="Grupo_1083517" data-name="Grupo 1083517" transform="translate(307 2675)">
      <g id="Grupo_1005846" data-name="Grupo 1005846" clip-path="url(#clip-path)">
        <path id="Trazado_206213" data-name="Trazado 206213" d="M209.244,70.005c-.805,1.93-1.527,2.418-3.639,2.422q-3.906.009-7.811,0a2.979,2.979,0,0,1-3.248-3.249c-.008-.815,0-1.631,0-2.505h-8.177c-.164,0-.329.008-.492-.006a.984.984,0,0,1-1.005-1.015.92.92,0,0,1,1.049-.94c2.624-.008,5.248-.006,7.873-.007h.753c0-.822,0-1.6,0-2.369,0-.635-.021-1.273.029-1.905a2.914,2.914,0,0,1,2.945-2.722c1.066-.013,2.132-.009,3.2-.015.036,0,.071-.03.105-.045.32-1.907-.485-3.363-2.128-3.8a4.33,4.33,0,0,0-1.094-.094q-14.638-.006-29.276,0a3.233,3.233,0,0,1-.852-.063.9.9,0,0,1-.7-1.073.865.865,0,0,1,.9-.832c.471-.024.943-.018,1.414-.018q14.207,0,28.415,0c2.849,0,4.764,1.457,5.276,4.05a14.344,14.344,0,0,1,.121,1.887c.836,0,1.654.053,2.463-.011a3.4,3.4,0,0,1,3.885,2.342Zm-1.966-4.929q0-2.059,0-4.117c0-.914-.351-1.282-1.245-1.284q-4.148-.009-8.3,0c-.859,0-1.219.323-1.223,1.172q-.021,4.238,0,8.476c0,.783.362,1.135,1.136,1.137q4.24.013,8.48-.009c.8,0,1.139-.384,1.143-1.194.006-1.393,0-2.786,0-4.178" transform="translate(-146.244 -45.396)" fill="#1a1818"/>
        <path id="Trazado_206214" data-name="Trazado 206214" d="M0,176.006c.806-1.937,1.523-2.415,3.636-2.422.88,0,1.759,0,2.738,0,0-.287,0-.523,0-.759,0-3.056-.023-6.112.02-9.167a6.778,6.778,0,0,1,5.228-6.541,5.777,5.777,0,0,1,1.333-.177c3.589-.017,7.177-.015,10.766-.015.725,0,1.124.331,1.142.917.019.646-.4,1.042-1.164,1.044-3.4.009-6.81.075-10.212-.016a5.024,5.024,0,0,0-5.149,5.141c.078,2.992.017,5.988.017,8.982v.592c.371,0,.709-.006,1.048,0,.942.019,1.892-.026,2.823.083a2.734,2.734,0,0,1,2.43,2.6c.061,1.162.013,2.329.013,3.56h.747q3.815,0,7.629,0c.461,0,.909.1,1.054.57a1.174,1.174,0,0,1-.081.955,1.469,1.469,0,0,1-.993.425c-2.522.034-5.045.018-7.567.018h-.753c0,1.085.024,2.126-.01,3.166a4.318,4.318,0,0,1-.236,1.5,2.836,2.836,0,0,1-2.748,1.826c-2.912.031-5.824.036-8.736-.005a2.877,2.877,0,0,1-2.79-1.948c-.051-.126-.122-.243-.184-.364v-9.967m1.966,4.86c0,1.415,0,2.829,0,4.244,0,.828.365,1.212,1.189,1.215q4.214.015,8.427,0a1.018,1.018,0,0,0,1.154-1.133q.019-4.242-.005-8.484c0-.809-.366-1.156-1.187-1.158q-4.211-.013-8.422.007c-.806,0-1.151.378-1.154,1.183-.006,1.374,0,2.748,0,4.121" transform="translate(0 -137.615)" fill="#1a1818"/>
        <path id="Trazado_206215" data-name="Trazado 206215" d="M323.609,363.844a3.021,3.021,0,0,1-2.365-2.721c-.058-.8-.026-1.6-.034-2.4,0-.241,0-.483,0-.786-.7,0-1.327.006-1.957,0-.694-.009-1.083-.362-1.086-.97s.393-.971,1.083-.986c.631-.014,1.262,0,1.963,0,0-1.241.01-2.425,0-3.609a3.067,3.067,0,0,1,.995-2.476,2.952,2.952,0,0,1,2.084-.744c1.062.013,2.123,0,3.17,0a3.143,3.143,0,0,0-3.184-4.122c-3.935-.005-7.869,0-11.8-.01a1.325,1.325,0,0,1-.813-.153,1.312,1.312,0,0,1-.45-.9c.025-.289.35-.583.6-.806.127-.112.389-.1.589-.1,4.016,0,8.033-.015,12.049,0a4.96,4.96,0,0,1,4.993,4.061,15.44,15.44,0,0,1,.123,2.021h2.645c2.205,0,2.875.433,3.7,2.393v9.967a3.618,3.618,0,0,1-2.338,2.338Zm10.338-7.346c0-1.393,0-2.786,0-4.179,0-.818-.328-1.208-1.124-1.213q-4.271-.03-8.543,0a.97.97,0,0,0-1.1,1.111q-.022,4.269,0,8.539c0,.806.376,1.122,1.208,1.123q4.179,0,8.359,0c.825,0,1.194-.372,1.2-1.2.006-1.393,0-2.786,0-4.179" transform="translate(-272.914 -300.844)" fill="#1a1818"/>
        <path id="Trazado_206216" data-name="Trazado 206216" d="M12.3,0a8.6,8.6,0,0,1,1.332.712,3,3,0,0,1,1.074,2.563c-.008,1,0,2,0,3.1.674,0,1.3-.007,1.924,0,.731.011,1.171.385,1.172.976a1.062,1.062,0,0,1-1.171,1c-.613.013-1.226,0-1.933,0,0,1,.017,1.951-.007,2.905a5.283,5.283,0,0,1-.165,1.39,2.742,2.742,0,0,1-2.583,2.015c-3.033.04-6.067.048-9.1.008A2.984,2.984,0,0,1,0,12.3V2.338A3.61,3.61,0,0,1,2.338,0ZM1.966,7.312c0,1.393,0,2.785,0,4.178,0,.882.336,1.249,1.214,1.253q4.178.019,8.356,0c.846,0,1.194-.354,1.2-1.207q.018-4.176,0-8.352c0-.882-.363-1.215-1.247-1.216q-4.147,0-8.295,0c-.865,0-1.226.362-1.229,1.228,0,1.372,0,2.744,0,4.117" fill="#1a1818"/>
        <path id="Trazado_206217" data-name="Trazado 206217" d="M179.194,156.837a3.856,3.856,0,0,1-.5.72c-.523.489-1.075.95-1.642,1.389a.9.9,0,0,0-.315.9,28.464,28.464,0,0,1-.009,3,.859.859,0,0,0,.322.843c.547.431,1.077.884,1.6,1.339a.977.977,0,0,1,.289,1.452q-.826,1.473-1.691,2.923a1.008,1.008,0,0,1-1.4.511c-.677-.23-1.335-.518-2.019-.72a1.109,1.109,0,0,0-.761.1c-.968.521-1.921,1.073-2.862,1.643a.923.923,0,0,0-.39.526c-.158.717-.258,1.448-.387,2.172a1.036,1.036,0,0,1-1.087.96c-1.148.017-2.3.016-3.444,0a1.031,1.031,0,0,1-1.108-.934c-.135-.723-.23-1.454-.4-2.17a1.01,1.01,0,0,0-.423-.569q-1.381-.844-2.807-1.615a1.118,1.118,0,0,0-.757-.12c-.705.2-1.387.487-2.082.728a.977.977,0,0,1-1.349-.49q-.879-1.477-1.717-2.979a.952.952,0,0,1,.282-1.4c.558-.482,1.146-.931,1.681-1.437a1.039,1.039,0,0,0,.262-.673q.04-1.619,0-3.239a1.04,1.04,0,0,0-.271-.671c-.536-.5-1.124-.953-1.682-1.435a.955.955,0,0,1-.261-1.406c.558-1,1.135-1.992,1.713-2.982a1,1,0,0,1,1.355-.485c.669.253,1.332.527,2.018.723a1.2,1.2,0,0,0,.808-.117c.953-.507,1.888-1.05,2.813-1.606a.933.933,0,0,0,.413-.512c.163-.716.265-1.446.394-2.17a1.039,1.039,0,0,1,1.121-.988q1.691-.02,3.383,0a1.036,1.036,0,0,1,1.138.968c.127.7.22,1.415.386,2.109a1.089,1.089,0,0,0,.456.6c.9.555,1.851,1.037,2.74,1.613a.851.851,0,0,0,.89.114c.683-.272,1.381-.508,2.071-.764a.876.876,0,0,1,1.135.345c.672,1.1,1.3,2.226,1.938,3.346a3,3,0,0,1,.152.46m-3.272-2.03c-.746.265-1.451.476-2.122.766a1.271,1.271,0,0,1-1.549-.314,7.109,7.109,0,0,0-3.155-1.823,1.4,1.4,0,0,1-1.137-1.331c-.09-.7-.248-1.389-.374-2.075h-1.963c-.129.736-.264,1.456-.38,2.18a1.289,1.289,0,0,1-.99,1.178,7.76,7.76,0,0,0-3.368,1.944,1.189,1.189,0,0,1-1.4.271c-.714-.281-1.441-.529-2.171-.794-.289.5-.576.923-.786,1.386a.647.647,0,0,0,.109.586,16.712,16.712,0,0,0,1.457,1.225,1.369,1.369,0,0,1,.473,1.407,14.874,14.874,0,0,0-.053,3.4,1.936,1.936,0,0,1-.816,2.153c-.476.333-1.155.739-1.224,1.191s.489,1.024.776,1.541a.708.708,0,0,0,.108.111c.675-.242,1.379-.455,2.049-.746a1.27,1.27,0,0,1,1.551.3,7.378,7.378,0,0,0,3.264,1.878,1.263,1.263,0,0,1,1.01,1.156c.087.586.165,1.176.3,1.75.043.181.256.437.413.454a15.484,15.484,0,0,0,1.641.022c.133-.755.268-1.474.384-2.2a1.29,1.29,0,0,1,.991-1.178,7.757,7.757,0,0,0,3.366-1.946,1.166,1.166,0,0,1,1.391-.27c.711.289,1.443.525,2.179.787.271-.467.5-.9.767-1.311a.451.451,0,0,0-.122-.717c-.49-.37-.937-.8-1.421-1.175a1.382,1.382,0,0,1-.476-1.407,14.485,14.485,0,0,0,.052-3.4,1.921,1.921,0,0,1,.812-2.151c.479-.33,1.175-.746,1.228-1.189.059-.5-.5-1.066-.818-1.664" transform="translate(-135.107 -129.822)" fill="#1a1818"/>
        <path id="Trazado_206218" data-name="Trazado 206218" d="M220.276,420.477H230.6c.2,0,.41-.008.615,0a1.023,1.023,0,0,1,1.063.972.987.987,0,0,1-1.091.986q-4.949.01-9.9,0a3.866,3.866,0,0,0-1.1.112l2.027,1.507c.246.183.5.354.734.556a1,1,0,0,1,.164,1.375.942.942,0,0,1-1.317.172c-.873-.608-1.722-1.252-2.581-1.88q-1.314-.96-2.629-1.919a1,1,0,0,1-.014-1.766q2.525-1.853,5.054-3.7a1.016,1.016,0,0,1,1.515.081,1.038,1.038,0,0,1-.362,1.484c-.845.638-1.7,1.26-2.554,1.889l.048.123" transform="translate(-189.465 -365.342)" fill="#1a1818"/>
        <path id="Trazado_206219" data-name="Trazado 206219" d="M419.237,121.407c0,1.393,0,2.786,0,4.178,0,.81-.344,1.189-1.142,1.194q-4.24.024-8.48.009c-.774,0-1.132-.354-1.136-1.137q-.023-4.238,0-8.475c0-.849.364-1.171,1.223-1.172q4.148-.005,8.3,0c.894,0,1.243.37,1.245,1.284q0,2.059,0,4.117m-5.872.782c-.51-.321-.966-.63-1.443-.9a.99.99,0,0,0-1.354.292.944.944,0,0,0,.3,1.347c.762.517,1.538,1.017,2.338,1.473a.9.9,0,0,0,1.3-.3c.909-1.459,1.806-2.926,2.663-4.417a.959.959,0,0,0-.736-1.435,1.052,1.052,0,0,0-1.042.619c-.661,1.1-1.331,2.2-2.017,3.325" transform="translate(-358.204 -101.727)" fill="#dee4f0"/>
        <path id="Trazado_206220" data-name="Trazado 206220" d="M15.974,313.6c0-1.374,0-2.748,0-4.121,0-.805.348-1.179,1.154-1.183q4.211-.022,8.422-.007c.82,0,1.182.349,1.186,1.158q.024,4.242.006,8.484a1.018,1.018,0,0,1-1.154,1.133q-4.213.012-8.427,0c-.824,0-1.187-.387-1.189-1.215,0-1.415,0-2.829,0-4.244m4.9.864c-.54-.335-1-.645-1.479-.911a.964.964,0,0,0-1.031,1.628c.726.5,1.464.977,2.214,1.436a.969.969,0,0,0,1.509-.373c.649-1.043,1.282-2.1,1.919-3.145.234-.385.486-.761.685-1.163a.952.952,0,0,0-.374-1.277.986.986,0,0,0-1.307.292,4.683,4.683,0,0,0-.26.416l-1.876,3.1" transform="translate(-14.007 -270.352)" fill="#ffd947"/>
        <path id="Trazado_206221" data-name="Trazado 206221" d="M419.206,413.761c0,1.393,0,2.786,0,4.179,0,.827-.372,1.2-1.2,1.2q-4.179.006-8.358,0c-.833,0-1.2-.317-1.208-1.123q-.025-4.269,0-8.539a.97.97,0,0,1,1.1-1.111q4.271-.025,8.543,0c.8.006,1.122.4,1.124,1.213,0,1.393,0,2.786,0,4.179m-5.866.781c-.488-.3-.915-.579-1.352-.84a.983.983,0,0,0-1.454.222.972.972,0,0,0,.4,1.414c.646.432,1.3.849,1.958,1.266.787.5,1.238.4,1.728-.4.792-1.291,1.574-2.587,2.357-3.883.409-.675.344-1.215-.179-1.558s-1.069-.154-1.473.5c-.654,1.061-1.294,2.131-1.986,3.274" transform="translate(-358.173 -358.108)" fill="#c5de67"/>
        <path id="Trazado_206222" data-name="Trazado 206222" d="M15.973,21.32c0-1.372,0-2.744,0-4.117,0-.865.364-1.227,1.228-1.228q4.147,0,8.295,0c.884,0,1.243.334,1.247,1.216q.016,4.176,0,8.352c0,.853-.351,1.2-1.2,1.207q-4.178.018-8.356,0c-.879,0-1.212-.371-1.214-1.253,0-1.393,0-2.785,0-4.178m4.9.838c-.251-.157-.458-.284-.662-.415-.224-.143-.442-.3-.67-.431a1,1,0,0,0-1.457.226.979.979,0,0,0,.391,1.417c.664.44,1.339.863,2.013,1.287a1.034,1.034,0,0,0,1.65-.372c.6-.974,1.184-1.957,1.774-2.936.263-.437.55-.863.778-1.317a.975.975,0,0,0-1.681-.977c-.121.163-.212.348-.318.523l-1.818,3" transform="translate(-14.006 -14.008)" fill="#adce32"/>
        <path id="Trazado_206223" data-name="Trazado 206223" d="M193.05,169.017c.321.6.877,1.168.818,1.664-.053.442-.748.859-1.228,1.189a1.921,1.921,0,0,0-.812,2.151,14.491,14.491,0,0,1-.052,3.4,1.382,1.382,0,0,0,.476,1.407c.484.379.931.805,1.421,1.175a.451.451,0,0,1,.122.717c-.264.412-.5.844-.767,1.311-.735-.263-1.468-.5-2.179-.787a1.166,1.166,0,0,0-1.391.27,7.757,7.757,0,0,1-3.366,1.946,1.29,1.29,0,0,0-.991,1.178c-.116.722-.251,1.442-.384,2.2a15.48,15.48,0,0,1-1.641-.022c-.157-.017-.37-.273-.413-.454-.138-.575-.216-1.164-.3-1.75a1.263,1.263,0,0,0-1.01-1.156,7.378,7.378,0,0,1-3.264-1.878,1.269,1.269,0,0,0-1.551-.3c-.67.291-1.374.5-2.049.746a.707.707,0,0,1-.108-.111c-.286-.517-.847-1.077-.776-1.541s.748-.858,1.224-1.191a1.936,1.936,0,0,0,.816-2.153,14.867,14.867,0,0,1,.053-3.4,1.369,1.369,0,0,0-.473-1.407,16.692,16.692,0,0,1-1.457-1.225.647.647,0,0,1-.109-.586c.21-.463.5-.89.786-1.386.729.265,1.456.512,2.171.794a1.189,1.189,0,0,0,1.4-.271,7.76,7.76,0,0,1,3.368-1.944,1.289,1.289,0,0,0,.99-1.178c.116-.723.251-1.444.38-2.18h1.963c.126.686.284,1.376.374,2.075a1.4,1.4,0,0,0,1.137,1.331,7.109,7.109,0,0,1,3.155,1.823,1.271,1.271,0,0,0,1.549.314c.671-.29,1.376-.5,2.122-.766m-3.432,6.507a5.883,5.883,0,1,0-5.862,5.89,5.922,5.922,0,0,0,5.862-5.89" transform="translate(-152.235 -144.031)" fill="#ffa686"/>
        <path id="Trazado_206224" data-name="Trazado 206224" d="M427.182,138.143c.686-1.128,1.356-2.224,2.017-3.325a1.052,1.052,0,0,1,1.042-.619.959.959,0,0,1,.736,1.435c-.857,1.49-1.755,2.957-2.663,4.417a.9.9,0,0,1-1.3.3c-.8-.456-1.576-.955-2.338-1.473a.944.944,0,0,1-.3-1.347.99.99,0,0,1,1.354-.292c.477.271.933.58,1.443.9" transform="translate(-372.02 -117.681)" fill="#1a1818"/>
        <path id="Trazado_206225" data-name="Trazado 206225" d="M34.751,330.425l1.876-3.1a4.683,4.683,0,0,1,.26-.416.986.986,0,0,1,1.307-.292.952.952,0,0,1,.374,1.277c-.2.4-.451.778-.685,1.163-.638,1.05-1.271,2.1-1.919,3.145a.969.969,0,0,1-1.509.373c-.75-.458-1.488-.94-2.214-1.436a.964.964,0,0,1,1.031-1.628c.482.267.939.576,1.479.911" transform="translate(-27.884 -286.311)" fill="#1a1818"/>
        <path id="Trazado_206226" data-name="Trazado 206226" d="M427.169,430.563c.692-1.143,1.332-2.213,1.986-3.274.4-.656.964-.836,1.473-.5s.588.883.179,1.558c-.784,1.3-1.565,2.592-2.357,3.883-.489.8-.941.9-1.728.4-.656-.417-1.312-.834-1.958-1.266a.972.972,0,0,1-.4-1.414.983.983,0,0,1,1.454-.222c.437.26.864.536,1.352.84" transform="translate(-372.001 -374.129)" fill="#1a1818"/>
        <path id="Trazado_206227" data-name="Trazado 206227" d="M34.73,38.017l1.818-3c.106-.174.2-.36.318-.523a.975.975,0,0,1,1.681.977c-.228.455-.515.88-.778,1.317-.59.98-1.176,1.962-1.774,2.936a1.034,1.034,0,0,1-1.65.372c-.674-.424-1.349-.847-2.013-1.287a.979.979,0,0,1-.391-1.417,1,1,0,0,1,1.457-.226c.228.136.446.289.67.431.2.131.412.258.662.415" transform="translate(-27.865 -29.867)" fill="#1a1818"/>
        <path id="Trazado_206228" data-name="Trazado 206228" d="M219.955,214.065a5.883,5.883,0,1,1-5.873-5.875,5.932,5.932,0,0,1,5.873,5.875m-5.9-3.912a3.919,3.919,0,1,0,3.937,3.9,3.966,3.966,0,0,0-3.937-3.9" transform="translate(-182.573 -182.572)" fill="#1a1818"/>
      </g>
    </g>
  </g>
</svg>
