<svg xmlns="http://www.w3.org/2000/svg" xmlns:xlink="http://www.w3.org/1999/xlink" width="206.973" height="174.711" viewBox="0 0 206.973 174.711">
  <defs>
    <clipPath id="clip-path">
      <rect id="Rectángulo_347828" data-name="Rectángulo 347828" width="83.812" height="92.214" fill="none"/>
    </clipPath>
  </defs>
  <g id="Grupo_1084173" data-name="Grupo 1084173" transform="translate(-298.001 -934.252)">
    <g id="Grupo_1084172" data-name="Grupo 1084172">
      <path id="Trazado_206284" data-name="Trazado 206284" d="M532.267,87.42A66.768,66.768,0,1,1,465.5,20.652,66.768,66.768,0,0,1,532.267,87.42" transform="translate(-80.146 934.188)" fill="#eff5d6"/>
      <path id="Trazado_206285" data-name="Trazado 206285" d="M585.12,87.419l-13.271-8.8v7c-21.9,1.868-25.937,26.878-27.229,29.545a83.864,83.864,0,1,1,1.843-49.516,8.452,8.452,0,1,0,3.577-.8c-.052,0-.1.007-.153.008a87.342,87.342,0,1,0-1.613,50.486c.993-2.054,5.059-24.219,23.575-26.212v7.083Zm-30.114-14.1a4.966,4.966,0,1,1-4.966-4.966,4.97,4.97,0,0,1,4.966,4.966" transform="translate(-80.146 934.188)" fill="#0b481e"/>
      <g id="Grupo_1083508" data-name="Grupo 1083508" transform="translate(343.446 975.501)">
        <g id="Grupo_1005832" data-name="Grupo 1005832" clip-path="url(#clip-path)">
          <path id="Trazado_122893" data-name="Trazado 122893" d="M0,99.167c.048-.029.131-.051.138-.088a5.838,5.838,0,0,1,5.034-5.029c2.6-.438,4.588.7,6.106,2.871a7.906,7.906,0,0,1,4.049-2.295,7.5,7.5,0,0,1,8.04,3.269c1.413,2.285,2.682,4.661,4,7a3.665,3.665,0,0,1,.234.763,1.342,1.342,0,0,1-1.111,1.3,1.425,1.425,0,0,1-1.575-.857c-.089-.151-.19-.3-.285-.443-1.169-2.074-2.324-4.157-3.512-6.221a4.736,4.736,0,0,0-5.174-2.106,4.7,4.7,0,0,0-3.877,4.608c-.024,2.758-.007,5.516-.007,8.273,0,2.428,0,4.856,0,7.284,0,.391-.013.679.541.666,1.975-.047,3.952-.047,5.928-.065.926.018,1.852.04,2.778.05.194,0,.5.064.506-.218a47.261,47.261,0,0,0-.019-4.84c0-.024-.034-.048-.056-.068-1.269-1.159-2.025-2.727-3.177-3.979-.125-.2-.239-.41-.378-.6-1.129-1.545-2.28-3.074-3.388-4.633a1.354,1.354,0,0,1,.777-2.229c.723-.139,1.163.291,1.555.827,1.835,2.51,3.712,4.99,5.508,7.528a3.069,3.069,0,0,0,3.017,1.492c3.276-.3,6.558-.53,9.838-.789.98-.084,1.964-.132,2.937-.263a1.282,1.282,0,0,0,1.151-1.384,1.338,1.338,0,0,0-1.238-1.409,11.943,11.943,0,0,0-2.5-.1c-.947-.062-1.894-.135-2.841-.182-1.294-.064-1.513-.228-1.852-1.459a1.576,1.576,0,0,1,1.866-1.269c1.375.1,2.756.113,4.132.2a1.081,1.081,0,0,0,.988-.453c1-1.2,1.965-2.428,3.05-3.542a7.473,7.473,0,0,1,10.313-.268c.795.74.91,1.451.344,2.11s-1.291.648-2.129-.038a4.741,4.741,0,0,0-7,.568c-.572.655-1.123,1.328-1.7,1.98-.26.3-.4.478-.01.855a3.945,3.945,0,0,1,.985,4.6,4.139,4.139,0,0,1-3.849,2.619,9.086,9.086,0,0,1-1.788.136c-1.908-.237-3.056.747-4.174,2.147-2.3,2.88-4.739,5.648-7.148,8.439a1.661,1.661,0,0,0-.368,1.233c.063,5.608.105,11.216.184,16.824.054,3.878-.487,7.711-.8,11.562-.178,2.179-.409,4.354-.627,6.529a1.656,1.656,0,0,0,.249,1.018c.663,1.17,1.315,2.346,1.969,3.52,1.2,2.16.917,3.316-1.138,4.607H15.3c-3.052-1.52-3.845-2.933-3.549-6.138.2-2.174.336-4.355.486-6.534.071-1.035.387-1.408,1.43-1.6a1.386,1.386,0,0,1,1.279,1.627c-.172,2.381-.3,4.766-.513,7.144-.166,1.884.58,2.8,2.417,2.8,1.105,0,2.211-.016,3.316-.025h3.387c-.728-1.3-1.327-2.542-2.083-3.677a5.466,5.466,0,0,1-.682-3.939c.273-2.287.423-4.588.64-6.882.042-.449-.062-.66-.566-.636-.9.044-1.8.034-2.7.047l-4.264-.009a1.635,1.635,0,0,1-1.166-2.029,27.4,27.4,0,0,0,.206-2.87,9.189,9.189,0,0,0-.225-3.366c-1.055-3.107-1.991-6.253-2.97-9.385-.565-1.808-.562-1.809-2.4-1.818A4.9,4.9,0,0,1,2.2,126.791c-.011-1.83,0-3.661-.008-5.491,0-.254.141-.6-.153-.745A4.964,4.964,0,0,1,0,118.074v-.18c.3-.146.173-.418.174-.636q.009-8.546,0-17.091c0-.219.118-.49-.173-.639v-.36m18.538,21.783c-2.039-.014-4.079-.006-6.117-.057-.53-.013-.6.288-.654.647a27.975,27.975,0,0,0-.479,5.363c.094,2.3.088,2.306,2.408,2.277a6.254,6.254,0,0,0,4.845-1.932c1.06-1.212,2.125-2.419,3.175-3.639a5.868,5.868,0,0,0,.079-2.546c-.122-.181-.309-.154-.48-.152-.926.009-1.851.025-2.777.039M4.828,97a2.822,2.822,0,0,0-1.963,2.718c-.062,1.678-.028,3.36-.029,5.041q0,6.122,0,12.244c0,.5-.088,1.084.7,1.1a39.259,39.259,0,0,0,4.92.063c.586,0,.909-.354.908-.987-.007-5.776.026-11.553-.019-17.329A3.191,3.191,0,0,0,4.828,97m10.808,51.52a52.087,52.087,0,0,0,5.722.112c.377.015.414-.227.431-.529.123-2.184.333-4.363.307-6.554q-.077-6.477-.136-12.954c0-.28-.026-.56-.051-1.071a13.371,13.371,0,0,1-3.2,3.149A12.177,12.177,0,0,1,12.04,131.9c1.071,3.389,2.093,6.663,3.142,9.927a8.968,8.968,0,0,1,.533,4.217,6.994,6.994,0,0,0-.079,2.468M4.983,124.273h.005c0,.927-.024,1.854.006,2.78a1.973,1.973,0,0,0,2,2.081c.3.026.6-.014.9.025.635.085.852-.144.743-.789a13.814,13.814,0,0,1-.031-3.487,26.8,26.8,0,0,1,.387-3.107c.118-.58.082-.951-.705-.877a18.689,18.689,0,0,1-2.6.007c-.527-.025-.749.09-.713.677.054.894.014,1.793.014,2.69m25-10.415c-1.78.113-3.376.218-4.972.311-.253.015-.391.1-.391.366,0,1.806,0,3.612,0,5.633l5.362-6.31" transform="translate(0 -76.997)" fill="#0c0b0b"/>
          <path id="Trazado_122894" data-name="Trazado 122894" d="M359.234,466.759a15.945,15.945,0,0,1-4.208-2.04,6.483,6.483,0,0,1-2.323-2.785,3.612,3.612,0,0,1,4.1-4.807,9.568,9.568,0,0,1,5.143,3.239c.2.22.387.451.612.714a11.389,11.389,0,0,1,4.036-3.38,4.863,4.863,0,0,1,3.025-.6,3.578,3.578,0,0,1,2.429,5.527,9.374,9.374,0,0,1-5.977,3.953c-.136.034-.307-.016-.353.184Zm4.8-2.654a7.6,7.6,0,0,0,5.527-2.645,1.007,1.007,0,0,0,.16-1.313.994.994,0,0,0-1.292-.248,7.478,7.478,0,0,0-4.394,4.2m-3-.013a7.352,7.352,0,0,0-4.385-4.2,1.019,1.019,0,0,0-1.3.272,1,1,0,0,0,.189,1.313,7.593,7.593,0,0,0,5.494,2.61" transform="translate(-288.836 -374.545)" fill="#0c0b0b"/>
          <path id="Trazado_122895" data-name="Trazado 122895" d="M0,124.819c.291.149.173.42.173.639q.009,8.546,0,17.092c0,.218.122.49-.174.636Z" transform="translate(0 -102.289)" fill="#666363"/>
          <path id="Trazado_122896" data-name="Trazado 122896" d="M73.264,133.428c-1.976.018-3.952.018-5.928.065-.553.013-.542-.275-.54-.666.009-2.428,0-4.856,0-7.284,0-2.758-.017-5.516.007-8.273a4.7,4.7,0,0,1,3.877-4.608c.7,0,1.065.49,1.373,1.007.871,1.463,1.7,2.95,2.574,4.41,1.655,2.768,1.144,2.965,4.739,2.909.1.147.2.292.285.443a1.425,1.425,0,0,0,1.575.857,1.341,1.341,0,0,0,1.111-1.3,25.8,25.8,0,0,0,3.537.175c.339,1.231.558,1.395,1.852,1.459.948.047,1.894.121,2.841.182a7.155,7.155,0,0,1,.309.827,1.961,1.961,0,0,1-.657,2.333c-3.28.259-6.562.493-9.838.789a3.069,3.069,0,0,1-3.017-1.492c-1.8-2.538-3.673-5.018-5.508-7.528-.392-.536-.832-.966-1.555-.827a1.354,1.354,0,0,0-.777,2.229c1.109,1.559,2.259,3.089,3.388,4.633.139.191.253.4.378.6q-.016,4.528-.032,9.056" transform="translate(-54.738 -92.327)" fill="#dee4f0"/>
          <path id="Trazado_122897" data-name="Trazado 122897" d="M51.668,15.511a6.333,6.333,0,0,1-6.31-6.094c-.054-.6-.188-.841-.815-.769a9.978,9.978,0,0,1-1.529.007A1.341,1.341,0,0,1,41.62,7.322a1.212,1.212,0,0,1,1.337-1.345c1.676.213,2.443-.277,2.968-2.049.8-2.7,3.72-4.194,6.589-3.888a6.4,6.4,0,0,1,5.5,5.285c.087.495.214.656.7.625a15.029,15.029,0,0,1,1.8.008,1.319,1.319,0,0,1,1.316,1.311,1.349,1.349,0,0,1-1.346,1.386,9.886,9.886,0,0,1-1.618-.005c-.651-.073-.776.2-.8.794a6.259,6.259,0,0,1-6.392,6.069m-3.49-9.725c.025.05.051.143.077.143,2.24.013,4.48.016,6.719.029.341,0,.374-.125.316-.435a3.573,3.573,0,0,0-4.453-2.617,3.293,3.293,0,0,0-2.659,2.879m3.928,2.906c-1.137-.011-2.275.006-3.411-.045-.56-.025-.625.206-.6.682A3.508,3.508,0,0,0,50.673,12.6a3.6,3.6,0,0,0,4.7-3.337c0-.448-.087-.641-.581-.615-.893.046-1.789.032-2.683.042" transform="translate(-34.107 0)" fill="#0c0b0b"/>
          <path id="Trazado_122898" data-name="Trazado 122898" d="M376.778,348.454c-.143.8-.463,1.259-1.133,1.414a1.19,1.19,0,0,1-1.439-.638,24.8,24.8,0,0,1-1.186-2.9,1.209,1.209,0,0,1,.628-1.456,1.172,1.172,0,0,1,1.57.139,12.829,12.829,0,0,1,1.56,3.436" transform="translate(-305.638 -282.437)" fill="#100f0f"/>
          <path id="Trazado_122899" data-name="Trazado 122899" d="M330.961,237.567a1.173,1.173,0,0,1,1.067.555,13.483,13.483,0,0,1,1.25,3.051,1.221,1.221,0,0,1-.885,1.555,1.25,1.25,0,0,1-1.645-.713c-.4-.9-.784-1.806-1.091-2.738a1.327,1.327,0,0,1,1.3-1.71" transform="translate(-270.101 -194.686)" fill="#100f0f"/>
          <path id="Trazado_122900" data-name="Trazado 122900" d="M411.343,251.41a1.318,1.318,0,0,1-1.1-.6c-.527-.651-1.064-1.3-1.564-1.967a1.324,1.324,0,0,1,.19-1.982,1.29,1.29,0,0,1,1.905.247c.606.7,1.182,1.431,1.734,2.175a1.228,1.228,0,0,1,.06,1.435,1.313,1.313,0,0,1-1.226.687" transform="translate(-334.622 -202.049)" fill="#100f0f"/>
          <path id="Trazado_122901" data-name="Trazado 122901" d="M287.337,367.819c-.006-.964.475-1.555,1.217-1.622a1.287,1.287,0,0,1,1.485,1.207c.137.855.243,1.717.317,2.58a1.406,1.406,0,0,1-1.216,1.6,1.331,1.331,0,0,1-1.488-1.224c-.149-.883-.224-1.778-.316-2.546" transform="translate(-235.473 -300.092)" fill="#100f0f"/>
          <path id="Trazado_122902" data-name="Trazado 122902" d="M376.593,204.678a1.48,1.48,0,0,1-.756,1.275,1.146,1.146,0,0,1-1.421-.115,13.3,13.3,0,0,1-2.123-2.652,1.18,1.18,0,0,1,.365-1.6,1.167,1.167,0,0,1,1.572-.084,11.1,11.1,0,0,1,2.274,2.857,1.281,1.281,0,0,1,.089.318" transform="translate(-304.945 -164.913)" fill="#100f0f"/>
          <path id="Trazado_122903" data-name="Trazado 122903" d="M340.563,159.388a1.423,1.423,0,0,1-.782,1.255,1.266,1.266,0,0,1-1.567-.259c-.663-.768-1.3-1.56-1.895-2.385a1.2,1.2,0,0,1,.2-1.633,1.161,1.161,0,0,1,1.623-.216,10.071,10.071,0,0,1,2.325,2.92,1.414,1.414,0,0,1,.093.319" transform="translate(-275.419 -127.763)" fill="#100f0f"/>
          <path id="Trazado_122904" data-name="Trazado 122904" d="M281.323,310.249c-.014-1.091.457-1.695,1.232-1.773a1.384,1.384,0,0,1,1.474,1.351c.115.829.228,1.66.3,2.493a1.366,1.366,0,0,1-1.164,1.548,1.268,1.268,0,0,1-1.542-1.135c-.161-.88-.221-1.778-.3-2.483" transform="translate(-230.544 -252.791)" fill="#100f0f"/>
          <path id="Trazado_122905" data-name="Trazado 122905" d="M275.341,253.018c-.036-1.307.412-1.907,1.262-1.948.81-.039,1.323.489,1.44,1.48.091.771.2,1.541.274,2.314a1.438,1.438,0,0,1-1.209,1.619,1.345,1.345,0,0,1-1.486-1.132c-.158-.849-.211-1.718-.281-2.332" transform="translate(-225.64 -205.75)" fill="#100f0f"/>
          <path id="Trazado_122906" data-name="Trazado 122906" d="M269.336,195.655c-.069-1.438.338-2.032,1.259-2.058a1.333,1.333,0,0,1,1.413,1.214c.113.858.194,1.722.263,2.585a1.385,1.385,0,0,1-1.21,1.6,1.407,1.407,0,0,1-1.523-1.319c-.1-.74-.151-1.485-.2-2.022" transform="translate(-220.714 -158.652)" fill="#100f0f"/>
          <path id="Trazado_122907" data-name="Trazado 122907" d="M354.939,294.816a1.4,1.4,0,0,1-.989,1.482,1.158,1.158,0,0,1-1.478-.54,21.661,21.661,0,0,1-1.258-3.058,1.174,1.174,0,0,1,.71-1.409,1.194,1.194,0,0,1,1.622.291,14.006,14.006,0,0,1,1.393,3.235" transform="translate(-287.776 -238.56)" fill="#100f0f"/>
          <path id="Trazado_122908" data-name="Trazado 122908" d="M311.567,187.506c0,.793-.28,1.271-.886,1.469a1.223,1.223,0,0,1-1.574-.508,12.888,12.888,0,0,1-1.225-3.058,1.224,1.224,0,0,1,.776-1.453,1.147,1.147,0,0,1,1.53.34,13.2,13.2,0,0,1,1.379,3.211" transform="translate(-252.277 -150.628)" fill="#100f0f"/>
          <path id="Trazado_122909" data-name="Trazado 122909" d="M70.3,315.208a7,7,0,0,1,.079-2.468,8.968,8.968,0,0,0-.532-4.217c-1.05-3.265-2.072-6.539-3.142-9.928a12.176,12.176,0,0,0,6.668-1.232c-.055,5.686.2,11.374-.15,17.058-.035.566-.162.814-.766.781-.716-.04-1.437,0-2.156.007" transform="translate(-54.666 -243.688)" fill="#0b481e"/>
          <path id="Trazado_122910" data-name="Trazado 122910" d="M20.881,109.575a3.191,3.191,0,0,1,4.516,2.85c.045,5.776.013,11.553.019,17.329,0,.633-.322.989-.908.987a39.256,39.256,0,0,1-4.92-.063,15.935,15.935,0,0,1,1.615-.028c.646.051.808-.213.806-.825-.019-5.9,0-11.806-.023-17.708a3.376,3.376,0,0,0-1.105-2.543" transform="translate(-16.052 -89.576)" fill="#ffd947"/>
          <path id="Trazado_122911" data-name="Trazado 122911" d="M86.629,300.91c.719-.006,1.44-.046,2.156-.007.6.033.732-.215.766-.781.348-5.684.095-11.373.15-17.058a13.372,13.372,0,0,0,3.2-3.149c.025.51.048.79.051,1.07q.069,6.477.136,12.954c.026,2.191-.184,4.37-.307,6.554-.017.3-.055.544-.431.529a52.079,52.079,0,0,1-5.722-.112" transform="translate(-70.993 -229.391)" fill="#0b481e"/>
          <path id="Trazado_122912" data-name="Trazado 122912" d="M17.666,110.8a3.376,3.376,0,0,1,1.105,2.543c.021,5.9,0,11.806.023,17.708,0,.612-.16.875-.806.825a15.935,15.935,0,0,0-1.615.028c-.784-.017-.7-.6-.7-1.1q-.01-6.122,0-12.244c0-1.68-.033-3.363.029-5.041a2.822,2.822,0,0,1,1.963-2.717" transform="translate(-12.838 -90.799)" fill="#ffd947"/>
          <path id="Trazado_122913" data-name="Trazado 122913" d="M69.733,249.542a6.256,6.256,0,0,1-4.845,1.932c-2.32.029-2.314.026-2.408-2.277a27.961,27.961,0,0,1,.479-5.363c.055-.36.124-.66.654-.647,2.038.05,4.078.042,6.117.056q0,3.15,0,6.3" transform="translate(-51.192 -199.292)" fill="#0b481e"/>
          <path id="Trazado_122914" data-name="Trazado 122914" d="M75.742,415.684q.117-1.776.234-3.553l4.265.009c-.055.62-.1,1.24-.166,1.86-.165,1.653-.4,3.3-.485,4.958-.068,1.288-.335,2.612.411,3.844.71,1.172,1.33,2.4,2.022,3.581a1.512,1.512,0,0,1,.217.844c-1.105.009-2.21.025-3.316.025-1.837,0-2.583-.913-2.417-2.8.21-2.378.341-4.763.513-7.144a1.386,1.386,0,0,0-1.279-1.627" transform="translate(-62.071 -337.742)" fill="#727997"/>
          <path id="Trazado_122915" data-name="Trazado 122915" d="M99.246,427.047a1.512,1.512,0,0,0-.217-.844c-.692-1.183-1.312-2.409-2.022-3.581-.747-1.231-.479-2.556-.411-3.844.087-1.657.319-3.306.485-4.958.062-.619.111-1.24.166-1.86.9-.013,1.8,0,2.7-.047.5-.025.609.186.566.636-.217,2.294-.367,4.6-.64,6.882a5.466,5.466,0,0,0,.682,3.939c.756,1.136,1.355,2.376,2.083,3.677Z" transform="translate(-79.075 -337.562)" fill="#727997"/>
          <path id="Trazado_122916" data-name="Trazado 122916" d="M97.032,120.273c-3.595.056-3.084-.141-4.739-2.909-.873-1.461-1.7-2.948-2.574-4.41-.308-.517-.669-1.008-1.373-1.007a4.735,4.735,0,0,1,5.174,2.105c1.187,2.064,2.343,4.146,3.512,6.221" transform="translate(-72.4 -91.611)" fill="#dee4f0"/>
          <path id="Trazado_122917" data-name="Trazado 122917" d="M102.636,186.592q.016-4.528.032-9.056c1.151,1.253,1.908,2.821,3.177,3.979.022.02.054.044.056.068a47.259,47.259,0,0,1,.02,4.84c-.005.282-.312.22-.506.218-.926-.01-1.852-.032-2.778-.05" transform="translate(-84.11 -145.491)" fill="#dee4f0"/>
          <path id="Trazado_122918" data-name="Trazado 122918" d="M102.707,249.615q0-3.15,0-6.3c.926-.014,1.851-.03,2.777-.038.171,0,.358-.029.48.152a5.862,5.862,0,0,1-.079,2.546c-1.05,1.221-2.115,2.428-3.175,3.64" transform="translate(-84.166 -199.364)" fill="#0b481e"/>
          <path id="Trazado_122919" data-name="Trazado 122919" d="M196.6,171.916a1.961,1.961,0,0,0,.657-2.333,7.227,7.227,0,0,0-.309-.827,11.942,11.942,0,0,1,2.5.1,1.338,1.338,0,0,1,1.238,1.409,1.282,1.282,0,0,1-1.151,1.384c-.973.131-1.958.179-2.937.263" transform="translate(-161.11 -138.276)" fill="#dee4f0"/>
          <path id="Trazado_122920" data-name="Trazado 122920" d="M416.633,476.52a7.477,7.477,0,0,1,4.394-4.2.994.994,0,0,1,1.291.248,1.007,1.007,0,0,1-.16,1.313,7.6,7.6,0,0,1-5.526,2.644" transform="translate(-341.431 -386.96)" fill="#b4c953"/>
          <path id="Trazado_122921" data-name="Trazado 122921" d="M373.413,476.546a7.593,7.593,0,0,1-5.494-2.61,1,1,0,0,1-.189-1.313,1.019,1.019,0,0,1,1.3-.272,7.352,7.352,0,0,1,4.385,4.2" transform="translate(-301.214 -386.999)" fill="#c8d585"/>
          <path id="Trazado_122922" data-name="Trazado 122922" d="M93.21,47.957c.895-.011,1.79,0,2.683-.042.494-.026.581.167.581.615a3.6,3.6,0,0,1-4.7,3.337,5.359,5.359,0,0,0,1.433-3.91" transform="translate(-75.211 -39.264)" fill="#f19a8a"/>
          <path id="Trazado_122923" data-name="Trazado 122923" d="M81.486,47.949a5.359,5.359,0,0,1-1.433,3.91,3.508,3.508,0,0,1-2.578-3.273c-.026-.475.04-.707.6-.682,1.135.051,2.274.034,3.411.045" transform="translate(-63.488 -39.256)" fill="#f7bfb0"/>
          <path id="Trazado_122924" data-name="Trazado 122924" d="M80.613,15.394a3.573,3.573,0,0,1,4.453,2.617c.058.31.025.437-.316.435-2.24-.013-4.48-.016-6.719-.029-.026,0-.051-.094-.077-.143.96,0,1.919,0,2.879,0s.989-.115.737-1.067c-.183-.69-.777-1.136-.957-1.81" transform="translate(-63.883 -12.487)" fill="#adce32"/>
          <path id="Trazado_122925" data-name="Trazado 122925" d="M80.613,16.108c.18.675.774,1.121.957,1.81.253.952.212,1.062-.737,1.067s-1.919,0-2.879,0a3.293,3.293,0,0,1,2.659-2.879" transform="translate(-63.883 -13.201)" fill="#adce32"/>
        </g>
      </g>
    </g>
  </g>
</svg>
