<svg xmlns="http://www.w3.org/2000/svg" xmlns:xlink="http://www.w3.org/1999/xlink" width="206.973" height="174.711" viewBox="0 0 206.973 174.711">
  <defs>
    <clipPath id="clip-path">
      <rect id="Rectángulo_347829" data-name="Rectángulo 347829" width="83.173" height="82.583" fill="none"/>
    </clipPath>
  </defs>
  <g id="Grupo_1084174" data-name="Grupo 1084174" transform="translate(-718.027 -934.252)">
    <path id="Trazado_206286" data-name="Trazado 206286" d="M532.267,87.42A66.768,66.768,0,1,1,465.5,20.652,66.768,66.768,0,0,1,532.267,87.42" transform="translate(339.88 934.188)" fill="#ffd947"/>
    <path id="Trazado_206287" data-name="Trazado 206287" d="M585.12,87.419l-13.271-8.8v7c-21.9,1.868-25.937,26.878-27.229,29.545a83.864,83.864,0,1,1,1.843-49.516,8.452,8.452,0,1,0,3.577-.8c-.052,0-.1.007-.153.008a87.342,87.342,0,1,0-1.613,50.486c.993-2.054,5.059-24.219,23.575-26.212v7.083Zm-30.114-14.1a4.966,4.966,0,1,1-4.966-4.966,4.97,4.97,0,0,1,4.966,4.966" transform="translate(339.88 934.188)" fill="#12263f"/>
    <g id="Grupo_1083509" data-name="Grupo 1083509" transform="translate(760.414 986.132)">
      <g id="Grupo_1005834" data-name="Grupo 1005834" clip-path="url(#clip-path)">
        <path id="Trazado_122926" data-name="Trazado 122926" d="M19.931,49.918A1.417,1.417,0,0,1,18.3,51.13c-4.6-.021-9.2.024-13.8-.03A4.542,4.542,0,0,1,.009,46.851a4.433,4.433,0,0,1,3.957-4.872,24.3,24.3,0,0,1,4.046-.131c.953.036,1.12-.3,1.124-1.189a8.263,8.263,0,0,1,8.206-8.614c1.014-.028,1.209-.543,1.559-1.218a12.043,12.043,0,0,1,10.208-6.971c5.148-.4,9.375,1.583,11.777,6.132,1.21,2.29,2.217,3.169,4.59,2.081a1.559,1.559,0,0,1,1.118-.031c2.476,1.023,3.58-.382,5-2.2,4.758-6.088,14.414-5.644,18.939.639.627.871.839,1.607.039,2.433a1.962,1.962,0,0,1-2.144-1.022,9.209,9.209,0,0,0-10.923-3.165A8.876,8.876,0,0,0,52.4,32.9c-.439.688-.328,1.1.3,1.6A7.06,7.06,0,0,1,54.977,37.6c.357.976.8.97,1.667.577a11.619,11.619,0,0,1,9.708.006,20.117,20.117,0,0,1,3.581,2.311c.252-1.373.689-2.485.281-3.678a1.82,1.82,0,0,1,1.164-1.765c1.085.085,1.422.734,1.45,1.747a12.889,12.889,0,0,1-.665,4.926c-.713,1.919.079,3.106,2.1,3.24,3.8.252,7.3,3.707,7.08,7.67a6.068,6.068,0,0,0,1.832,4.663v2.924c-1.369,2.453-3.522,2.992-6.2,2.946-7.4-.128-14.806-.044-22.209-.044H52.976c.022.281-.018.47.055.589.56.918-.261,2.384.716,2.886.816.419,2.012.071,3.036.12a3.724,3.724,0,0,1,3.655,3.755,3.851,3.851,0,0,1-4,3.976c-2.971.068-5.944.018-8.916.018-2.864,0-5.729-.03-8.592.016-1.028.017-1.8-.222-2.171-1.257.32-1.042,1.032-1.338,2.094-1.33,5.737.041,11.474.014,17.211.025.74,0,1.465-.036,1.742-.842.237-.692.241-1.4-.651-1.711-1.647-.448-3.328-.1-4.989-.211-1.526-.1-1.853-.534-1.506-2.04.779-3.385-1.372-5.867-4.884-5.506a1.606,1.606,0,0,1-1.912-1.253c-1.328-3.45-4.222-5.487-7.467-5.294-3.628.215-6.225,2.519-7.151,6.344-.338,1.4-.947,1.706-2.171,1.024a5.012,5.012,0,0,0-3.361-.853c-3.086.522-5.044,2.747-4.8,5.458A5.29,5.29,0,0,0,24.5,71.912c2.7,0,5.4.023,8.1-.011.984-.012,1.687.25,1.892,1.3-.2.973-.857,1.269-1.775,1.264-3.026-.015-6.055.064-9.078-.023-4.348-.125-7.589-4.258-7.074-8.894A7.53,7.53,0,0,1,25.5,59.227c1.293.293,1.733.023,2.312-1.147a9.4,9.4,0,0,1,7.743-5.386,6.4,6.4,0,0,1,.967-.094c.768.029.907-.472.876-1.051-.039-.707-.631-.41-.971-.412q-6.079-.035-12.159-.006c-.941.005-1.742-.1-1.946-1.216.219-1.314,1.2-1.322,2.216-1.321,7.243.008,14.487-.026,21.73.02a6.524,6.524,0,0,0,6.005-3.358,6.907,6.907,0,0,0-.67-8.369,7.013,7.013,0,0,0-8.564-1.508c-2.293,1.223-2.455,1.113-3.08-1.368a9.277,9.277,0,0,0-6.11-6.952c-5.248-2.283-11.229.476-13.224,6.177-.41,1.171-.884,1.73-2.2,1.393a4.679,4.679,0,0,0-2.4.069,5.888,5.888,0,0,0-4.158,7.315c.51,1.928.232,2.3-1.757,2.3-1.783.007-3.568-.052-5.348.021A2.118,2.118,0,0,0,2.618,47.2c.4,1.145,1.341,1.407,2.457,1.4,4.268-.02,8.536,0,12.8-.014,1,0,1.852.135,2.051,1.328M58.822,60.5q9.9.028,19.789.059c.946,0,1.738-.23,1.977-1.273a1.761,1.761,0,0,0-1.216-2.3c-1-.356-1.355-1-.868-2.009a5.394,5.394,0,0,0-5.768-7.448c-1.258.211-1.917-.194-2.371-1.5A8.429,8.429,0,0,0,65,40.4a8.767,8.767,0,0,0-6.269-.375c-1.73.435-2.9,1.175-3.113,3.253a9.386,9.386,0,0,1-9.761,7.862c-1.56-.11-3.137.04-4.7-.037-.977-.048-1.113.552-1.353,1.246-.288.835.314.862.8,1.074a10.058,10.058,0,0,1,5.064,4.781c.118.234.253.65.392.655,2.034.069,3.7,1.49,5.639,1.649,2.36.194,4.75.012,7.127-.008" transform="translate(0 -16.035)" fill="#0f0f11"/>
        <path id="Trazado_122927" data-name="Trazado 122927" d="M183.985,0c1.277,2.1.486,4.379.513,6.579.006.455-.547.8-1.066.841-.6.043-1.206-.315-1.223-.839-.073-2.2-.71-4.466.477-6.581Z" transform="translate(-122.579)" fill="#161515"/>
        <path id="Trazado_122928" data-name="Trazado 122928" d="M25.047,54.978c-.2-1.193-1.053-1.331-2.051-1.328-4.268.015-8.536-.006-12.8.014-1.116.005-2.056-.256-2.457-1.4A2.118,2.118,0,0,1,9.868,49.4c1.78-.072,3.565-.014,5.348-.021,1.989-.008,2.267-.377,1.757-2.3a5.888,5.888,0,0,1,4.158-7.315,4.682,4.682,0,0,1,2.4-.069c1.319.337,1.794-.222,2.2-1.392,2-5.7,7.976-8.46,13.224-6.177-.526,1.4-1.511,1.714-2.987,1.694-4.027-.053-7.515,4.282-6.684,8.209.222,1.048.181,1.542-1.033,1.5-1.514-.049-3.032-.048-4.546,0a3.571,3.571,0,0,0-3.647,3.541,3.5,3.5,0,0,0,3.709,3.267q16.806,0,33.613-.016a6.524,6.524,0,0,1-6.005,3.358c-7.243-.047-14.486-.012-21.73-.02-1.018,0-2,.007-2.216,1.321l-2.39,0" transform="translate(-5.116 -21.095)" fill="#f3f9ff"/>
        <path id="Trazado_122929" data-name="Trazado 122929" d="M96.157,147.318c.892.312.888,1.019.651,1.711-.277.806-1,.844-1.742.842-5.738-.011-11.475.016-17.212-.025-1.062-.007-1.775.288-2.094,1.33l-2.27-.018c-.2-1.055-.908-1.317-1.892-1.3-2.7.034-5.4.013-8.1.011a5.29,5.29,0,0,1-5.586-4.877c-.241-2.712,1.717-4.937,4.8-5.458a2.749,2.749,0,0,0-.287,2.04,6.731,6.731,0,0,0,6.888,6.012q12.729.033,25.457,0c.47,0,.984.142,1.382-.266" transform="translate(-38.998 -93.989)" fill="#e8e8e8"/>
        <path id="Trazado_122930" data-name="Trazado 122930" d="M176.2,37.473a9.209,9.209,0,0,1,10.923,3.165,1.962,1.962,0,0,0,2.144,1.022q.4,1.071.8,2.142a1.82,1.82,0,0,0-1.163,1.765,9.665,9.665,0,0,1-4.624.025,10.743,10.743,0,0,1-8.082-8.119" transform="translate(-118.689 -24.79)" fill="#ffd947"/>
        <path id="Trazado_122931" data-name="Trazado 122931" d="M233.322,64.866c-.807,0-1.617.043-2.42-.013a1.078,1.078,0,0,1-1.064-1.188,1.055,1.055,0,0,1,1.049-1.2q2.581-.076,5.164-.014a1.2,1.2,0,0,1,.016,2.407c-.914.037-1.829.009-2.745.009v-.006" transform="translate(-154.82 -42.053)" fill="#0e0e0d"/>
        <path id="Trazado_122932" data-name="Trazado 122932" d="M224.693,36.048a1.525,1.525,0,0,1-1.254-.791,1.029,1.029,0,0,1,.325-1.425c1.544-.96,3.126-1.862,4.724-2.733.572-.312,1.065.078,1.377.522a1.027,1.027,0,0,1-.038,1.349,27.229,27.229,0,0,1-5.134,3.078" transform="translate(-150.409 -20.873)" fill="#161515"/>
        <path id="Trazado_122933" data-name="Trazado 122933" d="M135.123,34.72c-.337.95-.842,1.622-1.809,1.136-1.529-.769-3-1.664-4.467-2.542a1.139,1.139,0,0,1-.429-1.559,1.058,1.058,0,0,1,1.451-.65c1.607.854,3.177,1.781,4.726,2.736.272.167.374.611.527.878" transform="translate(-86.407 -20.874)" fill="#171616"/>
        <path id="Trazado_122934" data-name="Trazado 122934" d="M2.608,159.1c-.911-.1-1.477-.711-1.15-1.505a44.672,44.672,0,0,1,2.462-4.868,1.017,1.017,0,0,1,1.44-.3c.508.289.916.784.692,1.323a29.577,29.577,0,0,1-2.569,4.994.931.931,0,0,1-.875.358" transform="translate(-0.919 -102.563)" fill="#191818"/>
        <path id="Trazado_122935" data-name="Trazado 122935" d="M210.882,9.842a23.4,23.4,0,0,1-3,4.947,1.053,1.053,0,0,1-1.475-.137,1.141,1.141,0,0,1-.262-1.475c.814-1.461,1.647-2.911,2.521-4.336a1.127,1.127,0,0,1,1.388-.557c.55.2.9.592.829,1.558" transform="translate(-138.751 -5.532)" fill="#141313"/>
        <path id="Trazado_122936" data-name="Trazado 122936" d="M156.06,13.464c0,.837-.29,1.223-.792,1.387a1.152,1.152,0,0,1-1.443-.426c-.891-1.477-1.768-2.965-2.573-4.49a1.144,1.144,0,0,1,.348-1.467c.415-.323.936-.5,1.33-.1a20.817,20.817,0,0,1,3.13,5.092" transform="translate(-101.794 -5.48)" fill="#141313"/>
        <path id="Trazado_122937" data-name="Trazado 122937" d="M191.284,152.38a1.251,1.251,0,0,1,1.308,1.794c-.661,1.516-1.464,2.973-2.255,4.429a1.152,1.152,0,0,1-1.544.483,1.033,1.033,0,0,1-.707-1.294,22.584,22.584,0,0,1,2.64-5.092c.136-.192.447-.261.557-.321" transform="translate(-126.657 -102.643)" fill="#171616"/>
        <path id="Trazado_122938" data-name="Trazado 122938" d="M172.33,193.729c-.877,1.534-1.485,3.455-2.774,4.989a1.022,1.022,0,0,1-1.469-.017,1.113,1.113,0,0,1-.366-1.434c.747-1.484,1.482-2.975,2.265-4.441a1.137,1.137,0,0,1,1.5-.592,1.377,1.377,0,0,1,.84,1.495" transform="translate(-112.891 -129.426)" fill="#191818"/>
        <path id="Trazado_122939" data-name="Trazado 122939" d="M231.436,198.943c-.915-.193-1.5-.71-1.061-1.682.681-1.516,1.465-2.989,2.264-4.447a1.113,1.113,0,0,1,1.642-.52,1.167,1.167,0,0,1,.574,1.642q-1.073,2.169-2.217,4.3a1.157,1.157,0,0,1-1.2.7" transform="translate(-155.083 -129.408)" fill="#191818"/>
        <path id="Trazado_122940" data-name="Trazado 122940" d="M54.6,238.745c-.762-.18-1.165-.826-.708-1.818.648-1.406,1.374-2.777,2.1-4.145a1.19,1.19,0,0,1,1.591-.7,1.213,1.213,0,0,1,.663,1.745c-.694,1.5-1.475,2.961-2.251,4.422-.213.4-.611.589-1.4.5" transform="translate(-36.172 -156.258)" fill="#161515"/>
        <path id="Trazado_122941" data-name="Trazado 122941" d="M151.891,233.54a30.9,30.9,0,0,1-2.621,4.933,1.052,1.052,0,0,1-1.466.135,1.155,1.155,0,0,1-.476-1.551q1.069-2.244,2.279-4.42a1.141,1.141,0,0,1,1.513-.566c.555.231.787.7.771,1.469" transform="translate(-99.154 -156.255)" fill="#171616"/>
        <path id="Trazado_122942" data-name="Trazado 122942" d="M54.041,119.292a1.193,1.193,0,0,1-1.156-1.774c.679-1.511,1.459-2.979,2.271-4.424a1.116,1.116,0,0,1,1.532-.494,1.1,1.1,0,0,1,.66,1.464c-.758,1.645-1.613,3.246-2.461,4.848a.869.869,0,0,1-.845.38" transform="translate(-35.53 -75.76)" fill="#171616"/>
        <path id="Trazado_122943" data-name="Trazado 122943" d="M32.535,157.672a22.705,22.705,0,0,1,2.758-5.132.943.943,0,0,1,1.325-.04,1.188,1.188,0,0,1,.478,1.553c-.708,1.5-1.469,2.971-2.254,4.43a1.215,1.215,0,0,1-1.54.545c-.513-.159-.726-.6-.768-1.356" transform="translate(-21.916 -102.557)" fill="#141313"/>
        <path id="Trazado_122944" data-name="Trazado 122944" d="M110.177,193.674a31.392,31.392,0,0,1-2.623,4.969,1.04,1.04,0,0,1-1.465.131,1.155,1.155,0,0,1-.485-1.544c.725-1.491,1.469-2.975,2.269-4.427a1.142,1.142,0,0,1,1.515-.56,1.372,1.372,0,0,1,.788,1.432" transform="translate(-71.048 -129.427)" fill="#171616"/>
        <path id="Trazado_122945" data-name="Trazado 122945" d="M44.524,198.948A1.2,1.2,0,0,1,43.3,197.19c.664-1.464,1.411-2.892,2.177-4.306a1.157,1.157,0,0,1,1.627-.606c.581.287.99.839.705,1.452-.746,1.606-1.592,3.167-2.433,4.727a.835.835,0,0,1-.848.492" transform="translate(-29.072 -129.423)" fill="#161515"/>
        <path id="Trazado_122946" data-name="Trazado 122946" d="M179.065,238.743c-.8-.19-1.188-.845-.729-1.832.655-1.409,1.381-2.787,2.127-4.151a1.194,1.194,0,0,1,1.609-.682,1.13,1.13,0,0,1,.691,1.579c-.729,1.548-1.526,3.066-2.326,4.58-.213.4-.618.585-1.372.506" transform="translate(-119.997 -156.251)" fill="#171616"/>
        <path id="Trazado_122947" data-name="Trazado 122947" d="M117.584,238.768c-1.076-.065-1.5-.8-1.144-1.656a41.605,41.605,0,0,1,2.343-4.6,1.063,1.063,0,0,1,1.418-.447,1.133,1.133,0,0,1,.725,1.453,28.2,28.2,0,0,1-2.468,4.887.912.912,0,0,1-.873.361" transform="translate(-78.353 -156.247)" fill="#131212"/>
        <path id="Trazado_122948" data-name="Trazado 122948" d="M24.943,112.436c.98.166,1.586.751,1.254,1.578a43.5,43.5,0,0,1-2.363,4.765,1.13,1.13,0,0,1-1.584.359,1.056,1.056,0,0,1-.557-1.382c.764-1.659,1.61-3.282,2.478-4.89.125-.231.539-.306.773-.429" transform="translate(-14.552 -75.738)" fill="#131212"/>
        <path id="Trazado_122949" data-name="Trazado 122949" d="M223.914,153.771a38.491,38.491,0,0,1-2.733,5.041,1.024,1.024,0,0,1-1.464.138,1.116,1.116,0,0,1-.482-1.532c.757-1.481,1.5-2.972,2.3-4.429a1.142,1.142,0,0,1,1.518-.565,1.5,1.5,0,0,1,.865,1.348" transform="translate(-147.582 -102.605)" fill="#131212"/>
        <path id="Trazado_122950" data-name="Trazado 122950" d="M203.344,193.82a27.768,27.768,0,0,1-2.669,4.881,1.053,1.053,0,0,1-1.471.02,1.106,1.106,0,0,1-.382-1.435c.738-1.544,1.51-3.075,2.34-4.572a1.081,1.081,0,0,1,1.4-.488c.531.219.874.619.784,1.595" transform="translate(-133.846 -129.423)" fill="#131212"/>
        <path id="Trazado_122951" data-name="Trazado 122951" d="M74.763,198.9a1.079,1.079,0,0,1-.811-1.633c.67-1.516,1.439-2.994,2.239-4.447a1.116,1.116,0,0,1,1.641-.522,1.154,1.154,0,0,1,.567,1.628c-.711,1.443-1.426,2.883-2.168,4.309a1.268,1.268,0,0,1-1.468.665" transform="translate(-49.717 -129.409)" fill="#131212"/>
        <path id="Trazado_122952" data-name="Trazado 122952" d="M141.266,193.585a30.423,30.423,0,0,1-2.764,5.108,1.018,1.018,0,0,1-1.464.033,1.081,1.081,0,0,1-.445-1.409c.766-1.534,1.53-3.069,2.354-4.572a1.108,1.108,0,0,1,1.4-.526,1.484,1.484,0,0,1,.922,1.366" transform="translate(-91.932 -129.43)" fill="#131212"/>
        <path id="Trazado_122953" data-name="Trazado 122953" d="M89.937,233.761A26.543,26.543,0,0,1,87.4,238.5a1.07,1.07,0,0,1-1.483.057,1.13,1.13,0,0,1-.412-1.448c.72-1.562,1.5-3.1,2.339-4.6a1.06,1.06,0,0,1,1.419-.44c.53.254.862.655.674,1.7" transform="translate(-57.522 -156.242)" fill="#131212"/>
        <path id="Trazado_122954" data-name="Trazado 122954" d="M16.844,193.605c-.89,1.664-1.516,3.573-2.795,5.112a1.012,1.012,0,0,1-1.463-.015,1.114,1.114,0,0,1-.4-1.43c.745-1.484,1.478-2.975,2.27-4.434a1.167,1.167,0,0,1,1.509-.6,1.469,1.469,0,0,1,.875,1.369" transform="translate(-8.127 -129.433)" fill="#131212"/>
        <path id="Trazado_122955" data-name="Trazado 122955" d="M83.121,51.97q-16.806.01-33.613.016A3.5,3.5,0,0,1,45.8,48.719a3.571,3.571,0,0,1,3.647-3.541c1.514-.046,3.032-.047,4.546,0,1.214.039,1.254-.455,1.033-1.5-.83-3.927,2.658-8.262,6.684-8.209,1.476.02,2.46-.3,2.987-1.694a9.277,9.277,0,0,1,6.11,6.952c.625,2.481.788,2.591,3.08,1.368A7.012,7.012,0,0,1,82.451,43.6a6.907,6.907,0,0,1,.67,8.369" transform="translate(-30.85 -22.75)" fill="#f3f9ff"/>
        <path id="Trazado_122956" data-name="Trazado 122956" d="M168.124,74.652a8.432,8.432,0,0,1,5.365,5.625c.454,1.308,1.113,1.711,2.371,1.5a5.394,5.394,0,0,1,5.768,7.448c-.488,1-.135,1.653.868,2.009a1.761,1.761,0,0,1,1.216,2.3c-.239,1.042-1.031,1.276-1.977,1.273q-9.895-.035-19.79-.059c-.864-2.657-2.379-4.77-5.4-4.769-1.957,0-2.651-1.066-3.314-2.5-.311-.67-.107-.849.572-.839,1.623.025,3.246.019,4.869.006,5.57-.047,9.844-4.717,9.45-9.57-.066-.805,0-1.621,0-2.433" transform="translate(-103.122 -50.286)" fill="#727997"/>
        <path id="Trazado_122957" data-name="Trazado 122957" d="M105.38,133.847c-.4.408-.912.265-1.382.266q-12.728.011-25.457,0a6.731,6.731,0,0,1-6.888-6.012,2.749,2.749,0,0,1,.287-2.04,5.01,5.01,0,0,1,3.361.852c1.225.683,1.833.375,2.171-1.024.926-3.825,3.523-6.129,7.151-6.344,3.245-.192,6.139,1.844,7.467,5.294A1.606,1.606,0,0,0,94,126.091c3.512-.361,5.663,2.12,4.884,5.506-.347,1.506-.02,1.942,1.506,2.04,1.662.106,3.342-.237,4.989.211" transform="translate(-48.221 -80.517)" fill="#e8e8e8"/>
        <path id="Trazado_122958" data-name="Trazado 122958" d="M147,73.058c0,.812-.067,1.628,0,2.433.394,4.853-3.88,9.524-9.45,9.57-1.623.013-3.247.019-4.869-.006-.679-.01-.883.168-.572.839.664,1.43,1.358,2.5,3.314,2.5,3.021,0,4.536,2.112,5.4,4.769-2.377.02-4.768.2-7.127.008-1.943-.159-3.6-1.58-5.639-1.649-.138,0-.273-.421-.392-.655a10.063,10.063,0,0,0-5.064-4.781c-.481-.212-1.084-.239-.8-1.074.24-.7.376-1.294,1.353-1.247,1.564.077,3.141-.073,4.7.038a9.387,9.387,0,0,0,9.762-7.862c.211-2.078,1.382-2.818,3.112-3.253a8.77,8.77,0,0,1,6.269.375" transform="translate(-81.996 -48.692)" fill="#727997"/>
        <path id="Trazado_122959" data-name="Trazado 122959" d="M165.1,38.858a10.743,10.743,0,0,0,8.082,8.119,9.665,9.665,0,0,0,4.624-.025c.408,1.193-.029,2.3-.281,3.678a20.127,20.127,0,0,0-3.581-2.311,11.619,11.619,0,0,0-9.708-.006c-.866.392-1.309.4-1.667-.577a7.056,7.056,0,0,0-2.279-3.089c-.63-.5-.74-.914-.3-1.6a8.876,8.876,0,0,1,5.112-4.187" transform="translate(-107.593 -26.175)" fill="#ffd947"/>
      </g>
    </g>
  </g>
</svg>
