<svg xmlns="http://www.w3.org/2000/svg" xmlns:xlink="http://www.w3.org/1999/xlink" width="206.973" height="174.711" viewBox="0 0 206.973 174.711">
  <defs>
    <clipPath id="clip-path">
      <rect id="Rectángulo_347830" data-name="Rectángulo 347830" width="57.525" height="83.675" fill="none"/>
    </clipPath>
  </defs>
  <g id="Grupo_1084175" data-name="Grupo 1084175" transform="translate(-1125 -934.252)">
    <path id="Trazado_206288" data-name="Trazado 206288" d="M532.267,87.42A66.768,66.768,0,1,1,465.5,20.652,66.768,66.768,0,0,1,532.267,87.42" transform="translate(746.853 934.188)" fill="#eff5d6"/>
    <path id="Trazado_206289" data-name="Trazado 206289" d="M585.12,87.419l-13.271-8.8v7c-21.9,1.868-25.937,26.878-27.229,29.545a83.864,83.864,0,1,1,1.843-49.516,8.452,8.452,0,1,0,3.577-.8c-.052,0-.1.007-.153.008a87.342,87.342,0,1,0-1.613,50.486c.993-2.054,5.059-24.219,23.575-26.212v7.083Zm-30.114-14.1a4.966,4.966,0,1,1-4.966-4.966,4.97,4.97,0,0,1,4.966,4.966" transform="translate(746.853 934.188)" fill="#0b481e"/>
    <g id="Grupo_1083510" data-name="Grupo 1083510" transform="translate(1183.237 974.77)">
      <g id="Grupo_1005836" data-name="Grupo 1005836" clip-path="url(#clip-path)">
        <path id="Trazado_122960" data-name="Trazado 122960" d="M26.088,83.676a43.454,43.454,0,0,1-13.1-1.784c-6.5-2.126-10.506-6.4-12.051-13.16a31.556,31.556,0,0,1,4.1-24.939A68.273,68.273,0,0,0,13.2,24.875a49.222,49.222,0,0,1,1.968-5.491,12.055,12.055,0,0,1,5.341-6.117.758.758,0,0,0,.44-.98A14.593,14.593,0,0,1,23.274.982,1.676,1.676,0,0,1,25.7.235Q27.333.864,28.966,1.5c1.389.542,1.722,1.355,1.074,2.687a12.027,12.027,0,0,0-1.272,6.062c.025.423.083.732.644.754,4.385.173,7.518,2.463,9.667,6.091,3.3,5.579,6.5,11.226,9.667,16.882a73.526,73.526,0,0,1,7.692,18.255A27.773,27.773,0,0,1,56.964,65.3c-1.345,5.826-4.978,9.923-10,12.895a38.718,38.718,0,0,1-15.04,4.958c-2.264.287-4.548.409-5.836.52M4.777,70.26a11.06,11.06,0,0,0,3.009,4.954,17.282,17.282,0,0,0,8.014,4.1,41.432,41.432,0,0,0,13.955.845,37.829,37.829,0,0,0,14.424-4.172c7.282-3.845,10.848-9.766,10-18.107a43.579,43.579,0,0,0-3.233-12.059,128.573,128.573,0,0,0-9.668-18.206c-1.186-1.946-2.349-3.906-3.549-5.9a14.27,14.27,0,0,1-1.684,1.129,2.278,2.278,0,0,0-1.294,1.791,2.014,2.014,0,0,1-.67,1.189,35.611,35.611,0,0,1-3.41,2.085,3.861,3.861,0,0,1-1.45.319c-.817.078-1.647.042-2.461.141-2.529.307-5.076.959-7.462-.578a1.171,1.171,0,0,0-1.383.126,6.914,6.914,0,0,1-1.982,1.015,1.023,1.023,0,0,0-.857.8c-.829,2.391-1.634,4.793-2.551,7.15a1.627,1.627,0,0,0,.241,1.926,7.075,7.075,0,0,1,2.078,5.623c-.108.827-.241,1.653-.41,2.47-.331,1.6-.745,3.193-1.032,4.8-.254,1.423-.3,2.884-.585,4.3-.358,1.807-.735,3.737-2.331,4.858a4.977,4.977,0,0,0-2.023,3.351,15.931,15.931,0,0,1-.693,2.231C7.185,68,6.486,69.491,4.777,70.26M36.372,18.8a9.339,9.339,0,0,0-6.478-4.6c.588.888.8,1.754,1.779,2.081a1.6,1.6,0,1,1-1,3.047,6.291,6.291,0,0,0-5.816.685,1.595,1.595,0,0,1-2.138-2.27c.1-.161.221-.31.344-.481L22.2,15.895c-.774.636-1.5,1.187-2.165,1.81a.957.957,0,0,0-.171.828A1.65,1.65,0,0,1,18.439,20.9a.823.823,0,0,0-.563.342c-.474,1.175-.9,2.369-1.415,3.754a6.775,6.775,0,0,0,.618-.345A2.149,2.149,0,0,1,19.5,24.4c.774.374,1.592.657,2.382,1a1.185,1.185,0,0,0,1.79-.566,1.527,1.527,0,0,1,2.4-.451,1.488,1.488,0,0,0,1.7.531,5.361,5.361,0,0,1,1-.034,3.349,3.349,0,0,0,3.187-2.239,3.257,3.257,0,0,1,1.51-2.1c.98-.5,1.894-1.134,2.9-1.746M11.787,43.3l-1.3-2.261L7.475,45.811a1.678,1.678,0,0,1,.718,2.1c-.419,1-1.279,1.029-2.216.919A28.532,28.532,0,0,0,3.285,59.75c.977.162,1.608.671,1.619,1.653s-.675,1.458-1.62,1.71l.553,3.714A14.133,14.133,0,0,0,5.822,61.16a1.881,1.881,0,0,0-.177-.968,20.184,20.184,0,0,0-.954-1.851A1.629,1.629,0,0,1,5.095,56a1.583,1.583,0,0,1,2.3.589c.378.562.7,1.157,1.127,1.859a13.506,13.506,0,0,0,1.541-5.694c-1.272-.52-1.682-1.059-1.558-1.966.118-.869.635-1.213,2.152-1.384.167-.839.346-1.705.5-2.575a.558.558,0,0,0-.118-.368c-1.09-1.527-.984-2.13.75-3.157m15.262-27.6a14.147,14.147,0,0,1-.483-11.666l-1.084-.418a10.969,10.969,0,0,0,.273,11.855c.367.52.742.458,1.295.229" transform="translate(0 -0.001)" fill="#1a1818"/>
        <path id="Trazado_122961" data-name="Trazado 122961" d="M28.544,178.267c1.709-.769,2.408-2.257,2.994-3.817a15.931,15.931,0,0,0,.693-2.232,4.977,4.977,0,0,1,2.023-3.35c1.6-1.12,1.973-3.051,2.331-4.858.281-1.416.331-2.877.585-4.3.287-1.612.7-3.2,1.032-4.8.169-.817.3-1.643.41-2.471a7.075,7.075,0,0,0-2.078-5.622,1.627,1.627,0,0,1-.241-1.926c.918-2.357,1.723-4.758,2.551-7.15a1.023,1.023,0,0,1,.857-.8,6.92,6.92,0,0,0,1.982-1.015,1.171,1.171,0,0,1,1.383-.126c2.387,1.537,4.932.885,7.462.578.814-.1,1.644-.063,2.461-.141a3.86,3.86,0,0,0,1.449-.318,35.634,35.634,0,0,0,3.41-2.085,2.016,2.016,0,0,0,.67-1.189,2.278,2.278,0,0,1,1.294-1.791,14.293,14.293,0,0,0,1.684-1.129c1.2,2,2.362,3.957,3.549,5.9a128.54,128.54,0,0,1,9.668,18.206,43.572,43.572,0,0,1,3.233,12.059c.847,8.34-2.719,14.261-10,18.107a37.829,37.829,0,0,1-14.424,4.172,41.431,41.431,0,0,1-13.955-.845,17.282,17.282,0,0,1-8.014-4.1,11.06,11.06,0,0,1-3.009-4.954m26.293-2.874c-.111-1.725-.022-3.294-1.008-4.551a10.4,10.4,0,0,0-4.175-3.393,6.009,6.009,0,0,0-2.747-.431,5.057,5.057,0,0,0-4.34,3.339,3.1,3.1,0,0,1-2.17,1.982,20.75,20.75,0,0,0-3.255,1.271,3.884,3.884,0,0,0-2.27,2.926,20.919,20.919,0,0,0-.384,3.642c.019,1.688.431,3.375,1.978,4.3a14.59,14.59,0,0,0,7.063,2.32c2.943.082,5.353-1.337,7.629-2.99A7.486,7.486,0,0,0,54.4,178.65c.158-1.157.307-2.316.432-3.257M71.1,169.939l-.07.019c-.02.277-.056.554-.057.83a1.624,1.624,0,1,0,3.241-.006,21.29,21.29,0,0,0-.387-3.888c-.382-2.049-.988-4.071-.548-6.182.232-1.112.538-2.209.82-3.31a1.607,1.607,0,0,0-1.031-2.077,1.55,1.55,0,0,0-2,1.021,15.914,15.914,0,0,0-1.015,7.943c.276,1.894.7,3.767,1.05,5.649m-24.461-8.728A8.067,8.067,0,0,0,42.1,162.8c-1.01.764-1.227,1.669-.6,2.5.585.778,1.513.821,2.5.117a4.472,4.472,0,0,1,5.236-.211c.4.239.763.556,1.15.827a1.59,1.59,0,0,0,2.244-.24,1.564,1.564,0,0,0-.209-2.244,8.659,8.659,0,0,0-5.78-2.334M59.9,178.656c0-.223.009-.446,0-.668a1.621,1.621,0,0,0-1.579-1.7,1.59,1.59,0,0,0-1.609,1.742,7.477,7.477,0,0,1-1.628,4.794,1.607,1.607,0,1,0,2.538,1.967,10.139,10.139,0,0,0,2.28-6.137m2.349-42.762a1.616,1.616,0,0,0-1.141-1.754,1.515,1.515,0,0,0-1.847.775,4.9,4.9,0,0,1-2.344,2.278,1.579,1.579,0,0,0-.847,2.154,1.619,1.619,0,0,0,2.194.76,7.33,7.33,0,0,0,3.718-3.449,4.7,4.7,0,0,0,.266-.763m-.871,18.427a1.583,1.583,0,0,0-1.662,1.511,1.611,1.611,0,0,0,1.584,1.686,1.589,1.589,0,0,0,1.612-1.565,1.56,1.56,0,0,0-1.534-1.632m-2.236,6a1.612,1.612,0,1,0-1.618,1.562,1.613,1.613,0,0,0,1.618-1.562M48.838,139.261a1.548,1.548,0,0,0-1.6,1.564,1.642,1.642,0,0,0,1.58,1.618,1.661,1.661,0,0,0,1.646-1.642,1.566,1.566,0,0,0-1.627-1.54m10.584,31.716a1.573,1.573,0,0,0-1.524-1.654,1.629,1.629,0,0,0-1.682,1.6,1.686,1.686,0,0,0,1.59,1.63,1.615,1.615,0,0,0,1.616-1.576M40.59,139.436a1.58,1.58,0,0,0,1.568,1.613,1.616,1.616,0,1,0,0-3.231,1.594,1.594,0,0,0-1.567,1.618m12.4,16.1a1.614,1.614,0,0,0,1.647-1.546,1.66,1.66,0,0,0-1.557-1.653,1.677,1.677,0,0,0-1.7,1.606,1.631,1.631,0,0,0,1.607,1.593m-12.4-2.118a1.573,1.573,0,0,0,1.58,1.59,1.643,1.643,0,0,0,1.632-1.569,1.611,1.611,0,0,0-1.651-1.624,1.552,1.552,0,0,0-1.561,1.6m21.82,6.747a1.61,1.61,0,0,0-1.665,1.523,1.676,1.676,0,0,0,1.62,1.678,1.621,1.621,0,0,0,1.6-1.59,1.562,1.562,0,0,0-1.557-1.61m.91,24.175a1.563,1.563,0,0,0,1.589-1.576,1.6,1.6,0,1,0-3.2.024,1.552,1.552,0,0,0,1.61,1.551M37.842,170.126a1.554,1.554,0,0,0,1.692-1.47,1.627,1.627,0,0,0-1.548-1.73,1.672,1.672,0,0,0-1.669,1.545,1.592,1.592,0,0,0,1.524,1.655m28.044,3.341a1.609,1.609,0,0,0,1.6,1.585,1.655,1.655,0,0,0,1.6-1.69,1.58,1.58,0,0,0-1.658-1.507,1.531,1.531,0,0,0-1.541,1.611" transform="translate(-23.766 -108.008)" fill="#74882c"/>
        <path id="Trazado_122962" data-name="Trazado 122962" d="M118.255,89.407c-1,.611-1.917,1.241-2.9,1.746a3.257,3.257,0,0,0-1.51,2.1,3.348,3.348,0,0,1-3.187,2.239,5.362,5.362,0,0,0-1,.034,1.488,1.488,0,0,1-1.7-.531,1.527,1.527,0,0,0-2.4.451,1.186,1.186,0,0,1-1.79.566c-.79-.343-1.608-.626-2.382-1a2.149,2.149,0,0,0-2.42.243,6.713,6.713,0,0,1-.618.345c.515-1.385.941-2.579,1.415-3.754a.822.822,0,0,1,.563-.342,1.65,1.65,0,0,0,1.425-2.363.957.957,0,0,1,.171-.829c.661-.623,1.39-1.174,2.164-1.81l.864,1.363c-.123.171-.244.32-.344.481a1.595,1.595,0,0,0,2.138,2.27,6.29,6.29,0,0,1,5.816-.685,1.6,1.6,0,1,0,1-3.047c-.978-.327-1.19-1.192-1.779-2.081a9.339,9.339,0,0,1,6.478,4.6m-7.111,4.777a1.618,1.618,0,0,0,1.611-1.585,1.626,1.626,0,1,0-1.611,1.585M105.978,93.1a1.549,1.549,0,0,0-1.542-1.62,1.584,1.584,0,0,0-1.657,1.6,1.62,1.62,0,0,0,1.6,1.593,1.579,1.579,0,0,0,1.6-1.577" transform="translate(-81.883 -70.609)" fill="#636363"/>
        <path id="Trazado_122963" data-name="Trazado 122963" d="M28.123,247.456c-1.734,1.027-1.84,1.63-.75,3.157a.558.558,0,0,1,.118.368c-.157.87-.336,1.736-.5,2.575-1.516.171-2.034.515-2.152,1.384-.123.907.286,1.446,1.558,1.966a13.508,13.508,0,0,1-1.541,5.694c-.422-.7-.749-1.3-1.127-1.859a1.583,1.583,0,0,0-2.3-.589,1.629,1.629,0,0,0-.4,2.342,20.184,20.184,0,0,1,.954,1.851,1.88,1.88,0,0,1,.177.968,14.13,14.13,0,0,1-1.985,5.668l-.553-3.714c.945-.252,1.631-.715,1.62-1.71s-.642-1.491-1.619-1.653a28.536,28.536,0,0,1,2.692-10.922c.938.11,1.8.077,2.216-.919a1.678,1.678,0,0,0-.718-2.1l3.014-4.769,1.3,2.261M22.607,259.22a1.531,1.531,0,0,0,1.593-1.56,1.587,1.587,0,0,0-1.626-1.635A1.647,1.647,0,0,0,21,257.65a1.589,1.589,0,0,0,1.608,1.57" transform="translate(-16.336 -204.154)" fill="#e8e8e8"/>
        <path id="Trazado_122964" data-name="Trazado 122964" d="M145.816,33.731c-.553.229-.928.291-1.295-.229a10.969,10.969,0,0,1-.273-11.855l1.085.418a14.147,14.147,0,0,0,.483,11.666" transform="translate(-118.766 -18.024)" fill="#afafaf"/>
        <path id="Trazado_122965" data-name="Trazado 122965" d="M84.4,360.806c-.125.941-.274,2.1-.432,3.257a7.485,7.485,0,0,1-3.247,5.156c-2.276,1.653-4.686,3.072-7.629,2.99a14.589,14.589,0,0,1-7.063-2.32c-1.547-.924-1.959-2.61-1.978-4.3a20.932,20.932,0,0,1,.384-3.642,3.884,3.884,0,0,1,2.271-2.926,20.752,20.752,0,0,1,3.255-1.271,3.1,3.1,0,0,0,2.17-1.982,5.057,5.057,0,0,1,4.34-3.339,6.008,6.008,0,0,1,2.747.431,10.4,10.4,0,0,1,4.175,3.393c.987,1.257.9,2.826,1.008,4.551M69,367.672c-.115-.341-.21-.648-.322-.948a1.624,1.624,0,1,1,2.986-1.23c.292.689.5,1.42.836,2.085a1.869,1.869,0,0,0,2.639,1.051,32.508,32.508,0,0,0,4.147-2.44,3.473,3.473,0,0,0,1.491-2.611c.135-1.491.23-2.988.266-4.485a1.694,1.694,0,0,0-.442-1.12,15.8,15.8,0,0,0-2.269-1.952,2.078,2.078,0,0,0-3.242.959,15.007,15.007,0,0,1-1.005,1.817,1.146,1.146,0,0,0-.235,1.113,1.512,1.512,0,0,1-.805,1.826,1.642,1.642,0,0,1-1.963-.428c-.125-.139-.237-.288-.377-.459a22.711,22.711,0,0,0-2.27.9,1.627,1.627,0,0,0-.846.934,17.528,17.528,0,0,0-.23,3.385c.043,1.05.447,1.35,1.64,1.6" transform="translate(-53.33 -293.421)" fill="#1a1818"/>
        <path id="Trazado_122966" data-name="Trazado 122966" d="M276.845,296.874c-.355-1.882-.774-3.755-1.05-5.649a15.912,15.912,0,0,1,1.015-7.943,1.55,1.55,0,0,1,2-1.021,1.607,1.607,0,0,1,1.031,2.077c-.282,1.1-.589,2.2-.82,3.31-.44,2.111.166,4.133.548,6.182a21.277,21.277,0,0,1,.387,3.888,1.624,1.624,0,1,1-3.241.006c0-.277.037-.554.057-.83Z" transform="translate(-229.512 -234.943)" fill="#1a1818"/>
        <path id="Trazado_122967" data-name="Trazado 122967" d="M109.324,317.855a8.658,8.658,0,0,1,5.78,2.335,1.564,1.564,0,0,1,.209,2.244,1.59,1.59,0,0,1-2.244.24c-.386-.272-.745-.589-1.15-.828a4.473,4.473,0,0,0-5.236.211c-.991.7-1.918.661-2.5-.117-.623-.828-.406-1.733.6-2.5a8.067,8.067,0,0,1,4.541-1.588" transform="translate(-86.451 -264.651)" fill="#1a1818"/>
        <path id="Trazado_122968" data-name="Trazado 122968" d="M190.028,410.311a10.14,10.14,0,0,1-2.28,6.137,1.607,1.607,0,1,1-2.538-1.967,7.477,7.477,0,0,0,1.628-4.794,1.59,1.59,0,0,1,1.609-1.742,1.621,1.621,0,0,1,1.579,1.7c.011.222,0,.445,0,.668" transform="translate(-153.889 -339.662)" fill="#1a1818"/>
        <path id="Trazado_122969" data-name="Trazado 122969" d="M198.405,157.487a4.714,4.714,0,0,1-.266.763,7.329,7.329,0,0,1-3.718,3.449,1.619,1.619,0,0,1-2.194-.76,1.579,1.579,0,0,1,.847-2.154,4.9,4.9,0,0,0,2.344-2.278,1.515,1.515,0,0,1,1.847-.775,1.616,1.616,0,0,1,1.141,1.754" transform="translate(-159.918 -129.6)" fill="#1a1818"/>
        <path id="Trazado_122970" data-name="Trazado 122970" d="M216.452,276.691a1.56,1.56,0,0,1,1.534,1.632,1.589,1.589,0,0,1-1.612,1.565,1.611,1.611,0,0,1-1.584-1.686,1.583,1.583,0,0,1,1.662-1.511" transform="translate(-178.836 -230.377)" fill="#1a1818"/>
        <path id="Trazado_122971" data-name="Trazado 122971" d="M195.339,304.489a1.612,1.612,0,1,1-1.562-1.622,1.6,1.6,0,0,1,1.562,1.622" transform="translate(-159.959 -252.171)" fill="#1a1818"/>
        <path id="Trazado_122972" data-name="Trazado 122972" d="M141.832,186.714a1.567,1.567,0,0,1,1.627,1.54,1.662,1.662,0,0,1-1.646,1.642,1.642,1.642,0,0,1-1.58-1.618,1.548,1.548,0,0,1,1.6-1.564" transform="translate(-116.761 -155.461)" fill="#1a1818"/>
        <path id="Trazado_122973" data-name="Trazado 122973" d="M197.073,367.964a1.615,1.615,0,0,1-1.616,1.576,1.686,1.686,0,0,1-1.59-1.63,1.629,1.629,0,0,1,1.682-1.6,1.573,1.573,0,0,1,1.524,1.654" transform="translate(-161.417 -304.995)" fill="#1a1818"/>
        <path id="Trazado_122974" data-name="Trazado 122974" d="M100.511,179.711a1.594,1.594,0,0,1,1.567-1.619,1.616,1.616,0,1,1,0,3.231,1.58,1.58,0,0,1-1.568-1.613" transform="translate(-83.687 -148.283)" fill="#1a1818"/>
        <path id="Trazado_122975" data-name="Trazado 122975" d="M166.614,268.055a1.631,1.631,0,0,1-1.607-1.593,1.677,1.677,0,0,1,1.7-1.606,1.66,1.66,0,0,1,1.557,1.653,1.614,1.614,0,0,1-1.647,1.546" transform="translate(-137.388 -220.523)" fill="#1a1818"/>
        <path id="Trazado_122976" data-name="Trazado 122976" d="M100.5,263.345a1.552,1.552,0,0,1,1.561-1.6,1.611,1.611,0,0,1,1.651,1.624,1.643,1.643,0,0,1-1.632,1.569,1.573,1.573,0,0,1-1.58-1.59" transform="translate(-83.677 -217.931)" fill="#1a1818"/>
        <path id="Trazado_122977" data-name="Trazado 122977" d="M222.571,311.626a1.562,1.562,0,0,1,1.556,1.61,1.621,1.621,0,0,1-1.6,1.591,1.677,1.677,0,0,1-1.62-1.678,1.611,1.611,0,0,1,1.665-1.523" transform="translate(-183.928 -259.465)" fill="#1a1818"/>
        <path id="Trazado_122978" data-name="Trazado 122978" d="M228.291,440.155a1.552,1.552,0,0,1-1.61-1.551,1.6,1.6,0,1,1,3.2-.024,1.563,1.563,0,0,1-1.589,1.576" transform="translate(-188.738 -363.818)" fill="#1a1818"/>
        <path id="Trazado_122979" data-name="Trazado 122979" d="M76.5,355.2a1.592,1.592,0,0,1-1.524-1.655A1.672,1.672,0,0,1,76.643,352a1.627,1.627,0,0,1,1.548,1.729A1.554,1.554,0,0,1,76.5,355.2" transform="translate(-62.423 -293.078)" fill="#1a1818"/>
        <path id="Trazado_122980" data-name="Trazado 122980" d="M251.635,383.056a1.531,1.531,0,0,1,1.541-1.611,1.58,1.58,0,0,1,1.658,1.507,1.655,1.655,0,0,1-1.6,1.69,1.609,1.609,0,0,1-1.6-1.585" transform="translate(-209.515 -317.596)" fill="#1a1818"/>
        <path id="Trazado_122981" data-name="Trazado 122981" d="M166.666,124.944a1.6,1.6,0,1,1,1.611-1.585,1.618,1.618,0,0,1-1.611,1.585" transform="translate(-137.405 -101.37)" fill="#1a1818"/>
        <path id="Trazado_122982" data-name="Trazado 122982" d="M128.039,126.332a1.579,1.579,0,0,1-1.6,1.577,1.62,1.62,0,0,1-1.6-1.593,1.584,1.584,0,0,1,1.657-1.6,1.549,1.549,0,0,1,1.542,1.62" transform="translate(-103.944 -103.837)" fill="#1a1818"/>
        <path id="Trazado_122983" data-name="Trazado 122983" d="M29.468,313.086a1.589,1.589,0,0,1-1.608-1.57,1.647,1.647,0,0,1,1.575-1.626,1.587,1.587,0,0,1,1.626,1.635,1.531,1.531,0,0,1-1.593,1.56" transform="translate(-23.197 -258.02)" fill="#1a1818"/>
        <path id="Trazado_122984" data-name="Trazado 122984" d="M85.42,383.452c-1.194-.249-1.6-.549-1.64-1.6a17.528,17.528,0,0,1,.23-3.385,1.628,1.628,0,0,1,.846-.934,22.745,22.745,0,0,1,2.27-.9c.14.171.252.321.377.459a1.642,1.642,0,0,0,1.963.428,1.512,1.512,0,0,0,.805-1.826,1.146,1.146,0,0,1,.235-1.113,15.028,15.028,0,0,0,1.005-1.817,2.078,2.078,0,0,1,3.242-.959,15.776,15.776,0,0,1,2.269,1.952,1.694,1.694,0,0,1,.442,1.12c-.036,1.5-.132,2.994-.266,4.485a3.474,3.474,0,0,1-1.491,2.611,32.517,32.517,0,0,1-4.147,2.44,1.869,1.869,0,0,1-2.639-1.051c-.336-.666-.543-1.4-.836-2.085A1.624,1.624,0,1,0,85.1,382.5c.112.3.207.608.322.948m10.646-5.569a26.071,26.071,0,0,0-.97-2.992,1.883,1.883,0,0,0-1.168-.915c-1.342-.288-2.213.946-1.708,2.3.258.69.65,1.343.255,2.147a1.586,1.586,0,0,0,2.725,1.606,13.76,13.76,0,0,0,.867-2.143m-5.5,2.239a1.588,1.588,0,0,0-1.578,1.606,1.635,1.635,0,0,0,1.691,1.592,1.6,1.6,0,0,0,1.514-1.662,1.554,1.554,0,0,0-1.628-1.536" transform="translate(-69.747 -309.201)" fill="#e8e8e8"/>
        <path id="Trazado_122985" data-name="Trazado 122985" d="M137.378,390.682a13.762,13.762,0,0,1-.867,2.143,1.586,1.586,0,0,1-2.725-1.606c.395-.8,0-1.457-.255-2.147-.505-1.351.366-2.585,1.708-2.3a1.882,1.882,0,0,1,1.169.915,26.075,26.075,0,0,1,.97,2.992" transform="translate(-111.059 -322.001)" fill="#1a1818"/>
        <path id="Trazado_122986" data-name="Trazado 122986" d="M116.546,423.7a1.554,1.554,0,0,1,1.628,1.536,1.6,1.6,0,0,1-1.514,1.662,1.635,1.635,0,0,1-1.691-1.592,1.588,1.588,0,0,1,1.578-1.606" transform="translate(-95.724 -352.78)" fill="#1a1818"/>
      </g>
    </g>
  </g>
</svg>
