<svg id="Grupo_1083527" data-name="Grupo 1083527" xmlns="http://www.w3.org/2000/svg" xmlns:xlink="http://www.w3.org/1999/xlink" width="144.84" height="152.518" viewBox="0 0 144.84 152.518">
  <defs>
    <clipPath id="clip-path">
      <rect id="Rectángulo_361286" data-name="Rectángulo 361286" width="144.84" height="152.518" fill="none"/>
    </clipPath>
  </defs>
  <g id="Grupo_1083527-2" data-name="Grupo 1083527" clip-path="url(#clip-path)">
    <path id="Trazado_501625" data-name="Trazado 501625" d="M39.67,152.517a35.262,35.262,0,0,1-4.34-1.375c-6.445-2.965-9.884-8.013-9.889-15.147q-.049-56.816-.016-113.633V19.651H23.216c-6.549,0-13.1.009-19.648-.005-2.805-.006-3.64-.9-3.563-3.719C.239,7.321,7.8.173,16.937.036c5.392-.08,10.786,0,16.18,0l69.344.024c10.051,0,16.952,6.873,16.954,16.9q.009,56.527,0,113.055v2.813h2.105c6.613,0,13.227-.011,19.84.006,2.689.007,3.531.911,3.475,3.61-.156,7.459-6.183,14.315-13.766,15.677a9.694,9.694,0,0,0-1.244.4ZM30.818,19.651v2.3q0,56.533,0,113.067c0,7.6,4.313,11.934,11.933,11.937q37.276.017,74.552.005h2.3c-4.964-5.574-5.806-11.781-5.623-18.382.189-6.865.042-13.739.042-20.609q0-45.554-.008-91.108c0-6.223-4.148-10.9-9.838-11.242a11.338,11.338,0,0,0-11.7,10c-.476,3.828-.7,4.031-4.511,4.031H30.818ZM90.627,5.582c-.336-.015-.9-.061-1.458-.061q-35.63-.005-71.26.005a23.779,23.779,0,0,0-2.88.181,10.819,10.819,0,0,0-9.1,8.53H85.288a2.5,2.5,0,0,0,.953-.026,2.134,2.134,0,0,0,1.087-.8c1.126-2.547,2.172-5.13,3.3-7.833m48.433,132.8H120.573A14.807,14.807,0,0,0,127,145.99a5.285,5.285,0,0,0,3.4.646c4.4-.987,7.276-3.751,8.656-8.254" transform="translate(0 0)" fill="#1a1818"/>
    <path id="Trazado_501626" data-name="Trazado 501626" d="M79.813,28.562h57.145c3.811,0,4.036-.2,4.511-4.032a11.339,11.339,0,0,1,11.7-10c5.69.339,9.834,5.018,9.837,11.242q.026,45.554.008,91.108c0,6.87.147,13.744-.042,20.609-.182,6.6.66,12.807,5.623,18.381h-2.3q-37.276,0-74.552,0c-7.62,0-11.933-4.333-11.933-11.938q0-56.533,0-113.066Zm41.489,63.5A25.331,25.331,0,1,0,96.046,66.835,25.4,25.4,0,0,0,121.3,92.065m.015,36.835q13.577,0,27.154,0c2.939,0,4.235-.828,4.262-2.706.027-1.942-1.336-2.831-4.359-2.831q-26.962,0-53.924.012c-.886,0-2-.117-2.6.348a3.99,3.99,0,0,0-1.606,2.661c.012.791,1.06,1.712,1.856,2.291.485.353,1.361.217,2.061.218q13.577.017,27.154.008m0-23.7H147.9c.77,0,1.544.034,2.31-.02a2.437,2.437,0,0,0,2.5-2.617,2.526,2.526,0,0,0-2.412-2.73,8.988,8.988,0,0,0-1.346-.027q-27.539,0-55.077,0a6.442,6.442,0,0,0-1.722.091,2.53,2.53,0,0,0-2.02,2.865,2.424,2.424,0,0,0,2.31,2.4,14.536,14.536,0,0,0,1.732.032q13.577,0,27.154,0m.089,11.887q13.673,0,27.346,0a7.117,7.117,0,0,0,1.911-.114,2.548,2.548,0,0,0,2.034-2.862,2.411,2.411,0,0,0-2.309-2.4,18.635,18.635,0,0,0-2.114-.079q-26.864-.006-53.728,0c-.705,0-1.558-.2-2.082.122-.886.542-2.061,1.347-2.191,2.185-.133.854.688,2.035,1.4,2.773.417.431,1.442.366,2.194.368q13.769.032,27.538.014" transform="translate(-48.996 -8.911)" fill="#ffeca2"/>
    <path id="Trazado_501627" data-name="Trazado 501627" d="M100.06,14.353c-1.127,2.7-2.173,5.286-3.3,7.834-.159.361-.68.613-1.087.8a2.521,2.521,0,0,1-.953.025H15.366a10.819,10.819,0,0,1,9.1-8.53,23.779,23.779,0,0,1,2.88-.181q35.63-.014,71.26,0c.561,0,1.122.046,1.458.061" transform="translate(-9.433 -8.772)" fill="#f0d66f"/>
    <path id="Trazado_501628" data-name="Trazado 501628" d="M330.754,358.389c-1.38,4.5-4.255,7.267-8.656,8.254a5.285,5.285,0,0,1-3.4-.646,14.807,14.807,0,0,1-6.427-7.609Z" transform="translate(-191.694 -220.008)" fill="#f0d66f"/>
    <path id="Trazado_501629" data-name="Trazado 501629" d="M147.111,134.813a25.331,25.331,0,1,1,25.476-25.2,25.435,25.435,0,0,1-25.476,25.2M167.061,109.5a19.844,19.844,0,1,0-39.688.1,19.844,19.844,0,1,0,39.688-.1" transform="translate(-74.804 -51.659)" fill="#1a1818"/>
    <path id="Trazado_501630" data-name="Trazado 501630" d="M137.905,301.95q-13.577,0-27.154-.007c-.7,0-1.577.135-2.062-.218-.8-.58-1.843-1.5-1.856-2.291a3.99,3.99,0,0,1,1.606-2.661c.6-.465,1.714-.347,2.6-.348q26.961-.024,53.924-.012c3.023,0,4.385.889,4.359,2.831-.027,1.877-1.323,2.7-4.262,2.706q-13.577,0-27.154,0" transform="translate(-65.583 -181.961)" fill="#1a1818"/>
    <path id="Trazado_501631" data-name="Trazado 501631" d="M137.7,240.774q-13.577,0-27.154,0a14.524,14.524,0,0,1-1.731-.032,2.423,2.423,0,0,1-2.31-2.4,2.53,2.53,0,0,1,2.02-2.865,6.456,6.456,0,0,1,1.722-.092q27.539-.005,55.077,0a8.938,8.938,0,0,1,1.346.027,2.526,2.526,0,0,1,2.412,2.73,2.437,2.437,0,0,1-2.5,2.617c-.767.054-1.54.02-2.31.02H137.7" transform="translate(-65.371 -144.487)" fill="#1a1818"/>
    <path id="Trazado_501632" data-name="Trazado 501632" d="M138.026,271.379q-13.769,0-27.538-.014c-.752,0-1.777.063-2.194-.368-.714-.738-1.535-1.919-1.4-2.772.13-.838,1.305-1.644,2.191-2.185.524-.32,1.377-.122,2.082-.122q26.864-.005,53.728,0a18.628,18.628,0,0,1,2.114.078,2.411,2.411,0,0,1,2.309,2.4,2.548,2.548,0,0,1-2.034,2.863,7.134,7.134,0,0,1-1.911.114q-13.673.009-27.346,0" transform="translate(-65.61 -163.204)" fill="#1a1818"/>
    <path id="Trazado_501633" data-name="Trazado 501633" d="M175.833,118.307A19.844,19.844,0,1,1,156.243,98.5a19.9,19.9,0,0,1,19.591,19.811M163.685,132.49c2.421.036,3.656-1.442,3.357-3.343-.317-2.021-.642-4.044-1.077-6.042a2.587,2.587,0,0,1,.931-2.845,29.311,29.311,0,0,0,3.976-3.9c.682-.856,1.367-2.262,1.113-3.155-.245-.862-1.6-1.7-2.631-1.985-2.023-.553-4.168-.64-6.23-1.078a2.79,2.79,0,0,1-1.651-1.225c-1.034-1.837-1.768-3.854-2.9-5.624a2.747,2.747,0,0,0-5.177.027c-1.125,1.772-1.861,3.787-2.9,5.622a2.792,2.792,0,0,1-1.666,1.2c-2.125.448-4.322.581-6.42,1.114a3.592,3.592,0,0,0-2.383,1.781,3.979,3.979,0,0,0,.846,3.053c1.281,1.583,2.957,2.84,4.318,4.368a3.334,3.334,0,0,1,.786,2.272c-.2,2.094-.8,4.155-.944,6.249a3.754,3.754,0,0,0,.965,2.843,4.042,4.042,0,0,0,2.985.3,7.7,7.7,0,0,0,2.892-1.467c2.789-2.127,5.443-2.113,8.262,0a20.353,20.353,0,0,0,3.541,1.828" transform="translate(-83.577 -60.465)" fill="#0b481e"/>
    <path id="Trazado_501634" data-name="Trazado 501634" d="M169.762,137.243a20.343,20.343,0,0,1-3.541-1.828c-2.819-2.113-5.473-2.127-8.262,0a7.7,7.7,0,0,1-2.892,1.466,4.043,4.043,0,0,1-2.985-.3,3.755,3.755,0,0,1-.965-2.843c.144-2.094.744-4.154.944-6.249a3.337,3.337,0,0,0-.786-2.272c-1.361-1.527-3.037-2.785-4.318-4.368a3.978,3.978,0,0,1-.846-3.053,3.591,3.591,0,0,1,2.383-1.781c2.1-.533,4.3-.667,6.42-1.115a2.788,2.788,0,0,0,1.666-1.2c1.038-1.835,1.773-3.85,2.9-5.622a2.747,2.747,0,0,1,5.177-.027c1.127,1.77,1.861,3.787,2.9,5.624A2.791,2.791,0,0,0,169.2,114.9c2.061.438,4.207.525,6.23,1.078,1.026.281,2.385,1.122,2.63,1.984.254.893-.431,2.3-1.113,3.155a29.291,29.291,0,0,1-3.976,3.9,2.587,2.587,0,0,0-.931,2.845c.436,2,.759,4.021,1.077,6.042.3,1.9-.936,3.38-3.357,3.343M157.191,129.4c1.875-.706,3.4-1.721,4.92-1.726,1.491,0,2.986,1.021,4.924,1.765-1.725-3.767-.661-6.508,2.527-8.778-3.938.065-6.378-1.656-7.287-5.544-1.1,1.721-1.673,3.414-2.856,4.264-1.218.875-3.028.928-5.026,1.46,3.592,2.122,4.259,4.992,2.8,8.558" transform="translate(-89.653 -65.217)" fill="#1a1818"/>
    <path id="Trazado_501635" data-name="Trazado 501635" d="M170.464,143.519c1.461-3.566.793-6.436-2.8-8.558,2-.532,3.808-.585,5.026-1.46,1.183-.85,1.76-2.544,2.856-4.264.909,3.888,3.349,5.609,7.287,5.544-3.187,2.27-4.252,5.011-2.527,8.778-1.938-.744-3.433-1.77-4.924-1.765-1.524,0-3.045,1.02-4.92,1.726" transform="translate(-102.927 -79.335)" fill="#ffa686"/>
  </g>
</svg>
