<svg xmlns="http://www.w3.org/2000/svg" xmlns:xlink="http://www.w3.org/1999/xlink" width="45" height="45" viewBox="0 0 45 45">
  <defs>
    <clipPath id="clip-path">
      <rect id="Rect치ngulo_34145" data-name="Rect치ngulo 34145" width="45" height="45" rx="5" fill="#0b481e"/>
    </clipPath>
  </defs>
  <g id="Grupo_1084173" data-name="Grupo 1084173" transform="translate(-180 -804)">
    <rect id="Rect치ngulo_34144" data-name="Rect치ngulo 34144" width="45" height="45" rx="5" transform="translate(180 804)" fill="#0b481e"/>
    <g id="Enmascarar_grupo_96" data-name="Enmascarar grupo 96" transform="translate(180 804)" clip-path="url(#clip-path)">
      <g id="Grupo_84489" data-name="Grupo 84489" transform="translate(-4.025 10.416)">
        <g id="Grupo_80114" data-name="Grupo 80114" transform="translate(29.093 36.592) rotate(180)">
          <path id="Trazado_113537" data-name="Trazado 113537" d="M5.937,21.153a5.848,5.848,0,0,0,1.71-2c.238-.39.456-.793.7-1.177a3.042,3.042,0,0,1,.519-.633,3.38,3.38,0,0,0,.294-.256.514.514,0,0,1,.348.169.693.693,0,0,1,.035.636,3.846,3.846,0,0,1-.615,1.3,5.077,5.077,0,0,1-1.09,1.019,4.949,4.949,0,0,1-.588.375,2.3,2.3,0,0,0-.552.31c-.617.6.786.922,1.125.976a4.251,4.251,0,0,0,2.455-.241,7.027,7.027,0,0,0,2.908-3.31c.4-.755.751-1.526,1.2-2.25a7.736,7.736,0,0,1,.725-1.034c.078-.088.2-.245.314-.158s.064.441.063.561a7.855,7.855,0,0,1-2.45,5.209,5.555,5.555,0,0,1-.966.8c-.19.125-.472.322-.4.591.163.642,1.426.518,1.881.447a5.247,5.247,0,0,0,3.974-2.417,8.729,8.729,0,0,0,.683-2.907c.127-1.088.27-2.178.351-3.271a4.129,4.129,0,0,1,.4-1.79c.106-.187.27-.455.5-.5.338-.061.531.358.626.618a5.787,5.787,0,0,1,.008,2.7,17.1,17.1,0,0,1-1.634,5.7.278.278,0,0,0,.077.483,3,3,0,0,0,2.019-.326,6.644,6.644,0,0,0,2.028-1.2,5.987,5.987,0,0,0,1.84-4.189c.124-1.843-.448-3.719-.663-5.539a5.221,5.221,0,0,1-.066-1.7c.208-.885,1.189.419,1.355.753a9.838,9.838,0,0,1,.861,2.694,21.353,21.353,0,0,1,.17,2.979.136.136,0,0,0,.029.078c.046.287.318.371.6.145A3.4,3.4,0,0,0,27.6,12.82a10.377,10.377,0,0,0-.01-5.144,9.972,9.972,0,0,0-2.644-4.143,12.62,12.62,0,0,0-1.985-1.594A10.584,10.584,0,0,0,20.589.9,20.874,20.874,0,0,0,17.882.133,4.092,4.092,0,0,0,15.7.166c-.471-.02-.941-.031-1.407-.037C12.115.1,9.717.406,7.973,1.826A4.267,4.267,0,0,0,6.5,3.781a.685.685,0,0,0,.23.79c.379.24.916.069,1.323.016a10.442,10.442,0,0,1,3.675.345,6.736,6.736,0,0,1,3,1.374,3.3,3.3,0,0,1,1,1.443c.235.829-.633,1-1.253.82-.667-.2-1.286-.562-1.941-.8-.694-.251-1.4-.443-2.115-.643a8.036,8.036,0,0,0-6.753.66A4.593,4.593,0,0,0,1.96,9.8a1.175,1.175,0,0,0,.049,1.131,1.078,1.078,0,0,0,1.263.253c.66-.217,1.274-.555,1.941-.763A13.862,13.862,0,0,1,7.36,9.893a5.687,5.687,0,0,1,1.96.123,8.445,8.445,0,0,1,1.58.391c.169.069,1.213.73.871.854-.283.1-.81-.119-1.1-.176a15.491,15.491,0,0,0-2.155-.359,12,12,0,0,0-2.219.169,8.693,8.693,0,0,0-3.378,1.039A6.449,6.449,0,0,0,.6,14.262a1.218,1.218,0,0,0-.218,1.115.269.269,0,0,0,.306.12c.489-.194,1.02-.221,1.518-.383a11.181,11.181,0,0,1,1.87-.521,2.449,2.449,0,0,1,1.963.549c.015.379-.333.619-.688.721-.742.213-1.528.209-2.272.442A3.892,3.892,0,0,0,1.27,17.44a6.992,6.992,0,0,0-.735,1.076,2.562,2.562,0,0,0-.529,1.378.217.217,0,0,0,.01.038A.066.066,0,0,0,.026,20a2.771,2.771,0,0,0,1.24.733c.538.2,1.092.376,1.644.533A3.672,3.672,0,0,0,5.937,21.153ZM16.064,5.269c-.521-.2-1.886-1.071-1.388-1.768S16.6,3.3,17.2,3.51a7.685,7.685,0,0,1,3.2,1.811c.376.46.073.643-.39.641A12.861,12.861,0,0,1,18.35,5.85,10.041,10.041,0,0,1,16.064,5.269Z" transform="translate(0 0)" fill="#4f9638"/>
          <g id="Grupo_80113" data-name="Grupo 80113" transform="translate(1.652 3.571)" opacity="0.7">
            <path id="Trazado_113538" data-name="Trazado 113538" d="M1.163,13.045c.515-.282,1.025-.571,1.534-.863,1.378-.791,2.759-1.574,4.123-2.39C8.072,9.043,9.3,8.255,10.5,7.426,12,6.393,13.478,5.3,14.886,4.149a9.8,9.8,0,0,1,.347,1.819c.006.058.1.081.112.012a3.772,3.772,0,0,0-.024-1.088,6.105,6.105,0,0,0-.232-.907L15.2,3.9A50.359,50.359,0,0,0,19.31.213a.126.126,0,0,0-.18-.176,44.662,44.662,0,0,1-3.894,3.205c-1.543,1.187-3.125,2.333-4.706,3.469-2.417,1.735-4.972,3.314-7.515,4.854-.958.58-1.97,1.057-2.936,1.616-.167.1-.043.323.128.291A3.35,3.35,0,0,0,1.163,13.045Z" transform="translate(4.892 0)" fill="#0a481c"/>
            <path id="Trazado_113539" data-name="Trazado 113539" d="M.942.044A20.544,20.544,0,0,1,.73,4.193C.632,4.84.5,5.483.373,6.124A10.188,10.188,0,0,0,0,8.031a.067.067,0,0,0,.125.031A7.181,7.181,0,0,0,.617,6.185C.757,5.493.856,4.8.935,4.1A22.244,22.244,0,0,0,1.03.042C1.026-.015.939-.013.942.044Z" transform="translate(19.365 7.942)" fill="#0a481c"/>
            <path id="Trazado_113540" data-name="Trazado 113540" d="M2.105,5.39a14.686,14.686,0,0,0,.372-2.954A7.962,7.962,0,0,0,2.255.029c-.016-.052-.1-.026-.08.023a5.975,5.975,0,0,1,.11,2.389,14.739,14.739,0,0,1-.366,2.827A11.078,11.078,0,0,1,.015,9.7a.062.062,0,0,0,.076.1c.574-.269.818-1.213,1.055-1.747.169-.382.4-.735.559-1.122A8.784,8.784,0,0,0,2.105,5.39Z" transform="translate(13.192 7.606)" fill="#0a481c"/>
            <path id="Trazado_113541" data-name="Trazado 113541" d="M.7,3.463c.194-.363.393-.723.571-1.094A5.177,5.177,0,0,0,1.885.093a.1.1,0,0,0-.2,0A5.028,5.028,0,0,1,1,2.455C.819,2.807.62,3.151.428,3.5A2.4,2.4,0,0,0,0,4.471a.065.065,0,0,0,.11.043A1.6,1.6,0,0,0,.4,4.034C.494,3.841.6,3.652.7,3.463Z" transform="translate(9.194 10.889)" fill="#0a481c"/>
            <path id="Trazado_113542" data-name="Trazado 113542" d="M.693,1.577a4.488,4.488,0,0,0,.513-.434A7.8,7.8,0,0,0,2.024.106C2.071.039,1.964-.038,1.91.021c-.291.313-.6.6-.92.887-.154.139-.312.277-.478.4s-.394.225-.5.4A.1.1,0,0,0,.1,1.862,1.064,1.064,0,0,0,.693,1.577Z" transform="translate(6.874 15.9)" fill="#0a481c"/>
            <path id="Trazado_113543" data-name="Trazado 113543" d="M3.562.238a8.354,8.354,0,0,1,3.6.746c.135.069.252-.135.117-.206A8.356,8.356,0,0,0,3.678,0,7.4,7.4,0,0,0,1.869.19,6.863,6.863,0,0,0,.026.75a.055.055,0,0,0,.029.1A8.257,8.257,0,0,0,1.707.481,7.666,7.666,0,0,1,3.562.238Z" transform="translate(1.038 8.972)" fill="#0a481c"/>
            <path id="Trazado_113544" data-name="Trazado 113544" d="M3,.171C3.1.106,3.005-.047,2.9.014A15.692,15.692,0,0,1,.025,1.3c-.037.014-.033.075.011.073A4.589,4.589,0,0,0,1.576.948,9.444,9.444,0,0,0,3,.171Z" transform="translate(1.267 13.871)" fill="#0a481c"/>
            <path id="Trazado_113545" data-name="Trazado 113545" d="M.3.383C.386.348.474.313.558.274.72.2.881.122,1.046.053A.027.027,0,0,0,1.031,0C.852.037.667.07.491.122a1.925,1.925,0,0,0-.261.1A1.168,1.168,0,0,0,.014.376C-.022.4.018.462.058.45.138.425.223.414.3.383Z" transform="translate(0 15.341)" fill="#0a481c"/>
            <path id="Trazado_113546" data-name="Trazado 113546" d="M.016.105A2.746,2.746,0,0,0,.9.692a2.142,2.142,0,0,1,.837.663.091.091,0,0,0,.157-.094,2.122,2.122,0,0,0-.811-.74C.761.334.422.171.09.008A.062.062,0,0,0,.016.105Z" transform="translate(11.28 5.894)" fill="#0a481c"/>
            <path id="Trazado_113547" data-name="Trazado 113547" d="M.867.9A4.963,4.963,0,0,1,1.81.507,7.027,7.027,0,0,1,3.775.233,10.453,10.453,0,0,1,7.639.991c.041.016.069-.054.029-.073a10.048,10.048,0,0,0-4-.918A6.626,6.626,0,0,0,1.643.279,2.962,2.962,0,0,0,.01,1.222a.075.075,0,0,0,.085.107A5.386,5.386,0,0,0,.867.9Z" transform="translate(2.56 4.496)" fill="#0a481c"/>
          </g>
        </g>
        <g id="Grupo_80142" data-name="Grupo 80142" transform="translate(40.31 36.407) rotate(180)">
          <g id="Grupo_80139" data-name="Grupo 80139" transform="translate(0 0.026)">
            <path id="Trazado_113572" data-name="Trazado 113572" d="M7.713.006A22.168,22.168,0,0,0,3.365,1.725,9.646,9.646,0,0,0,1.606,3.09,6.493,6.493,0,0,0,.335,4.721,1.751,1.751,0,0,0,.162,6.412a1.351,1.351,0,0,0,1.33.46c1.448-.2,1.788-1.884,2.289-3A6.944,6.944,0,0,1,6.693.754,2.478,2.478,0,0,0,7.827.2C7.906.123,7.826-.034,7.713.006Z" transform="translate(11.418 0)" fill="#add031"/>
            <path id="Trazado_113573" data-name="Trazado 113573" d="M8.781,3.646q1-.474,1.968-.995a20.2,20.2,0,0,0,1.771-1.1c.349-.235.706-.455,1.05-.7Q13.787.7,14,.532c.05-.039.16-.1.173-.169a.1.1,0,0,0-.03-.091.079.079,0,0,0-.007-.019L14.118.232A.106.106,0,0,0,14.072.2l.021.009c-.018-.008-.037-.018-.056-.025L14,.179a.585.585,0,0,1-.067-.023L13.92.149c0-.1-.1-.2-.2-.123A18.256,18.256,0,0,1,6.912,2.654,17.8,17.8,0,0,1,4.862,3c-.67.072-1.338.03-2.01.07a6.493,6.493,0,0,0-2.2.314A.868.868,0,0,0,.187,4.745a2.5,2.5,0,0,0,1.827.7A10.583,10.583,0,0,0,5.29,4.969,21.91,21.91,0,0,0,8.781,3.646Z" transform="translate(0 0.148)" fill="#add031"/>
          </g>
          <g id="Grupo_80140" data-name="Grupo 80140" transform="translate(12.276 0)">
            <path id="Trazado_113574" data-name="Trazado 113574" d="M.075,5.865a8.847,8.847,0,0,1,3-3.9A11.791,11.791,0,0,1,5.191.916c.361-.143.73-.258,1.1-.378A3.123,3.123,0,0,0,7.3.086c.041-.033,0-.1-.049-.084-.408.109-.8.276-1.208.4S5.266.663,4.883.821A11.053,11.053,0,0,0,2.776,1.91,8.037,8.037,0,0,0,0,5.834c-.015.042.054.072.073.03Z" transform="translate(0)" fill="#4f9638"/>
          </g>
          <g id="Grupo_80141" data-name="Grupo 80141" transform="translate(0.413 0.388)">
            <path id="Trazado_113575" data-name="Trazado 113575" d="M.034,4.13a2.363,2.363,0,0,0,1.1.172c.482,0,.962.045,1.444.038A14.056,14.056,0,0,0,5.559,3.9a24.6,24.6,0,0,0,5.58-2.022A7.088,7.088,0,0,0,13.623.093c.048-.063-.05-.121-.1-.079a12.222,12.222,0,0,1-2.227,1.523C10.45,1.957,9.6,2.36,8.72,2.7s-1.751.591-2.646.836A18.132,18.132,0,0,1,3.2,4.155a8.632,8.632,0,0,1-1.624,0A4.1,4.1,0,0,1,.1,4.014c-.077-.037-.144.076-.067.115Z" transform="translate(0)" fill="#4f9638"/>
          </g>
        </g>
        <g id="Grupo_80159" data-name="Grupo 80159" transform="translate(19.326 0) rotate(83)">
          <path id="Trazado_113591" data-name="Trazado 113591" d="M6.417.026C4.8.229,4.352,1.749,4.537,3.173c.159,1.224.982,2.4.907,3.651-.054.886-.963.657-1.576.5a7.554,7.554,0,0,0-2.39-.414A1.55,1.55,0,0,0,.044,7.92,1.362,1.362,0,0,0,.58,9.3c1.135,1.02,2.879,1.457,4.27,1.98.516.194,2.128.406,2.259,1.026.091.433-.857.459-1.133.479-1.025.075-2.047-.059-3.072-.036-.674.015-2.373.1-2.221,1.139.1.707.87,1.259,1.437,1.586A17.514,17.514,0,0,0,4.771,16.7a23.1,23.1,0,0,0,3.556.929,26.49,26.49,0,0,0,3.517.519c.542.034,1.083.024,1.624.07a.274.274,0,0,0,.2.23,18.11,18.11,0,0,0,3.171.751,3.372,3.372,0,0,0,2.485-.437,9.88,9.88,0,0,0,1.854-2.43,14.683,14.683,0,0,0,1.54-2.288c.387-.86.767-2.348-.266-2.926-1.313-.734-2.85.6-4.147.732-.316.033-.855,0-.989-.363-.091-.251.1-.544.227-.745a8.417,8.417,0,0,1,1.483-1.582c.915-.83,2.019-1.753,1.456-3.139-.64-1.577-2.725-1.659-3.961-.772a4.56,4.56,0,0,0-1.452,2,7.547,7.547,0,0,0-.341,1.014c-.155.586-.538.87-1.124.492-.894-.576-1.193-1.929-1.539-2.855a16.6,16.6,0,0,0-1.416-3.063C9.7,1.334,8.39-.222,6.417.026Z" transform="translate(0 0)" fill="#add031"/>
          <g id="Grupo_80153" data-name="Grupo 80153" transform="translate(6.241 2.576)">
            <path id="Trazado_113592" data-name="Trazado 113592" d="M0,.18A11.93,11.93,0,0,0,.618,2.937,19.987,19.987,0,0,0,1.751,5.369a29.186,29.186,0,0,0,3.04,4.555A30.189,30.189,0,0,0,8.7,13.869q1,.845,2.055,1.621a7.172,7.172,0,0,0,2.459,1.4c.119.027.227-.125.126-.216a22.258,22.258,0,0,0-2.174-1.465c-.738-.522-1.455-1.08-2.149-1.66A27.156,27.156,0,0,1,5.354,9.8,29.412,29.412,0,0,1,2.4,5.365,18.244,18.244,0,0,1,.365.131C.328-.071-.026-.027,0,.18Z" transform="translate(0 0)" fill="#4f9638"/>
          </g>
          <g id="Grupo_80154" data-name="Grupo 80154" transform="translate(17.19 11.945)">
            <path id="Trazado_113593" data-name="Trazado 113593" d="M.265,4.922c.523-.814,1.016-1.647,1.548-2.455.26-.394.529-.783.816-1.158.3-.394.652-.764.916-1.185C3.586.059,3.5-.035,3.434.013a5.007,5.007,0,0,0-.97,1.032c-.3.391-.584.794-.855,1.206C1.061,3.082.558,3.941.023,4.78c-.1.153.145.294.242.142Z" transform="translate(0)" fill="#4f9638"/>
          </g>
          <g id="Grupo_80155" data-name="Grupo 80155" transform="translate(9.288 1.932)">
            <path id="Trazado_113594" data-name="Trazado 113594" d="M1.283,8.114A8.009,8.009,0,0,0,1.43,4.041,16.648,16.648,0,0,0,.9,1.837,6.087,6.087,0,0,0,.146.034C.1-.031-.023,0,0,.094.175.669.473,1.212.662,1.787a16.78,16.78,0,0,1,.547,2.132A8.686,8.686,0,0,1,1.226,8.1c-.012.036.044.051.057.016Z" fill="#4f9638"/>
          </g>
          <g id="Grupo_80156" data-name="Grupo 80156" transform="translate(0.57 8.388)">
            <path id="Trazado_113595" data-name="Trazado 113595" d="M8.6,1.537c-.771-.071-1.526-.1-2.295-.205-.733-.1-1.474-.141-2.206-.255A19.6,19.6,0,0,1,1.885.611,8.974,8.974,0,0,0,.079,0,.082.082,0,0,0,.038.152a10.312,10.312,0,0,0,4.141,1.24c.694.095,1.393.151,2.09.214.781.071,1.552.013,2.332.056.081,0,.08-.118,0-.126Z" transform="translate(0 0)" fill="#4f9638"/>
          </g>
          <g id="Grupo_80157" data-name="Grupo 80157" transform="translate(2.003 13.938)">
            <path id="Trazado_113596" data-name="Trazado 113596" d="M.057.214A15.706,15.706,0,0,0,5.274,1.48a19.626,19.626,0,0,0,2.9.035c.469-.023.938-.053,1.408-.073A2.94,2.94,0,0,0,10.852,1.3a.119.119,0,0,0,0-.2A2.077,2.077,0,0,0,9.782,1c-.469.019-.938.045-1.408.065a23,23,0,0,1-2.816-.021A24.02,24.02,0,0,1,.146.005C.023-.034-.062.158.057.214Z" transform="translate(0 0)" fill="#4f9638"/>
          </g>
          <g id="Grupo_80158" data-name="Grupo 80158" transform="translate(13.424 5.462)">
            <path id="Trazado_113597" data-name="Trazado 113597" d="M.11,8.117c.349-.849.71-1.68,1.133-2.495A14.886,14.886,0,0,1,2.707,3.41,11.062,11.062,0,0,1,4.581,1.6c.309-.252.592-.534.906-.78A8.854,8.854,0,0,0,6.408.2.116.116,0,0,0,6.357.008c-.646-.1-1.349.82-1.776,1.2-.33.291-.7.537-1.014.842-.356.341-.664.724-1,1.084A9.139,9.139,0,0,0,1,5.4,23.822,23.822,0,0,0,0,8.087c-.024.069.081.094.107.029Z" transform="translate(0)" fill="#4f9638"/>
          </g>
        </g>
      </g>
    </g>
  </g>
</svg>
