<svg id="Grupo_1083907" data-name="Grupo 1083907" xmlns="http://www.w3.org/2000/svg" xmlns:xlink="http://www.w3.org/1999/xlink" width="132.191" height="138.898" viewBox="0 0 132.191 138.898">
  <defs>
    <clipPath id="clip-path">
      <rect id="Rectángulo_361553" data-name="Rectángulo 361553" width="132.191" height="138.898" fill="none"/>
    </clipPath>
  </defs>
  <g id="Grupo_1083906" data-name="Grupo 1083906" clip-path="url(#clip-path)">
    <path id="Trazado_716586" data-name="Trazado 716586" d="M104.179,110.061c.009-3.276-.065-6.554.034-9.827.041-1.348-.218-1.882-1.708-1.792-2.363.143-4.74.053-7.112.035-4.68-.035-7.735-3.363-7.22-7.98.128-1.144-.225-1.319-1.231-1.3-3.048.054-6.1.075-9.145-.008-1.177-.032-1.515.4-1.383,1.467a4.693,4.693,0,0,1-.016,1.015,2.076,2.076,0,0,1-2.194,2.1,2.04,2.04,0,0,1-2.3-2.153c-.086-3.949-.106-7.9-.124-11.851-.007-1.466.035-2.934.106-4.4a2.268,2.268,0,1,1,4.535-.03c.153,2.267.166,2.267,2.4,2.267q13.127,0,26.254,0c1.834,0,3.843-1.986,3.812-3.628-.014-.759-.27-.977-.984-.948-1.071.044-2.146.038-3.218,0-1.865-.059-2.743-.845-2.783-2.673q-.093-4.319,0-8.641c.038-1.783.875-2.514,2.656-2.563.113,0,.226,0,.339,0,3.945-.034,3.931-.035,3.952-3.918a31.088,31.088,0,0,1,.17-4.9,11.248,11.248,0,0,1,9.641-9.542c4.382-.691,8.571-.263,12,3a11.3,11.3,0,0,1,3.634,8.455c.019,7,.082,14.009-.046,21.01-.033,1.822.554,2.143,2.186,2.09,3.553-.117,7.113-.045,10.67-.033,2.719.009,3.417.7,3.417,3.386q.006,14.4.005,28.806c0,.619.049,1.237.075,1.856-.021,2.311-.09,4.623-.047,6.933a3.014,3.014,0,0,1-1.9,3.061c-3.339,1.618-6.623,3.35-9.974,4.94a2.028,2.028,0,0,0-1.406,2.281c.222,3.319.275,6.649.42,9.973.335,7.72.7,15.438,1.006,23.16.038.965.349,1.242,1.285,1.209,1.859-.066,3.722,0,5.582-.023a2.342,2.342,0,0,1,2.542,1.79,2.045,2.045,0,0,1-1.286,2.6c-2.633,0-5.266,0-7.9.017-.536,0-1.136-.189-1.574.329H127.18c-.188-.106-.376-.3-.564-.3q-6.043-.026-12.085,0c-.189,0-.378.2-.567.3h-8.133c-.5-.552-1.163-.327-1.755-.327q-29.428-.017-58.856,0c-.583,0-1.252-.264-1.741.325h-.339c-.332-.63-1.083-.912-1.3-1.655-.513-1.737.719-3.075,2.917-3.076q22.94-.009,45.879,0c4.119,0,8.239-.017,12.358.014.8.006,1.2-.088,1.194-1.066-.058-8.918-.062-17.836-.082-26.754q.038-11.518.074-23.036m4.7,49.35c0,.638-.373,1.512.928,1.51,1.015,0,1.428-.209,1.575-1.331,1.151-8.776,2.39-17.54,3.6-26.308.261-1.9.486-3.8.759-5.7.195-1.356.6-2.574,2.277-2.682s2.223,1.01,2.594,2.355q4.466,16.205,8.95,32.406c.139.5.084,1.238.893,1.211,1.169-.038,2.368.257,3.491-.212.142-.059.112-.623.1-.95q-.648-14.89-1.307-29.779c-.2-4.512-.392-9.025-.521-13.54-.036-1.247-.368-1.748-1.752-1.731q-9.991.116-19.984,0c-1.4-.017-1.646.454-1.636,1.719.055,7.172.027,14.345.027,21.517s-.006,14.345.011,21.517m23.044-78.345c0-2.464-1.392-3.657-3.888-3.485-.79.054-.986.349-.83,1.046a8.36,8.36,0,0,1-.8,5.087c-1.319,3.232-2.605,6.478-3.917,9.713-1.459,3.6-3.623,5.043-7.539,5.053-1.637,0-3.274.037-4.909-.014-.836-.026-1.2.17-1.188,1.109q.08,4.656,0,9.315c-.014.9.278,1.147,1.159,1.143,6.885-.032,13.77-.044,20.655.009,1.11.009,1.288-.393,1.279-1.369-.043-4.686-.019-9.372-.019-14.058q0-6.775,0-13.55M145.17,115.9c.694-.33.667-.8.667-1.366q0-16.693.017-33.387c0-.907-.162-1.3-1.185-1.268-2.313.076-4.63.047-6.945.011-.75-.012-1.114.125-1.106,1,.12,12.93-.217,25.865.269,39.142,2.961-1.488,5.6-2.856,8.283-4.132M115.3,93.817A2.673,2.673,0,0,0,118.12,91.9c1.388-3.567,2.858-7.1,4.265-10.661.629-1.591.175-2.9-1.1-3.4-1.328-.526-2.539.071-3.189,1.652-1.027,2.5-2.078,4.99-2.987,7.533a3.085,3.085,0,0,1-3.331,2.236c-5.414-.012-10.828.04-16.243.071-1.874.011-2.825.7-2.884,2.093-.06,1.414,1.056,2.371,2.85,2.38,3.272.018,6.544.005,9.815.005,3.328,0,6.657-.03,9.984.014m14.287-37.274c-.03-.75.731-2.029-1.051-2.075-1.724-.045-1.168,1.164-1.2,1.98-.167,4.754-2.855,8.413-7.048,9.382a21.739,21.739,0,0,1-5.4.168c-1.052-.023-1.367.32-1.328,1.347.058,1.519.011,3.047-.075,4.566-.052.91.263,1.135,1.155,1.123C119.1,72.97,123.552,72.918,128,73c1.4.026,1.69-.46,1.646-1.731-.088-2.536-.026-5.078-.026-7.617,0-2.37.059-4.742-.035-7.109m-12.923,98.7c-.216,1.56-.425,3.121-.662,4.678-.1.684.025,1.019.837,1,2.422-.046,4.844-.036,7.266,0,.694.009.9-.216.716-.876q-2.8-10.087-5.58-20.178l-.453.048q-1.062,7.665-2.123,15.33m-38.6-73c-.848,0-1.639-.187-1.606,1.214.03,1.265.7,1.148,1.513,1.147q12.431-.012,24.863.012c.933,0,1.387-.085,1.4-1.237.017-1.281-.682-1.138-1.479-1.136q-6.173.013-12.347,0t-12.347,0M114.6,54.475c-.92-.053-1.212.328-1.14,1.179.038.448-.038.908.014,1.354.172,1.466-.7,3.875.5,4.214,2.141.6,4.741.845,6.847-.676,1.8-1.3,2-3.279,1.933-5.325-.027-.783-.53-.728-1.044-.728h-3.557c-1.185,0-2.374.052-3.556-.017m14.407-4.719a6.323,6.323,0,0,0-5.75-4.47c-5.221-.324-7.678.816-9.241,4.47ZM108.991,83.084c-.12.5-.516,1.342.434,1.464.681.088,1.559.41,1.961-.7.685-1.882,1.474-3.725,2.364-5.945a6.923,6.923,0,0,0-4.759,5.176m-2.485-15.53c-.093.921.523.843,1.086.794.535-.046,1.343.332,1.285-.77-.038-.732,0-1.468-.008-2.2-.01-.861.285-1.779-1.253-1.74-1.494.037-1.027.97-1.1,1.716-.021.224,0,.451,0,.677a14.983,14.983,0,0,1-.008,1.524" transform="translate(-27.539 -26.739)" fill="#12263f"/>
    <path id="Trazado_716587" data-name="Trazado 716587" d="M109.243,407.826c-.5-.552-1.163-.327-1.755-.327q-29.428-.017-58.856,0c-.583,0-1.252-.264-1.741.325h62.352" transform="translate(-30.95 -268.928)" fill="#53332c"/>
    <path id="Trazado_716588" data-name="Trazado 716588" d="M267.437,407.955c-.188-.106-.376-.3-.564-.3q-6.042-.026-12.085,0c-.189,0-.378.2-.567.3Z" transform="translate(-167.796 -269.057)" fill="#53332c"/>
    <path id="Trazado_716589" data-name="Trazado 716589" d="M332.473,407.525c-2.633,0-5.266,0-7.9.017-.536,0-1.136-.189-1.574.329h9.488a1.4,1.4,0,0,1-.069-.228c0-.036.034-.078.054-.117" transform="translate(-213.192 -268.972)" fill="#53332c"/>
    <path id="Trazado_716590" data-name="Trazado 716590" d="M111.633,103.542c-1.271-.437-2.758-.577-3.746-1.7,4.509-1.172,7.059-3.926,7.149-7.767a7.715,7.715,0,0,0-4.561-7.631,7.556,7.556,0,0,0-8.669,1.079,7.784,7.784,0,0,0-2.532,8.671q.139.484.279.969a1.3,1.3,0,0,1-.938-.273A52.242,52.242,0,0,1,84.3,82.211c-1.264-1.892-1.94-4.153-3.644-5.761a2.749,2.749,0,0,0-1.176-2.8c-.745-2.628-1.483-5.259-2.25-7.88-.052-.177-.322-.29-.491-.433a2.646,2.646,0,0,0-.354-3.679,71.626,71.626,0,0,1-.691-9.637c2.137-1.443,2.231-2.74.324-4.5a58.952,58.952,0,0,1,1.429-7.68c1.339.225,2.494-.005,3.045-1.415s-.2-2.344-1.306-3.1a3.055,3.055,0,0,1-.452-.476c1.335-2.031,1.952-4.4,3.119-6.517A55.3,55.3,0,0,1,92.994,13.989,51.258,51.258,0,0,1,109.646,3.6,53.366,53.366,0,0,1,133.085.181,55.718,55.718,0,0,1,152.167,5.3a52.309,52.309,0,0,1,17.258,13.343,50.139,50.139,0,0,1,9.038,15.149,57.071,57.071,0,0,1,3.407,14.541,51.206,51.206,0,0,1-.205,12.281,48.214,48.214,0,0,1-4.615,15.263c-1.176,2.339-2.079,4.871-4.036,6.755-.026-.619-.075-1.237-.075-1.856q-.007-14.4,0-28.806c0-2.683-.7-3.378-3.418-3.386-3.557-.011-7.117-.084-10.67.033-1.631.054-2.219-.269-2.186-2.09.128-7,.066-14.006.046-21.01a11.3,11.3,0,0,0-3.634-8.456c-3.429-3.266-7.618-3.694-12-3a11.249,11.249,0,0,0-9.641,9.542,31.085,31.085,0,0,0-.17,4.9c-.02,3.884-.006,3.884-3.952,3.918-.113,0-.226,0-.339,0-1.781.049-2.618.78-2.656,2.563q-.093,4.319,0,8.641c.039,1.827.918,2.614,2.783,2.673,1.072.034,2.147.04,3.218,0,.714-.029.97.189.984.948.031,1.642-1.978,3.627-3.812,3.628q-13.127.008-26.254,0c-2.236,0-2.249,0-2.4-2.267a2.268,2.268,0,1,0-4.535.03c-.071,1.465-.113,2.933-.106,4.4.018,3.951.038,7.9.124,11.851a2.04,2.04,0,0,0,2.3,2.153,2.076,2.076,0,0,0,2.194-2.1,4.7,4.7,0,0,0,.016-1.015c-.131-1.065.206-1.5,1.383-1.467,3.046.083,6.1.063,9.145.008,1.006-.018,1.359.157,1.231,1.3-.515,4.617,2.54,7.945,7.22,7.98,2.371.018,4.749.108,7.112-.035,1.491-.09,1.749.443,1.709,1.792-.1,3.273-.025,6.551-.034,9.827q-.031,11.518-.074,23.036a51.018,51.018,0,0,1-14.888-2.817M80.6,51.528a2.03,2.03,0,0,0,1.306,2.461,36.425,36.425,0,0,0,5.154,1.475,2.083,2.083,0,0,0,2.446-1.6,1.956,1.956,0,0,0-1.016-2.579c-1.8-.73-3.714-1.19-5.108-1.618-1.769.021-2.526.7-2.781,1.864m7.75,10.633A2.025,2.025,0,0,0,89.5,59.488a2.062,2.062,0,0,0-2.448-1.59A34.44,34.44,0,0,0,81.9,59.366a2.026,2.026,0,0,0-1.253,2.622c.338,1.155,1.146,1.759,2.834,1.669,1.352-.4,3.16-.823,4.87-1.5m-1.308,9.718a32.664,32.664,0,0,0,4.272-3.306,1.961,1.961,0,0,0,.2-2.771,1.99,1.99,0,0,0-2.656-.828,19.273,19.273,0,0,0-4.795,3.7,2.743,2.743,0,0,0-.426,1.068,2.3,2.3,0,0,0,3.409,2.141M83.871,42.5a2.014,2.014,0,0,0,.438,2.489,50.1,50.1,0,0,0,4.135,3.215,2.1,2.1,0,0,0,2.668-.214,2.135,2.135,0,0,0,.758-2.277c-.311-1.161-4.627-4.511-5.843-4.549A2.135,2.135,0,0,0,83.871,42.5M105.54,26.99a2.492,2.492,0,1,0-2.371-2.567,2.521,2.521,0,0,0,2.371,2.567" transform="translate(-49.954 0)" fill="#e8e8e8"/>
    <path id="Trazado_716591" data-name="Trazado 716591" d="M144.576,263.244c-.093-.323-.187-.646-.279-.969a7.784,7.784,0,0,1,2.532-8.671,7.556,7.556,0,0,1,8.669-1.079,7.714,7.714,0,0,1,4.561,7.631c-.09,3.841-2.64,6.6-7.149,7.767a8.462,8.462,0,0,1-8.334-4.68m7.43-6.919a3.485,3.485,0,0,0-3.471,3.406,3.531,3.531,0,0,0,3.521,3.538,3.473,3.473,0,0,0-.049-6.944" transform="translate(-94.978 -166.087)" fill="#12263f"/>
    <path id="Trazado_716592" data-name="Trazado 716592" d="M66.659,219.042a2.749,2.749,0,0,0-1.176-2.8,2.861,2.861,0,0,0-2.979.563c-2.21,1.743-4.468,3.424-6.692,5.15-1.405,1.09-1.722,2.506-.858,3.637.908,1.188,2.211,1.242,3.7.107,2.286-1.738,4.548-3.507,6.835-5.244a4.2,4.2,0,0,0,1.168-1.408" transform="translate(-35.955 -142.593)" fill="#12263f"/>
    <path id="Trazado_716593" data-name="Trazado 716593" d="M63.444,96.984c1.339.225,2.494-.005,3.045-1.415.557-1.425-.2-2.344-1.306-3.1a3.057,3.057,0,0,1-.452-.476Q61.7,89.7,58.669,87.409c-1.5-1.128-2.813-1.1-3.718.077-.872,1.129-.561,2.541.854,3.637,2.536,1.966,5.092,3.908,7.64,5.86" transform="translate(-35.949 -57.149)" fill="#12263f"/>
    <path id="Trazado_716594" data-name="Trazado 716594" d="M55.708,184.458a2.646,2.646,0,0,0-.354-3.679,3.506,3.506,0,0,0-2.6-.087c-2.292.732-4.63,1.32-6.932,2.022-1.546.472-2.24,1.57-1.93,2.864a2.328,2.328,0,0,0,3.193,1.585c2.887-.861,5.9-1.332,8.627-2.705" transform="translate(-28.92 -119.126)" fill="#12263f"/>
    <path id="Trazado_716595" data-name="Trazado 716595" d="M54.65,139.741c2.137-1.443,2.23-2.74.324-4.5-2.6-.73-5.186-1.477-7.789-2.184-1.636-.444-2.89.138-3.283,1.456s.33,2.552,1.967,2.989c2.918.78,5.717,2.035,8.781,2.24" transform="translate(-28.907 -87.725)" fill="#12263f"/>
    <path id="Trazado_716596" data-name="Trazado 716596" d="M7.849,197.183a2.286,2.286,0,0,0,2.871,2.25c1.526-.361,3.038-.807,4.525-1.31a2.232,2.232,0,0,0,1.552-2.918,2.191,2.191,0,0,0-2.921-1.532c-1.408.379-2.821.742-4.214,1.172a2.275,2.275,0,0,0-1.813,2.338" transform="translate(-5.18 -127.751)" fill="#12263f"/>
    <path id="Trazado_716597" data-name="Trazado 716597" d="M7.856,124.728a2.11,2.11,0,0,0,1.525,2.181c1.543.5,3.107.943,4.683,1.324a2.3,2.3,0,0,0,1.317-4.4,32.938,32.938,0,0,0-4.841-1.38,2.228,2.228,0,0,0-2.684,2.278" transform="translate(-5.185 -80.789)" fill="#12263f"/>
    <path id="Trazado_716598" data-name="Trazado 716598" d="M21.26,63.44c-.036,1.694,4.981,5.581,6.6,5.113a2.252,2.252,0,0,0,1.077-3.841,28.854,28.854,0,0,0-4.12-3.194A2.326,2.326,0,0,0,21.26,63.44" transform="translate(-14.032 -40.364)" fill="#12263f"/>
    <path id="Trazado_716599" data-name="Trazado 716599" d="M21.2,255.062a2.545,2.545,0,0,0,1.247,2.229,2.167,2.167,0,0,0,2.391-.065c1.365-.983,2.725-1.986,3.99-3.091a2.078,2.078,0,0,0,.3-3.027,2.024,2.024,0,0,0-2.806-.743,24.207,24.207,0,0,0-4.519,3.478,3.737,3.737,0,0,0-.6,1.218" transform="translate(-13.99 -165.051)" fill="#12263f"/>
    <path id="Trazado_716600" data-name="Trazado 716600" d="M2.518,302.943A2.5,2.5,0,0,0,0,305.36a2.521,2.521,0,0,0,2.331,2.609,2.515,2.515,0,1,0,.185-5.026" transform="translate(0 -199.953)" fill="#12263f"/>
    <path id="Trazado_716601" data-name="Trazado 716601" d="M74.791,26.3a2.506,2.506,0,0,0,2.423,2.524A2.582,2.582,0,0,0,79.8,26.259,2.652,2.652,0,0,0,77.257,23.8a2.551,2.551,0,0,0-2.466,2.5" transform="translate(-49.365 -15.707)" fill="#12263f"/>
    <path id="Trazado_716602" data-name="Trazado 716602" d="M77.336,336.922a2.561,2.561,0,0,0-2.54,2.428,2.5,2.5,0,0,0,2.343,2.594,2.579,2.579,0,0,0,2.668-2.479,2.675,2.675,0,0,0-2.472-2.543" transform="translate(-49.367 -222.381)" fill="#12263f"/>
    <path id="Trazado_716603" data-name="Trazado 716603" d="M239.152,281.851q0,10.758.011,21.517c0,.638-.373,1.512.927,1.51,1.015,0,1.428-.209,1.575-1.331,1.151-8.775,2.39-17.54,3.6-26.308.261-1.9.487-3.8.759-5.7.2-1.356.6-2.573,2.277-2.682s2.223,1.01,2.594,2.355q4.465,16.205,8.949,32.406c.139.5.084,1.238.893,1.211,1.169-.038,2.368.257,3.491-.211.141-.059.111-.623.1-.95q-.648-14.89-1.307-29.779c-.2-4.512-.392-9.025-.521-13.54-.036-1.247-.368-1.747-1.752-1.731q-9.991.116-19.983,0c-1.4-.017-1.646.454-1.637,1.719.055,7.172.027,14.345.027,21.517" transform="translate(-157.824 -170.696)" fill="#ffd947"/>
    <path id="Trazado_716604" data-name="Trazado 716604" d="M262.244,166.557q0-6.775,0-13.55c0-2.464-1.392-3.656-3.888-3.485-.791.054-.986.349-.83,1.047a8.355,8.355,0,0,1-.8,5.087c-1.319,3.232-2.6,6.478-3.917,9.713-1.458,3.6-3.623,5.043-7.539,5.053-1.637,0-3.275.037-4.909-.014-.837-.026-1.2.17-1.188,1.109q.08,4.656,0,9.315c-.013.9.278,1.147,1.159,1.143,6.885-.032,13.771-.044,20.656.01,1.11.008,1.288-.393,1.279-1.369-.043-4.686-.019-9.372-.019-14.058" transform="translate(-157.859 -98.679)" fill="#ffd947"/>
    <path id="Trazado_716605" data-name="Trazado 716605" d="M321.12,196.458c2.961-1.488,5.6-2.856,8.283-4.132.694-.33.667-.8.667-1.366q0-16.693.017-33.387c0-.907-.162-1.3-1.185-1.268-2.313.076-4.63.047-6.945.011-.749-.012-1.114.126-1.106,1,.12,12.93-.217,25.865.269,39.143" transform="translate(-211.772 -103.166)" fill="#fdfcfc"/>
    <path id="Trazado_716606" data-name="Trazado 716606" d="M204.193,165.9c3.328,0,6.657-.03,9.984.014A2.672,2.672,0,0,0,217,164c1.388-3.567,2.858-7.1,4.265-10.661.629-1.591.175-2.9-1.1-3.4-1.328-.526-2.539.071-3.189,1.652-1.027,2.5-2.078,4.99-2.987,7.532a3.086,3.086,0,0,1-3.331,2.236c-5.414-.012-10.828.04-16.243.07-1.874.011-2.825.705-2.884,2.093-.06,1.413,1.056,2.37,2.85,2.38,3.272.017,6.544,0,9.815,0" transform="translate(-126.414 -98.839)" fill="#ffd947"/>
    <path id="Trazado_716607" data-name="Trazado 716607" d="M268.951,90.745c0-2.37.059-4.742-.035-7.109-.03-.75.731-2.029-1.051-2.075-1.725-.045-1.168,1.164-1.2,1.98-.167,4.754-2.855,8.413-7.048,9.382a21.738,21.738,0,0,1-5.4.168c-1.052-.023-1.367.32-1.328,1.347.057,1.519.011,3.047-.075,4.566-.052.91.263,1.135,1.155,1.123,4.452-.063,8.906-.115,13.357-.034,1.4.026,1.69-.46,1.646-1.731-.088-2.536-.026-5.078-.026-7.617" transform="translate(-166.866 -53.833)" fill="#ffd947"/>
    <path id="Trazado_716608" data-name="Trazado 716608" d="M262.945,332.8q-1.062,7.665-2.123,15.33c-.217,1.56-.425,3.121-.662,4.678-.1.684.025,1.019.837,1,2.422-.047,4.844-.036,7.266,0,.694.009.9-.216.716-.877q-2.8-10.087-5.58-20.178l-.453.048" transform="translate(-171.695 -219.631)" fill="#f9f7f6"/>
    <path id="Trazado_716609" data-name="Trazado 716609" d="M157.854,163.259q-6.173,0-12.347,0c-.848,0-1.639-.188-1.606,1.214.03,1.265.7,1.148,1.513,1.147q12.431-.013,24.863.012c.933,0,1.388-.085,1.4-1.237.017-1.281-.682-1.138-1.479-1.136q-6.173.012-12.347,0" transform="translate(-94.98 -107.75)" fill="#e8e8e8"/>
    <path id="Trazado_716610" data-name="Trazado 716610" d="M257.177,81.593c-1.185,0-2.374.052-3.556-.017-.92-.053-1.212.328-1.139,1.179.038.449-.038.908.014,1.354.172,1.466-.7,3.875.5,4.214,2.141.6,4.741.845,6.847-.676,1.8-1.3,2-3.28,1.933-5.325-.027-.783-.53-.728-1.044-.729h-3.557" transform="translate(-166.56 -53.84)" fill="#fff"/>
    <path id="Trazado_716611" data-name="Trazado 716611" d="M254.371,58.924h14.991a6.323,6.323,0,0,0-5.75-4.47c-5.221-.324-7.678.816-9.241,4.47" transform="translate(-167.895 -35.907)" fill="#ffd947"/>
    <path id="Trazado_716612" data-name="Trazado 716612" d="M243.993,150.514a6.923,6.923,0,0,0-4.759,5.176c-.121.5-.516,1.342.434,1.465.681.088,1.559.41,1.961-.7.686-1.881,1.474-3.725,2.364-5.945" transform="translate(-157.782 -99.345)" fill="#febc3f"/>
    <path id="Trazado_716613" data-name="Trazado 716613" d="M232.271,110.924a15.185,15.185,0,0,1-.009,1.524c-.093.921.523.843,1.086.794.534-.046,1.342.332,1.285-.77-.038-.732,0-1.468-.008-2.2-.01-.861.285-1.779-1.254-1.74-1.494.037-1.026.97-1.1,1.716-.021.224,0,.451,0,.678" transform="translate(-153.296 -71.633)" fill="#f5f3f2"/>
    <path id="Trazado_716614" data-name="Trazado 716614" d="M92.807,146.087c-1.769.021-2.526.7-2.781,1.864a2.031,2.031,0,0,0,1.306,2.461,36.469,36.469,0,0,0,5.154,1.475,2.083,2.083,0,0,0,2.445-1.6,1.957,1.957,0,0,0-1.016-2.579c-1.8-.73-3.714-1.19-5.108-1.618" transform="translate(-59.381 -96.423)" fill="#12263f"/>
    <path id="Trazado_716615" data-name="Trazado 716615" d="M92.9,175.968c1.352-.4,3.16-.824,4.87-1.5a2.025,2.025,0,0,0,1.155-2.673,2.062,2.062,0,0,0-2.448-1.59,34.44,34.44,0,0,0-5.157,1.468,2.026,2.026,0,0,0-1.253,2.622c.338,1.155,1.146,1.76,2.834,1.67" transform="translate(-59.375 -112.311)" fill="#12263f"/>
    <path id="Trazado_716616" data-name="Trazado 716616" d="M99.064,195.429a2.3,2.3,0,0,0,3.408,2.141,32.663,32.663,0,0,0,4.273-3.306,1.961,1.961,0,0,0,.2-2.771,1.99,1.99,0,0,0-2.656-.828,19.282,19.282,0,0,0-4.795,3.7,2.74,2.74,0,0,0-.426,1.068" transform="translate(-65.386 -125.691)" fill="#12263f"/>
    <path id="Trazado_716617" data-name="Trazado 716617" d="M101.456,121.095a2.133,2.133,0,0,0-2.157,1.335,2.015,2.015,0,0,0,.438,2.489,50.119,50.119,0,0,0,4.135,3.215,2.1,2.1,0,0,0,2.668-.214,2.136,2.136,0,0,0,.758-2.277c-.311-1.161-4.627-4.511-5.842-4.548" transform="translate(-65.383 -79.926)" fill="#12263f"/>
    <path id="Trazado_716618" data-name="Trazado 716618" d="M156.529,67.15a2.452,2.452,0,1,0,2.526-2.414,2.522,2.522,0,0,0-2.526,2.414" transform="translate(-103.314 -42.727)" fill="#12263f"/>
    <path id="Trazado_716619" data-name="Trazado 716619" d="M164.424,268.882a3.446,3.446,0,0,0-3.413-3.446,3.485,3.485,0,0,0-3.472,3.406,3.532,3.532,0,0,0,3.521,3.538,3.463,3.463,0,0,0,3.364-3.5" transform="translate(-103.982 -175.198)" fill="#e8e8e8"/>
  </g>
</svg>
