<svg xmlns="http://www.w3.org/2000/svg" xmlns:xlink="http://www.w3.org/1999/xlink" width="138" height="138" viewBox="0 0 138 138">
  <defs>
    <clipPath id="clip-path">
      <rect id="Rectángulo_361505" data-name="Rectángulo 361505" width="48" height="49.637" fill="none"/>
    </clipPath>
  </defs>
  <g id="Grupo_1083946" data-name="Grupo 1083946" transform="translate(-676 -2390)">
    <g id="Grupo_1083833" data-name="Grupo 1083833" transform="translate(-53)">
      <circle id="Elipse_4905" data-name="Elipse 4905" cx="69" cy="69" r="69" transform="translate(729 2390)" fill="#fff"/>
      <circle id="Elipse_4906" data-name="Elipse 4906" cx="56" cy="56" r="56" transform="translate(742 2403)" fill="#ffa686"/>
      <g id="Grupo_1083811" data-name="Grupo 1083811" transform="translate(775 2420.01)">
        <g id="Grupo_1083810" data-name="Grupo 1083810" clip-path="url(#clip-path)">
          <path id="Trazado_502644" data-name="Trazado 502644" d="M34.415,35.066c-.418,1.343-.721,2.652-1.224,3.878A17.055,17.055,0,0,1,15.338,49.513,17.175,17.175,0,0,1,.1,34.442a17.088,17.088,0,0,1,1.389-8.431,90.817,90.817,0,0,1,8.092-15.4c2.085-3.3,4.288-6.531,6.461-9.777.738-1.1,1.647-1.119,2.387-.02,2.126,3.154,4.213,6.334,6.315,9.5.168.254.333.509.5.757,5.488-4.1,11.165-4.648,16.913-.839a13.6,13.6,0,0,1,.672,21.824,13.774,13.774,0,0,1-8.409,3m-2.594-.2c-6.03-1.911-7.667-3.36-10.5-9.2a.612.612,0,0,0-.359-.327A6.38,6.38,0,0,1,17.8,23.679a2.433,2.433,0,0,0-2.467-.441,5.989,5.989,0,0,0-1.465.97,5.08,5.08,0,0,1-6.474,0A15.731,15.731,0,0,0,6.064,23.3c-.4-.242-.7-.16-.893.322-.545,1.358-1.161,2.689-1.674,4.058a13.467,13.467,0,0,0-.938,6.42A14.744,14.744,0,0,0,23.308,45.812a14.556,14.556,0,0,0,8.513-10.951m13.67-13.508A11.18,11.18,0,1,0,34.326,32.545,11.163,11.163,0,0,0,45.492,21.353m-24.8,1.381a14.035,14.035,0,0,1,2.537-9.371,1,1,0,0,0-.084-.863c-1.05-1.706-2.13-3.4-3.224-5.074-.852-1.307-1.737-2.593-2.673-3.986A170.293,170.293,0,0,0,6.647,20.66c.808.562,1.514,1.118,2.284,1.564a4.709,4.709,0,0,0,1.687.624,2.807,2.807,0,0,0,2.121-.929A5.062,5.062,0,0,1,19.5,21.85c.335.265.686.509,1.193.884" transform="translate(0 0.001)"/>
          <path id="Trazado_502645" data-name="Trazado 502645" d="M45.4,161.364a14.557,14.557,0,0,1-8.513,10.951A14.744,14.744,0,0,1,16.142,160.6a13.469,13.469,0,0,1,.938-6.42c.513-1.37,1.129-2.7,1.674-4.059.193-.482.494-.564.893-.321a15.729,15.729,0,0,1,1.328.912,5.08,5.08,0,0,0,6.474,0,5.98,5.98,0,0,1,1.465-.97,2.433,2.433,0,0,1,2.467.441,6.381,6.381,0,0,0,3.167,1.652.613.613,0,0,1,.359.327c2.831,5.843,4.468,7.291,10.5,9.2m-24.3,1.129c-1.094,0-1.629.813-1.261,1.639a11.157,11.157,0,0,0,3.41,4.4,1.12,1.12,0,0,0,1.593-.087,1.134,1.134,0,0,0-.166-1.644,11,11,0,0,1-2.823-3.611c-.176-.339-.593-.552-.754-.694m-.194-2.256c-.067-.679-.12-1.215-.173-1.75-.007-.077-.005-.154-.017-.23a1.06,1.06,0,0,0-1.122-1.03,1.028,1.028,0,0,0-1.111,1.11,10.976,10.976,0,0,0,.243,2.132,1.008,1.008,0,0,0,1.289.8,1.025,1.025,0,0,0,.89-1.03" transform="translate(-13.583 -126.502)" fill="#fff"/>
          <path id="Trazado_502646" data-name="Trazado 502646" d="M172.269,77.379a11.18,11.18,0,1,1-11.222-11.131,11.159,11.159,0,0,1,11.222,11.131m-15.259-.113-.034,0c.04-.512.058-1.026.123-1.534a2.293,2.293,0,0,1,1.71-2.139,2.488,2.488,0,0,1,2.682,1.077c.474.674.936.832,1.467.5a1.061,1.061,0,0,0,.221-1.615,4.347,4.347,0,0,0-4.368-2.028,3.835,3.835,0,0,0-3.533,3.175,18.337,18.337,0,0,0-.129,4.666,4.417,4.417,0,0,0,7.966,1.551c.421-.667.381-1.209-.117-1.568s-1.088-.208-1.565.431a2.218,2.218,0,0,1-2.557.955,2.408,2.408,0,0,1-1.8-2.158c-.042-.435-.043-.873-.062-1.31m10.22.175q0-1.541,0-3.081c0-.513.033-1.031-.018-1.539a.969.969,0,0,0-1-.974.952.952,0,0,0-1.013.947,5.526,5.526,0,0,0-.036.614q0,4.044,0,8.089c0,.884.365,1.35,1.021,1.365.634.015,1.035-.489,1.039-1.338.008-1.361,0-2.722,0-4.083" transform="translate(-126.777 -56.026)" fill="#fff"/>
          <path id="Trazado_502647" data-name="Trazado 502647" d="M57.124,41.588c-.507-.374-.858-.619-1.193-.884a5.062,5.062,0,0,0-6.762.069,2.807,2.807,0,0,1-2.121.929,4.709,4.709,0,0,1-1.687-.624c-.77-.446-1.476-1-2.284-1.564a170.293,170.293,0,0,1,10.6-17.221c.936,1.393,1.821,2.679,2.673,3.986,1.094,1.679,2.173,3.368,3.224,5.074a1,1,0,0,1,.084.863,14.035,14.035,0,0,0-2.537,9.371" transform="translate(-36.43 -18.854)" fill="#fff"/>
          <path id="Trazado_502648" data-name="Trazado 502648" d="M41.231,233.247c.161.142.578.356.754.694a11,11,0,0,0,2.823,3.611,1.135,1.135,0,0,1,.165,1.644,1.12,1.12,0,0,1-1.593.087,11.156,11.156,0,0,1-3.41-4.4c-.368-.826.167-1.641,1.261-1.639" transform="translate(-33.705 -197.257)"/>
          <path id="Trazado_502649" data-name="Trazado 502649" d="M34.24,202.127a1.025,1.025,0,0,1-.89,1.03,1.008,1.008,0,0,1-1.289-.8,10.975,10.975,0,0,1-.243-2.132,1.028,1.028,0,0,1,1.111-1.11,1.06,1.06,0,0,1,1.122,1.03c.011.076.009.154.017.23.052.536.105,1.071.173,1.75" transform="translate(-26.909 -168.392)"/>
          <path id="Trazado_502650" data-name="Trazado 502650" d="M185.24,105.979c.02.437.021.875.062,1.31a2.408,2.408,0,0,0,1.8,2.158,2.218,2.218,0,0,0,2.557-.955c.477-.638,1.057-.8,1.565-.431s.538.9.117,1.568a4.417,4.417,0,0,1-7.966-1.551,18.331,18.331,0,0,1,.129-4.666,3.835,3.835,0,0,1,3.533-3.175,4.348,4.348,0,0,1,4.368,2.028,1.061,1.061,0,0,1-.221,1.615c-.531.33-.993.172-1.467-.5a2.488,2.488,0,0,0-2.682-1.077,2.293,2.293,0,0,0-1.71,2.139c-.065.508-.084,1.023-.123,1.534Z" transform="translate(-155.007 -84.739)" fill="#fff"/>
          <path id="Trazado_502651" data-name="Trazado 502651" d="M250.83,108.13c0,1.361.006,2.722,0,4.083,0,.849-.406,1.353-1.039,1.338-.657-.015-1.019-.481-1.021-1.365q-.012-4.044,0-8.089a5.479,5.479,0,0,1,.036-.614.952.952,0,0,1,1.013-.947.969.969,0,0,1,1,.974c.052.508.018,1.026.019,1.539q0,1.541,0,3.081" transform="translate(-210.378 -86.715)" fill="#fff"/>
          <path id="Trazado_502652" data-name="Trazado 502652" d="M220.33,106.17c0,1.361.006,2.722,0,4.083,0,.849-.406,1.353-1.039,1.338-.657-.015-1.019-.481-1.021-1.365q-.012-4.044,0-8.089a5.486,5.486,0,0,1,.036-.614.952.952,0,0,1,1.013-.947.969.969,0,0,1,1,.974c.052.508.018,1.026.019,1.539q0,1.541,0,3.081" transform="translate(-184.584 -85.057)"/>
        </g>
      </g>
    </g>
    <text id="Yodo" transform="translate(748 2493)" fill="#12263f" font-size="20" font-family="Roboto-Bold, Roboto" font-weight="700"><tspan x="-22.808" y="0">Yodo</tspan></text>
  </g>
</svg>
