<svg xmlns="http://www.w3.org/2000/svg" xmlns:xlink="http://www.w3.org/1999/xlink" width="138" height="138" viewBox="0 0 138 138">
  <defs>
    <clipPath id="clip-path">
      <rect id="Rectángulo_361503" data-name="Rectángulo 361503" width="46" height="47.569" fill="none"/>
    </clipPath>
  </defs>
  <g id="Grupo_1083944" data-name="Grupo 1083944" transform="translate(-256 -2390)">
    <g id="Grupo_1083832" data-name="Grupo 1083832" transform="translate(-158)">
      <circle id="Elipse_4903" data-name="Elipse 4903" cx="69" cy="69" r="69" transform="translate(414 2390)" fill="#fff"/>
      <circle id="Elipse_4904" data-name="Elipse 4904" cx="56" cy="56" r="56" transform="translate(427 2403)" fill="#e1edb5"/>
      <text id="Cloro" transform="translate(486 2493)" fill="#12263f" font-size="20" font-family="Roboto-Bold, Roboto" font-weight="700"><tspan x="-23.975" y="0">Cloro</tspan></text>
      <g id="Grupo_1083806" data-name="Grupo 1083806" transform="translate(462 2421.044)">
        <g id="Grupo_1083805" data-name="Grupo 1083805" clip-path="url(#clip-path)">
          <path id="Trazado_502625" data-name="Trazado 502625" d="M32.982,33.6c-.4,1.287-.691,2.541-1.173,3.716A16.344,16.344,0,0,1,14.7,47.45,16.459,16.459,0,0,1,.1,33.007a16.376,16.376,0,0,1,1.331-8.08A87.034,87.034,0,0,1,9.182,10.17C11.18,7,13.291,3.911,15.374.8c.708-1.057,1.578-1.072,2.288-.019C19.7,3.8,21.7,6.851,23.713,9.889c.161.243.319.488.474.726,5.26-3.93,10.7-4.454,16.208-.8a13.029,13.029,0,0,1,.644,20.914A13.2,13.2,0,0,1,32.982,33.6m-2.486-.2c-5.779-1.831-7.347-3.22-10.061-8.819a.586.586,0,0,0-.344-.313,6.114,6.114,0,0,1-3.035-1.583,2.332,2.332,0,0,0-2.364-.422,5.74,5.74,0,0,0-1.4.929,4.868,4.868,0,0,1-6.2,0,15.074,15.074,0,0,0-1.272-.875c-.382-.232-.67-.154-.855.308-.522,1.3-1.112,2.577-1.6,3.889a12.906,12.906,0,0,0-.9,6.153A14.129,14.129,0,0,0,22.337,43.9,13.95,13.95,0,0,0,30.5,33.409M43.6,20.463A10.715,10.715,0,1,0,32.9,31.189,10.7,10.7,0,0,0,43.6,20.463M19.832,21.787a13.45,13.45,0,0,1,2.431-8.981.954.954,0,0,0-.08-.827c-1.007-1.635-2.041-3.254-3.089-4.863-.816-1.253-1.664-2.485-2.561-3.82A163.2,163.2,0,0,0,6.37,19.8c.775.538,1.451,1.071,2.189,1.5a4.513,4.513,0,0,0,1.617.6,2.69,2.69,0,0,0,2.032-.89,4.851,4.851,0,0,1,6.48-.066c.321.254.658.488,1.143.847" transform="translate(0 0.001)"/>
          <path id="Trazado_502626" data-name="Trazado 502626" d="M44.182,160.873a13.95,13.95,0,0,1-8.159,10.494,14.129,14.129,0,0,1-19.885-11.226,12.908,12.908,0,0,1,.9-6.153c.492-1.313,1.082-2.588,1.6-3.889.185-.462.474-.54.856-.308a15.071,15.071,0,0,1,1.272.874,4.868,4.868,0,0,0,6.2,0,5.731,5.731,0,0,1,1.4-.929,2.332,2.332,0,0,1,2.364.422,6.115,6.115,0,0,0,3.035,1.583.587.587,0,0,1,.344.313c2.713,5.6,4.282,6.988,10.061,8.819M20.9,161.955c-1.049,0-1.561.779-1.208,1.571a10.692,10.692,0,0,0,3.268,4.214,1.073,1.073,0,0,0,1.527-.083,1.087,1.087,0,0,0-.159-1.575,10.547,10.547,0,0,1-2.705-3.461c-.169-.325-.568-.529-.723-.665m-.186-2.162c-.064-.651-.115-1.164-.165-1.677-.007-.074-.005-.148-.016-.221a1.016,1.016,0,0,0-1.075-.987.986.986,0,0,0-1.065,1.064,10.519,10.519,0,0,0,.233,2.043.966.966,0,0,0,1.236.765.982.982,0,0,0,.853-.987" transform="translate(-13.686 -127.464)" fill="#fff"/>
          <path id="Trazado_502627" data-name="Trazado 502627" d="M171.337,76.916a10.715,10.715,0,1,1-10.755-10.668,10.694,10.694,0,0,1,10.755,10.668m-14.623-.108-.032,0c.038-.49.056-.983.118-1.47a2.2,2.2,0,0,1,1.639-2.05,2.384,2.384,0,0,1,2.571,1.032c.454.645.9.8,1.406.481a1.017,1.017,0,0,0,.212-1.548,4.166,4.166,0,0,0-4.186-1.944,3.675,3.675,0,0,0-3.386,3.042,17.572,17.572,0,0,0-.124,4.472,4.233,4.233,0,0,0,7.634,1.487c.4-.639.365-1.158-.112-1.5s-1.043-.2-1.5.413a2.125,2.125,0,0,1-2.451.915,2.307,2.307,0,0,1-1.728-2.068c-.04-.417-.041-.837-.06-1.255m9.794.168q0-1.477,0-2.953c0-.492.032-.988-.018-1.475a.929.929,0,0,0-.957-.933.913.913,0,0,0-.971.908,5.292,5.292,0,0,0-.034.589q0,3.876,0,7.752c0,.847.35,1.293.979,1.308.607.014.991-.468,1-1.282.007-1.3,0-2.609,0-3.913" transform="translate(-127.741 -56.452)" fill="#fff"/>
          <path id="Trazado_502628" data-name="Trazado 502628" d="M56.539,40.785c-.485-.359-.822-.593-1.143-.847a4.851,4.851,0,0,0-6.48.066,2.69,2.69,0,0,1-2.032.89,4.513,4.513,0,0,1-1.617-.6c-.738-.427-1.414-.96-2.189-1.5a163.2,163.2,0,0,1,10.162-16.5c.9,1.335,1.745,2.567,2.561,3.82,1.048,1.609,2.083,3.228,3.089,4.863a.954.954,0,0,1,.08.827,13.45,13.45,0,0,0-2.431,8.981" transform="translate(-36.707 -18.997)" fill="#fff"/>
          <path id="Trazado_502629" data-name="Trazado 502629" d="M41.174,233.247c.154.136.554.341.722.665a10.543,10.543,0,0,0,2.705,3.461,1.087,1.087,0,0,1,.159,1.576,1.073,1.073,0,0,1-1.527.083,10.691,10.691,0,0,1-3.268-4.215c-.353-.792.16-1.573,1.208-1.571" transform="translate(-33.961 -198.756)"/>
          <path id="Trazado_502630" data-name="Trazado 502630" d="M34.14,202a.982.982,0,0,1-.853.987.966.966,0,0,1-1.236-.765,10.518,10.518,0,0,1-.233-2.043.986.986,0,0,1,1.065-1.064,1.016,1.016,0,0,1,1.075.987c.011.073.009.147.016.221.05.513.1,1.027.165,1.677" transform="translate(-27.113 -169.672)"/>
          <path id="Trazado_502631" data-name="Trazado 502631" d="M185.158,105.739c.019.418.02.839.06,1.255a2.308,2.308,0,0,0,1.728,2.068,2.125,2.125,0,0,0,2.451-.916c.457-.612,1.013-.765,1.5-.413s.516.864.113,1.5a4.233,4.233,0,0,1-7.634-1.487,17.566,17.566,0,0,1,.124-4.472,3.675,3.675,0,0,1,3.386-3.043,4.167,4.167,0,0,1,4.186,1.944,1.017,1.017,0,0,1-.212,1.548c-.509.316-.952.164-1.406-.481a2.384,2.384,0,0,0-2.571-1.032,2.2,2.2,0,0,0-1.639,2.05c-.062.487-.08.98-.118,1.47Z" transform="translate(-156.185 -85.383)"/>
          <path id="Trazado_502632" data-name="Trazado 502632" d="M250.744,107.9c0,1.3.005,2.609,0,3.913,0,.814-.389,1.3-1,1.282-.629-.015-.977-.461-.979-1.308q-.011-3.876,0-7.752a5.255,5.255,0,0,1,.034-.589.913.913,0,0,1,.971-.908.928.928,0,0,1,.957.933c.049.487.017.983.018,1.475q0,1.476,0,2.953" transform="translate(-211.977 -87.374)"/>
        </g>
      </g>
    </g>
  </g>
</svg>
