<svg xmlns="http://www.w3.org/2000/svg" xmlns:xlink="http://www.w3.org/1999/xlink" width="142.882" height="165.001" viewBox="0 0 142.882 165.001">
  <defs>
    <clipPath id="clip-path">
      <rect id="Rect치ngulo_361399" data-name="Rect치ngulo 361399" width="142.882" height="165.001" fill="none"/>
    </clipPath>
    <clipPath id="clip-path-2">
      <rect id="Rect치ngulo_361400" data-name="Rect치ngulo 361400" width="64" height="22.659" fill="none"/>
    </clipPath>
  </defs>
  <g id="Grupo_1083753" data-name="Grupo 1083753" transform="translate(-199.61 -1726.896)">
    <g id="Grupo_1083750" data-name="Grupo 1083750" transform="translate(199.61 1726.896)">
      <g id="Grupo_1083750-2" data-name="Grupo 1083750" clip-path="url(#clip-path)">
        <path id="Trazado_502395" data-name="Trazado 502395" d="M31.14,278.692c-2.638-.645-5.347-1.086-7.9-1.969a34.584,34.584,0,0,1,5.18-66.7,35.134,35.134,0,0,1,21.467,2.948,2.442,2.442,0,0,0,1.982-.027,35.342,35.342,0,0,1,14.421-5.137c.866-.1,1.1-.51,1.272-1.316a42.792,42.792,0,0,1,1.68-6.353c2.715-7.024,8.214-10.641,15.376-11.933,2.721-.491,5.513-.593,8.36-.881,0-2.433-.074-4.94.019-7.441.119-3.2,1.063-4.376,4.231-4.459a84.777,84.777,0,0,1,10.077.551,2,2,0,0,0,2-.739c1.985-2.17,4.016-4.312,6.189-6.289,1.584-1.44,3.031-1.437,4.62-.021a56.341,56.341,0,0,1,5.88,5.916,2.772,2.772,0,0,0,2.927,1.026,84.513,84.513,0,0,1,10.238-.318c2.364.085,3.192,1.254,3.419,3.663.059.628.2,1.249.311,1.873v3.866c-.108.627-.239,1.251-.322,1.881-.719,5.468-2.615,10.279-7.455,13.463-.117.077-.178.239-.288.393a15.744,15.744,0,0,1,2.9,12.483c-.552,3.114-.97,6.251-1.453,9.376-.458,2.966-.855,5.945-1.409,8.893a3.023,3.023,0,0,1-3.557,2.5,3.139,3.139,0,0,1-2.7-3.422,15.408,15.408,0,0,1,.174-1.6c.862-5.725,1.718-11.451,2.6-17.173.9-5.825-2.941-10.385-8.853-10.438q-5.07-.046-10.139.009a9.512,9.512,0,0,0-2.536.32c-4.9,1.426-7.188,7.173-5.006,12.609,3.5,0,7.042-.032,10.578.011a3.15,3.15,0,0,1,3.331,3.759c-.25,1.619-1.551,2.644-3.494,2.66-3.207.026-6.414.007-9.782.007l2.11,14.838c2.77,0,5.392-.051,8.012.016a3.17,3.17,0,0,1,3.1,4.086,3.3,3.3,0,0,1-3.455,2.327c-2.225.025-4.451.006-6.754.006.3,2.043.563,3.844.815,5.648.26,1.858.542,3.715.743,5.58.094.874.461,1.2,1.335,1.178,1.393-.043,2.793-.058,4.182.029a3.127,3.127,0,0,1,3.228,3.27c-.036,1.827-1.325,3.045-3.377,3.116-1.331.046-2.664.009-4.225.009.317,2.354.524,4.53.918,6.672a5.733,5.733,0,0,0,5.97,4.781,5.818,5.818,0,0,0,5.5-5.328c.3-2.448.589-4.9.913-7.343.286-2.159,1.774-3.38,3.709-3.093a3.3,3.3,0,0,1,2.668,3.937c-.3,2.5-.586,5.006-.9,7.506a12.271,12.271,0,0,1-9.225,10.423c-.355.091-.7.231-1.045.349h-3.864a2.792,2.792,0,0,0-.555-.278c-5.472-1.361-8.674-4.853-9.6-10.383-.563-3.378-.966-6.783-1.453-10.173a9.837,9.837,0,0,0-.352-1.177c-.39.8-.638,1.324-.9,1.843A35.513,35.513,0,0,1,79.6,277.6c-1.742.47-3.539.73-5.311,1.087H67.529a2.027,2.027,0,0,0-.563-.249,35.978,35.978,0,0,1-13.477-4.287,2.27,2.27,0,0,0-1.715.005c-1.623.67-3.128,1.676-4.79,2.189-2.984.92-6.049,1.575-9.081,2.342Zm35.929-64.445c-.513.041-.942.038-1.357.113a29.136,29.136,0,0,0,8.82,57.581C86.994,270.2,95.2,263,98.913,251.037c3.445-11.111-.593-23.281-9.685-30.678a2.694,2.694,0,0,0-2.878-.564,35.749,35.749,0,0,1-15.588,1.143c-2.108-.258-2.981-1.194-3.286-3.308-.152-1.056-.257-2.118-.408-3.382M46.816,269.335c-7.234-7.023-11.221-15.389-11.473-25.372-.251-9.949,3.3-18.5,10.045-25.793-10.231-4.633-24.535-2.306-33.072,8.7a28.1,28.1,0,0,0,34.5,42.466m52.611-88.057c0,2-.127,3.391.025,4.753.417,3.744,1.628,7.1,5.007,9.273a3,3,0,0,0,2.85.4,15.294,15.294,0,0,1,4.4-.788c3.8-.108,7.614-.12,11.416,0,1.582.048,3.145.568,4.73.775a4.683,4.683,0,0,0,2.274-.1c4.493-1.852,7.362-8.549,5.965-13.82a19.4,19.4,0,0,0-8.505,1.113c-2.53.963-3.618.473-5.09-1.753-1.336-2.021-2.919-3.88-4.7-6.207-1.775,2.328-3.332,4.152-4.64,6.142-1.521,2.314-2.519,2.59-5.228,1.84s-5.506-1.067-8.506-1.619M94.1,194.133a27.271,27.271,0,0,0-10.6.931,11.876,11.876,0,0,0-7.036,5.015c-2.778,4.486-3.067,9.448-2.82,14.514,14.764,1.363,22.1-5.582,20.453-20.46m4.834,26.439c-.192-1.463-.374-2.947-.585-4.427-.215-1.5-.457-3.005-.716-4.7l-3.642,4.434,4.944,4.689" transform="translate(0 -113.691)"/>
        <path id="Trazado_502396" data-name="Trazado 502396" d="M247.172,26.865a10.809,10.809,0,0,1-9.822-15.435,37.71,37.71,0,0,1,7.609-10.286,3.011,3.011,0,0,1,4.58-.013,38.1,38.1,0,0,1,7.6,10.294,10.807,10.807,0,0,1-9.968,15.441m.074-18.985c-1.544,2.354-2.9,4.212-4.026,6.2a3.993,3.993,0,0,0,1.15,5.3,4.524,4.524,0,0,0,5.778-.005,4.052,4.052,0,0,0,1.125-5.326c-1.134-1.985-2.493-3.842-4.028-6.171" transform="translate(-160.033 -0.055)"/>
        <path id="Trazado_502397" data-name="Trazado 502397" d="M149.131,26.81c-8.088,0-13.554-8.308-9.8-15.452,1.938-3.688,4.81-6.913,7.448-10.2a2.96,2.96,0,0,1,4.676-.039,37.972,37.972,0,0,1,7.583,10.307,10.807,10.807,0,0,1-9.907,15.379m-.009-19.084c-1.626,2.571-3.075,4.608-4.245,6.794a3.965,3.965,0,0,0,1.541,4.944,4.494,4.494,0,0,0,5.519-.089,3.922,3.922,0,0,0,1.42-4.838c-1.177-2.188-2.615-4.236-4.236-6.812" transform="translate(-93.543 0)"/>
        <path id="Trazado_502398" data-name="Trazado 502398" d="M111.122,100.091c-.328,4.789-2.259,8.146-6.2,10.092a10.417,10.417,0,0,1-11.632-1.141A10.077,10.077,0,0,1,89.174,98.72c.61-3.3,2.587-5.965,4.6-8.544a57.3,57.3,0,0,1,3.9-4.477,3.006,3.006,0,0,1,4.458-.184c3.368,3.4,6.428,7.055,8.224,11.572a20.181,20.181,0,0,1,.757,3m-11.117-7.8c-1.621,2.564-3.07,4.611-4.248,6.8-.882,1.641-.088,3.731,1.536,4.931a4.565,4.565,0,0,0,5.516-.059c1.532-1.163,2.308-3.237,1.461-4.809-1.2-2.228-2.662-4.315-4.264-6.866" transform="translate(-60.257 -57.303)"/>
        <path id="Trazado_502399" data-name="Trazado 502399" d="M209.431,100.466a11.356,11.356,0,0,1-11.247,10.9c-6.018-.035-11.115-4.975-10.9-10.936a11.918,11.918,0,0,1,1.751-5.725,90.678,90.678,0,0,1,6.775-8.928,3,3,0,0,1,4.565-.284c3.328,3.362,6.354,6.978,8.155,11.429a26.3,26.3,0,0,1,.906,3.544m-11.205-8.111c-1.552,2.368-2.911,4.232-4.041,6.225a4.02,4.02,0,0,0,1.178,5.308,4.565,4.565,0,0,0,5.66.056,4.039,4.039,0,0,0,1.282-5.286c-1.146-2.033-2.529-3.932-4.079-6.3" transform="translate(-126.831 -57.276)"/>
        <path id="Trazado_502400" data-name="Trazado 502400" d="M284.07,100.379c.584-1.7.854-3.608,1.814-5.059a119.664,119.664,0,0,1,7.19-9.614,2.994,2.994,0,0,1,4.682-.053,38.02,38.02,0,0,1,7.585,10.3,10.377,10.377,0,0,1-1.975,12.009,11.018,11.018,0,0,1-11.983,2.584,11.82,11.82,0,0,1-7.312-10.169m11.357-8.021c-1.511,2.3-2.863,4.149-3.99,6.127a3.988,3.988,0,0,0,1.153,5.4,4.548,4.548,0,0,0,5.64.042,4.081,4.081,0,0,0,1.215-5.409c-1.132-1.983-2.488-3.838-4.018-6.162" transform="translate(-192.387 -57.264)"/>
        <path id="Trazado_502401" data-name="Trazado 502401" d="M154.726,311.564c.151,1.264.256,2.326.408,3.382.305,2.114,1.178,3.051,3.286,3.308a35.743,35.743,0,0,0,15.588-1.143,2.694,2.694,0,0,1,2.878.565c9.092,7.4,13.13,19.567,9.685,30.677-3.711,11.967-11.92,19.167-24.382,20.905a29.136,29.136,0,0,1-8.82-57.582c.415-.075.844-.072,1.357-.113" transform="translate(-87.657 -211.007)" fill="#ffa686"/>
        <path id="Trazado_502402" data-name="Trazado 502402" d="M60.306,370.156a28.1,28.1,0,0,1-34.5-42.466c8.537-11,22.84-13.332,33.072-8.7-6.745,7.295-10.3,15.844-10.045,25.793.252,9.983,4.239,18.349,11.473,25.372" transform="translate(-13.49 -214.511)" fill="#adce32"/>
        <path id="Trazado_502403" data-name="Trazado 502403" d="M307.961,196.06c3,.552,5.811.873,8.505,1.619s3.707.474,5.228-1.84c1.307-1.989,2.864-3.814,4.64-6.142,1.777,2.327,3.359,4.186,4.7,6.208,1.472,2.227,2.559,2.717,5.09,1.753a19.4,19.4,0,0,1,8.505-1.113c1.4,5.271-1.473,11.967-5.965,13.82a4.684,4.684,0,0,1-2.274.1c-1.584-.207-3.147-.727-4.729-.775-3.8-.116-7.613-.1-11.417,0a15.294,15.294,0,0,0-4.4.788,3,3,0,0,1-2.849-.4c-3.379-2.172-4.591-5.529-5.007-9.273-.152-1.362-.025-2.755-.025-4.753" transform="translate(-208.534 -128.473)" fill="#0b481e"/>
        <path id="Trazado_502404" data-name="Trazado 502404" d="M248.479,248.929c1.649,14.878-5.689,21.823-20.453,20.46-.248-5.066.041-10.028,2.82-14.514a11.876,11.876,0,0,1,7.036-5.015,27.265,27.265,0,0,1,10.6-.931" transform="translate(-154.383 -168.486)" fill="#adce32"/>
        <path id="Trazado_502405" data-name="Trazado 502405" d="M395.237,404.1a3.186,3.186,0,0,1-3.281-3.07,3.3,3.3,0,0,1,3.231-3.329,3.243,3.243,0,0,1,3.171,3.2,3.125,3.125,0,0,1-3.121,3.2" transform="translate(-265.452 -269.344)"/>
        <path id="Trazado_502406" data-name="Trazado 502406" d="M260.59,24.244c1.535,2.33,2.894,4.186,4.028,6.171a4.052,4.052,0,0,1-1.125,5.326,4.524,4.524,0,0,1-5.778.005,3.993,3.993,0,0,1-1.15-5.3c1.127-1.987,2.482-3.845,4.026-6.2" transform="translate(-173.377 -16.419)" fill="#e8e8e8"/>
        <path id="Trazado_502407" data-name="Trazado 502407" d="M162.511,23.94c1.621,2.576,3.058,4.624,4.236,6.812a3.922,3.922,0,0,1-1.42,4.838,4.494,4.494,0,0,1-5.519.089,3.965,3.965,0,0,1-1.541-4.944c1.171-2.186,2.619-4.224,4.245-6.794" transform="translate(-106.932 -16.213)" fill="#e8e8e8"/>
        <path id="Trazado_502408" data-name="Trazado 502408" d="M113.475,108.414c1.6,2.551,3.064,4.638,4.264,6.866.847,1.572.071,3.646-1.461,4.809a4.565,4.565,0,0,1-5.516.059c-1.624-1.2-2.417-3.289-1.536-4.931,1.178-2.192,2.628-4.239,4.248-6.8" transform="translate(-73.727 -73.424)" fill="#e8e8e8"/>
        <path id="Trazado_502409" data-name="Trazado 502409" d="M211.575,108.689c1.55,2.371,2.933,4.27,4.079,6.3a4.039,4.039,0,0,1-1.282,5.286,4.565,4.565,0,0,1-5.66-.056,4.02,4.02,0,0,1-1.178-5.308c1.13-1.993,2.488-3.857,4.041-6.225" transform="translate(-140.181 -73.61)" fill="#e8e8e8"/>
        <path id="Trazado_502410" data-name="Trazado 502410" d="M309.628,108.736c1.53,2.324,2.886,4.179,4.018,6.162a4.081,4.081,0,0,1-1.215,5.409,4.548,4.548,0,0,1-5.64-.042,3.988,3.988,0,0,1-1.153-5.4c1.127-1.978,2.479-3.828,3.99-6.127" transform="translate(-206.588 -73.642)" fill="#e8e8e8"/>
      </g>
    </g>
    <g id="Grupo_1083752" data-name="Grupo 1083752" transform="translate(206 1791.736)">
      <g id="Grupo_1083751" data-name="Grupo 1083751" transform="translate(0 0)" clip-path="url(#clip-path-2)">
        <path id="Trazado_502411" data-name="Trazado 502411" d="M115.023,18.362a9.041,9.041,0,0,1-9.289-9.136A9.08,9.08,0,0,1,114.81.072a9.182,9.182,0,0,1,9.433,9.273,9.055,9.055,0,0,1-9.219,9.017m6.243-9.057a6.281,6.281,0,1,0-12.558-.14,6.281,6.281,0,1,0,12.558.14" transform="translate(-60.243 -0.041)" fill="#050505"/>
        <path id="Trazado_502412" data-name="Trazado 502412" d="M9.533,18.323c-4.376-.01-7.882-2.4-9.079-6.177A9.281,9.281,0,0,1,4.074,1.553a10.281,10.281,0,0,1,11.644.532,2.567,2.567,0,0,1,.474.434c.743,1.036,2.391,2.076.988,3.412-1.3,1.235-2.057-.414-2.868-1.21a6.675,6.675,0,0,0-9.295-.225,6.428,6.428,0,0,0-.6,8.9,6.878,6.878,0,0,0,9.477.706,6.288,6.288,0,0,0,.773-.744c.7-.816,1.435-1.954,2.6-.986,1.248,1.033.233,2.078-.466,2.948a9.011,9.011,0,0,1-7.271,3.007" transform="translate(0 0)" fill="#070707"/>
        <path id="Trazado_502413" data-name="Trazado 502413" d="M59.716,9.252c0,2.219-.018,4.438.009,6.657.013,1.118-.225,2.128-1.533,2.106s-1.5-1.09-1.491-2.171c.008-1.431-.081-2.869.028-4.293.091-1.2-.4-1.47-1.463-1.376-1.764.156-4.033-.729-5.165.341-1.036.979-.213,3.248-.306,4.945-.016.286.008.574-.012.858-.068.96-.462,1.718-1.525,1.7s-1.441-.768-1.441-1.749q0-7.193,0-14.387c0-1.006.461-1.684,1.513-1.676a1.436,1.436,0,0,1,1.432,1.567,25.4,25.4,0,0,0,.08,4.283c.709,3.191,3.262.709,4.87,1.341.865.34,2.217.444,2.02-1.408a30.179,30.179,0,0,1-.014-4.077C56.747.961,57.171.2,58.233.213S59.7.977,59.711,1.951c.014,2.434,0,4.867.006,7.3" transform="translate(-26.674 -0.121)" fill="#040404"/>
        <path id="Trazado_502414" data-name="Trazado 502414" d="M87.022,35.461c1.447,0,2.629.015,3.81-.006.682-.012,1.172.285,1.179.949.007.726-.582.876-1.212.874-1.717-.008-3.434.008-5.15-.008-.548,0-1.2.167-1.5-.506s.231-1.042.609-1.459c1.248-1.377,2.477-2.769,3.74-4.132a2.328,2.328,0,0,0,.676-2.717,1.76,1.76,0,0,0-1.961-1,2.079,2.079,0,0,0-1.81,2.083c-.049.8-.234,1.522-1.209,1.3-.87-.2-.637-1.029-.559-1.622a3.631,3.631,0,0,1,2.8-3.381,3.58,3.58,0,0,1,3.9,5.659c-.949,1.3-2.063,2.485-3.307,3.962" transform="translate(-47.598 -14.628)" fill="#0e0e0e"/>
      </g>
    </g>
  </g>
</svg>
