<svg xmlns="http://www.w3.org/2000/svg" xmlns:xlink="http://www.w3.org/1999/xlink" width="124" height="124" viewBox="0 0 124 124">
  <defs>
    <filter id="Elipse_5230" x="0" y="0" width="124" height="124" filterUnits="userSpaceOnUse">
      <feOffset dy="3" input="SourceAlpha"/>
      <feGaussianBlur stdDeviation="3" result="blur"/>
      <feFlood flood-opacity="0.161"/>
      <feComposite operator="in" in2="blur"/>
      <feComposite in="SourceGraphic"/>
    </filter>
    <clipPath id="clip-path">
      <rect id="Rectángulo_361555" data-name="Rectángulo 361555" width="62.284" height="69.386" fill="none"/>
    </clipPath>
  </defs>
  <g id="Grupo_1084178" data-name="Grupo 1084178" transform="translate(-1305 -948)">
    <g id="Grupo_1083926" data-name="Grupo 1083926" transform="translate(1314 954)">
      <g transform="matrix(1, 0, 0, 1, -9, -6)" filter="url(#Elipse_5230)">
        <circle id="Elipse_5230-2" data-name="Elipse 5230" cx="53" cy="53" r="53" transform="translate(9 6)" fill="#adce32"/>
      </g>
      <circle id="Elipse_5248" data-name="Elipse 5248" cx="45.5" cy="45.5" r="45.5" transform="translate(8 8)" fill="#fff"/>
    </g>
    <g id="Grupo_1083928" data-name="Grupo 1083928" transform="translate(1335 972.308)">
      <g id="Grupo_1083921" data-name="Grupo 1083921" clip-path="url(#clip-path)">
        <path id="Trazado_716644" data-name="Trazado 716644" d="M202.3,69.387a34.265,34.265,0,0,1-3.821-1.052,14.181,14.181,0,0,1-5.3-22.62,1.638,1.638,0,0,0,.462-1.194c-.012-11.354.047-22.709-.036-34.062a10.17,10.17,0,0,1,20.184-2.022,13.481,13.481,0,0,1,.142,1.952q.013,17.065,0,34.13a1.7,1.7,0,0,0,.459,1.2c3.561,4.213,4.625,8.994,2.77,14.2-1.842,5.173-5.655,8.216-11.032,9.3l-.85.172Zm-4.606-41.307c0,5.913-.008,11.826.01,17.738a2.568,2.568,0,0,1-.84,1.975,9.953,9.953,0,0,0-3.12,8.691,10.143,10.143,0,0,0,11.851,8.661,10.134,10.134,0,0,0,5.181-17.29,2.825,2.825,0,0,1-.9-2.153q.027-17.468.007-34.935a10.906,10.906,0,0,0-.129-1.682A6.082,6.082,0,0,0,197.7,10.408c-.012,5.89,0,11.781,0,17.671" transform="translate(-163.843 -0.001)" fill="#1a1818"/>
        <path id="Trazado_716645" data-name="Trazado 716645" d="M0,66.967A17.3,17.3,0,0,1,1.16,65.5C2.689,63.936,4.246,62.4,5.8,60.852a2.083,2.083,0,0,1,3.306,0q2.519,2.507,5.026,5.027a2.058,2.058,0,1,1-2.881,2.9c-.545-.539-1.079-1.089-1.771-1.788v.843q0,9.275,0,18.551a2.033,2.033,0,1,1-4.059-.068q.013-9.208,0-18.415v-.933c-.6.622-1.063,1.1-1.533,1.574C2.366,70.065,1.053,69.9,0,68.05V66.967" transform="translate(0 -51.891)" fill="#1a1818"/>
        <path id="Trazado_716646" data-name="Trazado 716646" d="M65.254,201.458v-.939q0-9.242,0-18.484a2.027,2.027,0,0,1,3.987-.61,3.452,3.452,0,0,1,.066.871q.005,9.107,0,18.213v.93c.679-.692,1.217-1.252,1.768-1.8a2.057,2.057,0,1,1,2.887,2.895q-2.529,2.545-5.074,5.074a2.064,2.064,0,0,1-3.21.007q-2.569-2.553-5.121-5.123a2.049,2.049,0,1,1,2.867-2.908c.572.562,1.12,1.147,1.826,1.874" transform="translate(-51.711 -155.496)" fill="#1a1818"/>
        <path id="Trazado_716647" data-name="Trazado 716647" d="M403.282,60.188c.675,0,1.351-.015,2.025,0a2.025,2.025,0,0,1,0,4.048q-2.092.032-4.186,0a2.025,2.025,0,0,1,0-4.047c.72-.018,1.44,0,2.16,0" transform="translate(-344.989 -52.016)" fill="#1a1818"/>
        <path id="Trazado_716648" data-name="Trazado 716648" d="M403.249,179.958c.675,0,1.351-.012,2.025,0a2.025,2.025,0,0,1,0,4.05q-2.059.026-4.118,0a2.025,2.025,0,0,1,0-4.05c.7-.014,1.4,0,2.093,0" transform="translate(-344.989 -155.534)" fill="#1a1818"/>
        <path id="Trazado_716649" data-name="Trazado 716649" d="M403.152,303.744c-.675,0-1.351.014-2.025,0a2.025,2.025,0,0,1-.013-4.048q2.093-.032,4.186,0a2.025,2.025,0,0,1,.013,4.047c-.72.02-1.44,0-2.16,0" transform="translate(-344.989 -259.011)" fill="#1a1818"/>
        <path id="Trazado_716650" data-name="Trazado 716650" d="M402.227,120.077c.337,0,.675-.008,1.012,0a2.026,2.026,0,0,1,.01,4.053c-.719.016-1.44.021-2.159,0a2.026,2.026,0,0,1-.01-4.048c.382-.016.765,0,1.147,0" transform="translate(-344.989 -103.778)" fill="#1a1818"/>
        <path id="Trazado_716651" data-name="Trazado 716651" d="M402.17,243.862c-.337,0-.675.008-1.012,0a2.027,2.027,0,0,1-.011-4.053c.719-.015,1.44-.02,2.159,0a2.026,2.026,0,0,1,.011,4.048c-.382.016-.765,0-1.147,0" transform="translate(-344.989 -207.255)" fill="#1a1818"/>
        <path id="Trazado_716652" data-name="Trazado 716652" d="M223.77,54.313c0-5.89-.009-11.781,0-17.671a6.082,6.082,0,0,1,12.054-1.325A10.906,10.906,0,0,1,235.956,37q.011,17.468-.006,34.935a2.824,2.824,0,0,0,.9,2.153,10.134,10.134,0,0,1-5.181,17.29,10.143,10.143,0,0,1-11.851-8.661,9.953,9.953,0,0,1,3.12-8.691,2.568,2.568,0,0,0,.84-1.975c-.018-5.913-.01-11.826-.01-17.738m4.067,9.616c0,3.7-.008,7.4.011,11.105a.779.779,0,0,1-.546.845,6.085,6.085,0,0,0-3.5,6.3,6.109,6.109,0,0,0,11.972.755,6.057,6.057,0,0,0-3.262-7.01.92.92,0,0,1-.63-1q.026-11,.011-22.008a2.038,2.038,0,1,0-4.056-.026q0,5.519,0,11.038" transform="translate(-189.921 -26.235)" fill="#ffa686"/>
        <path id="Trazado_716653" data-name="Trazado 716653" d="M253.372,193.257q0-5.519,0-11.038a2.038,2.038,0,1,1,4.056.026q0,11-.011,22.008a.92.92,0,0,0,.63,1,6.058,6.058,0,0,1,3.262,7.01,6.1,6.1,0,1,1-8.473-7.054.779.779,0,0,0,.546-.845c-.019-3.7-.011-7.4-.011-11.105m2.023,19.5a2.03,2.03,0,1,0-2.024-2.035,2.1,2.1,0,0,0,2.024,2.035" transform="translate(-215.455 -155.563)" fill="#1a1818"/>
        <path id="Trazado_716654" data-name="Trazado 716654" d="M281.429,395.622a2.03,2.03,0,1,1,2.034-2.025,2.1,2.1,0,0,1-2.034,2.025" transform="translate(-241.49 -338.427)" fill="#ffd947"/>
      </g>
    </g>
  </g>
</svg>
