<svg xmlns="http://www.w3.org/2000/svg" xmlns:xlink="http://www.w3.org/1999/xlink" width="124" height="124" viewBox="0 0 124 124">
  <defs>
    <filter id="Elipse_5230" x="0" y="0" width="124" height="124" filterUnits="userSpaceOnUse">
      <feOffset dy="3" input="SourceAlpha"/>
      <feGaussianBlur stdDeviation="3" result="blur"/>
      <feFlood flood-opacity="0.161"/>
      <feComposite operator="in" in2="blur"/>
      <feComposite in="SourceGraphic"/>
    </filter>
    <clipPath id="clip-path">
      <rect id="Rectángulo_361556" data-name="Rectángulo 361556" width="58.984" height="67.607" fill="none"/>
    </clipPath>
  </defs>
  <g id="Grupo_1084177" data-name="Grupo 1084177" transform="translate(-171 -1168)">
    <g id="Grupo_1083925" data-name="Grupo 1083925" transform="translate(180 1173.97)">
      <g transform="matrix(1, 0, 0, 1, -9, -5.97)" filter="url(#Elipse_5230)">
        <circle id="Elipse_5230-2" data-name="Elipse 5230" cx="53" cy="53" r="53" transform="translate(9 6)" fill="#ffa686"/>
      </g>
      <circle id="Elipse_5248" data-name="Elipse 5248" cx="45.5" cy="45.5" r="45.5" transform="translate(8 8.03)" fill="#fff"/>
    </g>
    <g id="Grupo_1083930" data-name="Grupo 1083930" transform="translate(206.016 1193.196)">
      <g id="Grupo_1083929" data-name="Grupo 1083929" clip-path="url(#clip-path)">
        <path id="Trazado_716655" data-name="Trazado 716655" d="M7.89,28.843c-.682-.481-.572-1.061-.3-1.737a26.093,26.093,0,0,1,3.073-5.635c.483-.659.579-1.116-.127-1.629a5.634,5.634,0,0,1-.844-.831,2.131,2.131,0,0,1,.01-3.261c.841-.9,1.722-1.757,2.6-2.615,1.285-1.253,2.319-1.237,3.632.032,1.385,1.339,1.379,1.329,2.985.292a27.654,27.654,0,0,1,10.8-4.2c1.506-.235.714-1.336.852-2.056.175-.913-.589-.648-1.048-.659-1.1-.027-2.2.023-3.293-.017a2.23,2.23,0,0,1-2.412-2.379C23.748,2.622,23.637,1.074,25.069,0H44.6c1.433,1.074,1.323,2.622,1.248,4.144a2.23,2.23,0,0,1-2.415,2.378c-1.1.04-2.2-.009-3.293.017-.46.011-1.221-.248-1.045.663.139.721-.654,1.825.856,2.053a25.378,25.378,0,0,1,10.66,4.163c1.308.9,2.038.922,3.078-.292,1.121-1.307,2.265-1.228,3.522-.032Q58.5,14.32,59.73,15.612c1.148,1.209,1.117,2.331-.06,3.564a4.522,4.522,0,0,1-.658.643c-.668.459-.545.884-.12,1.478a28.985,28.985,0,0,1,4.8,11.122c.279,1.342.158,2.749.709,4.037v3.7c-.35,1.763-.687,3.53-1.058,5.289-.125.595-.372,1.163-.5,1.758a1.238,1.238,0,0,1-1.6,1.1,1.651,1.651,0,0,1-.315-1.8A27.973,27.973,0,0,0,61.807,33.5C59.169,17.161,41.7,6.759,26.026,12.276A27.029,27.029,0,0,0,9.643,27.5c-.343.781-.616,1.616-1.753,1.338M34.7,4.486c2.727,0,5.457-.061,8.181.029,1.131.037.921-.613.922-1.248s.2-1.268-.921-1.256q-8.049.091-16.1,0c-1.121-.013-.921.619-.92,1.256s-.211,1.287.921,1.248c2.636-.092,5.278-.029,7.917-.029M15.824,15.664a16.355,16.355,0,0,0-1.57-1.261c-.4-.253-.572.258-.795.465-.705.659-1.375,1.356-2.056,2.041-.216.217-.42.388-.191.776.7,1.183,1.333,1.281,2.283.307.551-.565,1.129-1.1,1.693-1.658.15-.147.29-.3.636-.67m39.449-1.341a8.365,8.365,0,0,0-1.192,1.269c-.274.432.305.606.537.855.626.674,1.285,1.319,1.941,1.965.2.2.344.481.757.259,1.1-.592,1.249-1.368.371-2.248-.558-.559-1.11-1.123-1.678-1.671-.18-.173-.306-.443-.735-.429M34.833,8.769a5.255,5.255,0,0,1,1.047.011c1.1.227,1.2-.352,1.193-1.24,0-.8-.247-1.094-1.053-1.038-.87.06-1.749.034-2.622.008-.556-.017-.744.2-.787.759-.081,1.084.089,1.816,1.437,1.5a3.37,3.37,0,0,1,.785,0" transform="translate(-5.421)" fill="#13110f"/>
        <path id="Trazado_716656" data-name="Trazado 716656" d="M7.155,58.695c1.137.277,1.41-.558,1.753-1.338A27.029,27.029,0,0,1,25.291,42.128c15.67-5.517,33.143,4.885,35.781,21.22a27.973,27.973,0,0,1-.878,13.013,1.651,1.651,0,0,0,.315,1.8c-.023,1.131-.905,1.944-1.112,3.007-.981-.29-1.4.326-1.85,1.049A27.335,27.335,0,0,1,28.229,94.838C14.354,92,4.592,77.751,7.053,63.89a1.6,1.6,0,0,0-.674-1.806l.776-3.39M34.062,43.479A24.611,24.611,0,1,0,58.655,67.734,24.545,24.545,0,0,0,34.062,43.479" transform="translate(-4.686 -29.851)" fill="#ffede7"/>
        <path id="Trazado_716657" data-name="Trazado 716657" d="M1.693,121.449a1.6,1.6,0,0,1,.674,1.806c-2.461,13.861,7.3,28.105,21.176,30.948a27.335,27.335,0,0,0,29.319-12.626c.449-.723.868-1.34,1.85-1.049a1.407,1.407,0,0,1,.03,1.909c-5.044,8.07-12.2,12.979-21.681,14.153A29.215,29.215,0,0,1,1.315,136.173a29.566,29.566,0,0,1-.955-13.408c.125-.849.511-1.26,1.333-1.316" transform="translate(0 -89.216)" fill="#101010"/>
        <path id="Trazado_716658" data-name="Trazado 716658" d="M85.83,10.055c-2.639,0-5.281-.062-7.917.029-1.132.04-.92-.613-.921-1.248s-.2-1.268.92-1.256q8.049.091,16.1,0c1.12-.012.922.618.921,1.256s.21,1.285-.922,1.248c-2.724-.09-5.453-.029-8.181-.029" transform="translate(-56.547 -5.568)" fill="#ffd947"/>
        <path id="Trazado_716659" data-name="Trazado 716659" d="M26.157,55.337c-.346.365-.486.523-.636.67-.563.554-1.141,1.093-1.693,1.658-.95.974-1.584.876-2.283-.307-.229-.388-.025-.559.191-.776.681-.685,2.056-2.041,2.056-2.041s.391-.718.795-.465a16.429,16.429,0,0,1,1.57,1.261" transform="translate(-15.753 -39.673)" fill="#ffd947"/>
        <path id="Trazado_716660" data-name="Trazado 716660" d="M184.336,53.964c.429-.015.555.255.735.428.568.548,1.121,1.113,1.678,1.672.878.88.73,1.656-.371,2.248-.413.222-.556-.061-.757-.259-.656-.646-1.315-1.291-1.941-1.965-.231-.249-.811-.423-.537-.855a8.367,8.367,0,0,1,1.192-1.269" transform="translate(-134.483 -39.641)" fill="#ffd947"/>
        <path id="Trazado_716661" data-name="Trazado 716661" d="M104.622,26.743a3.474,3.474,0,0,0-.785.006c-1.348.312-1.518-.42-1.437-1.5.042-.562.231-.775.787-.759.874.026,1.752.052,2.622-.008.806-.056,1.049.236,1.053,1.038,0,.888-.1,1.467-1.193,1.239a5.4,5.4,0,0,0-1.047-.012" transform="translate(-75.21 -17.976)" fill="#ffa686"/>
        <path id="Trazado_716662" data-name="Trazado 716662" d="M42.825,51.347a24.611,24.611,0,1,1-24.517,24.86,24.568,24.568,0,0,1,24.517-24.86m6.391,3.021a.554.554,0,0,0-.559-.218,20.869,20.869,0,0,0-9.39-.534,22.568,22.568,0,1,0,9.645,44.022c12-2.879,19.418-16.483,15.434-28.54a21.751,21.751,0,0,0-14.9-14.7.258.258,0,0,0-.227-.033" transform="translate(-13.449 -37.719)" fill="#0d0f0c"/>
        <path id="Trazado_716663" data-name="Trazado 716663" d="M54.385,103.089A22.568,22.568,0,1,1,44.74,59.068a20.868,20.868,0,0,1,9.391.534.568.568,0,0,0,.558.217.258.258,0,0,1,.228.033c.141.593.683.775,1.12,1.019A23.553,23.553,0,0,1,67.879,79.153L66.1,80.8c-.125-.737-.239-1.289-.31-1.847A17.414,17.414,0,1,0,57.24,96.527c.752-.438,1.142-.924.862-1.8a15.528,15.528,0,0,0,6.61-10.315c1.437-.079,1.846-1.553,2.905-2.145.582,1.1.2,2.208-.01,3.3a23.21,23.21,0,0,1-10.662,15.815c-.858.55-2.014.682-2.561,1.7" transform="translate(-18.922 -43.17)" fill="#adce32"/>
        <path id="Trazado_716664" data-name="Trazado 716664" d="M133.616,106.091c.547-1.019,1.7-1.152,2.561-1.7a23.21,23.21,0,0,0,10.662-15.815c.21-1.1.591-2.2.01-3.3.347-.377.675-.774,1.046-1.125.4-.381.7-.8.484-1.358a1.054,1.054,0,0,0-1.269-.634,23.554,23.554,0,0,0-11.842-18.282c-.437-.244-.979-.426-1.12-1.019a21.751,21.751,0,0,1,14.9,14.7c3.984,12.056-3.434,25.661-15.434,28.54" transform="translate(-98.153 -46.172)" fill="#adce32"/>
        <path id="Trazado_716665" data-name="Trazado 716665" d="M133.216,62.092a.568.568,0,0,1-.559-.217.554.554,0,0,1,.559.217" transform="translate(-97.449 -45.443)" fill="#7eb74b"/>
        <path id="Trazado_716666" data-name="Trazado 716666" d="M82.775,93.3a1.054,1.054,0,0,1,1.269.634c.218.555-.082.977-.484,1.358-.371.351-.7.748-1.046,1.125-1.059.592-1.468,2.066-2.905,2.145l-3.7-3.48a1.275,1.275,0,0,1,0-1.567c1.472-.789,1.819.964,2.814,1.284.2-6.1-4.954-12.817-11.534-14.185a9.488,9.488,0,0,0-3.231-.52c-5.939-.006-10.637,2.412-13.709,7.533a14.644,14.644,0,0,0-.139,15.612c3.5,6.167,11.2,9.257,17.345,7.138a10.738,10.738,0,0,0,3.733-1.5,1.445,1.445,0,0,1,1.812,0c.28.873-.11,1.359-.862,1.8a17.486,17.486,0,1,1,8.548-17.576c.072.558.185,1.11.31,1.847l1.78-1.645" transform="translate(-33.819 -57.313)" fill="#0d100d"/>
        <path id="Trazado_716670" data-name="Trazado 716670" d="M98.464,109.294c.917,3.782-.567,6.661-3.379,9.054-.365.311-.648.716-.984,1.062a.933.933,0,0,1-1.4.137.979.979,0,0,1-.051-1.511c.979-1.128,1.947-2.271,3-3.323a2.617,2.617,0,0,0,.8-2.091c-.045-2.55-.01-5.1-.02-7.65,0-.744.021-1.5.994-1.526,1-.024,1.031.767,1.036,1.5.01,1.451,0,2.9,0,4.353" transform="translate(-67.815 -75.99)" fill="#141515"/>
      </g>
    </g>
  </g>
</svg>
