<svg xmlns="http://www.w3.org/2000/svg" xmlns:xlink="http://www.w3.org/1999/xlink" width="130" height="130" viewBox="0 0 130 130">
  <defs>
    <clipPath id="clip-path">
      <rect id="Rect치ngulo_361558" data-name="Rect치ngulo 361558" width="90.117" height="89.929" fill="none"/>
    </clipPath>
  </defs>
  <g id="Grupo_86326" data-name="Grupo 86326" transform="translate(-473 -7506)">
    <circle id="Elipse_4923" data-name="Elipse 4923" cx="53" cy="53" r="53" transform="translate(485 7521)" fill="#ffe9e1"/>
    <g id="Grupo_86320" data-name="Grupo 86320" transform="translate(153 -27)">
      <rect id="Rect치ngulo_34475" data-name="Rect치ngulo 34475" width="130" height="130" transform="translate(320 7533)" fill="none"/>
      <g id="Grupo_1083934" data-name="Grupo 1083934" transform="translate(342 7543.787)">
        <g id="Grupo_1083933" data-name="Grupo 1083933" transform="translate(0 0)" clip-path="url(#clip-path)">
          <path id="Trazado_716685" data-name="Trazado 716685" d="M42.352,29.868c-.844-3.368-2.519-6.216-5.6-6.342-3.774-.155-3.47-2.124-3.311-4.57a23.437,23.437,0,0,0-.011-3.258c-.175-2.37-1.515-4.02-3.842-4.008C22.02,11.727,18.159,9.7,18.938,20.5c.034.481-.017.966,0,1.448.039.875-.345,1.1-1.227,1.3-6.264,1.429-7.491,2.783-7.408,8.906.031,2.335-.691,2.934-2.838,2.685-2.074-.242-4.11.979-4.124,2.728A25.983,25.983,0,0,1,.156,49.762a5.085,5.085,0,0,0-.076,2.151q0,14.852,0,29.7c.011,5.7,2.661,8.3,8.468,8.305q35.158.016,70.317,0c7.166,0,11.165-4.015,11.173-11.192.017-14.489-.064-28.978.074-43.467.021-2.322-.646-3.263-2.807-4.006C80.237,28.825,75.988,23.8,74.552,16.433c-.135-.7-.688-1.625-.049-2.048,3.44-2.277,2.412-5.746,2.458-8.879.06-4.074-1.342-5.458-5.329-5.484Q64.021-.027,56.41.02c-4.245.02-5.341,1.338-5.6,5.649-.2,3.28,1.345,6.384,1.154,9.428-.4,6.355-3.818,11.26-9.612,14.771" transform="translate(0 0)" fill="#fdfdfd"/>
          <path id="Trazado_716686" data-name="Trazado 716686" d="M42.352,29.868c5.794-3.511,9.213-8.416,9.612-14.772.192-3.044-1.348-6.148-1.153-9.427.258-4.311,1.353-5.63,5.6-5.649q7.611-.037,15.224,0c3.987.026,5.387,1.409,5.328,5.484-.047,3.133.981,6.6-2.458,8.879-.639.423-.086,1.352.049,2.047C75.989,23.8,80.237,28.825,87.31,31.256c2.163.743,2.83,1.684,2.807,4.006-.137,14.487-.057,28.978-.074,43.467-.009,7.176-4.008,11.187-11.172,11.192q-35.16.021-70.318,0c-5.808,0-8.456-2.6-8.468-8.305q-.027-14.851,0-29.7a5.09,5.09,0,0,1,.077-2.152A25.991,25.991,0,0,0,3.345,37.573c.014-1.747,2.05-2.968,4.124-2.728,2.149.25,2.87-.349,2.838-2.684-.083-6.124,1.144-7.476,7.408-8.906.882-.2,1.266-.43,1.228-1.3-.021-.482.029-.968-.005-1.448-.779-10.8,3.082-8.777,10.654-8.813,2.327-.012,3.667,1.638,3.842,4.008a23.437,23.437,0,0,1,.011,3.258c-.16,2.446-.462,4.414,3.311,4.57,3.079.126,4.753,2.972,5.6,6.342M46.52,60.587c0,6.029.085,12.059-.047,18.085-.047,2.084.633,2.607,2.643,2.588q14.838-.142,29.679,0c2.091.021,2.6-.649,2.582-2.648q-.129-17.724,0-35.448c.017-2.081-.632-2.606-2.641-2.587q-14.84.14-29.679,0c-2.092-.022-2.624.646-2.583,2.648.121,5.785.044,11.575.044,17.362M2.987,66.716c0,4.949-.046,9.9.015,14.846.046,3.747,1.583,5.408,5.207,5.433q15.034.1,30.072,0c3.665-.022,5.279-1.655,5.307-5.338.062-7.844.127-15.692-.017-23.535A11.6,11.6,0,0,0,31.764,46.452c-7.727-.118-15.459-.063-23.188-.015-4.053.026-5.548,1.609-5.581,5.8-.039,4.827-.01,9.656-.009,14.483m40.623-17.4c0-3.171.095-5.23-.023-7.275-.176-3.051,1.055-4.389,4.213-4.361q16.131.142,32.263,0c3.18-.03,4.235,1.336,4.215,4.368-.083,12.558-.1,25.118.01,37.677.03,3.308-1.255,4.484-4.511,4.446-10.27-.12-20.542-.009-30.813-.075-2.068-.014-3.426.386-3.2,2.92,11.289,0,22.524.057,33.757-.028,4.518-.035,7.555-3.005,7.584-7.485.088-14.129.015-28.258.066-42.386.006-1.6-.237-2.347-2.123-2.336-14.62.076-29.243.037-43.865.054-.765,0-1.863-.324-1.882,1.008a61.992,61.992,0,0,0,.106,9.041c.237,1.757,2.6,2.171,4.2,4.434M81.179,31.762c-5.6-4.19-8.8-9.244-9.8-15.556-.221-1.4-.765-1.736-2.073-1.712-4.1.07-8.2.043-12.3.014-1.05-.006-1.74.068-1.945,1.425-.973,6.427-4.174,11.6-9.848,15.829ZM36.354,43.975a8.966,8.966,0,0,1,.021-2.048c1-3.616-2.48-8.347,2.711-10.969.219-.111.134-1.162-.055-1.687a4.345,4.345,0,0,0-4.348-3.139q-8.491-.026-16.983,0a3.971,3.971,0,0,0-4.162,2.835c-.6,2.127-1.3,4.708.43,6.4a6.008,6.008,0,0,1,2.049,5.421c-.283,2.226.491,2.8,2.734,2.794,5.761-.016,11.545-.5,17.6.39M63.726,11.614c2.538,0,5.076-.007,7.615,0,1.262.005,2.575-.024,2.681-1.678a52.226,52.226,0,0,0,0-5.431,1.6,1.6,0,0,0-1.676-1.56c-1.392-.123-.965.941-1.194,1.678C70.731,5.994,72.5,8.488,69.81,8.608c-2.984.133-.948-2.53-1.527-3.808a.8.8,0,0,1-.007-.36c.077-1-.237-1.544-1.4-1.543-1.073,0-1.558.339-1.506,1.442.047.964-.029,1.934.013,2.9.046,1.042-.318,1.506-1.442,1.5-1.1,0-1.528-.395-1.478-1.47.045-.964-.031-1.934.013-2.9C62.528,3.306,62.11,2.9,61.008,2.9c-1.128,0-1.482.471-1.438,1.509.042.964-.034,1.934.013,2.9.053,1.107-.441,1.437-1.509,1.438-1.148,0-1.463-.518-1.41-1.535a11.464,11.464,0,0,0-.016-2.171c-.113-.8.595-2.142-1.108-2.08-1.159.044-1.578.761-1.777,1.871-1.017,5.69-.138,6.787,5.612,6.787h4.352m-38.4,11.607c6.125-.07,5.143.526,5.207-3.671.076-5.031.009-4.8-4.375-5.1-3.574-.244-4.5,1.075-4.411,4.476.077,3.067.081,5.405,3.579,4.3M9.25,43.517c1.762-.188,4.125,1.016,3.992-2.636-.107-2.98-1.513-3.152-3.829-3.218-2.575-.074-3.538.678-3.624,3.418-.1,3.1,1.81,2.356,3.461,2.436" transform="translate(0 0)" fill="#0b0a0a"/>
          <path id="Trazado_716687" data-name="Trazado 716687" d="M43.715,58.138c0-5.787.078-11.577-.044-17.362-.042-2,.491-2.67,2.583-2.648q14.838.158,29.678,0c2.01-.019,2.66.507,2.643,2.587q-.142,17.723,0,35.448c.014,2-.491,2.669-2.582,2.647q-14.838-.156-29.679,0c-2.01.019-2.689-.5-2.644-2.588.133-6.026.048-12.056.048-18.085M64.006,74.556c.1-.958-.1-1.61-1.294-1.592-.948.015-1.616.132-1.6,1.322.014.95.136,1.616,1.325,1.594.945-.017,1.689-.116,1.567-1.324m4.5-1.564c-.961-.1-1.611.107-1.594,1.3.014.949.127,1.616,1.322,1.594.948-.016,1.619-.132,1.6-1.322-.017-.945-.121-1.686-1.324-1.568m7.1,1.481c.123-1.035-.276-1.514-1.38-1.512-1.026,0-1.518.305-1.515,1.413,0,1.027.31,1.517,1.416,1.51,1.02-.005,1.607-.291,1.479-1.411" transform="translate(2.805 2.449)" fill="#b2cf6b"/>
          <path id="Trazado_716688" data-name="Trazado 716688" d="M2.807,63.917c0-4.828-.03-9.656.009-14.483.034-4.188,1.528-5.771,5.581-5.8,7.73-.048,15.46-.1,23.189.015A11.594,11.594,0,0,1,43.392,55.326c.145,7.842.08,15.69.018,23.535-.03,3.683-1.642,5.317-5.307,5.338q-15.036.088-30.073,0c-3.625-.023-5.16-1.685-5.206-5.433-.062-4.948-.015-9.9-.016-14.845M23.294,81.323q6.164,0,12.327,0c3.264,0,4.907-1.63,4.91-4.9q0-5.254,0-10.507,0-4.9-4.9-4.9-12.509,0-25.017,0c-3.266,0-4.907,1.622-4.906,4.892q0,5.254,0,10.507,0,4.9,4.9,4.9,6.346,0,12.69,0m6.511-23.2c2.406,0,4.811-.015,7.218,0,2.921.022,3.768-1.66,3.461-4.229A8.633,8.633,0,0,0,32.7,46.57c-3.238-.183-6.5-.146-9.741-.024A5.779,5.779,0,0,0,22.949,58.1c2.28.115,4.57.022,6.856.027" transform="translate(0.179 2.799)" fill="#ffa686"/>
          <path id="Trazado_716689" data-name="Trazado 716689" d="M41.244,47.217c-1.6-2.262-3.966-2.675-4.2-4.434a61.831,61.831,0,0,1-.106-9.04c.017-1.332,1.116-1.008,1.882-1.009,14.622-.016,29.243.022,43.865-.054,1.885-.01,2.128.736,2.123,2.336-.051,14.129.022,28.259-.067,42.386-.028,4.479-3.066,7.45-7.583,7.485-11.233.085-22.467.028-33.758.028-.223-2.534,1.134-2.933,3.2-2.92,10.271.066,20.544-.046,30.814.075,3.257.038,4.54-1.139,4.511-4.446-.111-12.558-.093-25.118-.011-37.677.02-3.032-1.034-4.4-4.214-4.368q-16.131.15-32.263,0c-3.16-.028-4.389,1.31-4.213,4.361.118,2.045.022,4.1.022,7.275" transform="translate(2.365 2.099)" fill="#ffe293"/>
          <path id="Trazado_716690" data-name="Trazado 716690" d="M78.449,30.887H42.486c5.673-4.231,8.875-9.4,9.847-15.829.205-1.357.9-1.431,1.946-1.424,4.1.028,8.2.055,12.3-.015,1.309-.022,1.852.311,2.074,1.713,1,6.311,4.194,11.365,9.8,15.555" transform="translate(2.729 0.875)" fill="#ffe092"/>
          <path id="Trazado_716691" data-name="Trazado 716691" d="M35.577,42.4c-6.06-.888-11.845-.405-17.6-.391-2.244.006-3.018-.566-2.734-2.794A6.007,6.007,0,0,0,13.19,33.8c-1.732-1.694-1.028-4.275-.43-6.4a3.971,3.971,0,0,1,4.162-2.836q8.491-.026,16.983,0A4.342,4.342,0,0,1,38.253,27.7c.189.525.276,1.576.055,1.688-5.189,2.622-1.716,7.353-2.71,10.969a8.9,8.9,0,0,0-.021,2.048" transform="translate(0.777 1.576)" fill="#dfe2e7"/>
          <path id="Trazado_716692" data-name="Trazado 716692" d="M60.5,11.439H56.152c-5.75,0-6.629-1.1-5.611-6.787.2-1.11.617-1.827,1.776-1.871,1.7-.063,1,1.277,1.108,2.08a11.376,11.376,0,0,1,.016,2.171c-.053,1.016.263,1.536,1.41,1.535,1.07,0,1.563-.331,1.509-1.438-.047-.964.029-1.934-.013-2.9-.045-1.038.311-1.51,1.439-1.509,1.1,0,1.52.409,1.47,1.476-.044.965.033,1.935-.012,2.9-.05,1.075.382,1.47,1.477,1.47,1.124,0,1.488-.463,1.443-1.5-.043-.964.033-1.934-.013-2.9-.053-1.1.432-1.44,1.5-1.442,1.158,0,1.472.539,1.4,1.543a.784.784,0,0,0,.006.36C65.638,5.9,63.6,8.566,66.588,8.433c2.693-.119.921-2.614,1.345-3.981.229-.738-.2-1.8,1.194-1.678A1.6,1.6,0,0,1,70.8,4.333a51.934,51.934,0,0,1,0,5.431c-.1,1.654-1.419,1.684-2.681,1.678-2.538-.011-5.076,0-7.615,0" transform="translate(3.223 0.175)" fill="#c1c7d0"/>
          <path id="Trazado_716693" data-name="Trazado 716693" d="M24.013,22.351c-3.5,1.11-3.5-1.228-3.579-4.3-.085-3.4.839-4.721,4.411-4.477,4.384.3,4.451.071,4.375,5.1-.063,4.2.917,3.6-5.207,3.671" transform="translate(1.312 0.87)" fill="#0b481e"/>
          <path id="Trazado_716694" data-name="Trazado 716694" d="M8.9,41.244c-1.651-.08-3.557.661-3.46-2.436.086-2.74,1.048-3.493,3.623-3.419,2.317.067,3.722.238,3.83,3.219.132,3.652-2.23,2.447-3.993,2.636" transform="translate(0.349 2.273)" fill="#9bc352"/>
          <path id="Trazado_716695" data-name="Trazado 716695" d="M62.953,72.453c.122,1.209-.622,1.308-1.567,1.324-1.189.021-1.311-.643-1.325-1.593-.018-1.191.649-1.308,1.6-1.323,1.189-.018,1.4.634,1.293,1.592" transform="translate(3.858 4.552)" fill="#050605"/>
          <path id="Trazado_716696" data-name="Trazado 716696" d="M67.107,70.888c1.2-.118,1.307.623,1.324,1.568.021,1.19-.648,1.306-1.6,1.322-1.2.021-1.308-.645-1.322-1.594-.017-1.188.632-1.4,1.594-1.3" transform="translate(4.208 4.552)" fill="#050605"/>
          <path id="Trazado_716697" data-name="Trazado 716697" d="M73.861,72.37c.128,1.121-.46,1.406-1.479,1.411-1.107.006-1.413-.483-1.416-1.51,0-1.108.49-1.411,1.515-1.413,1.1,0,1.5.477,1.38,1.512" transform="translate(4.559 4.551)" fill="#050605"/>
          <path id="Trazado_716698" data-name="Trazado 716698" d="M23.118,80.272q-6.344,0-12.69,0-4.9,0-4.9-4.9,0-5.254,0-10.507c0-3.27,1.64-4.893,4.906-4.893q12.509,0,25.017,0,4.9,0,4.9,4.9,0,5.254,0,10.507c0,3.266-1.646,4.9-4.91,4.9q-6.164,0-12.327,0m-.106-17.4c-3.86,0-7.723.076-11.58-.03C9.318,62.785,8.3,63.421,8.4,65.71c.134,2.887.118,5.788,0,8.678-.085,2.13.616,3.045,2.883,3.017,7.72-.095,15.442-.083,23.162-.006,2.11.021,3.135-.585,3.031-2.87a86.115,86.115,0,0,1,0-8.677c.138-2.5-1.02-3.087-3.258-3.013-3.735.125-7.478.034-11.218.034" transform="translate(0.355 3.852)" fill="#0a0a08"/>
          <path id="Trazado_716699" data-name="Trazado 716699" d="M28.928,57.953c-2.285,0-4.575.09-6.855-.024a5.779,5.779,0,0,1,.011-11.555c3.243-.121,6.5-.159,9.74.024a8.632,8.632,0,0,1,7.783,7.332c.308,2.569-.539,4.252-3.461,4.229-2.405-.018-4.811,0-7.218-.005m-.138-2.926v.021c1.678,0,3.359.053,5.034-.021.9-.04,2.161.519,2.627-.379.51-.985-.357-2.012-.92-2.916a4.637,4.637,0,0,0-3.516-2.265,85.284,85.284,0,0,0-10.046-.1,2.627,2.627,0,0,0-2.533,2.95A2.826,2.826,0,0,0,22.319,55c2.151.116,4.313.029,6.471.029" transform="translate(1.056 2.972)" fill="#110e0c"/>
          <path id="Trazado_716700" data-name="Trazado 716700" d="M22.838,62.7c3.74,0,7.483.09,11.218-.034,2.238-.074,3.4.511,3.258,3.013a86.115,86.115,0,0,0,0,8.677c.1,2.285-.921,2.892-3.031,2.87-7.72-.077-15.442-.088-23.162.006-2.267.028-2.968-.888-2.883-3.017.114-2.889.13-5.791,0-8.678-.106-2.288.915-2.925,3.029-2.867,3.857.105,7.72.03,11.58.03" transform="translate(0.528 4.025)" fill="#e0e3e8"/>
          <path id="Trazado_716701" data-name="Trazado 716701" d="M28.609,54.847c-2.157,0-4.32.087-6.471-.029a2.826,2.826,0,0,1-2.884-2.677,2.627,2.627,0,0,1,2.533-2.95,85.284,85.284,0,0,1,10.046.1,4.637,4.637,0,0,1,3.516,2.265c.563.9,1.429,1.931.92,2.916-.465.9-1.726.338-2.627.379-1.675.074-3.356.021-5.034.021v-.021" transform="translate(1.236 3.153)" fill="#f5f4f4"/>
        </g>
      </g>
    </g>
  </g>
</svg>
