<svg xmlns="http://www.w3.org/2000/svg" xmlns:xlink="http://www.w3.org/1999/xlink" width="619" height="240" viewBox="0 0 619 240">
  <defs>
    <clipPath id="clip-path">
      <rect id="Rectángulo_361578" data-name="Rectángulo 361578" width="198" height="91" fill="#ffa686" stroke="#707070" stroke-width="1"/>
    </clipPath>
    <clipPath id="clip-path-2">
      <rect id="Rectángulo_361579" data-name="Rectángulo 361579" width="198" height="102" transform="translate(0 0.275)" fill="#f2f7df" stroke="#707070" stroke-width="1"/>
    </clipPath>
    <filter id="Elipse_5259" x="26" y="33" width="144" height="144" filterUnits="userSpaceOnUse">
      <feOffset dy="3" input="SourceAlpha"/>
      <feGaussianBlur stdDeviation="3" result="blur"/>
      <feFlood flood-opacity="0.161"/>
      <feComposite operator="in" in2="blur"/>
      <feComposite in="SourceGraphic"/>
    </filter>
    <clipPath id="clip-path-3">
      <rect id="Rectángulo_361581" data-name="Rectángulo 361581" width="199" height="91" transform="translate(-0.15)" fill="#ffa686" stroke="#707070" stroke-width="1"/>
    </clipPath>
    <clipPath id="clip-path-4">
      <rect id="Rectángulo_361580" data-name="Rectángulo 361580" width="199" height="102" transform="translate(-0.15 0.275)" fill="#f2f7df" stroke="#707070" stroke-width="1"/>
    </clipPath>
    <filter id="Elipse_5262" x="234" y="38" width="144" height="144" filterUnits="userSpaceOnUse">
      <feOffset dy="3" input="SourceAlpha"/>
      <feGaussianBlur stdDeviation="3" result="blur-2"/>
      <feFlood flood-opacity="0.161"/>
      <feComposite operator="in" in2="blur-2"/>
      <feComposite in="SourceGraphic"/>
    </filter>
    <clipPath id="clip-path-5">
      <rect id="Rectángulo_361583" data-name="Rectángulo 361583" width="199" height="91" transform="translate(-0.3)" fill="#ffa686" stroke="#707070" stroke-width="1"/>
    </clipPath>
    <clipPath id="clip-path-6">
      <rect id="Rectángulo_361582" data-name="Rectángulo 361582" width="199" height="102" transform="translate(-0.3 0.275)" fill="#f2f7df" stroke="#707070" stroke-width="1"/>
    </clipPath>
    <filter id="Elipse_5267" x="446" y="33" width="144" height="144" filterUnits="userSpaceOnUse">
      <feOffset dy="3" input="SourceAlpha"/>
      <feGaussianBlur stdDeviation="3" result="blur-3"/>
      <feFlood flood-opacity="0.161"/>
      <feComposite operator="in" in2="blur-3"/>
      <feComposite in="SourceGraphic"/>
    </filter>
    <clipPath id="clip-path-7">
      <rect id="Rectángulo_361585" data-name="Rectángulo 361585" width="22.99" height="53.686" fill="none"/>
    </clipPath>
    <clipPath id="clip-path-8">
      <rect id="Rectángulo_361585-2" data-name="Rectángulo 361585" width="22.272" height="52.009" fill="none"/>
    </clipPath>
    <clipPath id="clip-path-11">
      <rect id="Rectángulo_361588" data-name="Rectángulo 361588" width="82.608" height="68.395" fill="none"/>
    </clipPath>
  </defs>
  <g id="Grupo_1084172" data-name="Grupo 1084172" transform="translate(-493 -3261)">
    <g id="Grupo_1083959" data-name="Grupo 1083959" transform="translate(-107 35)">
      <g id="Enmascarar_grupo_1083809" data-name="Enmascarar grupo 1083809" transform="translate(600 3237)" clip-path="url(#clip-path)">
        <circle id="Elipse_5255" data-name="Elipse 5255" cx="91" cy="91" r="91" transform="translate(7)" fill="#ffa686"/>
        <circle id="Elipse_5256" data-name="Elipse 5256" cx="63" cy="63" r="63" transform="translate(35 28)" fill="#fff"/>
      </g>
      <g id="Enmascarar_grupo_1083810" data-name="Enmascarar grupo 1083810" transform="translate(600 3332.725)" clip-path="url(#clip-path-2)">
        <circle id="Elipse_5257" data-name="Elipse 5257" cx="91" cy="91" r="91" transform="translate(7 -95.725)" fill="#ffe4da"/>
        <circle id="Elipse_5258" data-name="Elipse 5258" cx="63" cy="63" r="63" transform="translate(35 -67.725)" fill="#fff"/>
      </g>
      <g transform="matrix(1, 0, 0, 1, 600, 3226)" filter="url(#Elipse_5259)">
        <circle id="Elipse_5259-2" data-name="Elipse 5259" cx="63" cy="63" r="63" transform="translate(35 39)" fill="#fff"/>
      </g>
    </g>
    <g id="Grupo_1083960" data-name="Grupo 1083960" transform="translate(-109 37)">
      <g id="Enmascarar_grupo_1083812" data-name="Enmascarar grupo 1083812" transform="translate(1005.85 3422) rotate(180)" clip-path="url(#clip-path-3)">
        <circle id="Elipse_5263" data-name="Elipse 5263" cx="91" cy="91" r="91" transform="translate(6.85)" fill="#adce32"/>
        <circle id="Elipse_5264" data-name="Elipse 5264" cx="63" cy="63" r="63" transform="translate(34.85 28)" fill="#fff"/>
      </g>
      <g id="Enmascarar_grupo_1083811" data-name="Enmascarar grupo 1083811" transform="translate(1005.85 3326.275) rotate(180)" clip-path="url(#clip-path-4)">
        <path id="Trazado_716714" data-name="Trazado 716714" d="M91.056,0A91.056,91.056,0,1,1,0,91.056,91.056,91.056,0,0,1,91.056,0Z" transform="translate(7.004 -95.725)" fill="#e7fc98"/>
        <circle id="Elipse_5261" data-name="Elipse 5261" cx="63" cy="63" r="63" transform="translate(34.85 -67.725)" fill="#fff"/>
      </g>
      <g transform="matrix(1, 0, 0, 1, 602, 3224)" filter="url(#Elipse_5262)">
        <circle id="Elipse_5262-2" data-name="Elipse 5262" cx="63" cy="63" r="63" transform="translate(369 170) rotate(180)" fill="#fff"/>
      </g>
    </g>
    <g id="Grupo_1083961" data-name="Grupo 1083961" transform="translate(-107 35)">
      <g id="Enmascarar_grupo_1083814" data-name="Enmascarar grupo 1083814" transform="translate(1020.299 3237)" clip-path="url(#clip-path-5)">
        <circle id="Elipse_5268" data-name="Elipse 5268" cx="91" cy="91" r="91" transform="translate(6.7)" fill="#ffd947"/>
        <circle id="Elipse_5269" data-name="Elipse 5269" cx="63" cy="63" r="63" transform="translate(34.7 28)" fill="#fff"/>
      </g>
      <g id="Enmascarar_grupo_1083813" data-name="Enmascarar grupo 1083813" transform="translate(1020.299 3332.725)" clip-path="url(#clip-path-6)">
        <circle id="Elipse_5265" data-name="Elipse 5265" cx="91" cy="91" r="91" transform="translate(6.7 -95.725)" fill="#fff1ba"/>
        <circle id="Elipse_5266" data-name="Elipse 5266" cx="63" cy="63" r="63" transform="translate(34.7 -67.725)" fill="#fff"/>
      </g>
      <g transform="matrix(1, 0, 0, 1, 600, 3226)" filter="url(#Elipse_5267)">
        <circle id="Elipse_5267-2" data-name="Elipse 5267" cx="63" cy="63" r="63" transform="translate(455 39)" fill="#fff"/>
      </g>
    </g>
    <g id="Grupo_1083963" data-name="Grupo 1083963" transform="translate(580 3336.682)">
      <g id="Grupo_1083962" data-name="Grupo 1083962" clip-path="url(#clip-path-7)">
        <path id="Trazado_716715" data-name="Trazado 716715" d="M22.989,13.649v2.328l-.925,1.963.925,2.028v.887l-1.055,2.185a3.334,3.334,0,0,1,.007,4.755l1.048,2.262v.776l-.926,2.1.926,1.894V51.013c-.022.029-.056.054-.065.086a3.056,3.056,0,0,1-3.385,2.586q-8.067,0-16.135,0a4.409,4.409,0,0,1-1.04-.082A3.072,3.072,0,0,1,.011,50.453c-.005-4.8.011-9.6-.012-14.406a3.729,3.729,0,0,1,1.119-3.126,3.3,3.3,0,0,1-1.1-2.548A3.46,3.46,0,0,1,1.19,27.909a3.334,3.334,0,0,1-1.108-2.5,3.539,3.539,0,0,1,1.1-2.493A3.3,3.3,0,0,1,.018,20.439,3.407,3.407,0,0,1,1.1,17.931a3.312,3.312,0,0,1-1.1-2.724c.011-.314.005-.628,0-.942a3.354,3.354,0,0,1,.922-2.413c1.461-1.588,2.906-3.191,4.356-4.789.1-.113.19-.239.308-.387C4.765,6.443,4.2,6,4.173,5.14c-.032-1.218-.041-2.438,0-3.655A1.47,1.47,0,0,1,5.72.008q5.774-.017,11.548,0A1.452,1.452,0,0,1,18.8,1.438c.048,1.253.031,2.51,0,3.765a1.464,1.464,0,0,1-1,1.336c-.126.055-.254.1-.42.17,1.375,1.511,2.707,2.991,4.056,4.454a5.375,5.375,0,0,1,1.556,2.486M11.524,33.787v0c-2.707,0-5.416.043-8.122-.02a1.667,1.667,0,0,0-1.851,1.863c.021,4.876.007,9.751.01,14.627,0,1.332.551,1.876,1.883,1.877H19.468c1.435,0,1.952-.522,1.952-1.974q0-7.2,0-14.406c0-.148.005-.3-.006-.443a1.5,1.5,0,0,0-1.657-1.527q-4.116,0-8.233,0m-.033-16.7q4.171,0,8.341,0a1.44,1.44,0,0,0,1.546-1.337,14.192,14.192,0,0,0,.041-1.492,1.94,1.94,0,0,0-.545-1.4C19.08,10.9,17.3,8.927,15.5,6.977a1.069,1.069,0,0,0-.7-.3q-3.314-.034-6.628,0a1.067,1.067,0,0,0-.7.306C5.663,8.945,3.855,10.914,2.09,12.923a2.865,2.865,0,0,0-.511,1.289,5.244,5.244,0,0,0-.014,1.27,1.527,1.527,0,0,0,1.7,1.608h8.231m-.058,15.083c2.724,0,5.448.013,8.172-.015a2.165,2.165,0,0,0,1.119-.346,1.632,1.632,0,0,0,.59-1.92,1.763,1.763,0,0,0-1.76-1.166q-8.062,0-16.123,0a1.75,1.75,0,0,0-1.862,1.761,1.788,1.788,0,0,0,1.858,1.7c2.668-.051,5.337-.017,8.006-.018M11.49,22.1q4.09,0,8.18,0a1.645,1.645,0,0,0,1.672-1.248,1.722,1.722,0,0,0-1.81-2.179c-2.174-.016-4.348,0-6.522,0-3.187,0-6.374-.007-9.562,0a1.739,1.739,0,0,0-1.881,1.742A1.782,1.782,0,0,0,3.477,22.12c2.67-.061,5.342-.019,8.014-.019m0,1.628c-2.688,0-5.377.036-8.063-.018a1.781,1.781,0,0,0-1.812,1.678,1.74,1.74,0,0,0,1.777,1.785q8.092.013,16.183,0A1.739,1.739,0,0,0,21.362,25.4a1.78,1.78,0,0,0-1.8-1.685c-2.687.054-5.375.018-8.063.018M5.741,5.048H17.223V1.585H5.741Z" transform="translate(0 0)" fill="#1a1818"/>
        <path id="Trazado_716716" data-name="Trazado 716716" d="M23.941,303.98h8.233a1.5,1.5,0,0,1,1.657,1.527c.011.147.006.3.006.443q0,7.2,0,14.405c0,1.452-.517,1.974-1.952,1.974H15.861c-1.332,0-1.882-.545-1.883-1.877,0-4.876.011-9.751-.01-14.627a1.666,1.666,0,0,1,1.851-1.863c2.706.063,5.414.02,8.122.02Z" transform="translate(-12.417 -270.193)" fill="#ffe4da"/>
        <path id="Trazado_716717" data-name="Trazado 716717" d="M23.754,70.358H15.523a1.527,1.527,0,0,1-1.7-1.608,5.243,5.243,0,0,1,.014-1.27,2.866,2.866,0,0,1,.511-1.289c1.765-2.008,3.573-3.978,5.387-5.942a1.067,1.067,0,0,1,.7-.306q3.314-.034,6.628,0a1.069,1.069,0,0,1,.7.3c1.8,1.95,3.577,3.925,5.371,5.882a1.94,1.94,0,0,1,.545,1.4,14.193,14.193,0,0,1-.041,1.492,1.44,1.44,0,0,1-1.546,1.337q-4.171,0-8.341,0" transform="translate(-12.262 -53.267)" fill="#ffe4da"/>
        <path id="Trazado_716718" data-name="Trazado 716718" d="M23.981,262.005c-2.669,0-5.338-.033-8.006.018a1.788,1.788,0,0,1-1.858-1.7,1.75,1.75,0,0,1,1.862-1.761q8.062,0,16.124,0a1.763,1.763,0,0,1,1.76,1.166,1.632,1.632,0,0,1-.59,1.92,2.165,2.165,0,0,1-1.119.346c-2.724.029-5.448.015-8.172.015" transform="translate(-12.548 -229.831)" fill="#adce32"/>
        <path id="Trazado_716719" data-name="Trazado 716719" d="M24.037,171.431c-2.671,0-5.344-.042-8.014.019a1.782,1.782,0,0,1-1.909-1.706A1.739,1.739,0,0,1,16,168c3.187-.011,6.374,0,9.562,0,2.174,0,4.348-.011,6.522,0a1.722,1.722,0,0,1,1.81,2.179,1.645,1.645,0,0,1-1.672,1.248q-4.09.006-8.18,0" transform="translate(-12.546 -149.33)" fill="#adce32"/>
        <path id="Trazado_716720" data-name="Trazado 716720" d="M24.441,213.439c2.688,0,5.377.035,8.063-.018a1.78,1.78,0,0,1,1.8,1.685,1.739,1.739,0,0,1-1.784,1.778q-8.092.011-16.183,0a1.74,1.74,0,0,1-1.777-1.785,1.781,1.781,0,0,1,1.812-1.678c2.687.055,5.376.018,8.063.018" transform="translate(-12.948 -189.71)" fill="#adce32"/>
        <rect id="Rectángulo_361584" data-name="Rectángulo 361584" width="11.482" height="3.463" transform="translate(5.741 1.586)" fill="#ffd947"/>
      </g>
    </g>
    <g id="Grupo_1083968" data-name="Grupo 1083968" transform="translate(10.328 46.319)">
      <g id="Grupo_1083965" data-name="Grupo 1083965" transform="translate(802.877 3287.341)">
        <g id="Grupo_1083962-2" data-name="Grupo 1083962" clip-path="url(#clip-path-8)">
          <path id="Trazado_716715-2" data-name="Trazado 716715" d="M22.271,13.223v2.255l-.9,1.9.9,1.965V20.2l-1.022,2.117a3.23,3.23,0,0,1,.007,4.607l1.015,2.191v.752l-.9,2.032.9,1.835V49.419c-.022.028-.054.052-.063.084a2.961,2.961,0,0,1-3.279,2.505q-7.815,0-15.631,0a4.272,4.272,0,0,1-1.008-.08A2.976,2.976,0,0,1,.011,48.878C.006,44.226.022,39.574,0,34.922a3.613,3.613,0,0,1,1.084-3.028A3.194,3.194,0,0,1,.019,29.424a3.352,3.352,0,0,1,1.134-2.387A3.23,3.23,0,0,1,.079,24.614,3.429,3.429,0,0,1,1.149,22.2,3.2,3.2,0,0,1,.017,19.8,3.3,3.3,0,0,1,1.07,17.371,3.209,3.209,0,0,1,.007,14.732c.01-.3.005-.608,0-.912A3.249,3.249,0,0,1,.9,11.482c1.416-1.538,2.815-3.091,4.22-4.64.1-.109.184-.231.3-.375-.8-.225-1.355-.652-1.377-1.488-.031-1.18-.04-2.362,0-3.541A1.424,1.424,0,0,1,5.542.008q5.594-.017,11.188,0a1.406,1.406,0,0,1,1.48,1.385c.047,1.214.03,2.432,0,3.647a1.419,1.419,0,0,1-.97,1.294c-.122.053-.246.1-.407.165,1.332,1.464,2.622,2.9,3.929,4.315a5.207,5.207,0,0,1,1.508,2.409M11.164,32.732v0c-2.623,0-5.247.042-7.868-.019A1.614,1.614,0,0,0,1.5,34.52c.02,4.723.007,9.447.009,14.17,0,1.29.534,1.818,1.824,1.818H18.86c1.39,0,1.891-.506,1.891-1.913q0-6.978,0-13.956c0-.143.005-.287-.006-.429a1.454,1.454,0,0,0-1.605-1.48H11.164m-.032-16.175q4.04,0,8.081,0a1.4,1.4,0,0,0,1.5-1.295,13.75,13.75,0,0,0,.04-1.446,1.879,1.879,0,0,0-.528-1.357c-1.738-1.9-3.458-3.809-5.2-5.7a1.035,1.035,0,0,0-.678-.293q-3.21-.033-6.421,0a1.034,1.034,0,0,0-.676.3c-1.757,1.9-3.509,3.811-5.219,5.756a2.776,2.776,0,0,0-.5,1.249A5.08,5.08,0,0,0,1.516,15a1.479,1.479,0,0,0,1.643,1.558h7.974m-.056,14.612c2.639,0,5.278.013,7.917-.015a2.1,2.1,0,0,0,1.084-.335,1.581,1.581,0,0,0,.571-1.86,1.708,1.708,0,0,0-1.705-1.129q-7.81,0-15.62,0a1.7,1.7,0,0,0-1.8,1.706,1.732,1.732,0,0,0,1.8,1.65c2.585-.049,5.171-.017,7.756-.017m.055-9.758q3.962,0,7.924,0a1.593,1.593,0,0,0,1.62-1.209,1.668,1.668,0,0,0-1.753-2.111c-2.106-.016-4.212,0-6.318,0-3.088,0-6.175-.007-9.263,0a1.685,1.685,0,0,0-1.822,1.688,1.726,1.726,0,0,0,1.849,1.653c2.587-.059,5.175-.018,7.763-.018m0,1.577c-2.6,0-5.209.035-7.812-.018A1.726,1.726,0,0,0,1.568,24.6a1.686,1.686,0,0,0,1.721,1.729q7.839.012,15.678,0A1.685,1.685,0,0,0,20.695,24.6a1.724,1.724,0,0,0-1.748-1.632c-2.6.052-5.208.018-7.812.018M5.562,4.89H16.685V1.536H5.562Z" transform="translate(0 0)" fill="#1a1818"/>
          <path id="Trazado_716716-2" data-name="Trazado 716716" d="M23.63,303.98h7.976a1.454,1.454,0,0,1,1.605,1.48c.011.142.006.286.006.429q0,6.978,0,13.956c0,1.407-.5,1.913-1.891,1.913H15.8c-1.291,0-1.823-.528-1.824-1.818,0-4.724.011-9.447-.009-14.17a1.614,1.614,0,0,1,1.793-1.8c2.622.061,5.245.019,7.868.019Z" transform="translate(-12.465 -271.248)" fill="#ffe4da"/>
          <path id="Trazado_716717-2" data-name="Trazado 716717" d="M23.443,70.032H15.469a1.479,1.479,0,0,1-1.643-1.558,5.079,5.079,0,0,1,.013-1.23,2.776,2.776,0,0,1,.5-1.249c1.709-1.945,3.462-3.854,5.219-5.756a1.034,1.034,0,0,1,.676-.3q3.21-.033,6.421,0a1.035,1.035,0,0,1,.678.293c1.745,1.889,3.465,3.8,5.2,5.7a1.88,1.88,0,0,1,.528,1.358,13.75,13.75,0,0,1-.04,1.446,1.4,1.4,0,0,1-1.5,1.295q-4.04,0-8.081,0" transform="translate(-12.31 -53.475)" fill="#ffe4da"/>
          <path id="Trazado_716718-2" data-name="Trazado 716718" d="M23.673,261.9c-2.585,0-5.172-.032-7.756.017a1.732,1.732,0,0,1-1.8-1.65,1.7,1.7,0,0,1,1.8-1.706q7.81,0,15.62,0a1.708,1.708,0,0,1,1.705,1.129,1.581,1.581,0,0,1-.571,1.86,2.1,2.1,0,0,1-1.084.335c-2.639.028-5.278.015-7.917.015" transform="translate(-12.597 -230.729)" fill="#adce32"/>
          <path id="Trazado_716719-2" data-name="Trazado 716719" d="M23.727,171.323c-2.588,0-5.177-.04-7.763.018a1.726,1.726,0,0,1-1.849-1.653A1.685,1.685,0,0,1,15.937,168c3.088-.011,6.175,0,9.263,0,2.106,0,4.212-.011,6.318,0a1.668,1.668,0,0,1,1.753,2.111,1.593,1.593,0,0,1-1.62,1.209q-3.962.006-7.924,0" transform="translate(-12.595 -149.912)" fill="#adce32"/>
          <path id="Trazado_716720-2" data-name="Trazado 716720" d="M24.133,213.439c2.6,0,5.209.034,7.812-.018a1.724,1.724,0,0,1,1.748,1.632,1.685,1.685,0,0,1-1.728,1.723q-7.839.011-15.678,0a1.686,1.686,0,0,1-1.721-1.729,1.726,1.726,0,0,1,1.755-1.625c2.6.053,5.208.018,7.812.018" transform="translate(-12.998 -190.451)" fill="#adce32"/>
          <rect id="Rectángulo_361584-2" data-name="Rectángulo 361584" width="11.124" height="3.354" transform="translate(5.562 1.536)" fill="#ffd947"/>
        </g>
      </g>
      <g id="Grupo_1083966" data-name="Grupo 1083966" transform="translate(777.73 3287.341)">
        <g id="Grupo_1083962-3" data-name="Grupo 1083962" clip-path="url(#clip-path-8)">
          <path id="Trazado_716715-3" data-name="Trazado 716715" d="M22.271,13.223v2.255l-.9,1.9.9,1.965V20.2l-1.022,2.117a3.23,3.23,0,0,1,.007,4.607l1.015,2.191v.752l-.9,2.032.9,1.835V49.419c-.022.028-.054.052-.063.084a2.961,2.961,0,0,1-3.279,2.505q-7.815,0-15.631,0a4.272,4.272,0,0,1-1.008-.08A2.976,2.976,0,0,1,.011,48.878C.006,44.226.022,39.574,0,34.922a3.613,3.613,0,0,1,1.084-3.028A3.194,3.194,0,0,1,.019,29.424a3.352,3.352,0,0,1,1.134-2.387A3.23,3.23,0,0,1,.079,24.614,3.429,3.429,0,0,1,1.149,22.2,3.2,3.2,0,0,1,.017,19.8,3.3,3.3,0,0,1,1.07,17.371,3.209,3.209,0,0,1,.007,14.732c.01-.3.005-.608,0-.912A3.249,3.249,0,0,1,.9,11.482c1.416-1.538,2.815-3.091,4.22-4.64.1-.109.184-.231.3-.375-.8-.225-1.355-.652-1.377-1.488-.031-1.18-.04-2.362,0-3.541A1.424,1.424,0,0,1,5.542.008q5.594-.017,11.188,0a1.406,1.406,0,0,1,1.48,1.385c.047,1.214.03,2.432,0,3.647a1.419,1.419,0,0,1-.97,1.294c-.122.053-.246.1-.407.165,1.332,1.464,2.622,2.9,3.929,4.315a5.207,5.207,0,0,1,1.508,2.409M11.164,32.732v0c-2.623,0-5.247.042-7.868-.019A1.614,1.614,0,0,0,1.5,34.52c.02,4.723.007,9.447.009,14.17,0,1.29.534,1.818,1.824,1.818H18.86c1.39,0,1.891-.506,1.891-1.913q0-6.978,0-13.956c0-.143.005-.287-.006-.429a1.454,1.454,0,0,0-1.605-1.48H11.164m-.032-16.175q4.04,0,8.081,0a1.4,1.4,0,0,0,1.5-1.295,13.75,13.75,0,0,0,.04-1.446,1.879,1.879,0,0,0-.528-1.357c-1.738-1.9-3.458-3.809-5.2-5.7a1.035,1.035,0,0,0-.678-.293q-3.21-.033-6.421,0a1.034,1.034,0,0,0-.676.3c-1.757,1.9-3.509,3.811-5.219,5.756a2.776,2.776,0,0,0-.5,1.249A5.08,5.08,0,0,0,1.516,15a1.479,1.479,0,0,0,1.643,1.558h7.974m-.056,14.612c2.639,0,5.278.013,7.917-.015a2.1,2.1,0,0,0,1.084-.335,1.581,1.581,0,0,0,.571-1.86,1.708,1.708,0,0,0-1.705-1.129q-7.81,0-15.62,0a1.7,1.7,0,0,0-1.8,1.706,1.732,1.732,0,0,0,1.8,1.65c2.585-.049,5.171-.017,7.756-.017m.055-9.758q3.962,0,7.924,0a1.593,1.593,0,0,0,1.62-1.209,1.668,1.668,0,0,0-1.753-2.111c-2.106-.016-4.212,0-6.318,0-3.088,0-6.175-.007-9.263,0a1.685,1.685,0,0,0-1.822,1.688,1.726,1.726,0,0,0,1.849,1.653c2.587-.059,5.175-.018,7.763-.018m0,1.577c-2.6,0-5.209.035-7.812-.018A1.726,1.726,0,0,0,1.568,24.6a1.686,1.686,0,0,0,1.721,1.729q7.839.012,15.678,0A1.685,1.685,0,0,0,20.695,24.6a1.724,1.724,0,0,0-1.748-1.632c-2.6.052-5.208.018-7.812.018M5.562,4.89H16.685V1.536H5.562Z" transform="translate(0 0)" fill="#1a1818"/>
          <path id="Trazado_716716-3" data-name="Trazado 716716" d="M23.63,303.98h7.976a1.454,1.454,0,0,1,1.605,1.48c.011.142.006.286.006.429q0,6.978,0,13.956c0,1.407-.5,1.913-1.891,1.913H15.8c-1.291,0-1.823-.528-1.824-1.818,0-4.724.011-9.447-.009-14.17a1.614,1.614,0,0,1,1.793-1.8c2.622.061,5.245.019,7.868.019Z" transform="translate(-12.465 -271.248)" fill="#ffe4da"/>
          <path id="Trazado_716717-3" data-name="Trazado 716717" d="M23.443,70.032H15.469a1.479,1.479,0,0,1-1.643-1.558,5.079,5.079,0,0,1,.013-1.23,2.776,2.776,0,0,1,.5-1.249c1.709-1.945,3.462-3.854,5.219-5.756a1.034,1.034,0,0,1,.676-.3q3.21-.033,6.421,0a1.035,1.035,0,0,1,.678.293c1.745,1.889,3.465,3.8,5.2,5.7a1.88,1.88,0,0,1,.528,1.358,13.75,13.75,0,0,1-.04,1.446,1.4,1.4,0,0,1-1.5,1.295q-4.04,0-8.081,0" transform="translate(-12.31 -53.475)" fill="#ffe4da"/>
          <path id="Trazado_716718-3" data-name="Trazado 716718" d="M23.673,261.9c-2.585,0-5.172-.032-7.756.017a1.732,1.732,0,0,1-1.8-1.65,1.7,1.7,0,0,1,1.8-1.706q7.81,0,15.62,0a1.708,1.708,0,0,1,1.705,1.129,1.581,1.581,0,0,1-.571,1.86,2.1,2.1,0,0,1-1.084.335c-2.639.028-5.278.015-7.917.015" transform="translate(-12.597 -230.729)" fill="#adce32"/>
          <path id="Trazado_716719-3" data-name="Trazado 716719" d="M23.727,171.323c-2.588,0-5.177-.04-7.763.018a1.726,1.726,0,0,1-1.849-1.653A1.685,1.685,0,0,1,15.937,168c3.088-.011,6.175,0,9.263,0,2.106,0,4.212-.011,6.318,0a1.668,1.668,0,0,1,1.753,2.111,1.593,1.593,0,0,1-1.62,1.209q-3.962.006-7.924,0" transform="translate(-12.595 -149.912)" fill="#adce32"/>
          <path id="Trazado_716720-3" data-name="Trazado 716720" d="M24.133,213.439c2.6,0,5.209.034,7.812-.018a1.724,1.724,0,0,1,1.748,1.632,1.685,1.685,0,0,1-1.728,1.723q-7.839.011-15.678,0a1.686,1.686,0,0,1-1.721-1.729,1.726,1.726,0,0,1,1.755-1.625c2.6.053,5.208.018,7.812.018" transform="translate(-12.998 -190.451)" fill="#adce32"/>
          <rect id="Rectángulo_361584-3" data-name="Rectángulo 361584" width="11.124" height="3.354" transform="translate(5.562 1.536)" fill="#ffd947"/>
        </g>
      </g>
      <g id="Grupo_1083967" data-name="Grupo 1083967" transform="translate(753.303 3287.341)">
        <g id="Grupo_1083962-4" data-name="Grupo 1083962" clip-path="url(#clip-path-8)">
          <path id="Trazado_716715-4" data-name="Trazado 716715" d="M22.271,13.223v2.255l-.9,1.9.9,1.965V20.2l-1.022,2.117a3.23,3.23,0,0,1,.007,4.607l1.015,2.191v.752l-.9,2.032.9,1.835V49.419c-.022.028-.054.052-.063.084a2.961,2.961,0,0,1-3.279,2.505q-7.815,0-15.631,0a4.272,4.272,0,0,1-1.008-.08A2.976,2.976,0,0,1,.011,48.878C.006,44.226.022,39.574,0,34.922a3.613,3.613,0,0,1,1.084-3.028A3.194,3.194,0,0,1,.019,29.424a3.352,3.352,0,0,1,1.134-2.387A3.23,3.23,0,0,1,.079,24.614,3.429,3.429,0,0,1,1.149,22.2,3.2,3.2,0,0,1,.017,19.8,3.3,3.3,0,0,1,1.07,17.371,3.209,3.209,0,0,1,.007,14.732c.01-.3.005-.608,0-.912A3.249,3.249,0,0,1,.9,11.482c1.416-1.538,2.815-3.091,4.22-4.64.1-.109.184-.231.3-.375-.8-.225-1.355-.652-1.377-1.488-.031-1.18-.04-2.362,0-3.541A1.424,1.424,0,0,1,5.542.008q5.594-.017,11.188,0a1.406,1.406,0,0,1,1.48,1.385c.047,1.214.03,2.432,0,3.647a1.419,1.419,0,0,1-.97,1.294c-.122.053-.246.1-.407.165,1.332,1.464,2.622,2.9,3.929,4.315a5.207,5.207,0,0,1,1.508,2.409M11.164,32.732v0c-2.623,0-5.247.042-7.868-.019A1.614,1.614,0,0,0,1.5,34.52c.02,4.723.007,9.447.009,14.17,0,1.29.534,1.818,1.824,1.818H18.86c1.39,0,1.891-.506,1.891-1.913q0-6.978,0-13.956c0-.143.005-.287-.006-.429a1.454,1.454,0,0,0-1.605-1.48H11.164m-.032-16.175q4.04,0,8.081,0a1.4,1.4,0,0,0,1.5-1.295,13.75,13.75,0,0,0,.04-1.446,1.879,1.879,0,0,0-.528-1.357c-1.738-1.9-3.458-3.809-5.2-5.7a1.035,1.035,0,0,0-.678-.293q-3.21-.033-6.421,0a1.034,1.034,0,0,0-.676.3c-1.757,1.9-3.509,3.811-5.219,5.756a2.776,2.776,0,0,0-.5,1.249A5.08,5.08,0,0,0,1.516,15a1.479,1.479,0,0,0,1.643,1.558h7.974m-.056,14.612c2.639,0,5.278.013,7.917-.015a2.1,2.1,0,0,0,1.084-.335,1.581,1.581,0,0,0,.571-1.86,1.708,1.708,0,0,0-1.705-1.129q-7.81,0-15.62,0a1.7,1.7,0,0,0-1.8,1.706,1.732,1.732,0,0,0,1.8,1.65c2.585-.049,5.171-.017,7.756-.017m.055-9.758q3.962,0,7.924,0a1.593,1.593,0,0,0,1.62-1.209,1.668,1.668,0,0,0-1.753-2.111c-2.106-.016-4.212,0-6.318,0-3.088,0-6.175-.007-9.263,0a1.685,1.685,0,0,0-1.822,1.688,1.726,1.726,0,0,0,1.849,1.653c2.587-.059,5.175-.018,7.763-.018m0,1.577c-2.6,0-5.209.035-7.812-.018A1.726,1.726,0,0,0,1.568,24.6a1.686,1.686,0,0,0,1.721,1.729q7.839.012,15.678,0A1.685,1.685,0,0,0,20.695,24.6a1.724,1.724,0,0,0-1.748-1.632c-2.6.052-5.208.018-7.812.018M5.562,4.89H16.685V1.536H5.562Z" transform="translate(0 0)" fill="#1a1818"/>
          <path id="Trazado_716716-4" data-name="Trazado 716716" d="M23.63,303.98h7.976a1.454,1.454,0,0,1,1.605,1.48c.011.142.006.286.006.429q0,6.978,0,13.956c0,1.407-.5,1.913-1.891,1.913H15.8c-1.291,0-1.823-.528-1.824-1.818,0-4.724.011-9.447-.009-14.17a1.614,1.614,0,0,1,1.793-1.8c2.622.061,5.245.019,7.868.019Z" transform="translate(-12.465 -271.248)" fill="#ffe4da"/>
          <path id="Trazado_716717-4" data-name="Trazado 716717" d="M23.443,70.032H15.469a1.479,1.479,0,0,1-1.643-1.558,5.079,5.079,0,0,1,.013-1.23,2.776,2.776,0,0,1,.5-1.249c1.709-1.945,3.462-3.854,5.219-5.756a1.034,1.034,0,0,1,.676-.3q3.21-.033,6.421,0a1.035,1.035,0,0,1,.678.293c1.745,1.889,3.465,3.8,5.2,5.7a1.88,1.88,0,0,1,.528,1.358,13.75,13.75,0,0,1-.04,1.446,1.4,1.4,0,0,1-1.5,1.295q-4.04,0-8.081,0" transform="translate(-12.31 -53.475)" fill="#ffe4da"/>
          <path id="Trazado_716718-4" data-name="Trazado 716718" d="M23.673,261.9c-2.585,0-5.172-.032-7.756.017a1.732,1.732,0,0,1-1.8-1.65,1.7,1.7,0,0,1,1.8-1.706q7.81,0,15.62,0a1.708,1.708,0,0,1,1.705,1.129,1.581,1.581,0,0,1-.571,1.86,2.1,2.1,0,0,1-1.084.335c-2.639.028-5.278.015-7.917.015" transform="translate(-12.597 -230.729)" fill="#adce32"/>
          <path id="Trazado_716719-4" data-name="Trazado 716719" d="M23.727,171.323c-2.588,0-5.177-.04-7.763.018a1.726,1.726,0,0,1-1.849-1.653A1.685,1.685,0,0,1,15.937,168c3.088-.011,6.175,0,9.263,0,2.106,0,4.212-.011,6.318,0a1.668,1.668,0,0,1,1.753,2.111,1.593,1.593,0,0,1-1.62,1.209q-3.962.006-7.924,0" transform="translate(-12.595 -149.912)" fill="#adce32"/>
          <path id="Trazado_716720-4" data-name="Trazado 716720" d="M24.133,213.439c2.6,0,5.209.034,7.812-.018a1.724,1.724,0,0,1,1.748,1.632,1.685,1.685,0,0,1-1.728,1.723q-7.839.011-15.678,0a1.686,1.686,0,0,1-1.721-1.729,1.726,1.726,0,0,1,1.755-1.625c2.6.053,5.208.018,7.812.018" transform="translate(-12.998 -190.451)" fill="#adce32"/>
          <rect id="Rectángulo_361584-4" data-name="Rectángulo 361584" width="11.124" height="3.354" transform="translate(5.562 1.536)" fill="#ffd947"/>
        </g>
      </g>
      <g id="Rectángulo_361586" data-name="Rectángulo 361586" transform="translate(742.5 3311.538)" fill="#afafaf" stroke="#000" stroke-width="1">
        <rect width="94.344" height="19.689" stroke="none"/>
        <rect x="0.5" y="0.5" width="93.344" height="18.689" fill="none"/>
      </g>
      <g id="Rectángulo_361587" data-name="Rectángulo 361587" transform="translate(742.5 3334.509)" fill="#afafaf" stroke="#000" stroke-width="1">
        <rect width="94.344" height="19.689" stroke="none"/>
        <rect x="0.5" y="0.5" width="93.344" height="18.689" fill="none"/>
      </g>
      <g id="Elipse_5270" data-name="Elipse 5270" transform="translate(821.257 3318.921)" fill="none" stroke="#000" stroke-width="1">
        <circle cx="2.871" cy="2.871" r="2.871" stroke="none"/>
        <circle cx="2.871" cy="2.871" r="2.371" fill="none"/>
      </g>
      <g id="Elipse_5272" data-name="Elipse 5272" transform="translate(750.704 3318.921)" fill="none" stroke="#000" stroke-width="1">
        <circle cx="2.871" cy="2.871" r="2.871" stroke="none"/>
        <circle cx="2.871" cy="2.871" r="2.371" fill="none"/>
      </g>
      <g id="Elipse_5271" data-name="Elipse 5271" transform="translate(821.257 3341.892)" fill="none" stroke="#000" stroke-width="1">
        <circle cx="2.871" cy="2.871" r="2.871" stroke="none"/>
        <circle cx="2.871" cy="2.871" r="2.371" fill="none"/>
      </g>
      <g id="Elipse_5273" data-name="Elipse 5273" transform="translate(750.704 3341.892)" fill="none" stroke="#000" stroke-width="1">
        <circle cx="2.871" cy="2.871" r="2.871" stroke="none"/>
        <circle cx="2.871" cy="2.871" r="2.371" fill="none"/>
      </g>
    </g>
    <g id="Grupo_1083970" data-name="Grupo 1083970" transform="translate(971.196 3329.327)">
      <g id="Grupo_1083969" data-name="Grupo 1083969" clip-path="url(#clip-path-11)">
        <path id="Trazado_716721" data-name="Trazado 716721" d="M40.6,0H41.6c.03.047.05.123.092.137q19.585,6.806,39.173,13.6c.572.2,1.211.289,1.446.981q.006,20.374.012,40.749c-.211.812-.944.865-1.567,1.054q-19.244,5.85-38.487,11.7a3.076,3.076,0,0,1-1.937.02q-19.242-5.89-38.51-11.693A2.213,2.213,0,0,1,0,54.042Q.052,35.083.007,16.123a2.187,2.187,0,0,1,1.742-2.415Q15.177,9.1,28.556,4.355C32.577,2.926,36.7,1.782,40.6,0m5.718,27.228a14.376,14.376,0,0,1-1.457.331c-1.806.225-2.33,1.152-2.312,3.006.1,10.778.051,21.557.051,32.336v2.454c.615-.151,1.1-.246,1.564-.387q16.562-5.022,33.121-10.055c2.756-.838,2.751-.852,2.572-3.9q.031-16.431.079-32.862c.005-1.146-.42-1.119-1.31-.838C75.166,18.4,71.7,19.478,68.211,20.45a1.649,1.649,0,0,0-1.424,1.956c.068,5.477.041,10.955.024,16.433-.006,1.828-.882,2.313-2.43,1.358-.951-.586-1.887-1.2-2.782-1.871-.7-.524-1.141-.393-1.633.3-1.1,1.549-2.265,3.05-3.407,4.569-.445.593-.912,1.195-1.784.89-.846-.3-.909-1.053-.943-1.794-.021-.446-.007-.894-.007-1.341,0-4.863-.018-9.726.013-14.588.006-1-.206-1.5-1.322-1.132-2.061.683-4.134,1.333-6.2,2M6.326,18.136c-.732-.254-1.485-.463-2.192-.774-1.127-.5-1.54-.283-1.536,1.048q.061,17.2,0,34.394c0,1.045.352,1.414,1.329,1.7,7.007,2.071,13.994,4.212,20.984,6.339,4.956,1.508,9.907,3.028,14.979,4.579,0-1.437,0-2.711,0-3.985.021-10.737.028-21.475.084-32.212.005-1.007-.561-1.158-1.293-1.379-5.874-1.77-11.735-3.579-17.609-5.346-4.908-1.477-9.829-2.912-14.745-4.367m-.3-3.232q.032.177.065.355Q23.347,20.523,40.6,25.785a2.478,2.478,0,0,0,1.487-.03c2.914-.9,5.83-1.8,8.851-2.73a3.443,3.443,0,0,0-.62-.442q-15.377-5.913-30.763-11.8a1.713,1.713,0,0,0-1.282-.133C14.2,12.09,10.112,13.491,6.028,14.9M32.144,5.844c.458.657,1.115.695,1.667.9,8.461,3.15,17.037,6.029,25.35,9.528,4.51,1.9,8.636,2.38,13.069.317,1.371-.638,2.973-.722,4.507-1.619-11.752-4.082-23.279-8.084-34.8-12.1a1.588,1.588,0,0,0-1.129-.059c-2.865,1.013-5.736,2.01-8.661,3.031M61.565,19.831c-1.085-.436-1.689-.7-2.3-.924-9.506-3.522-19.078-6.879-28.484-10.649-3.1-1.244-5.355-.027-8.187.959C33.38,13.366,43.881,17.4,54.384,21.439a1.987,1.987,0,0,0,1.439.122c1.73-.572,3.489-1.059,5.742-1.73m2.756,17.051c0-4.823-.01-9.5.009-14.172,0-.923-.365-1.011-1.138-.74-1.1.387-2.233.682-3.349,1.027-3.449,1.068-3.448,1.069-3.448,4.594v11.5c.465-.582.669-.827.862-1.08,2.734-3.579,2.734-3.579,6.625-1.24a3.191,3.191,0,0,0,.438.116" transform="translate(0 0.001)" fill="#120e0c"/>
        <path id="Trazado_716722" data-name="Trazado 716722" d="M243.739,43.588a.672.672,0,0,1,.293.053V84.269l-.127.09-.154-.022q-.006-20.374-.012-40.749" transform="translate(-161.424 -28.867)" fill="#555252"/>
        <path id="Trazado_716723" data-name="Trazado 716723" d="M18.733,53.705c4.915,1.454,9.836,2.89,14.745,4.367,5.874,1.767,11.736,3.576,17.609,5.346.733.221,1.3.372,1.293,1.379-.055,10.737-.063,21.475-.084,32.212-1.55-.672-3.427-.57-4.673-1.965.778-1.273.194-1.945-1.026-2.361q-4.868-1.662-9.73-3.341L30.794,83.9c-.032-2.046-.105-4.093-.08-6.138a2.164,2.164,0,0,0-1.587-2.378c-1.921-.691-3.788-1.531-5.678-2.308a3.865,3.865,0,0,0-.6-1.711,46.366,46.366,0,0,1-4.119-17.657m27.76,34.654c.762,0,1.33-.215,1.445-.949.135-.862-.362-1.313-1.151-1.574C43.621,84.79,40.469,83.7,37.3,82.664c-.8-.263-1.734-.5-2.1.621-.381,1.174.473,1.539,1.384,1.84,3.008.991,6.008,2.005,9.014,3,.315.1.644.167.89.23m1.49-8.108A1.455,1.455,0,0,0,46.848,78.9L42.1,77.318a1.258,1.258,0,0,0-1.755.8c-.321.874.228,1.385.978,1.647q2.439.855,4.908,1.621c1.027.317,1.571-.183,1.75-1.134" transform="translate(-12.407 -35.568)" fill="#afafaf"/>
        <path id="Trazado_716724" data-name="Trazado 716724" d="M137.14,60.861c2.068-.664,4.14-1.314,6.2-2,1.116-.37,1.329.13,1.322,1.132-.031,4.863-.014,9.726-.014,14.588,0,.447-.013.895.007,1.341.034.741.1,1.5.943,1.794.872.3,1.339-.3,1.785-.89,1.141-1.519,2.307-3.021,3.406-4.569.492-.693.93-.823,1.633-.3.9.667,1.831,1.284,2.782,1.871,1.548.954,2.424.47,2.43-1.358.017-5.478.044-10.956-.024-16.433a1.65,1.65,0,0,1,1.424-1.957c3.491-.972,6.955-2.047,10.411-3.138.889-.281,1.315-.308,1.31.838q-.072,16.431-.079,32.862c-.55.069-1.112.091-1.65.214a26.043,26.043,0,0,1-9.974.278,25.6,25.6,0,0,1-15.907-9.047,24.984,24.984,0,0,1-6.008-15.231" transform="translate(-90.826 -33.633)" fill="#9a9898"/>
        <path id="Trazado_716725" data-name="Trazado 716725" d="M129.747,80.622a24.984,24.984,0,0,0,6.008,15.231,25.6,25.6,0,0,0,15.907,9.047,26.043,26.043,0,0,0,9.974-.278c.538-.123,1.1-.145,1.65-.214.179,3.046.184,3.06-2.572,3.9q-16.558,5.037-33.121,10.055c-.468.141-.95.236-1.564.387v-2.454c0-10.779.053-21.558-.051-32.336-.018-1.855.506-2.781,2.312-3.006a14.394,14.394,0,0,0,1.457-.331" transform="translate(-83.433 -53.395)" fill="#9a9898"/>
        <path id="Trazado_716726" data-name="Trazado 716726" d="M40.308,93.046c1.246,1.394,3.123,1.292,4.673,1.965V99C39.909,97.445,34.957,95.925,30,94.417c-6.991-2.127-13.977-4.268-20.985-6.339-.977-.289-1.332-.658-1.329-1.7q.058-17.2,0-34.394c0-1.332.409-1.543,1.536-1.048.708.311,1.46.52,2.193.774a46.366,46.366,0,0,0,4.12,17.657,3.865,3.865,0,0,1,.6,1.711c-.468-.175-.936-.346-1.4-.525-2.013-.774-2.637-.35-2.643,1.832-.009,3.343.04,6.686-.025,10.027a2.131,2.131,0,0,0,1.552,2.4c2.515.891,4.988,1.895,7.493,2.815,1.5.55,2.194.069,2.272-1.553.067-1.388.068-2.78.1-4.17l6.073,5.445c-.865-.06-1.6.133-1.722,1.135s.592,1.3,1.39,1.557c3.066,1,6.129,2.01,9.175,3.067a2.147,2.147,0,0,0,1.912-.057" transform="translate(-5.092 -33.57)" fill="#afafaf"/>
        <path id="Trazado_716727" data-name="Trazado 716727" d="M17.848,35.635c4.084-1.414,8.173-2.816,12.248-4.258a1.709,1.709,0,0,1,1.282.133q15.388,5.886,30.763,11.8a3.426,3.426,0,0,1,.62.442c-3.021.931-5.937,1.828-8.851,2.73a2.484,2.484,0,0,1-1.487.03q-17.256-5.26-34.51-10.526l-.065-.354" transform="translate(-11.82 -20.73)" fill="#afafaf"/>
        <path id="Trazado_716728" data-name="Trazado 716728" d="M95.182,11.207c2.925-1.021,5.8-2.017,8.661-3.031a1.588,1.588,0,0,1,1.129.059c11.524,4.013,23.051,8.015,34.8,12.1-1.535.9-3.136.981-4.508,1.619-4.433,2.063-8.559,1.582-13.069-.317-8.313-3.5-16.889-6.378-25.35-9.528-.552-.206-1.209-.243-1.667-.9" transform="translate(-63.038 -5.362)" fill="#afafaf"/>
        <path id="Trazado_716729" data-name="Trazado 716729" d="M105.866,34.991c-2.253.67-4.011,1.157-5.742,1.73a1.987,1.987,0,0,1-1.439-.122c-10.5-4.035-21-8.073-31.794-12.222,2.831-.986,5.083-2.2,8.186-.959,9.406,3.77,18.978,7.127,28.484,10.649.616.228,1.22.488,2.3.924" transform="translate(-44.301 -15.16)" fill="#ffd947"/>
        <path id="Trazado_716730" data-name="Trazado 716730" d="M174.917,79.7a3.191,3.191,0,0,1-.438-.116c-3.891-2.339-3.891-2.339-6.625,1.24-.193.253-.4.5-.862,1.08v-11.5c0-3.525,0-3.526,3.448-4.594,1.116-.345,2.249-.641,3.349-1.027.772-.271,1.141-.183,1.138.74-.02,4.674-.009,9.349-.009,14.172" transform="translate(-110.595 -42.822)" fill="#ffd947"/>
        <path id="Trazado_716731" data-name="Trazado 716731" d="M32.059,120.147c-.03,1.39-.031,2.781-.1,4.17-.078,1.622-.774,2.1-2.272,1.553-2.5-.92-4.978-1.924-7.493-2.815a2.13,2.13,0,0,1-1.552-2.4c.065-3.341.015-6.684.025-10.027.006-2.183.629-2.607,2.643-1.832.466.179.935.35,1.4.525,1.89.777,3.757,1.617,5.678,2.308a2.163,2.163,0,0,1,1.587,2.378c-.025,2.046.048,4.092.08,6.138m-2.667-1.362c0-4.749,0-4.749-4.188-6.431a7.876,7.876,0,0,1-.777-.309c-.959-.51-1.14-.049-1.127.822a53.1,53.1,0,0,1-.035,5.862,2.209,2.209,0,0,0,1.928,2.7c1.336.359,2.968,1.747,3.825,1.171,1.043-.7.182-2.668.375-3.817" transform="translate(-13.671 -71.818)" fill="#140d0a"/>
        <path id="Trazado_716732" data-name="Trazado 716732" d="M79.779,164.911a2.147,2.147,0,0,1-1.912.057c-3.046-1.057-6.108-2.069-9.175-3.067-.8-.26-1.517-.549-1.39-1.557s.857-1.2,1.722-1.135q4.865,1.672,9.73,3.341c1.219.416,1.8,1.088,1.025,2.361" transform="translate(-44.563 -105.435)" fill="#120b09"/>
        <path id="Trazado_716733" data-name="Trazado 716733" d="M78.612,144.724c-.246-.062-.575-.125-.89-.229-3.005-1-6.006-2.013-9.014-3-.91-.3-1.765-.665-1.384-1.84.362-1.117,1.295-.884,2.1-.621,3.168,1.037,6.32,2.126,9.486,3.173.789.261,1.286.712,1.151,1.574-.115.734-.683.952-1.445.948" transform="translate(-44.526 -91.933)" fill="#120b09"/>
        <path id="Trazado_716734" data-name="Trazado 716734" d="M90.185,126.353c-.179.951-.722,1.451-1.75,1.134q-2.469-.762-4.908-1.621c-.749-.263-1.3-.773-.978-1.647a1.258,1.258,0,0,1,1.755-.8L89.051,125a1.455,1.455,0,0,1,1.134,1.348" transform="translate(-54.609 -81.67)" fill="#150e0b"/>
        <path id="Trazado_716735" data-name="Trazado 716735" d="M34.488,125.44c-.193,1.148.669,3.115-.375,3.817-.857.576-2.489-.812-3.825-1.171a2.209,2.209,0,0,1-1.928-2.7,53.1,53.1,0,0,0,.035-5.862c-.013-.871.168-1.332,1.127-.822a7.878,7.878,0,0,0,.777.309c4.188,1.682,4.188,1.682,4.188,6.431" transform="translate(-18.768 -78.472)" fill="#ffa686"/>
      </g>
    </g>
    <circle id="Elipse_5274" data-name="Elipse 5274" cx="7" cy="7" r="7" transform="translate(584 3463)" fill="#ffa686"/>
    <circle id="Elipse_5275" data-name="Elipse 5275" cx="7" cy="7" r="7" transform="translate(793 3463)" fill="#adce32"/>
    <circle id="Elipse_5276" data-name="Elipse 5276" cx="7" cy="7" r="7" transform="translate(1005 3463)" fill="#ffd947"/>
    <text id="Primario" transform="translate(560 3497)" fill="#12263f" font-size="16" font-family="Roboto-Bold, Roboto" font-weight="700"><tspan x="0" y="0">Primario</tspan></text>
    <text id="Secundario" transform="translate(761 3497)" fill="#12263f" font-size="16" font-family="Roboto-Bold, Roboto" font-weight="700"><tspan x="0" y="0">Secundario</tspan></text>
    <text id="Terciario" transform="translate(977 3497)" fill="#12263f" font-size="16" font-family="Roboto-Bold, Roboto" font-weight="700"><tspan x="0" y="0">Terciario</tspan></text>
  </g>
</svg>
