<svg id="Grupo_1083992" data-name="Grupo 1083992" xmlns="http://www.w3.org/2000/svg" xmlns:xlink="http://www.w3.org/1999/xlink" width="161.729" height="158.982" viewBox="0 0 161.729 158.982">
  <defs>
    <clipPath id="clip-path">
      <rect id="Rectángulo_361648" data-name="Rectángulo 361648" width="161.729" height="158.982" fill="none"/>
    </clipPath>
  </defs>
  <g id="Grupo_1083991" data-name="Grupo 1083991" clip-path="url(#clip-path)">
    <path id="Trazado_716760" data-name="Trazado 716760" d="M189.526,247.1q12.119.027,24.239.052c9.54.009,19.08.047,28.62-.036a4.232,4.232,0,0,1,3.987,2.165c3.456,5.275,7.01,10.486,10.526,15.721v2.02a3.731,3.731,0,0,1-3.7,1.711c-1.789-.117-3.6.076-5.385-.059-1.4-.106-1.736.307-1.731,1.715q.088,22.473,0,44.947c-.006,1.507.336,1.959,1.886,1.9,3.539-.127,3.457-.036,3.58,3.494.054,1.536-.379,1.892-1.9,1.89q-49.343-.071-98.686-.036c-.393,0-.787-.019-1.179,0-.491.029-.707-.156-.693-.669.04-1.508-.407-3.263.229-4.441.459-.851,2.381-.179,3.646-.28a2.191,2.191,0,0,1,.5,0c.807.123,1.056-.2,1.033-1.016-.068-2.354-.054-4.71-.072-7.066.018-3.815.049-7.63.052-11.445.008-9.147-.026-18.294.035-27.441.008-1.281-.336-1.628-1.584-1.556-1.9.109-3.817,0-5.724.04-1.3.03-2.464-.142-3.165-1.418s-.215-2.339.513-3.423c3.278-4.883,6.563-9.762,9.764-14.695a4.111,4.111,0,0,1,3.882-2.062c10.44.052,20.881,0,31.322-.02m2.691,11.678v1.307q0,27.858-.03,55.716c0,1.257.432,1.423,1.532,1.42q22.648-.051,45.3.011c1.388.005,1.752-.312,1.746-1.727q-.086-22.555,0-45.111c.005-1.423-.373-1.728-1.753-1.721-12.573.058-25.146.005-37.719.066a4.055,4.055,0,0,1-3.863-2.1c-1.568-2.517-3.269-4.951-5.212-7.865m-5.39.021c-2.006,3-3.747,5.543-5.411,8.132a3.562,3.562,0,0,1-3.336,1.8c-5.554-.058-11.109.019-16.662-.054-1.256-.017-1.576.3-1.572,1.565q.071,22.713,0,45.427c0,1.27.325,1.571,1.575,1.562,7.91-.06,15.821-.073,23.732.008,1.457.015,1.709-.427,1.706-1.775q-.069-27.424-.031-54.849V258.8m62.3,4.519c-2.219-3.336-4.319-6.42-6.329-9.561a2.356,2.356,0,0,0-2.285-1.244c-14.8.042-29.606.027-44.409.036a1.776,1.776,0,0,0-1.345.229c2.071,3.109,4.157,6.147,6.131,9.257a2.489,2.489,0,0,0,2.419,1.308q22.036-.059,44.073-.026Zm-64.678-10.776c-8.511,0-16.689,0-24.868,0-.44,0-.888-.062-1.195.4-2.245,3.386-4.5,6.764-6.9,10.373,8.577,0,16.852,0,25.126.008a1.183,1.183,0,0,0,1.086-.617c2.183-3.3,4.38-6.6,6.755-10.166" transform="translate(-95.168 -163.646)" fill="#050606"/>
    <path id="Trazado_716761" data-name="Trazado 716761" d="M95.364,0a3.867,3.867,0,0,1,1.713,3.682q-.062,35.8-.029,71.592c0,2.769,0,2.769-2.691,2.906-2.7-.138-2.7-.138-2.7-2.949q0-34,.041-68c0-1.593-.473-1.881-1.945-1.878q-41.167.065-82.335,0c-1.548,0-2.048.256-2.046,1.953q.083,66.819,0,133.638c0,1.609.5,1.876,1.953,1.87,13.638-.053,27.277-.031,40.915-.031,2.793,0,2.793,0,2.992,2.708-.178,2.68-.178,2.68-2.975,2.68H3.8c-3.039,0-3.771-.724-3.771-3.736Q.028,74.061,0,3.689A3.859,3.859,0,0,1,1.712,0Z" transform="translate(0)" fill="#050605"/>
    <path id="Trazado_716762" data-name="Trazado 716762" d="M69.8,155.974l-8.027.01c-.2-2.708-.2-2.708-2.992-2.708-13.638,0-27.277-.022-40.915.031-1.456.006-1.955-.261-1.953-1.87q.077-66.819,0-133.638c0-1.7.5-1.956,2.045-1.953q41.168.074,82.335,0c1.472,0,1.949.285,1.945,1.878q-.089,34-.041,68c0,2.811,0,2.811,2.7,2.949v5.278c-10.441.018-20.882.072-31.322.021a4.111,4.111,0,0,0-3.882,2.062c-3.2,4.933-6.486,9.812-9.764,14.7-.728,1.084-1.215,2.146-.513,3.423s1.861,1.448,3.165,1.418c1.908-.044,3.822.069,5.724-.04,1.248-.072,1.593.276,1.584,1.556-.061,9.147-.027,18.294-.035,27.442,0,3.815-.034,7.63-.052,11.445M34.688,48.211c2.635,0,5.27.018,7.9-.006a2.672,2.672,0,0,0,3-3,59.864,59.864,0,0,0-.061-8.4c-.618-4.612.965-7.932,4.511-10.853,3.145-2.591,2.92-2.8.054-5.69-.753-.758-1.187-.892-1.973-.033-1.55,1.693-3.292,3.212-4.829,4.917a4.283,4.283,0,0,1-3.63,1.544c-4.2-.115-8.409-.054-12.613-.033-2,.01-3,.993-3.008,2.984q-.03,7.734,0,15.468c.006,2.1.983,3.075,3.075,3.091,2.523.019,5.046,0,7.569,0m.066,96.984c2.579,0,5.158.014,7.737,0,2.106-.014,3.09-.982,3.105-3.064a64.835,64.835,0,0,0-.058-8.4c-.561-4.519.92-7.82,4.432-10.717,3.3-2.72,3.064-2.937-.035-5.926-.737-.71-1.107-.566-1.725.074-1.828,1.9-3.743,3.709-5.563,5.612a2.732,2.732,0,0,1-2.2.888c-4.429-.038-8.858-.027-13.287-.013-2.118.007-3.1.968-3.111,3.052q-.025,7.734,0,15.468c.007,2.062,1.011,3.013,3.14,3.026,2.523.015,5.046,0,7.569,0M24.04,69.672c0,2.522-.006,5.044,0,7.566.008,2.339.927,3.293,3.209,3.3q7.568.017,15.137,0c2.28,0,3.2-.962,3.212-3.3a60.814,60.814,0,0,0-.061-8.062c-.6-4.587.9-7.938,4.478-10.866,3.213-2.632,2.976-2.851-.008-5.807-.767-.76-1.161-.684-1.849.041-1.814,1.909-3.73,3.721-5.558,5.617a2.56,2.56,0,0,1-2.054.845c-4.372-.043-8.746-.024-13.119-.018-2.514,0-3.382.893-3.387,3.455q-.007,3.615,0,7.229m0,32.339c0,2.522-.007,5.044,0,7.566.008,2.335.928,3.283,3.219,3.287q7.568.016,15.137,0c2.22,0,3.187-.955,3.2-3.14a61.064,61.064,0,0,0-.06-8.23c-.6-4.592.918-7.936,4.487-10.863C53.231,88,52.993,87.785,50,84.822c-.78-.772-1.172-.653-1.849.057-1.817,1.906-3.732,3.719-5.558,5.617a2.559,2.559,0,0,1-2.058.836c-4.316-.042-8.634-.021-12.951-.018-2.685,0-3.54.838-3.545,3.467q-.007,3.615,0,7.229M75.317,72.457H60.161c-3.808,0-3.751,0-3.813,3.843-.02,1.251.294,1.583,1.565,1.577,10.778-.055,21.555-.031,32.333-.031,3.905,0,3.856,0,3.895-3.927.011-1.173-.286-1.5-1.479-1.49-5.781.065-11.563.029-17.345.029m.04-32.328H60.033c-3.659,0-3.562,0-3.7,3.633-.059,1.575.478,1.793,1.875,1.786,10.665-.057,21.331-.031,32-.031,3.982,0,3.93,0,3.936-4.056,0-1.166-.4-1.361-1.441-1.353-5.782.044-11.563.021-17.345.021m5.281,26.94h9.6c3.914,0,3.839,0,3.916-3.915.027-1.386-.5-1.5-1.646-1.5-7.128.045-14.257.023-21.385.023-4.02,0-3.981,0-3.985,4,0,1.07.246,1.435,1.379,1.415,4.04-.07,8.082-.027,12.123-.027m.121-37.716H70.993c-3.88,0-3.825,0-3.865,3.959-.012,1.22.371,1.463,1.513,1.455,7.128-.052,14.257-.026,21.385-.026,4.234,0,4.2,0,4.112-4.213-.02-.99-.335-1.2-1.256-1.194-4.041.044-8.082.019-12.124.019M60.5,137.112c-4.249,0-4.218,0-4.145,4.172.017.93.228,1.277,1.211,1.238,1.848-.075,3.706-.094,5.552,0,1.151.062,1.371-.365,1.37-1.422,0-3.993.033-3.993-3.988-3.993m-1.343-43.1c-2.778,0-2.778,0-2.778,2.653,0,2.735,0,2.735,2.7,2.735s2.694,0,2.694-2.737c0-2.651,0-2.651-2.612-2.651m2.612-29.537c0-2.789,0-2.789-1.967-2.79-3.422,0-3.422,0-3.422,2.009,0,3.378,0,3.378,2.051,3.379,3.338,0,3.338,0,3.338-2.6M59.189,29.352c-2.808,0-2.808,0-2.807,2.792,0,2.6,0,2.6,2.667,2.6,2.723,0,2.723,0,2.723-2.708,0-2.68,0-2.68-2.582-2.68m2.582,99.768c0-2.784,0-2.784-2.647-2.784-2.743,0-2.743,0-2.744,2.688s0,2.7,2.731,2.7c2.659,0,2.659,0,2.659-2.6" transform="translate(-10.538 -10.495)" fill="#afafaf"/>
    <path id="Trazado_716763" data-name="Trazado 716763" d="M330.213,31.627c1.732.006,3.935-.628,5.058.2,1.066.788.311,3.136.316,4.794q.047,15.572-.017,31.144c-.007,1.255.28,1.628,1.551,1.552,2.014-.12,4.04-.04,6.061-.03,2.246.011,3.184.924,3.2,3.126.014,2.413-.036,4.827.02,7.239a3.317,3.317,0,0,1-1.257,2.781q-9.151,7.815-18.292,15.64a2.688,2.688,0,0,1-4.058-.005q-9.16-7.805-18.293-15.641a3.307,3.307,0,0,1-1.256-2.779c.058-2.412.007-4.826.02-7.239.012-2.2.946-3.112,3.2-3.123,2.021-.01,4.047-.09,6.061.03,1.271.075,1.557-.3,1.551-1.552-.054-11.448,0-22.9-.071-34.343-.009-1.53.37-2.062,1.9-1.877a34.014,34.014,0,0,0,3.529.08q0,19.86,0,39.719c0,2.417-.921,3.319-3.36,3.328-2.076.007-4.153-.011-6.229.013-.4,0-.9-.216-1.159.366A5.792,5.792,0,0,0,309.7,79.66c4.726,4.054,9.473,8.082,14.164,12.176.761.664,1.169.665,1.926.005,4.354-3.8,8.7-7.609,13.186-11.249a4.84,4.84,0,0,0,2.059-4.705c-.1-.911-.256-1.268-1.234-1.233-2.018.071-4.04.024-6.06.021-2.67,0-3.526-.849-3.526-3.5q0-19.775,0-39.551" transform="translate(-200.823 -20.795)" fill="#070807"/>
    <path id="Trazado_716764" data-name="Trazado 716764" d="M340.577,32.07q0,19.775,0,39.551c0,2.648.856,3.492,3.526,3.5,2.02,0,4.043.051,6.06-.021.978-.034,1.134.323,1.234,1.233a4.84,4.84,0,0,1-2.059,4.705c-4.485,3.64-8.832,7.451-13.186,11.249-.756.66-1.165.659-1.926-.005-4.691-4.094-9.438-8.123-14.164-12.176a5.792,5.792,0,0,1-1.018-4.607c.26-.582.76-.362,1.16-.366,2.076-.024,4.153-.006,6.229-.013,2.439-.009,3.359-.911,3.36-3.328q.007-19.86,0-39.719h10.781" transform="translate(-211.188 -21.238)" fill="#adce32"/>
    <path id="Trazado_716765" data-name="Trazado 716765" d="M287.281,281.682c1.942,2.915,3.643,5.349,5.211,7.865a4.056,4.056,0,0,0,3.863,2.1c12.573-.061,25.146-.008,37.719-.066,1.38-.006,1.758.3,1.752,1.722q-.087,22.555,0,45.111c.005,1.415-.359,1.732-1.747,1.727q-22.648-.082-45.3-.011c-1.1,0-1.535-.163-1.532-1.42q.066-27.858.03-55.716Zm32.34,50.343c0-2.7,0-2.7-2.69-2.7s-2.7,0-2.7,2.689,0,2.7,2.69,2.7,2.7,0,2.7-2.689m5.39-.159c0,2.848,0,2.848,2.875,2.848,2.515,0,2.515,0,2.515-2.54,0-2.848,0-2.848-2.876-2.848-2.515,0-2.515,0-2.515,2.54" transform="translate(-190.233 -186.544)" fill="#fbac00"/>
    <path id="Trazado_716766" data-name="Trazado 716766" d="M218.478,281.743v1.814q0,27.424.031,54.849c0,1.348-.249,1.79-1.706,1.775-7.91-.081-15.821-.069-23.732-.008-1.25.01-1.579-.292-1.575-1.561q.072-22.713,0-45.427c0-1.265.316-1.582,1.572-1.565,5.553.073,11.109,0,16.662.054a3.563,3.563,0,0,0,3.336-1.8c1.664-2.589,3.406-5.129,5.411-8.132" transform="translate(-126.819 -186.585)" fill="#ffd947"/>
    <path id="Trazado_716767" data-name="Trazado 716767" d="M349.224,273.94H347.48q-22.036,0-44.073.026a2.489,2.489,0,0,1-2.419-1.308c-1.974-3.109-4.06-6.148-6.132-9.257a1.777,1.777,0,0,1,1.346-.229c14.8-.01,29.606.005,44.409-.036a2.356,2.356,0,0,1,2.285,1.244c2.01,3.141,4.109,6.224,6.329,9.561" transform="translate(-195.269 -174.262)" fill="#c7a72a"/>
    <path id="Trazado_716768" data-name="Trazado 716768" d="M199.691,263.216c-2.375,3.57-4.572,6.863-6.755,10.166a1.182,1.182,0,0,1-1.086.617c-8.274-.011-16.549-.008-25.126-.008,2.4-3.609,4.66-6.987,6.9-10.373.307-.463.755-.4,1.195-.4,8.178,0,16.356,0,24.868,0" transform="translate(-110.413 -174.314)" fill="#c7a72a"/>
    <path id="Trazado_716769" data-name="Trazado 716769" d="M50.612,55.657c-2.523,0-5.046.015-7.569,0-2.092-.016-3.069-.992-3.075-3.091q-.022-7.734,0-15.468c.007-1.991,1-2.974,3.008-2.984,4.2-.02,8.412-.082,12.613.033a4.282,4.282,0,0,0,3.63-1.544c1.537-1.7,3.279-3.223,4.829-4.917.786-.859,1.22-.725,1.973.033,2.866,2.887,3.091,3.1-.054,5.69-3.546,2.921-5.129,6.241-4.511,10.853a59.862,59.862,0,0,1,.061,8.4,2.672,2.672,0,0,1-3,3c-2.635.024-5.27.006-7.9.006m1.58-16.163c-2.186,0-4.076.034-5.965-.016-.82-.022-.885.384-.881,1.027q.03,4.377,0,8.754c0,.646.067,1.036.884,1.025,3.031-.041,6.062-.024,9.094-.01.538,0,.826-.125.818-.742-.026-1.938-.009-3.876-.009-5.814l-.39-.234c-.812.9-1.63,1.788-2.434,2.692-.4.446-.692.528-1.239.089-3.512-2.818-3.536-2.931-.44-6.112.117-.12.219-.255.562-.658" transform="translate(-26.461 -17.941)" fill="#060708"/>
    <path id="Trazado_716770" data-name="Trazado 716770" d="M50.678,342.774c-2.523,0-5.046.011-7.569,0-2.128-.013-3.132-.964-3.14-3.026q-.027-7.734,0-15.468c.007-2.084.993-3.044,3.111-3.052,4.429-.014,8.858-.025,13.287.013a2.733,2.733,0,0,0,2.2-.888c1.82-1.9,3.735-3.716,5.563-5.612.617-.64.988-.785,1.725-.074,3.1,2.989,3.331,3.207.035,5.926-3.511,2.9-4.993,6.2-4.432,10.717a64.84,64.84,0,0,1,.058,8.4c-.015,2.082-1,3.05-3.105,3.064-2.579.018-5.158,0-7.737,0m1.5-16.164c-2.127,0-3.965.037-5.8-.017-.818-.024-1.048.251-1.036,1.049.041,2.917.031,5.836.005,8.753-.006.671.113,1.015.906,1,2.975-.04,5.95-.034,8.925,0,.711.007.993-.18.974-.939-.047-1.877-.016-3.757-.016-5.635a11.891,11.891,0,0,0-2.839,2.483c-.416.463-.712.488-1.239.058-3.525-2.873-3.539-2.878-.413-6.112.115-.119.212-.255.533-.643" transform="translate(-26.461 -208.073)" fill="#060708"/>
    <path id="Trazado_716771" data-name="Trazado 716771" d="M39.973,140.493q0-3.615,0-7.23c0-2.562.873-3.452,3.387-3.455,4.373-.006,8.746-.025,13.119.018a2.561,2.561,0,0,0,2.054-.846c1.829-1.9,3.744-3.708,5.558-5.617.688-.724,1.081-.8,1.849-.041,2.984,2.956,3.221,3.175.008,5.807-3.574,2.928-5.08,6.28-4.478,10.867a60.808,60.808,0,0,1,.061,8.062c-.008,2.335-.932,3.293-3.212,3.3q-7.568.016-15.137,0c-2.282-.005-3.2-.96-3.209-3.3-.008-2.522,0-5.044,0-7.566M52.441,135.2c-2.464,0-4.405.016-6.346-.009-.622-.008-.737.292-.735.824.013,3.03.02,6.061,0,9.09-.005.642.193.884.858.878,3.031-.026,6.063-.01,9.094-.013.386,0,.827.056.828-.539,0-2.019,0-4.037,0-6.305-1.29,1.226-2.219,2.838-3.34,2.986-1.313.173-2.077-1.748-3.185-2.64-.044-.035-.076-.085-.12-.118-.6-.441-.566-.856-.02-1.346.9-.805,1.756-1.655,2.971-2.809" transform="translate(-26.471 -81.315)" fill="#060708"/>
    <path id="Trazado_716772" data-name="Trazado 716772" d="M39.973,236.219q0-3.615,0-7.229c.005-2.629.86-3.465,3.545-3.467,4.317,0,8.634-.023,12.951.018a2.56,2.56,0,0,0,2.058-.836c1.827-1.9,3.741-3.711,5.558-5.617.677-.71,1.069-.829,1.849-.057,2.992,2.963,3.23,3.179.023,5.808-3.569,2.927-5.088,6.271-4.487,10.863a61.122,61.122,0,0,1,.061,8.23c-.013,2.185-.979,3.135-3.2,3.14q-7.568.016-15.137,0c-2.291,0-3.211-.953-3.219-3.287-.009-2.522,0-5.044,0-7.566m12.45-5.307c-2.4,0-4.285.034-6.17-.016-.8-.021-.905.346-.9,1.01.024,2.918.036,5.836-.006,8.753-.011.806.233,1.055,1.042,1.044,2.918-.043,5.838-.03,8.756-.007.662.005,1.034-.095,1.013-.9-.05-1.884-.016-3.771-.016-5.944-1.259,1.186-2.207,2.809-3.359,2.97-1.293.181-2.074-1.751-3.181-2.647-.044-.035-.076-.085-.12-.118-.611-.447-.541-.863-.006-1.346.874-.789,1.71-1.621,2.948-2.8" transform="translate(-26.47 -144.703)" fill="#060708"/>
    <path id="Trazado_716773" data-name="Trazado 716773" d="M154.6,183.4c5.782,0,11.564.035,17.345-.029,1.193-.014,1.49.317,1.479,1.49-.038,3.927.011,3.927-3.895,3.927-10.778,0-21.555-.024-32.333.032-1.272.006-1.586-.326-1.566-1.577.062-3.842.005-3.843,3.813-3.843H154.6" transform="translate(-89.823 -121.436)" fill="#050605"/>
    <path id="Trazado_716774" data-name="Trazado 716774" d="M154.611,87.7c5.782,0,11.564.023,17.345-.021,1.038-.008,1.444.187,1.441,1.353-.006,4.056.045,4.056-3.936,4.056-10.665,0-21.331-.026-32,.031-1.4.007-1.934-.211-1.875-1.786.135-3.629.038-3.633,3.7-3.633h15.325" transform="translate(-89.792 -58.065)" fill="#050605"/>
    <path id="Trazado_716775" data-name="Trazado 716775" d="M181.076,156.894c-4.041,0-8.083-.043-12.123.027-1.133.02-1.38-.345-1.379-1.415,0-4-.034-4,3.985-4,7.128,0,14.257.022,21.385-.023,1.141-.007,1.674.11,1.646,1.5-.077,3.914,0,3.915-3.916,3.915h-9.6" transform="translate(-110.976 -100.32)" fill="#050605"/>
    <path id="Trazado_716776" data-name="Trazado 716776" d="M181.184,55.8c4.041,0,8.083.025,12.124-.019.92-.01,1.236.2,1.256,1.194.085,4.213.122,4.213-4.112,4.213-7.129,0-14.257-.026-21.385.026-1.142.008-1.526-.235-1.513-1.455.04-3.959-.015-3.959,3.864-3.959h9.767" transform="translate(-110.962 -36.939)" fill="#050605"/>
    <path id="Trazado_716777" data-name="Trazado 716777" d="M139.774,374.888c4.022,0,3.985,0,3.988,3.993,0,1.056-.219,1.484-1.37,1.422-1.846-.1-3.7-.08-5.552-.005-.983.04-1.195-.307-1.211-1.237-.073-4.173-.1-4.172,4.145-4.172" transform="translate(-89.809 -248.27)" fill="#050605"/>
    <path id="Trazado_716778" data-name="Trazado 716778" d="M138.511,247.267c2.612,0,2.612,0,2.612,2.651,0,2.737,0,2.737-2.694,2.737s-2.7,0-2.7-2.735c0-2.653,0-2.653,2.778-2.653" transform="translate(-89.889 -163.753)" fill="#050605"/>
    <path id="Trazado_716779" data-name="Trazado 716779" d="M141.123,154.34c0,2.6,0,2.6-3.338,2.6-2.053,0-2.053,0-2.051-3.379,0-2.011,0-2.011,3.422-2.009,1.967,0,1.967,0,1.967,2.79" transform="translate(-89.889 -100.364)" fill="#050605"/>
    <path id="Trazado_716780" data-name="Trazado 716780" d="M138.54,55.835c2.582,0,2.582,0,2.582,2.68,0,2.708,0,2.708-2.723,2.708-2.667,0-2.667,0-2.667-2.6,0-2.792,0-2.792,2.807-2.792" transform="translate(-89.889 -36.977)" fill="#050605"/>
    <path id="Trazado_716781" data-name="Trazado 716781" d="M141.122,345.766c0,2.6,0,2.6-2.659,2.6-2.731,0-2.731,0-2.731-2.7s0-2.688,2.744-2.688c2.647,0,2.647,0,2.647,2.784" transform="translate(-89.889 -227.141)" fill="#050605"/>
    <path id="Trazado_716782" data-name="Trazado 716782" d="M372.525,425.445c0,2.689,0,2.689-2.7,2.689s-2.69,0-2.69-2.7,0-2.689,2.7-2.689,2.69,0,2.69,2.7" transform="translate(-243.136 -279.964)" fill="#050605"/>
    <path id="Trazado_716783" data-name="Trazado 716783" d="M399.052,425.286c0-2.54,0-2.54,2.515-2.54,2.876,0,2.876,0,2.876,2.848,0,2.54,0,2.54-2.515,2.54-2.875,0-2.875,0-2.875-2.848" transform="translate(-264.273 -279.964)" fill="#050605"/>
    <path id="Trazado_716784" data-name="Trazado 716784" d="M62.759,63.781c-.343.4-.445.538-.562.658-3.1,3.182-3.072,3.294.44,6.112.547.439.842.357,1.239-.089.8-.9,1.622-1.8,2.434-2.692L66.7,68c0,1.938-.016,3.876.009,5.814.008.617-.28.744-.818.742-3.031-.014-6.063-.03-9.094.01-.816.011-.888-.379-.884-1.025q.031-4.377,0-8.754c0-.643.061-1.049.881-1.027,1.888.05,3.779.016,5.965.016" transform="translate(-37.029 -42.228)" fill="#ffa686"/>
    <path id="Trazado_716785" data-name="Trazado 716785" d="M62.729,350.925c-.32.388-.417.525-.533.643-3.127,3.234-3.113,3.239.413,6.112.527.43.823.4,1.239-.058a11.891,11.891,0,0,1,2.839-2.483c0,1.878-.032,3.758.016,5.635.019.759-.262.946-.974.939-2.975-.031-5.951-.037-8.925,0-.792.01-.912-.333-.906-1,.025-2.918.036-5.836-.005-8.753-.011-.8.219-1.074,1.036-1.049,1.836.054,3.674.017,5.8.017" transform="translate(-37.014 -232.389)" fill="#ffa686"/>
    <path id="Trazado_716786" data-name="Trazado 716786" d="M63,159.517c-1.215,1.154-2.073,2-2.971,2.809-.546.49-.58.9.02,1.346.045.033.077.082.12.118,1.108.892,1.872,2.812,3.185,2.639,1.122-.148,2.05-1.759,3.34-2.986,0,2.268,0,4.286,0,6.305,0,.6-.442.539-.828.539-3.031,0-6.063-.013-9.094.013-.665.006-.863-.236-.858-.878.024-3.03.018-6.06,0-9.09,0-.532.113-.832.735-.824,1.941.025,3.882.009,6.346.009" transform="translate(-37.027 -105.634)" fill="#ffa686"/>
    <path id="Trazado_716787" data-name="Trazado 716787" d="M62.966,255.213c-1.238,1.183-2.073,2.015-2.948,2.8-.534.483-.6.9.006,1.346.045.033.077.082.12.117,1.106.9,1.888,2.828,3.181,2.647,1.153-.161,2.1-1.784,3.359-2.97,0,2.173-.034,4.06.016,5.944.021.8-.351.9-1.013.9-2.919-.023-5.838-.036-8.756.007-.809.012-1.053-.238-1.042-1.044.043-2.917.03-5.836.006-8.753-.005-.664.1-1.031.9-1.01,1.885.05,3.772.016,6.17.016" transform="translate(-37.013 -169.004)" fill="#ffa686"/>
  </g>
</svg>
