<svg height="77.005" viewBox="0 0 85 77.005" width="85" xmlns="http://www.w3.org/2000/svg" xmlns:xlink="http://www.w3.org/1999/xlink"><clipPath id="a"><path d="m0 0h85v77.005h-85z"/></clipPath><g clip-path="url(#a)"><path d="m0 76.216v-38.185a1.738 1.738 0 0 1 1.7-.79c1.653.044 3.309-.017 4.961.03.626.018.808-.117.806-.782q-.04-12.8 0-25.593c0-.819-.212-1.03-1-.98-1.078.068-1.5-.4-1.5-1.47 0-2.275.024-4.55-.016-6.825a1.712 1.712 0 0 1 .791-1.621h43.139a1.757 1.757 0 0 1 .79 1.7c-.04 2.121-.014 4.242-.014 6.363 0 1.573-.279 1.886-1.823 1.855-.546-.011-.68.131-.674.676q.045 4.268 0 8.536c-.008.61.154.753.756.752q11.284-.031 22.574-.012c1.086 0 1.508.414 1.511 1.48v4.035c0 5.381.011 10.761-.015 16.142 0 .59.148.744.721.709.85-.053 1.706-.014 2.559-.014 1.348 0 1.7.348 1.7 1.68q0 15.676 0 31.352c0 1.4-.336 1.738-1.722 1.738q-36.773 0-73.546.013a1.782 1.782 0 0 1 -1.698-.789m44.681-73.716c-3.538 0-7.076 0-10.613-.024-.46 0-.563.176-.557.593q.03 1.9 0 3.8c-.007.417.1.6.557.593 3.537-.022 7.075-.022 10.613-.029.645.007 1.289 0 1.934.025.374.013.571-.086.565-.514q-.027-1.973 0-3.948c.006-.427-.192-.526-.565-.513-.644.022-1.289.018-1.934.025m22.347 39.692c.644.008 1.289-.006 1.932.032.435.026.581-.113.569-.559-.029-1.108.012-2.218-.017-3.326-.02-.762.346-1.834-.159-2.2-.522-.381-1.53-.1-2.326-.1q-1.739-.012-3.479-.025c-1.018-.009-1.471-.446-1.476-1.443q-.011-2.282 0-4.565c0-1 .453-1.433 1.476-1.441q1.739-.015 3.479-.025c.644.008 1.289-.006 1.932.032.435.026.581-.113.569-.559-.029-1.108.012-2.218-.017-3.326-.02-.762.346-1.834-.159-2.2-.522-.381-1.53-.1-2.326-.1-6.359-.008-12.718 0-19.077-.041-.654 0-.8.166-.793.8.029 5.043.018 10.085.014 15.128 0 1.015-.449 1.464-1.457 1.469-1.4.007-2.792 0-4.188 0-1.812 0-1.785 0-1.818 1.778-.01.579.136.722.718.72 7.187-.022 14.374-.013 21.56-.016 1.68 0 3.36-.015 5.039-.023m-24.824-4.979a15.487 15.487 0 0 1 1.623.034c.728.087.888-.2.885-.9-.024-8.027-.01-16.054-.023-24.081 0-.762.348-1.788-.161-2.22-.527-.447-1.53-.123-2.325-.112-3.543-.008-7.085-.007-10.628-.033-.472 0-.542.185-.541.592q.014 13.077 0 26.154c0 .408.07.6.541.592 3.542-.026 7.085-.025 10.628-.033m29.794 7.5c-3.076-.008-6.153 0-9.229-.039-.619-.009-.709.207-.7.751.027 2.56.014 5.121.011 7.681 0 1.079-.426 1.514-1.487 1.516q-3.452.007-6.9 0c-1.123 0-1.538-.417-1.539-1.54 0-2.586-.014-5.173.01-7.759 0-.511-.145-.648-.649-.645q-5.546.03-11.092 0c-.53 0-.7.119-.7.677q.026 14.238 0 28.476c0 .562.174.677.7.674q5.507-.033 11.014 0c.582 0 .735-.148.727-.729-.033-2.586-.018-5.173-.012-7.759 0-1.022.439-1.457 1.462-1.459q3.49-.008 6.981 0c1.061 0 1.484.435 1.486 1.516q.005 3.88 0 7.759c0 .387-.028.677.54.671 3.128-.035 6.256-.028 9.384-.036a15.494 15.494 0 0 1 1.623.034c.729.088.887-.2.885-.9-.023-8.854-.011-17.709-.023-26.563 0-.762.348-1.789-.161-2.221-.526-.447-1.53-.123-2.325-.112m-37.248 29.768a15.7 15.7 0 0 1 1.625.035c.715.085.884-.176.883-.879-.024-10.52-.013-21.04-.024-31.561 0-.763.344-1.807-.156-2.219-.521-.43-1.532-.121-2.329-.1-3.077-.008-6.153 0-9.229-.04-.6-.008-.711.173-.706.732.027 3.388.015 6.777.012 10.165 0 1.11-.43 1.535-1.547 1.536q-3.374 0-6.749 0c-1.231 0-1.633-.4-1.634-1.6 0-3.337-.027-6.674.02-10.01.01-.721-.215-.825-.859-.819q-5.391.046-10.782 0c-.624-.005-.813.118-.811.785q.036 16.606 0 33.212c0 .633.132.808.79.806 8.119-.026 16.239-.015 24.358-.018 2.378 0 4.757-.015 7.135-.023m-11.161-50.812c0-4.344-.012-8.688.014-13.032 0-.59-.161-.725-.733-.722q-6.126.038-12.252 0c-.529 0-.7.117-.7.676q.027 12.993 0 25.986c0 .552.156.685.692.682 4.084-.022 8.168-.029 12.252.005.663.006.737-.24.734-.8-.019-4.266-.011-8.533-.011-12.8m2.483-.159v12.023c0 1.725 0 1.69 1.7 1.738.656.019.8-.169.794-.805q-.035-12.367-.016-24.734c0-1.81 0-1.782-1.782-1.815-.591-.011-.718.156-.714.727.026 4.29.014 8.58.014 12.871m-11.782-16.065c2.067 0 4.133-.01 6.2.008.449 0 .647-.1.635-.6q-.048-1.9 0-3.8c.013-.509-.2-.589-.642-.588q-6.2.018-12.4 0c-.535 0-.645.2-.634.677.028 1.162.044 2.327 0 3.488-.026.629.134.845.8.83 2.014-.045 4.03-.016 6.044-.016m8.066 37.2c0-1.42-.017-2.84.01-4.26.009-.472-.072-.681-.617-.662-1.263.044-2.529.029-3.794.005-.417-.008-.579.083-.575.543q.031 4.415 0 8.83c0 .51.174.589.62.58 1.238-.027 2.479-.043 3.716.005.58.023.666-.2.654-.7-.033-1.445-.011-2.891-.011-4.337m32.277 3.785c0 1.084.014 2.168-.008 3.252-.007.369.1.487.478.482q2.012-.03 4.025 0c.373.005.481-.112.478-.481q-.023-3.252 0-6.5c0-.368-.1-.487-.478-.482q-2.012.03-4.025 0c-.373-.005-.486.111-.478.481.021 1.084.008 2.168.008 3.252m-27.317-40.992c1.084 0 2.167-.014 3.251.008.37.007.486-.106.481-.479q-.03-2.013 0-4.026c.006-.374-.113-.48-.481-.478q-3.251.023-6.5 0c-.369 0-.486.106-.481.478q.03 2.013 0 4.026c-.006.374.113.485.482.478 1.083-.021 2.167-.008 3.251-.008m32.273 63.414c0-1.11-.013-2.22.007-3.329.007-.366-.1-.49-.475-.484q-2.012.03-4.025 0c-.369-.005-.483.106-.481.478q.023 3.252 0 6.5c0 .365.1.49.475.484q2.012-.03 4.025 0c.369.005.489-.105.481-.478-.022-1.058-.008-2.116-.008-3.174m7.483-39.816h-.618c-1.982 0-1.982 0-1.9 1.981a.428.428 0 0 1 0 .077c-.051.347.114.437.441.431.875-.018 1.751-.006 2.627-.006 1.981 0 1.981 0 1.9-1.981a.414.414 0 0 1 0-.077c.051-.347-.114-.44-.441-.431-.669.02-1.339.006-2.009.006" fill="#050605"/><path d="m48.131 290.018c-2.378.008-4.757.022-7.135.023-8.119 0-16.239-.008-24.358.018-.658 0-.791-.173-.79-.806q.032-16.606 0-33.212c0-.667.187-.791.811-.785q5.391.047 10.782 0c.643-.005.869.1.859.819-.047 3.336-.022 6.673-.021 10.01 0 1.209.4 1.6 1.634 1.6q3.375 0 6.749 0c1.117 0 1.546-.426 1.547-1.536 0-3.388.014-6.777-.012-10.165 0-.559.1-.74.706-.732 3.076.043 6.153.032 9.229.04q0 17.361 0 34.723m-14.8-4.943h-8.297c-1.727 0-1.694 0-1.74 1.7-.018.642.145.8.8.8 5.761-.028 11.522-.017 17.283-.017 1.826 0 1.807 0 1.814-1.854 0-.5-.124-.646-.636-.641-3.074.025-6.149.012-9.223.012m-7.534-10.713v6.418c0 1.836 0 1.808 1.846 1.829.585.007.655-.207.65-.709-.026-2.224-.015-4.449-.005-6.673 0-.214-.1-.458.1-.655.067.053.127.1.185.146.469.392.821 1.22 1.348 1.151.494-.065.888-.8 1.352-1.206.319-.281.354-.467.018-.79-1.082-1.038-2.121-2.121-3.19-3.173a1.3 1.3 0 0 0 -2.139.026c-.737.725-1.463 1.463-2.195 2.194-1.39 1.389-1.382 1.381.063 2.757.284.271.46.333.733.007.34-.406.723-.776 1.239-1.321m12.414.123v6.244c0 1.894 0 1.871 1.872 1.879.534 0 .627-.176.622-.657-.023-2.276-.014-4.552 0-6.829 0-.178-.123-.408.1-.539.5.461.972 1.238 1.494 1.276.543.039.953-.833 1.453-1.274.019-.017.034-.04.054-.056.266-.2.18-.367-.017-.562-1.158-1.146-2.293-2.315-3.47-3.441a1.164 1.164 0 0 0 -1.739.006c-1.173 1.129-2.309 2.3-3.467 3.443-.208.205-.205.332-.007.566 1.352 1.6 1.345 1.606 2.812.186.054-.053.117-.1.293-.243" fill="#e8e8e8" transform="translate(-13.38 -215.534)"/><path d="m287.477 316.973c-3.128.008-6.256 0-9.384.036-.568.006-.541-.283-.54-.671q.01-3.88 0-7.759c0-1.081-.424-1.514-1.486-1.516q-3.49-.007-6.981 0c-1.023 0-1.46.438-1.462 1.459-.005 2.586-.02 5.173.012 7.759.007.58-.145.733-.727.729q-5.507-.042-11.014 0c-.526 0-.7-.113-.7-.674q.027-14.238 0-28.476c0-.558.167-.68.7-.677q5.546.034 11.092 0c.5 0 .654.134.649.645-.025 2.586-.013 5.173-.01 7.759 0 1.123.416 1.539 1.539 1.54q3.452 0 6.9 0c1.06 0 1.485-.437 1.487-1.516 0-2.56.016-5.121-.011-7.681-.006-.545.085-.76.7-.752 3.076.043 6.152.031 9.229.039v29.757" fill="#636363" transform="translate(-215.485 -242.487)"/><path d="m77.407 77.508c0 4.266-.009 8.533.011 12.8 0 .559-.072.8-.734.8-4.084-.035-8.168-.027-12.252-.005-.536 0-.693-.129-.692-.682q.027-12.993 0-25.986c0-.559.169-.679.7-.676q6.126.032 12.252 0c.572 0 .737.132.733.722-.027 4.344-.014 8.688-.014 13.032" fill="#636363" transform="translate(-53.82 -53.833)"/><path d="m210.562 91.085c-3.543.008-7.085.007-10.628.033-.472 0-.542-.185-.541-.592q.014-13.077 0-26.154c0-.408.07-.6.541-.592 3.542.026 7.085.025 10.628.033q0 1.235.009 2.469-2.163 0-4.326-.009c-1.956 0-1.94 0-1.892 1.937.011.45.154.559.579.554 1.88-.022 3.76-.014 5.639-.017v2.5q-2.163 0-4.326-.008c-1.956 0-1.94 0-1.892 1.937.011.45.154.559.579.554 1.88-.022 3.76-.014 5.639-.017q0 8.685-.009 17.371" fill="#636363" transform="translate(-168.364 -53.854)"/><path d="m282.5 149.735q-1.739.012-3.479.025c-1.022.009-1.471.441-1.476 1.441q-.011 2.282 0 4.565c0 1 .458 1.434 1.476 1.443q1.74.015 3.479.025v6.166c-1.68.008-3.36.022-5.039.023-7.187 0-14.374-.007-21.56.016-.583 0-.729-.141-.718-.72.032-1.777.005-1.778 1.818-1.778h4.188c1.007 0 1.456-.454 1.457-1.469 0-5.043.014-10.085-.014-15.128 0-.637.139-.807.793-.8 6.359.036 12.718.033 19.077.041v6.161m-12.327-3.7c-1.189 0-2.377 0-3.566 0-1.024 0-1.471.44-1.477 1.445-.007 1.189-.018 2.378 0 3.567a4.26 4.26 0 0 0 2.328 4.085c1.357.615 1.484 1.46 1.415 2.67-.032.557-.181.668-.7.662-1.828-.019-1.809 0-1.816 1.84 0 .5.117.652.634.644q3.1-.046 6.2 0c.507.007.642-.132.64-.639-.007-1.844.013-1.864-1.811-1.845-.514.005-.76-.082-.695-.659a7.032 7.032 0 0 0 0-1.394c-.038-.432.117-.614.525-.774a4.7 4.7 0 0 0 3.115-3.744 28.781 28.781 0 0 0 .087-4.488 1.225 1.225 0 0 0 -1.393-1.37c-1.163-.01-2.326 0-3.488 0" fill="#fbc576" transform="translate(-215.467 -121.198)"/><path d="m223.313 289.544v-34.723c.8-.022 1.807-.331 2.329.1.5.412.155 1.455.156 2.219.011 10.52 0 21.04.024 31.561 0 .7-.168.965-.883.879a15.7 15.7 0 0 0 -1.625-.035" fill="#636363" transform="translate(-188.562 -215.059)"/><path d="m462.625 316.515v-29.757c.8-.011 1.8-.335 2.325.112.508.432.16 1.458.161 2.221.012 8.854 0 17.709.023 26.563 0 .694-.156.983-.885.9a15.525 15.525 0 0 0 -1.623-.034" fill="#805833" transform="translate(-390.633 -242.029)"/><path d="m271.166 90.59q0-8.685.009-17.371v-7.433q0-1.235-.009-2.469c.8-.011 1.8-.335 2.325.112.509.432.16 1.458.161 2.22.013 8.027 0 16.054.023 24.081 0 .695-.157.982-.886.895a15.569 15.569 0 0 0 -1.623-.034" fill="#afafaf" transform="translate(-228.968 -53.359)"/><path d="m167.451 77.331c0-4.29.012-8.581-.014-12.871 0-.571.124-.737.714-.727 1.782.033 1.782 0 1.782 1.815q0 12.367.015 24.734c0 .637-.137.824-.794.805-1.7-.048-1.7-.013-1.7-1.738v-12.018" fill="#97a1af" transform="translate(-141.381 -53.815)"/><path d="m54.607 20.866c-2.015 0-4.03-.029-6.044.016-.667.015-.827-.2-.8-.83.049-1.161.033-2.326 0-3.488-.012-.481.1-.679.634-.677q6.2.031 12.4 0c.439 0 .655.079.642.588q-.049 1.9 0 3.8c.013.5-.186.6-.635.6-2.066-.019-4.133-.008-6.2-.008" fill="#636363" transform="translate(-40.327 -13.415)"/><path d="m226.515 20.862c-3.538.007-7.075.007-10.613.029-.46 0-.563-.176-.557-.593q.03-1.9 0-3.8c-.007-.417.1-.6.557-.593 3.537.022 7.075.022 10.613.029v4.925" fill="#636363" transform="translate(-181.834 -13.432)"/><g fill="#97a1af"><path d="m116.578 260.185c0 1.446-.021 2.892.011 4.337.012.508-.074.727-.654.7-1.237-.048-2.478-.033-3.716-.005-.446.01-.625-.07-.62-.58q.04-4.414 0-8.83c0-.46.158-.551.575-.543 1.264.024 2.53.039 3.794-.005.545-.019.625.19.617.662-.027 1.42-.01 2.84-.01 4.26" transform="translate(-94.233 -215.54)"/><path d="m350.967 290.964c0-1.084.014-2.168-.008-3.252-.007-.37.105-.487.478-.481q2.012.03 4.025 0c.374-.006.48.113.478.481q-.023 3.252 0 6.5c0 .369-.105.487-.478.481q-2.012-.03-4.025 0c-.373.006-.485-.112-.478-.482.021-1.083.008-2.168.008-3.252" transform="translate(-296.344 -242.533)"/><path d="m155.254 20.887c-1.084 0-2.167-.014-3.251.008-.369.007-.487-.1-.482-.478q.03-2.013 0-4.026c-.005-.373.111-.481.481-.479q3.251.023 6.5 0c.368 0 .487.1.482.477q-.03 2.013 0 4.026c.005.373-.111.486-.481.479-1.083-.021-2.167-.008-3.251-.008" transform="translate(-127.943 -13.436)"/><path d="m355.935 434.684c0 1.058-.014 2.117.008 3.174.008.373-.112.484-.481.478q-2.012-.029-4.025 0c-.377.006-.477-.119-.475-.484q.022-3.252 0-6.5c0-.373.111-.483.481-.478q2.012.029 4.025 0c.377-.006.482.119.475.484-.021 1.109-.007 2.219-.007 3.329" transform="translate(-296.347 -363.82)"/></g><path d="m430.727 149.438v-6.161c.8.007 1.8-.277 2.325.1.505.369.139 1.441.159 2.2.029 1.108-.012 2.218.017 3.326.012.446-.134.585-.57.559-.642-.038-1.288-.024-1.932-.032" fill="#b08a53" transform="translate(-363.699 -120.901)"/><path d="m430.727 237.218v-6.161c.8.007 1.8-.277 2.325.1.505.369.139 1.441.159 2.2.029 1.108-.012 2.218.017 3.326.012.446-.134.585-.57.559-.642-.038-1.288-.024-1.932-.032" fill="#b08a53" transform="translate(-363.699 -195.021)"/><path d="m287.122 20.881v-4.925c.645-.007 1.29 0 1.934-.025.374-.013.571.086.565.513q-.027 1.974 0 3.948c.006.427-.192.526-.565.513-.644-.022-1.289-.018-1.934-.025" fill="#636363" transform="translate(-242.441 -13.451)"/><path d="m417.2 199.466c.67 0 1.34.014 2.009-.006.327-.01.492.083.441.431a.41.41 0 0 0 0 .077c.083 1.981.083 1.981-1.9 1.981-.876 0-1.752-.012-2.627.006-.327.007-.491-.084-.441-.431a.426.426 0 0 0 0-.077c-.083-1.981-.083-1.981 1.9-1.981z" fill="#97a1af" transform="translate(-350.133 -168.421)"/><path d="m73.739 446.814c3.074 0 6.149.013 9.223-.012.512 0 .638.141.636.641-.007 1.854.013 1.854-1.814 1.854-5.761 0-11.523-.012-17.284.017-.65 0-.813-.159-.8-.8.046-1.7.013-1.7 1.74-1.7h8.293" fill="#050605" transform="translate(-53.791 -377.272)"/><path d="m63.133 355.174c-.516.545-.9.915-1.239 1.321-.274.327-.449.264-.733-.007-1.445-1.376-1.453-1.368-.063-2.757.731-.731 1.457-1.469 2.195-2.194a1.3 1.3 0 0 1 2.139-.026c1.069 1.052 2.108 2.135 3.19 3.173.337.322.3.509-.018.79-.464.409-.858 1.141-1.352 1.206-.526.069-.879-.759-1.348-1.151-.057-.048-.117-.093-.185-.146-.2.2-.1.441-.1.655-.009 2.224-.02 4.449.005 6.673.006.5-.064.716-.649.709-1.846-.021-1.846.007-1.846-1.829v-6.418" fill="#0a0a08" transform="translate(-50.72 -296.345)"/><path d="m141.886 355.246c-.177.146-.239.19-.293.243-1.467 1.42-1.46 1.414-2.812-.186-.2-.234-.2-.36.007-.566 1.159-1.145 2.294-2.314 3.467-3.443a1.164 1.164 0 0 1 1.739-.006c1.176 1.126 2.312 2.3 3.47 3.441.2.195.283.366.017.562-.02.015-.035.038-.054.056-.5.441-.909 1.313-1.453 1.274-.522-.038-.991-.814-1.494-1.276-.226.131-.1.361-.1.539-.01 2.276-.019 4.553 0 6.829 0 .481-.088.659-.622.657-1.872-.008-1.872.015-1.872-1.879z" fill="#0a0a08" transform="translate(-117.058 -296.295)"/><path d="m237.417 79.811v2.466c-1.88 0-3.76-.005-5.639.017-.425 0-.567-.1-.579-.554-.048-1.938-.064-1.938 1.892-1.937q2.163 0 4.326.008" fill="#050605" transform="translate(-195.21 -67.384)"/><path d="m237.417 111.731v2.469c-1.88 0-3.76-.005-5.639.017-.425 0-.568-.1-.579-.554-.048-1.938-.064-1.939 1.892-1.937q2.163 0 4.326.008" fill="#050605" transform="translate(-195.21 -94.337)"/><path d="m324.1 159.584c1.163 0 2.326-.007 3.488 0a1.225 1.225 0 0 1 1.393 1.37 28.76 28.76 0 0 1 -.087 4.488 4.7 4.7 0 0 1 -3.115 3.743c-.408.159-.563.342-.525.774a7.025 7.025 0 0 1 0 1.394c-.065.577.181.665.695.659 1.824-.018 1.8 0 1.811 1.845 0 .506-.132.646-.639.639q-3.1-.044-6.2 0c-.516.008-.636-.147-.634-.644.007-1.838-.012-1.859 1.816-1.84.522.005.672-.105.7-.662.069-1.21-.058-2.055-1.415-2.67a4.26 4.26 0 0 1 -2.328-4.085c-.02-1.189-.009-2.378 0-3.567.006-1.005.452-1.441 1.476-1.445 1.189-.005 2.377 0 3.566 0m-.712 7.265a1.082 1.082 0 0 0 .956.156c1.718-.288 2.482-1.634 2.1-4.454-.153-1.124-1.422-.188-2.124-.476-.085-.035-.2.009-.305.017-.793.006-1.829-.29-2.312.1-.507.409-.11 1.49-.161 2.276a1.777 1.777 0 0 0 .009.308 2.294 2.294 0 0 0 1.838 2.074" fill="#070807" transform="translate(-269.399 -134.748)"/><path d="m347.56 175.107c.1-.008.22-.052.305-.017.7.287 1.971-.648 2.124.476.384 2.821-.38 4.166-2.1 4.454a1.081 1.081 0 0 1 -.956-.156c.8-1.508.651-3.141.625-4.758" fill="#6a717b" transform="translate(-292.947 -147.764)"/><path d="m336.992 175.159c.026 1.617.178 3.25-.625 4.758a2.294 2.294 0 0 1 -1.838-2.074 1.775 1.775 0 0 1 -.009-.308c.05-.785-.346-1.867.161-2.276.483-.39 1.519-.094 2.312-.1" fill="#96a0ae" transform="translate(-282.379 -147.815)"/><path d="m243.5 159.031v28.741c-13.426 0-26.852-.013-40.278.029-1.009 0-1.152-.3-1.143-1.2.045-4.749.006-9.5.038-14.249 0-.687-.273-.774-.828-.726-.477.042-1.045-.162-.958.7a16.608 16.608 0 0 1 .007 2.174 6.32 6.32 0 0 1 -6.5 6.078 6.241 6.241 0 0 1 -6.12-6.2q-.017-18.056.005-36.113a6.11 6.11 0 0 1 3.861-5.782c.309-.148.717-.1.923-.452h37.915c2.9 2.9 5.783 5.814 8.7 8.691a2.517 2.517 0 0 1 .845 1.983c-.041 5.114-.005 10.229-.037 15.343 0 .744.168 1.028.951.97.865-.064 1.74 0 2.611.012m-42.264 10.67c.628.171.895.023.884-.716-.042-2.83-.017-5.661-.017-8.491 0-1.477 0-1.477 1.474-1.477q16.724 0 33.447 0c.592 0 1.081.11 1.072-.829-.051-4.862-.035-9.725-.009-14.588 0-.636-.2-.779-.8-.771-2.4.032-4.795-.028-7.19.036-.849.023-1.014-.244-1-1.036.038-2.61-.011-5.222-.026-7.833.022-.14-.025-.2-.17-.145l-28.96-.007h-1.5c1.918 1.942 1.927 4.207 1.92 6.515-.029 9.47-.008 18.941-.02 28.411 0 .654-.007 1.2.9.928m15.358 16.278q5.773 0 11.547 0c.509 0 .988.107.986-.723q-.038-11.864 0-23.728c0-.569-.174-.753-.745-.744-1.888.03-3.776.034-5.664 0-.623-.012-.809.185-.8.8.035 1.85-.015 3.7.027 5.55.015.659-.158.871-.843.863q-4.574-.054-9.15 0c-.744.01-.913-.247-.9-.934.041-1.777-.026-3.557.032-5.332.026-.79-.248-.974-.99-.952-1.741.051-3.486.055-5.228 0-.786-.025-.969.253-.967.994q.035 11.592 0 23.184c0 .812.223 1.05 1.041 1.041 3.885-.041 7.77-.018 11.655-.018m-27.092-43.149v1.4q0 13 0 26c0 1.305-.032 2.612.008 3.916a4.488 4.488 0 1 0 8.962-.2q.017-15.12 0-30.24c0-.228.1-.5-.171-.694-2.89 2.211-5.772 2.193-8.8-.179m52.209 30.616c0-3.881-.014-7.763.012-11.644 0-.72-.161-1.033-.962-1.021q-4.464.063-8.93 0c-.8-.012-.955.279-.953 1.006q.033 11.59 0 23.18c0 .827.262 1.051 1.061 1.04 2.867-.041 5.737-.06 8.6.008 1 .024 1.2-.329 1.193-1.249-.047-3.772-.02-7.545-.02-11.318m-47.775-30.688a4.341 4.341 0 0 0 4.513-4.394 4.456 4.456 0 0 0 -4.423-4.535 4.579 4.579 0 0 0 -4.509 4.388 4.476 4.476 0 0 0 4.418 4.541m22.328 23.45c1.138 0 2.08-.025 3.021.009.566.021.866-.081.841-.754-.049-1.3-.044-2.607 0-3.908.021-.643-.233-.791-.825-.778-1.484.034-2.97.011-4.455.011-1.9 0-1.907 0-1.9 1.947.007 1.116-.383 2.62.184 3.246.652.721 2.182.134 3.131.227m14.62-30.751v4.777c0 .356-.08.753.5.749 1.716-.011 3.433 0 5.035 0l-5.536-5.522" fill="#0c0b09" transform="translate(-158.496 -111.486)"/><path d="m266.258 143.684 28.96.007.17.145c.015 2.611.063 5.223.026 7.833-.011.792.154 1.059 1 1.036 2.4-.064 4.793 0 7.19-.036.6-.008.8.135.8.771-.026 4.863-.041 9.725.009 14.588.01.94-.479.83-1.071.829q-16.724-.008-33.447 0c-1.474 0-1.474 0-1.474 1.477 0 2.83-.025 5.661.017 8.491.011.739-.256.887-.884.716q0-15.45-.009-30.9a16.944 16.944 0 0 0 -.158-1.829c-.126-1.152-.919-2.027-1.131-3.125" fill="#e6e7e7" transform="translate(-224.824 -121.325)"/><path d="m304.4 341.944c-3.885 0-7.771-.023-11.655.018-.819.009-1.044-.229-1.042-1.041q.043-11.592 0-23.184c0-.741.181-1.019.967-.993 1.741.056 3.486.052 5.228 0 .743-.022 1.016.162.99.952-.058 1.776.009 3.556-.032 5.332-.016.687.153.944.9.934q4.574-.061 9.15 0c.685.008.858-.2.843-.863-.043-1.849.008-3.7-.027-5.551-.012-.615.174-.812.8-.8 1.887.037 3.776.032 5.664 0 .571-.009.746.175.745.744q-.023 11.864 0 23.728c0 .83-.477.723-.986.722q-5.773 0-11.547 0m6.624-1.746c1.087 0 2.176-.04 3.26.014.746.037.922-.263.9-.95-.019-.624-.059-1-.863-.979-2.173.054-4.348.045-6.521 0-.692-.013-.886.231-.852.879.03.572-.037 1.088.815 1.046 1.084-.053 2.173-.013 3.26-.013m.013-3.645c1.121 0 2.243-.035 3.361.013.648.028.821-.23.768-.818-.043-.485.138-1.021-.7-1.007-2.277.038-4.555.031-6.832 0-.762-.009-.646.477-.664.941-.02.509-.02.916.709.881 1.118-.054 2.24-.014 3.361-.014" fill="#ffd947" transform="translate(-246.31 -267.452)"/><path d="m199.17 201.4c3.028 2.373 5.91 2.39 8.8.179.267.2.171.466.171.694q.007 15.12 0 30.24a4.488 4.488 0 1 1 -8.962.2c-.04-1.3-.008-2.61-.008-3.916q0-13 0-26z" fill="#ffa686" transform="translate(-168.166 -170.058)"/><path d="m475.932 329.406c0 3.773-.027 7.546.02 11.318.011.921-.189 1.273-1.193 1.249-2.866-.068-5.736-.049-8.6-.008-.8.011-1.064-.213-1.061-1.04q.043-11.59 0-23.18c0-.727.155-1.018.953-1.006q4.464.067 8.93 0c.8-.011.967.3.963 1.021-.026 3.881-.012 7.763-.012 11.644" fill="#e0bc32" transform="translate(-392.719 -267.449)"/><path d="m203.741 152.516a4.476 4.476 0 0 1 -4.418-4.541 4.579 4.579 0 0 1 4.509-4.388 4.456 4.456 0 0 1 4.423 4.535 4.341 4.341 0 0 1 -4.513 4.394m2.751-4.481a2.687 2.687 0 0 0 -2.718-2.67 2.771 2.771 0 0 0 -2.675 2.757 2.691 2.691 0 0 0 2.757 2.632 2.6 2.6 0 0 0 2.636-2.718" fill="#617084" transform="translate(-168.303 -121.243)"/><path d="m352.549 322.187c-.949-.093-2.479.494-3.131-.227-.567-.626-.177-2.13-.184-3.246-.012-1.947 0-1.947 1.9-1.947 1.485 0 2.971.023 4.455-.011.592-.014.846.135.825.778-.042 1.3-.047 2.607 0 3.908.025.674-.275.775-.841.754-.941-.034-1.883-.009-3.021-.009" fill="#fac757" transform="translate(-294.783 -267.463)"/><path d="m258.123 143.684c.212 1.1 1.006 1.973 1.131 3.125a16.944 16.944 0 0 1 .158 1.829q0 15.45.009 30.9c-.9.273-.9-.274-.9-.928.012-9.47-.009-18.941.02-28.411.007-2.308 0-4.573-1.92-6.515z" fill="#a5b0bc" transform="translate(-216.689 -121.325)"/><path d="m465.147 154.048 5.536 5.522c-1.6 0-3.319-.007-5.035 0-.579 0-.5-.393-.5-.749 0-1.6 0-3.191 0-4.777" fill="#ffa686" transform="translate(-392.761 -130.076)"/><path d="m452.526 143.761-.17-.145c.146-.055.192 0 .17.145" fill="#a5b0bc" transform="translate(-381.962 -121.25)"/><path d="m393.727 457.076c-1.087 0-2.176-.041-3.26.013-.852.042-.785-.474-.815-1.046-.034-.648.161-.892.852-.879 2.173.041 4.349.051 6.521 0 .8-.02.844.356.863.979.021.687-.155.987-.9.95-1.084-.054-2.173-.014-3.26-.014" fill="#1c150d" transform="translate(-329.012 -384.33)"/><path d="m393.831 434.22c-1.121 0-2.243-.04-3.361.014-.729.035-.729-.372-.709-.881.018-.464-.1-.951.664-.941 2.277.028 4.555.035 6.832 0 .843-.014.661.521.7 1.007.053.589-.121.846-.768.818-1.119-.048-2.241-.013-3.361-.013" fill="#0d0b09" transform="translate(-329.103 -365.119)"/><path d="m216.139 157.681a2.6 2.6 0 0 1 -2.639 2.719 2.691 2.691 0 0 1 -2.757-2.632 2.771 2.771 0 0 1 2.675-2.757 2.687 2.687 0 0 1 2.718 2.67m-2.7.942c.517-.082.894-.354.89-.889a.8.8 0 0 0 -.889-.853.783.783 0 0 0 -.828.8c-.038.566.327.819.827.945" fill="#0a0b0c" transform="translate(-177.95 -130.888)"/><path d="m223.581 168.771c-.5-.125-.865-.378-.827-.945a.783.783 0 0 1 .828-.8.8.8 0 0 1 .889.853c0 .536-.373.807-.89.889" fill="#606f82" transform="translate(-188.088 -141.036)"/></g></svg>