<svg id="Grupo_1083994" data-name="Grupo 1083994" xmlns="http://www.w3.org/2000/svg" xmlns:xlink="http://www.w3.org/1999/xlink" width="144.202" height="168.109" viewBox="0 0 144.202 168.109">
  <defs>
    <clipPath id="clip-path">
      <rect id="Rectángulo_361650" data-name="Rectángulo 361650" width="144.202" height="168.109" fill="none"/>
    </clipPath>
  </defs>
  <g id="Grupo_1083994-2" data-name="Grupo 1083994" clip-path="url(#clip-path)">
    <path id="Trazado_716789" data-name="Trazado 716789" d="M235.244,115.932l4.723-.061,6.508-.01,6.492.01,6.508-.01h6.49l.79.08q.068,3.229.136,6.459,0,3.249.008,6.5v19.457c-.026.569-.071,1.139-.074,1.709-.017,3.4-.014,3.4-3.431,3.524-3.493-.088-3.493-.088-3.493-3.615,0-8.417-.038-16.835.035-25.252.013-1.521-.418-1.948-1.93-1.917q-6.915.144-13.835,0c-1.572-.032-2.151.366-2.107,2.032.113,4.241.039,8.488.037,12.733,0,2.916,0,2.916-2.943,3.012-1.31-.1-3.331.258-3.763-.409-.653-1.007-.193-2.73-.215-4.149a5.806,5.806,0,0,0-.076-.632V122.415l.141-6.484" transform="translate(-133.108 -65.613)" fill="#090907"/>
    <path id="Trazado_716790" data-name="Trazado 716790" d="M98.1,305.835c-4.915-.2-8.66-2.165-10.554-6.939l-.262-.422.007.016c-.363-1.257.566-3.46-2.182-2.974-.5-.028-1-.078-1.5-.082-3.575-.026-3.575-.023-3.765-3.428.02-3.026.026-6.053.071-9.078.012-.8-.022-1.507-1.1-1.276-2.321.5-2.582-.855-2.427-2.616a8.588,8.588,0,0,0,.069-1.5c-.222-1.81-.014-3.125,2.368-2.544,1.062.259,1.1-.487,1.1-1.282q-.053-13.561-.073-27.122c.156-3.01.156-3.006,3.32-3.019.647,0,1.294-.048,1.941-.074l5.17,0,.514-.02q21.107.028,42.213.054,11.579.009,23.157-.013l.478-.028h19.854l.5.008,5.6,0c.56.025,1.121.07,1.681.073,3,.017,3,.013,3.163,3.023v45.41c-.177,3.4-.177,3.4-3.556,3.429-.429,0-.857.053-1.286.082-2.862-.719-2.158,1.594-2.544,2.981a.443.443,0,0,0-.064.406l-.426.892-.467.856a12.053,12.053,0,0,1-7.818,5.121l-.076.031-1.6.087c-3.764-.707-7.006-2.183-8.693-5.919-.342-.757-.611-1.547-.913-2.321.159-1.378-.224-2.061-1.846-2.055-15.958.058-31.916.111-47.872-.021-2.412-.02-3.119.83-3.081,2.927-1.6,4.223-4.727,6.548-9.1,7.335m19.944-55.321q-12.755-.039-25.51-.076c-6.063-.011-6.034,0-5.719,6.067.053,1.024.329,1.351,1.362,1.346,9.962-.053,19.925-.062,29.888-.084q8.756.033,17.511.065c3.167.009,3.167,0,3.348,3.008a4.427,4.427,0,0,0-.07,1.067c.39,2.233-.493,2.846-2.744,2.794-6.02-.139-12.046.009-18.07.043q-15.384-.273-30.768,0c-.827.495-.406,1.3-.41,1.939-.035,6.482.084,12.966-.079,19.444-.056,2.195.634,2.818,2.636,2.353,6.324-4.6,9.287-4.6,15.375.073a2.324,2.324,0,0,0,1.59.429l11.661-.07q21.514.035,43.027.1a2.858,2.858,0,0,0,1.992-1.043c3.176-2.72,6.663-3.687,10.733-2.092a10.842,10.842,0,0,1,3.391,2.192c.86.782,1.922.536,2.887.4.681-.093.381-.827.38-1.272q0-13.167-.048-26.334c.026-2.877-.046-5.76.117-8.629.09-1.589-.477-1.84-1.925-1.833-12.473.059-24.946.024-37.419.037-7.712.008-15.425.05-23.137.077M100.734,295.5a3.379,3.379,0,0,0-3.453-3.525,3.494,3.494,0,1,0,3.453,3.525m72.8,0a3.325,3.325,0,0,0-3.2-3.514,3.5,3.5,0,0,0-3.774,3.492,3.83,3.83,0,0,0,3.412,3.476,3.48,3.48,0,0,0,3.566-3.453" transform="translate(-43.238 -137.885)" fill="#090907"/>
    <path id="Trazado_716791" data-name="Trazado 716791" d="M313.261,374.187l.467-.856c-.054.341-.078.7-.467.856" transform="translate(-177.403 -211.421)" fill="#fafbfb"/>
    <path id="Trazado_716792" data-name="Trazado 716792" d="M314.339,372.166q.213-.446.426-.892c-.05.34-.051.706-.426.892" transform="translate(-178.014 -210.256)" fill="#fafbfb"/>
    <path id="Trazado_716793" data-name="Trazado 716793" d="M295.136,387.111l.163.223-.238-.192.075-.031" transform="translate(-167.096 -219.225)" fill="#fafbfb"/>
    <path id="Trazado_716794" data-name="Trazado 716794" d="M101.551,370.285l.262.422-.262-.422" transform="translate(-57.509 -209.696)" fill="#fafbfb"/>
    <path id="Trazado_716795" data-name="Trazado 716795" d="M9.137,88.1C4.775,87.169,1.672,84.8.343,80.417a10.206,10.206,0,0,1,0-5.226,12.465,12.465,0,0,1,1.316-2.862A5.033,5.033,0,0,0,2.965,67.86V22.426q.043-1.7.085-3.406L9.1,18.9h6.486l6.082-.012,6.918.012,6.082-.012,6.919.012c2.586-.093,5.189.782,7.433-1.781,3.383-3.865,3.574-3.7-.518-7.176l-.9-.9c-1.58-1.238-1.239-2.306.2-3.427a20.488,20.488,0,0,0,2.424-2.4.866.866,0,0,1,1.253-.232l3.088,3.083A20.41,20.41,0,0,0,57.979,9.48l3.088,3.084a20.419,20.419,0,0,0,3.411,3.405l3.089,3.084c.661.684.369,1.173-.233,1.751-1.292,1.242-2.506,2.563-3.77,3.871L61.5,22.921l-.9-.9c-.928-.981-1.873-1.945-2.776-2.948-.5-.555-.881-.543-1.38.013-1.56,1.738-3.451,3.164-4.817,5.086l-.036.417q0,2.162-.01,4.325l.01,6.495V41.9c-.5,1.478.068,1.985,1.541,1.74a11.9,11.9,0,0,1,1.454-.071H74.1l6.492,0H87.1c1.507.022,3.015.078,4.521.054,1.044-.017,1.459.164,1.419,1.449-.112,3.561.04,7.13.088,10.7a.42.42,0,0,0,.012.357c-.232.172-.391.349-.036.559l-.018-.009c.912,1.14,2.076.523,3.162.456.626-.03.821.276.811.884-.018,1.12.039,2.241.065,3.362.289,2.021-.379,3.061-2.6,2.6-1.085-.225-1.463.224-1.439,1.372.083,4.147.058,8.3.074,12.444-3.35.45-6.713.06-10.069.129a2.064,2.064,0,0,0-2.107,1.025,16.7,16.7,0,0,1-13.489,8.975c-.121.013-.23.15-.345.229H64.579c-.371-.438-.869-.2-1.312-.246l-2.183-.488L58.5,86.522l-3.482-2.209c-1.591-1.078-2.55-2.744-3.836-4.106-.349-1.752-1.4-2.329-3.185-2.315-8.648.071-17.3.049-25.945.012-1.066,0-1.509.318-1.694,1.394-.994,5.762-5.158,9-11.219,8.8M85.8,64.034c-.86-.023-1.72-.029-2.578-.075-1.02-.054-1.762-.006-1.084,1.362.637,1.285.552,2.756.828,4.136.428,2.145.929,2.356,3.185,1.408-.1-2.278.551-4.594-.351-6.831M11.241,33.174h9.136c1.8.024,3.6.146,5.4.039,1.379-.082,1.684.422,1.664,1.71-.071,4.6-.1,9.206.012,13.806.039,1.591-.516,1.882-1.964,1.854-4.608-.089-9.22-.048-13.829-.013-.569,0-1.624-.379-1.627.474-.006,2-.629,4.067.365,6.011a91.8,91.8,0,0,0,9.965,0q17.111.05,34.222.112a3.139,3.139,0,0,0,1.758-.668c5.522-3.495,11.419-4.12,17.121-.988,2.757,1.514,5.378,1.635,8.218,1.642,4.578.011,4.5,0,4.59-4.613.03-1.59-.345-2.042-2-2.032-12.493.077-24.987,0-37.479.091-1.857.014-2.233-.514-2.206-2.267.106-6.92.043-13.842.044-20.763,0-.917.24-1.841-1.309-1.821-7.507.095-15.015.094-22.522.128a100.612,100.612,0,0,0-10.4,0c-1.014,2.264-.3,4.635-.374,6.953-.02.647.768.343,1.222.343M31.208,64.015q-9.839-.025-19.678-.052c-.868,0-1.857-.161-1.607,1.249.16.9-.608,2.159,1.311,2.28a9.342,9.342,0,0,1,6.416,3.076,2.29,2.29,0,0,0,1.9.756c3.891-.051,7.783-.057,11.674-.079,5.32.022,10.639.052,15.958.056.566,0,1.329.3,1.388-.792a28.27,28.27,0,0,1,1.347-6.494Zm36.35,17.12A12.438,12.438,0,0,0,71.133,79.8c3.7-2.07,5.933-7.008,4.956-10.972C74.9,64,71.116,60.663,66.724,60.573a9.428,9.428,0,0,0-8.753,3.486,9.932,9.932,0,0,0-1.387,11.57,10.34,10.34,0,0,0,10.975,5.507M6.912,77.756a3.379,3.379,0,0,0,3.511,3.506,3.7,3.7,0,0,0,3.429-3.472,3.51,3.51,0,0,0-3.388-3.445,3.279,3.279,0,0,0-3.552,3.411M15.369,43.63a40.424,40.424,0,0,1,4.083.029c1.568.16,1.318-.826,1.3-1.734-.02-.865.351-1.86-1.252-1.789-2.719.12-5.448.086-8.17.007-1.123-.033-1.39.3-1.44,1.417-.072,1.588.275,2.346,2.045,2.1a25.008,25.008,0,0,1,3.437-.029" transform="translate(0 -1.594)" fill="#090907"/>
    <path id="Trazado_716796" data-name="Trazado 716796" d="M145.88,198.965c.444.047.942-.192,1.312.246-.583.691-1.03.661-1.312-.246" transform="translate(-82.613 -112.663)" fill="#ecebeb"/>
    <path id="Trazado_716797" data-name="Trazado 716797" d="M244.419,149.647c2.941-.1,2.942-.1,2.943-3.011,0-4.245.075-8.492-.037-12.733-.044-1.666.535-2.063,2.107-2.032q6.915.139,13.835,0c1.512-.032,1.943.4,1.93,1.917-.072,8.417-.035,16.834-.035,25.252,0,3.527,0,3.527,3.494,3.615l.052,3.445a.426.426,0,0,0-.045.365c-2.417.015-4.835.038-7.252.043-3.538.007-3.538,0-3.6,3.422l-3.418.078c-.019-5.029-.081-10.058-.028-15.086.014-1.394-.389-1.9-1.825-1.852-2.731.086-5.468,0-8.2-.015l.086-3.406" transform="translate(-138.368 -74.678)" fill="#ffdfbb"/>
    <path id="Trazado_716798" data-name="Trazado 716798" d="M234.836,283.51q.031,13.167.048,26.334c0,.445.3,1.179-.38,1.272-.966.132-2.027.379-2.887-.4a10.85,10.85,0,0,0-3.391-2.192c-4.07-1.6-7.557-.628-10.733,2.092a2.858,2.858,0,0,1-1.992,1.043q-21.513-.089-43.027-.1l-.005-24.168c6.024-.033,12.051-.181,18.07-.042,2.25.052,3.134-.56,2.744-2.793a4.473,4.473,0,0,1,.07-1.067l7.26.042a5.617,5.617,0,0,1,.013,1.065c-.356,2.034.4,2.712,2.511,2.59,3.285-.191,3.293-.047,3.961-3.712l3.463.073c.108,3.588.108,3.588,3.62,3.587,2.649,0,2.649,0,3.316-3.66l3.463.073c.108,3.587.108,3.587,3.623,3.587,3.08,0,3.08,0,3.747-3.66l6.507.037" transform="translate(-97.67 -160.534)" fill="#ffd947"/>
    <path id="Trazado_716799" data-name="Trazado 716799" d="M132.218,292.33l0,24.167q-5.83.036-11.661.07a2.323,2.323,0,0,1-1.59-.429c-6.088-4.673-9.051-4.673-15.375-.073-1.742-.283-2.239-1.219-2.2-3.027.137-6.9.056-13.805.055-20.708q15.384-.274,30.768,0" transform="translate(-57.42 -165.472)" fill="#ffd947"/>
    <path id="Trazado_716800" data-name="Trazado 716800" d="M220.965,269.934l-3.463-.074c.019-2.985.019-2.985-2.949-2.986H213.7c-3.036,0-3.036,0-3.134,3.06l-3.463-.074c-.136-.948.523-2.417-.434-2.75a9.426,9.426,0,0,0-5.454-.054c-1.171.323-.353,1.886-.6,2.861l-7.26-.041c-.181-3.006-.181-3-3.348-3.008q-8.755-.025-17.51-.065-.011-3.626-.022-7.253c7.713-.027,15.425-.069,23.137-.077,12.473-.013,24.947.022,37.42-.037,1.448-.007,2.014.244,1.925,1.833-.163,2.869-.091,5.752-.118,8.629l-6.506-.038c.019-2.985.019-2.985-2.951-2.986H224.1c-3.039,0-3.039,0-3.137,3.06" transform="translate(-97.676 -146.921)" fill="#ffa686"/>
    <path id="Trazado_716801" data-name="Trazado 716801" d="M108.976,234.688l-.514.02v-3.773l3.459-.063c.3-2.777,2.221-2.644,4.343-2.629,10.491.077,20.984.042,31.476.022.762,0,1.588.271,2.281-.311-.111,2.53,1.159,3.425,3.552,2.99q-.032,1.68-.064,3.361-21.014.027-42.028.069c-.835,0-1.737-.3-2.507.313" transform="translate(-61.423 -129.093)" fill="#fd9b32"/>
    <path id="Trazado_716802" data-name="Trazado 716802" d="M131.557,259.6q.011,3.626.022,7.253c-9.963.022-19.925.031-29.888.084-1.033.006-1.309-.322-1.362-1.346-.315-6.069-.344-6.078,5.719-6.067q12.754.023,25.51.076" transform="translate(-56.756 -146.97)" fill="#ffa686"/>
    <path id="Trazado_716803" data-name="Trazado 716803" d="M263.455,219.706l3.418-.079c.338,1.163-.29,2.449.456,3.559,1.415.768,2.943.22,4.411.373,1.979.206,4.02-.43,5.952.433-.07,1.7.566,2.595,2.426,2.184a4,4,0,0,1,1.073.056q0,1.881,0,3.761l-.5-.008a3.141,3.141,0,0,0-.969-.347q-8.958-.032-17.916,0a3.148,3.148,0,0,0-.97.347l-.478.028a.893.893,0,0,0,.011-.4q-.013-1.694-.026-3.388c3.058-.155,3.053-.155,3.061-3.318,0-1.069.035-2.137.053-3.206" transform="translate(-147.434 -124.377)" fill="#fd9b32"/>
    <path id="Trazado_716804" data-name="Trazado 716804" d="M123.438,358.835a3.5,3.5,0,1,1-3.453-3.525,3.379,3.379,0,0,1,3.453,3.525" transform="translate(-65.942 -201.216)" fill="#b2c3cb"/>
    <path id="Trazado_716805" data-name="Trazado 716805" d="M291.32,358.838a3.48,3.48,0,0,1-3.566,3.453,3.83,3.83,0,0,1-3.412-3.476,3.5,3.5,0,0,1,3.774-3.492,3.325,3.325,0,0,1,3.2,3.514" transform="translate(-161.026 -201.221)" fill="#b2c3cb"/>
    <path id="Trazado_716806" data-name="Trazado 716806" d="M175.028,242.622a.9.9,0,0,1-.011.4q-11.578.008-23.157.013-21.107-.017-42.213-.054c.77-.612,1.672-.311,2.507-.313q21.014-.059,42.028-.069l20.846.027" transform="translate(-62.095 -137.382)" fill="#ce9863"/>
    <path id="Trazado_716807" data-name="Trazado 716807" d="M100.853,292.509c0,6.9.082,13.808-.056,20.708-.036,1.808.46,2.744,2.2,3.027-2,.465-2.691-.158-2.636-2.353.163-6.478.045-12.962.08-19.444,0-.643-.418-1.444.409-1.939" transform="translate(-56.824 -165.651)" fill="#ff9f26"/>
    <path id="Trazado_716808" data-name="Trazado 716808" d="M261.48,243.035a3.14,3.14,0,0,1,.97-.347q8.958-.032,17.916,0a3.141,3.141,0,0,1,.969.347H261.48" transform="translate(-148.079 -137.428)" fill="#be8957"/>
    <path id="Trazado_716809" data-name="Trazado 716809" d="M33.631,55.822c7.508-.033,15.016-.033,22.522-.128,1.55-.02,1.31.9,1.31,1.821,0,6.921.062,13.843-.044,20.763-.027,1.753.348,2.281,2.206,2.267,12.492-.093,24.987-.013,37.479-.091,1.654-.01,2.029.441,2,2.032-.087,4.614-.012,4.624-4.59,4.613-2.84-.007-5.461-.128-8.218-1.642-5.7-3.133-11.6-2.508-17.121.988a3.142,3.142,0,0,1-1.758.668Q50.305,87.038,33.194,87a3.043,3.043,0,0,0,.169-.4c1.276-4.694.56-5.723-4.136-5.652-1.915.029-4.379-.869-5.6.423-1.2,1.268-.258,3.707-.4,5.626-.994-1.943-.371-4.01-.365-6.01,0-.854,1.058-.47,1.626-.474,4.61-.034,9.222-.075,13.83.013,1.448.028,2-.263,1.964-1.854-.112-4.6-.083-9.2-.012-13.806.02-1.288-.285-1.792-1.664-1.71-1.792.106-3.6-.016-5.4-.039.888-2.39.2-4.87.418-7.3m20.35,17.722c-1.992-.84-4.071-.238-6.106-.358a.647.647,0,0,0-.73.634c.107,2.224-.627,4.506.432,6.667,1.872-.007,3.744,0,5.615-.029.455-.007,1.179.184,1.139-.589-.108-2.109.5-4.26-.349-6.325" transform="translate(-12.836 -31.54)" fill="#ffd947"/>
    <path id="Trazado_716810" data-name="Trazado 716810" d="M148.751,135.993c4.393.09,8.173,3.422,9.365,8.254.977,3.963-1.258,8.9-4.956,10.972a12.453,12.453,0,0,1-3.574,1.336c-2.732-1.429-3.793-4.03-4.728-6.72,1.727-.024,3.462-.169,5.177-.038s1.675-1.039,1.348-1.887c-.625-1.619,1.785-4.208-1.383-4.9a28.288,28.288,0,0,0-5.155-.2,18.049,18.049,0,0,1,3.905-6.825" transform="translate(-82.028 -77.014)" fill="#ffd947"/>
    <path id="Trazado_716811" data-name="Trazado 716811" d="M44.126,151.085c-3.891.022-7.783.029-11.674.079a2.29,2.29,0,0,1-1.9-.756,9.34,9.34,0,0,0-6.416-3.076c-1.918-.121-1.151-1.38-1.311-2.28-.25-1.41.739-1.251,1.608-1.249q9.839.027,19.678.051l.012,7.23" transform="translate(-12.906 -81.434)" fill="#7c878d"/>
    <path id="Trazado_716812" data-name="Trazado 716812" d="M71.972,151.16q-.006-3.615-.012-7.23H90.665a28.25,28.25,0,0,0-1.347,6.494c-.059,1.095-.822.792-1.388.792-5.32,0-10.639-.033-15.958-.056" transform="translate(-40.752 -81.509)" fill="#b2c3cb"/>
    <path id="Trazado_716813" data-name="Trazado 716813" d="M138.985,135.883a18.049,18.049,0,0,0-3.905,6.825,8.8,8.8,0,0,0,.013,7.018c.935,2.689,2,5.291,4.728,6.72a10.341,10.341,0,0,1-10.975-5.507,9.933,9.933,0,0,1,1.387-11.57,9.427,9.427,0,0,1,8.753-3.486" transform="translate(-72.262 -76.904)" fill="#ffd947"/>
    <path id="Trazado_716814" data-name="Trazado 716814" d="M34.34,55.815c-.216,2.428.47,4.908-.418,7.3H24.787a2.1,2.1,0,0,1-.865-2c.059-1.763.017-3.528.017-5.293a100.734,100.734,0,0,1,10.4,0" transform="translate(-13.545 -31.533)" fill="#ffd947"/>
    <path id="Trazado_716815" data-name="Trazado 716815" d="M23.672,119.621c.137-1.919-.808-4.358.4-5.626,1.224-1.292,3.688-.394,5.6-.423,4.7-.072,5.412.958,4.136,5.652a3.042,3.042,0,0,1-.169.4,91.8,91.8,0,0,1-9.965,0" transform="translate(-13.279 -64.161)" fill="#ffd947"/>
    <path id="Trazado_716816" data-name="Trazado 716816" d="M15.938,171.157a3.279,3.279,0,0,1,3.552-3.411,3.511,3.511,0,0,1,3.388,3.445,3.7,3.7,0,0,1-3.429,3.472,3.379,3.379,0,0,1-3.511-3.506" transform="translate(-9.026 -94.995)" fill="#ffd947"/>
    <path id="Trazado_716817" data-name="Trazado 716817" d="M28.268,92.357a24.938,24.938,0,0,0-3.437.029c-1.77.248-2.117-.511-2.045-2.1.05-1.114.317-1.449,1.44-1.417,2.721.078,5.451.113,8.17-.007,1.6-.071,1.232.924,1.252,1.789.02.908.271,1.894-1.3,1.734a40.679,40.679,0,0,0-4.083-.029" transform="translate(-12.899 -50.322)" fill="#fafbfb"/>
    <path id="Trazado_716818" data-name="Trazado 716818" d="M193.071,150.69c-2.256.948-2.757.737-3.185-1.408-.276-1.38-.191-2.852-.827-4.137-.678-1.367.064-1.416,1.084-1.362.858.046,1.718.052,2.577.075.19,2.273-.427,4.588.351,6.831" transform="translate(-106.918 -81.419)" fill="#b2c3cb"/>
    <path id="Trazado_716819" data-name="Trazado 716819" d="M23.246,55.992c0,1.765.042,3.53-.017,5.293a2.1,2.1,0,0,0,.865,2c-.454,0-1.243.3-1.223-.343.072-2.318-.639-4.688.375-6.953" transform="translate(-12.853 -31.709)" fill="#ff9f26"/>
    <path id="Trazado_716820" data-name="Trazado 716820" d="M198.123,150.805c-.778-2.243-.161-4.558-.351-6.831.9,2.237.255,4.553.351,6.831" transform="translate(-111.969 -81.534)" fill="#e0e0df"/>
    <path id="Trazado_716821" data-name="Trazado 716821" d="M222.542,197.484c-.019,1.069-.051,2.137-.053,3.206-.007,3.162,0,3.162-3.061,3.318a5.661,5.661,0,0,0-1.29-.052c-2.154.4-2.61-.538-2.528-2.561.169-4.163.043-8.338.059-12.508,0-.824.072-1.528-1.141-1.519-6.1.047-12.2.034-18.293.049-.553,0-1.236-.116-1.163.8.212,2.647-1.654,2.3-3.293,2.292-.945-1.17-2.917.506-3.447-1-.427-1.21-.114-2.687-.093-4.045.024-1.559-.489-3.582.293-4.548.832-1.027,2.944-.216,4.492-.339.285-.023.57-.041.855-.062h18.21a.453.453,0,0,0,.4.015c2.735.015,5.472.1,8.2.015,1.437-.046,1.84.458,1.825,1.852-.053,5.028.01,10.057.028,15.086" transform="translate(-106.521 -102.156)" fill="#090907"/>
    <path id="Trazado_716822" data-name="Trazado 716822" d="M293.132,221.6l-3.413.085a4.035,4.035,0,0,0-1.073-.056c-1.86.411-2.5-.484-2.426-2.184.14-1.133-.717-.845-1.284-.846-3.026-.007-6.053.023-9.078.041-.746-1.111-.118-2.4-.456-3.559.066-3.42.066-3.414,3.6-3.422,2.417-.005,4.835-.028,7.253-.043l.2.038.194-.053h2.182c4.2.186,4.2.186,4.4,3.949l-.1,6.051" transform="translate(-155.963 -119.832)" fill="#090907"/>
    <path id="Trazado_716823" data-name="Trazado 716823" d="M300.8,211.145l-.194.053-.2-.038a.426.426,0,0,1,.045-.365l.347.35" transform="translate(-170.11 -119.375)" fill="#fff"/>
    <path id="Trazado_716824" data-name="Trazado 716824" d="M284.28,279.647c.1-3.059.1-3.059,3.137-3.06H288.7c2.97,0,2.97,0,2.951,2.986-.667,3.661-.667,3.661-3.747,3.661-3.515,0-3.515,0-3.623-3.587" transform="translate(-160.991 -156.634)" fill="#fff"/>
    <path id="Trazado_716825" data-name="Trazado 716825" d="M260.3,279.647c.1-3.059.1-3.059,3.134-3.06h.854c2.968,0,2.968,0,2.949,2.986-.667,3.66-.667,3.66-3.317,3.661-3.512,0-3.512,0-3.62-3.587" transform="translate(-147.411 -156.634)" fill="#fff"/>
    <path id="Trazado_716826" data-name="Trazado 716826" d="M237.269,279.376c.244-.975-.575-2.538.6-2.861a9.425,9.425,0,0,1,5.453.054c.957.332.3,1.8.434,2.75-.668,3.666-.677,3.522-3.961,3.712-2.116.123-2.866-.556-2.511-2.59a5.617,5.617,0,0,0-.013-1.066" transform="translate(-134.328 -156.381)" fill="#fff"/>
    <path id="Trazado_716827" data-name="Trazado 716827" d="M103.8,221.524l-3.43-.091c0-1.649,0-3.3.016-4.948.018-1.568-.509-3.556.252-4.59.826-1.121,2.948-.16,4.481-.443h32.51l4.333.032.894-.039h9.032c1.063,2.064.351,4.265.435,6.394.138,3.518.038,3.522-3.41,3.693-2.394.435-3.663-.46-3.552-2.991-6.117-.035-12.234-.083-18.352-.1-6.049-.018-12.1.023-18.146-.027-1.181-.01-1.751.274-1.581,1.538a9.839,9.839,0,0,1-.022,1.507l-3.459.064" transform="translate(-56.756 -119.682)" fill="#090907"/>
    <path id="Trazado_716828" data-name="Trazado 716828" d="M197.351,203.034l-.894.039.057-3.452c1.639.012,3.5.355,3.293-2.292-.073-.914.609-.8,1.163-.8,6.1-.015,12.2,0,18.293-.049,1.213-.01,1.144.694,1.141,1.518-.016,4.17.111,8.345-.059,12.508-.082,2.023.374,2.964,2.528,2.561a5.661,5.661,0,0,1,1.29.052q.013,1.694.026,3.388l-20.845-.028q.031-1.68.064-3.361c3.448-.171,3.548-.175,3.41-3.693-.083-2.129.628-4.33-.435-6.394a22.8,22.8,0,0,0-9.032,0" transform="translate(-111.256 -111.27)" fill="#ffdfbb"/>
    <path id="Trazado_716829" data-name="Trazado 716829" d="M116.432,230.7a9.731,9.731,0,0,0,.022-1.507c-.17-1.264.4-1.549,1.581-1.539,6.048.051,12.1.01,18.146.027,6.117.018,12.235.066,18.352.1-.693.581-1.52.309-2.281.311-10.492.02-20.984.055-31.476-.022-2.122-.016-4.042-.149-4.343,2.629" transform="translate(-65.932 -128.925)" fill="#be8957"/>
    <path id="Trazado_716830" data-name="Trazado 716830" d="M276.453,227.738c3.026-.017,6.053-.047,9.078-.04.567,0,1.424-.287,1.284.846-1.932-.863-3.973-.227-5.952-.433-1.468-.153-3,.4-4.411-.372" transform="translate(-156.558 -128.93)" fill="#be8957"/>
    <path id="Trazado_716831" data-name="Trazado 716831" d="M86.162,96.551c.853,2.066.241,4.217.349,6.325.04.773-.685.582-1.139.589-1.871.029-3.743.023-5.615.029.013-2.211-.756-4.943.27-6.479.922-1.38,3.875-.24,5.92-.45.072-.007.144-.01.215-.014" transform="translate(-45.017 -54.548)" fill="#fafbfb"/>
    <path id="Trazado_716832" data-name="Trazado 716832" d="M85.75,96.257c-.072,0-.144.007-.215.014-2.045.21-5-.93-5.92.45-1.027,1.536-.258,4.268-.27,6.479-1.058-2.161-.325-4.442-.432-6.667a.647.647,0,0,1,.73-.634c2.035.12,4.115-.481,6.106.358" transform="translate(-44.605 -54.253)" fill="#f88010"/>
    <path id="Trazado_716833" data-name="Trazado 716833" d="M143.912,158.723a8.8,8.8,0,0,1-.013-7.018,28.291,28.291,0,0,1,5.155.2c3.168.688.758,3.277,1.383,4.9.327.848.353,2.017-1.348,1.887s-3.45.014-5.177.038" transform="translate(-81.081 -85.902)" fill="#090907"/>
    <path id="Trazado_716834" data-name="Trazado 716834" d="M176,37.69c-.857,1-2.032.159-3,.517l-13.007.013-6.486-.006c-1.371.138-1.92-.434-1.756-1.834a17.541,17.541,0,0,0-.057-2.571c.254-1.119-.575-2.969,1.8-2.66h6.514l6.484.005c1.05-.048,2.174.5,3.116-.4.5-.457.356-1.063.357-1.623q.01-13.488,0-26.976c0-.559.142-1.166-.357-1.622Q169.6.315,169.591.1l3.4-.1c.955.374,2.132-.476,2.972.536-.556.527-.357,1.213-.358,1.838q-.016,16.747,0,33.495c0,.623-.2,1.315.392,1.821" transform="translate(-85.905)" fill="#090907"/>
    <path id="Trazado_716835" data-name="Trazado 716835" d="M198.519,211a22.8,22.8,0,0,1,9.032,0h-9.032" transform="translate(-112.423 -119.235)" fill="#f7c184"/>
    <path id="Trazado_716836" data-name="Trazado 716836" d="M219.7,42.181V15.432a1.357,1.357,0,0,1,.626-.477q8.6-3.254,17.2-6.528c1.249-.476,2.52-.9,3.736-1.456h.546c.036.082.118.08.187.106l20.583,7.81c.711.27.792.379.792,1.122V41.661c0,.748-.082.872-.776,1.137q-10.263,3.907-20.527,7.817a1.378,1.378,0,0,1-1.05,0q-10.28-3.959-20.567-7.9a1.474,1.474,0,0,1-.749-.535m42.212-25.4c-.112.038-.167.056-.221.076q-9.49,3.6-18.983,7.2c-.321.121-.458.24-.458.621q.023,11.894.012,23.789v.436a.789.789,0,0,0,.467-.114q9.34-3.553,18.682-7.1a.651.651,0,0,0,.513-.733q-.023-11.8-.011-23.607Zm-40.724,0a.872.872,0,0,0-.026.106q0,12.121-.014,24.242c0,.262.134.329.323.4l16.179,6.2,3.126,1.2a1.452,1.452,0,0,0,.028-.176q0-12.121.01-24.242c0-.285-.14-.354-.347-.432-1.92-.725-3.838-1.456-5.759-2.178-.134-.051-.267-.159-.452-.084v.489c0,3.5-.02,7,.016,10.507.008.759-.423,1.23-1.29.881-1.511-.609-3.038-1.177-4.559-1.763-.632-.243-.718-.368-.718-1.034,0-3.729-.007-7.459.01-11.189a.555.555,0,0,0-.453-.641c-.46-.142-.9-.336-1.356-.507l-4.719-1.782m1.31-1.073c1.885.714,3.646,1.374,5.4,2.053a.978.978,0,0,0,.77-.008q4.941-1.892,9.892-3.761a1.182,1.182,0,0,1,.877-.094q2.663,1.014,5.325,2.027a.7.7,0,0,1,.505.681.731.731,0,0,1-.509.726c-.055.024-.112.044-.169.065l-6.6,2.5c-.718.272-1.434.549-2.221.85,1.825.69,3.562,1.337,5.289,2.011a1.209,1.209,0,0,0,.948.005q7.735-2.951,15.479-5.878c.992-.376,1.982-.758,2.971-1.136-.044-.16-.158-.138-.233-.167Q251.053,12.09,241.875,8.6a.953.953,0,0,0-.736.026q-6.469,2.458-12.94,4.91c-1.857.7-3.714,1.414-5.7,2.17m6.664,4.095v.554q0,4.48,0,8.96c0,.437-.173.977.068,1.283s.766.368,1.171.526c.782.3,1.569.6,2.4.912V28.7q0-3.57,0-7.14c0-.147.092-.338-.14-.425-1.154-.435-2.306-.876-3.494-1.328m1.187-1.125c1.037.395,2,.746,2.944,1.129a1.036,1.036,0,0,0,.82,0q3.951-1.511,7.907-3.009c.111-.043.262-.043.343-.211-.693-.266-1.39-.475-2.032-.794a2.44,2.44,0,0,0-2.425.01,7.231,7.231,0,0,1-.927.36l-6.632,2.52" transform="translate(-124.42 -3.948)" fill="#090908"/>
    <path id="Trazado_716837" data-name="Trazado 716837" d="M291.36,29.58v.56q0,11.8.011,23.607a.651.651,0,0,1-.513.733q-9.347,3.537-18.682,7.1a.788.788,0,0,1-.467.114v-.436q0-11.894-.012-23.789c0-.381.137-.5.458-.621q9.5-3.587,18.983-7.2c.054-.021.109-.038.221-.076M279.72,49.6a.692.692,0,0,0-.784-.731,2.834,2.834,0,0,0-.643.2c-1.3.487-2.592.974-3.884,1.471a.741.741,0,0,0-.5.939.718.718,0,0,0,.909.465c1.481-.551,2.955-1.118,4.429-1.687a.683.683,0,0,0,.469-.657m-5.1,5.3c.073-.02.177-.039.274-.076,1.435-.544,2.872-1.083,4.3-1.638a.724.724,0,0,0,.5-.934.758.758,0,0,0-1.011-.431c-.454.158-.9.347-1.348.518-.97.369-1.942.734-2.912,1.1a.72.72,0,0,0-.523.843.732.732,0,0,0,.722.615m5.1.517a.692.692,0,0,0-.788-.727,2.875,2.875,0,0,0-.644.2c-1.3.487-2.591.975-3.883,1.472a.741.741,0,0,0-.492.941.719.719,0,0,0,.911.46c1.481-.551,2.956-1.118,4.43-1.687a.68.68,0,0,0,.465-.659m4.365-7.5a.706.706,0,0,0-.93-.687c-.5.162-.991.357-1.478.555a.721.721,0,0,0-.484.937.737.737,0,0,0,.969.429c.5-.167.992-.356,1.477-.561a.685.685,0,0,0,.448-.674m-.005,2.739a.69.69,0,0,0-.9-.521c-.516.164-1.02.364-1.521.569a.723.723,0,1,0,.48,1.363c.514-.17,1.02-.365,1.519-.576.283-.121.441-.359.425-.835m-2.125,4.374a8.113,8.113,0,0,0,1.889-.764.614.614,0,0,0,.18-.816.641.641,0,0,0-.765-.425,14.066,14.066,0,0,0-1.766.68.636.636,0,0,0-.3.823.729.729,0,0,0,.762.5" transform="translate(-153.865 -16.751)" fill="#ffdfbb"/>
    <path id="Trazado_716838" data-name="Trazado 716838" d="M223.081,29.591l4.719,1.782c.451.17.9.365,1.356.507a.555.555,0,0,1,.453.641c-.018,3.73-.011,7.459-.011,11.189,0,.666.087.791.718,1.034,1.52.586,3.048,1.154,4.559,1.763.867.349,1.3-.122,1.29-.881-.035-3.5-.016-7-.016-10.506v-.489c.185-.075.317.033.452.084,1.921.722,3.839,1.453,5.759,2.178.207.078.347.147.347.432q-.016,12.121-.01,24.242a1.459,1.459,0,0,1-.028.176l-3.126-1.2q-8.089-3.1-16.179-6.2c-.189-.072-.324-.139-.324-.4q.017-12.121.014-24.242a.853.853,0,0,1,.026-.105" transform="translate(-126.311 -16.758)" fill="#e2c09a"/>
    <path id="Trazado_716839" data-name="Trazado 716839" d="M226.153,17.755c1.986-.756,3.842-1.465,5.7-2.17q6.47-2.455,12.94-4.909a.952.952,0,0,1,.736-.026q9.174,3.5,18.354,6.977c.075.028.19.007.233.167-.988.378-1.979.759-2.971,1.136q-7.741,2.937-15.479,5.878a1.206,1.206,0,0,1-.948-.005c-1.727-.673-3.465-1.321-5.289-2.011.787-.3,1.5-.578,2.221-.85q3.3-1.249,6.6-2.5c.056-.022.113-.041.169-.065a.73.73,0,0,0,.509-.726.7.7,0,0,0-.505-.68q-2.661-1.017-5.325-2.027a1.184,1.184,0,0,0-.877.094q-4.947,1.877-9.892,3.761a.981.981,0,0,1-.77.008c-1.753-.679-3.515-1.339-5.4-2.054" transform="translate(-128.073 -5.995)" fill="#ffd8ad"/>
    <path id="Trazado_716840" data-name="Trazado 716840" d="M241.444,36.557c1.188.452,2.34.893,3.494,1.328.232.087.14.278.14.425q.008,3.57,0,7.141v3.341c-.828-.315-1.614-.609-2.4-.912-.405-.157-.936-.228-1.171-.526s-.067-.846-.068-1.283q-.008-4.48,0-8.96Z" transform="translate(-136.7 -20.703)" fill="#fd9b32"/>
    <path id="Trazado_716841" data-name="Trazado 716841" d="M244.255,29.778l6.632-2.52a7.232,7.232,0,0,0,.927-.36,2.44,2.44,0,0,1,2.425-.01c.642.319,1.339.528,2.032.794-.081.168-.232.169-.343.211q-3.953,1.507-7.907,3.009a1.036,1.036,0,0,1-.82,0c-.948-.383-1.907-.734-2.944-1.129" transform="translate(-138.324 -15.048)" fill="#f99932"/>
    <path id="Trazado_716842" data-name="Trazado 716842" d="M282.562,74.782a.682.682,0,0,1-.469.656c-1.474.569-2.949,1.136-4.43,1.687a.718.718,0,0,1-.909-.465.741.741,0,0,1,.5-.939c1.292-.5,2.588-.984,3.883-1.471a2.86,2.86,0,0,1,.644-.2.692.692,0,0,1,.784.731" transform="translate(-156.708 -41.933)" fill="#0c0c0b"/>
    <path id="Trazado_716843" data-name="Trazado 716843" d="M277.475,83.879a.732.732,0,0,1-.722-.615.72.72,0,0,1,.523-.843c.97-.369,1.942-.734,2.913-1.1.45-.171.894-.36,1.348-.519a.758.758,0,0,1,1.011.431.725.725,0,0,1-.5.934c-1.431.556-2.867,1.1-4.3,1.638a2.646,2.646,0,0,1-.274.076" transform="translate(-156.721 -45.727)" fill="#0c0c0b"/>
    <path id="Trazado_716844" data-name="Trazado 716844" d="M282.562,88.205a.68.68,0,0,1-.465.659c-1.474.569-2.949,1.136-4.43,1.687a.719.719,0,0,1-.911-.46.741.741,0,0,1,.492-.941c1.292-.5,2.588-.984,3.883-1.472a2.876,2.876,0,0,1,.644-.2.692.692,0,0,1,.788.727" transform="translate(-156.708 -49.537)" fill="#0c0c0b"/>
    <path id="Trazado_716845" data-name="Trazado 716845" d="M296.425,70.919a.686.686,0,0,1-.448.674c-.485.205-.978.394-1.477.561a.737.737,0,0,1-.968-.429.721.721,0,0,1,.484-.937c.487-.2.978-.393,1.478-.555a.706.706,0,0,1,.93.686" transform="translate(-166.205 -39.753)" fill="#0e0d0c"/>
    <path id="Trazado_716846" data-name="Trazado 716846" d="M296.42,77.455c.017.476-.141.715-.425.835-.5.212-1,.407-1.518.576A.723.723,0,1,1,294,77.5c.5-.206,1.006-.405,1.521-.569a.69.69,0,0,1,.9.521" transform="translate(-166.206 -43.549)" fill="#0e0d0c"/>
    <path id="Trazado_716847" data-name="Trazado 716847" d="M294.3,85.612a.729.729,0,0,1-.762-.5.636.636,0,0,1,.3-.823,14.062,14.062,0,0,1,1.766-.68.641.641,0,0,1,.765.425.614.614,0,0,1-.18.816,8.113,8.113,0,0,1-1.889.764" transform="translate(-166.209 -47.333)" fill="#0e0d0c"/>
  </g>
</svg>
