<svg xmlns="http://www.w3.org/2000/svg" width="1772" height="1146" viewBox="0 0 1772 1146">
  <g id="Grupo_1084173" data-name="Grupo 1084173" transform="translate(-197 -422)">
    <rect id="Rectángulo_361657" data-name="Rectángulo 361657" width="190.006" height="72" rx="36" transform="translate(629.661 422)" fill="#0b481e"/>
    <text id="Poscosecha" transform="translate(724.664 465)" fill="#fff" font-size="20" font-family="Roboto-Black, Roboto" font-weight="800"><tspan x="-54.707" y="0">Poscosecha</tspan></text>
    <rect id="Rectángulo_361658" data-name="Rectángulo 361658" width="193" height="50" rx="25" transform="translate(197 555)" fill="#cee284"/>
    <rect id="Rectángulo_361707" data-name="Rectángulo 361707" width="193" height="50" rx="25" transform="translate(510 727)" fill="#cee284"/>
    <rect id="Rectángulo_361708" data-name="Rectángulo 361708" width="193" height="50" rx="25" transform="translate(781 727)" fill="#cee284"/>
    <text id="Buenas_prácticas_de_Manufactura_BPM_" data-name="Buenas prácticas de
Manufactura (BPM)" transform="translate(294 574)" fill="#12263f" font-size="16" font-family="Roboto-Regular, Roboto"><tspan x="-72.027" y="0">Buenas prácticas de</tspan><tspan x="-69.91" y="20">Manufactura (BPM)</tspan></text>
    <text id="Selección_C_lasificación" data-name="Selección 
C;lasificación" transform="translate(607 746)" fill="#12263f" font-size="16" font-family="Roboto-Regular, Roboto"><tspan x="-36.438" y="0">Selección </tspan><tspan x="-47.332" y="20">C;lasificación</tspan></text>
    <text id="Limpieza" transform="translate(870 758)" fill="#12263f" font-size="16" font-family="Roboto-Regular, Roboto"><tspan x="-32.242" y="0">Limpieza</tspan></text>
    <g id="Grupo_1084014" data-name="Grupo 1084014" transform="translate(-217.333 -462.838)">
      <line id="Línea_154" data-name="Línea 154" y2="58.005" transform="translate(510.166 1069)" fill="none" stroke="#0b481e" stroke-width="3"/>
      <path id="Trazado_118034" data-name="Trazado 118034" d="M-11969.333-9290.667l10,6,10-6" transform="translate(12469.666 10412.005)" fill="none" stroke="#0b481e" stroke-linecap="round" stroke-width="3"/>
    </g>
    <g id="Grupo_1084118" data-name="Grupo 1084118" transform="translate(-217.333 -348.838)">
      <line id="Línea_154-2" data-name="Línea 154" y2="58.005" transform="translate(510.166 1069)" fill="none" stroke="#0b481e" stroke-width="3"/>
      <path id="Trazado_118034-2" data-name="Trazado 118034" d="M-11969.333-9290.667l10,6,10-6" transform="translate(12469.666 10412.005)" fill="none" stroke="#0b481e" stroke-linecap="round" stroke-width="3"/>
    </g>
    <g id="Grupo_1084135" data-name="Grupo 1084135" transform="translate(368.334 -290.5)">
      <line id="Línea_154-3" data-name="Línea 154" y2="58.005" transform="translate(510.166 1069)" fill="none" stroke="#0b481e" stroke-width="3"/>
      <path id="Trazado_118034-3" data-name="Trazado 118034" d="M-11969.333-9290.667l10,6,10-6" transform="translate(12469.666 10412.005)" fill="none" stroke="#0b481e" stroke-linecap="round" stroke-width="3"/>
    </g>
    <g id="Grupo_1084120" data-name="Grupo 1084120" transform="translate(-217.333 -234.838)">
      <line id="Línea_154-4" data-name="Línea 154" y2="159.839" transform="translate(510.166 1069)" fill="none" stroke="#0b481e" stroke-width="3"/>
    </g>
    <g id="Grupo_1084138" data-name="Grupo 1084138" transform="translate(480.677 -150.105)">
      <line id="Línea_154-5" data-name="Línea 154" y2="216.839" transform="translate(510.166 1069)" fill="none" stroke="#0b481e" stroke-width="3"/>
    </g>
    <g id="Grupo_1084151" data-name="Grupo 1084151" transform="translate(813.667 75.549)">
      <line id="Línea_154-6" data-name="Línea 154" y2="272.839" transform="translate(510.166 1069)" fill="none" stroke="#0b481e" stroke-width="3"/>
    </g>
    <g id="Grupo_1084161" data-name="Grupo 1084161" transform="translate(1115.821 -151.492)">
      <line id="Línea_154-7" data-name="Línea 154" y2="272.839" transform="translate(510.166 1069)" fill="none" stroke="#0b481e" stroke-width="3"/>
    </g>
    <g id="Grupo_1084147" data-name="Grupo 1084147" transform="translate(757.334 -149.246)">
      <line id="Línea_154-8" data-name="Línea 154" y2="107.838" transform="translate(510.166 1069)" fill="none" stroke="#0b481e" stroke-width="3"/>
    </g>
    <g id="Grupo_1084155" data-name="Grupo 1084155" transform="translate(934.667 -295.587)">
      <line id="Línea_154-9" data-name="Línea 154" y2="52.046" transform="translate(510.166 1069)" fill="none" stroke="#0b481e" stroke-width="3"/>
    </g>
    <g id="Grupo_1084168" data-name="Grupo 1084168" transform="translate(1218 -295.587)">
      <line id="Línea_154-10" data-name="Línea 154" y2="52.046" transform="translate(510.166 1069)" fill="none" stroke="#0b481e" stroke-width="3"/>
    </g>
    <g id="Grupo_1084133" data-name="Grupo 1084133" transform="translate(368.334 -176.5)">
      <line id="Línea_154-11" data-name="Línea 154" y2="105.838" transform="translate(510.166 1069)" fill="none" stroke="#0b481e" stroke-width="3"/>
    </g>
    <g id="Grupo_1084015" data-name="Grupo 1084015" transform="translate(283 520.602)">
      <line id="Línea_154-12" data-name="Línea 154" y2="31.565" transform="translate(9.833 0)" fill="none" stroke="#0b481e" stroke-width="3"/>
      <path id="Trazado_118034-4" data-name="Trazado 118034" d="M-11969.333-9290.667l10,6,10-6" transform="translate(11969.333 9316.565)" fill="none" stroke="#0b481e" stroke-linecap="round" stroke-width="3"/>
    </g>
    <g id="Grupo_1084023" data-name="Grupo 1084023" transform="translate(1127 530.602)">
      <line id="Línea_154-13" data-name="Línea 154" y2="31.565" transform="translate(9.833 0)" fill="none" stroke="#0b481e" stroke-width="3"/>
      <path id="Trazado_118034-5" data-name="Trazado 118034" d="M-11969.333-9290.667l10,6,10-6" transform="translate(11969.333 9316.565)" fill="none" stroke="#0b481e" stroke-linecap="round" stroke-width="3"/>
    </g>
    <line id="Línea_3878" data-name="Línea 3878" y1="42" x2="364" transform="translate(294.5 479.5)" fill="none" stroke="#0b481e" stroke-linecap="round" stroke-width="3"/>
    <line id="Línea_3879" data-name="Línea 3879" x1="326.5" y1="52" transform="translate(808 479.5)" fill="none" stroke="#0b481e" stroke-linecap="round" stroke-width="3"/>
    <rect id="Rectángulo_361701" data-name="Rectángulo 361701" width="156" height="50" rx="25" transform="translate(210 670)" fill="#cee284"/>
    <rect id="Rectángulo_361702" data-name="Rectángulo 361702" width="156" height="50" rx="25" transform="translate(210 788)" fill="#cee284"/>
    <rect id="Rectángulo_361717" data-name="Rectángulo 361717" width="156" height="50" rx="25" transform="translate(795.667 846.338)" fill="#cee284"/>
    <rect id="Rectángulo_361719" data-name="Rectángulo 361719" width="156" height="50" rx="25" transform="translate(955.667 875.366)" fill="#cee284"/>
    <rect id="Rectángulo_361720" data-name="Rectángulo 361720" width="156" height="50" rx="25" transform="translate(1186.974 875.366)" fill="#cee284"/>
    <rect id="Rectángulo_361712" data-name="Rectángulo 361712" width="156" height="50" rx="25" transform="translate(321 863)" fill="#ffe9e1"/>
    <rect id="Rectángulo_361722" data-name="Rectángulo 361722" width="156" height="50" rx="25" transform="translate(1019.01 947.732)" fill="#ffe9e1"/>
    <rect id="Rectángulo_361732" data-name="Rectángulo 361732" width="156" height="50" rx="25" transform="translate(1352 1173.387)" fill="#fffae3"/>
    <rect id="Rectángulo_361740" data-name="Rectángulo 361740" width="156" height="50" rx="25" transform="translate(1654.153 946.346)" fill="#ffe9e1"/>
    <rect id="Rectángulo_361728" data-name="Rectángulo 361728" width="156" height="50" rx="25" transform="translate(1295.667 948.592)" fill="#ffe9e1"/>
    <rect id="Rectángulo_361716" data-name="Rectángulo 361716" width="156" height="50" rx="25" transform="translate(696.333 919.338)" fill="#ffe9e1"/>
    <rect id="Rectángulo_361713" data-name="Rectángulo 361713" width="156" height="50" rx="25" transform="translate(321 971)" fill="#ffe9e1"/>
    <rect id="Rectángulo_361721" data-name="Rectángulo 361721" width="156" height="50" rx="25" transform="translate(1019.01 1055.732)" fill="#ffe9e1"/>
    <rect id="Rectángulo_361730" data-name="Rectángulo 361730" width="156" height="50" rx="25" transform="translate(1352 1281.387)" fill="#fffae3"/>
    <rect id="Rectángulo_361738" data-name="Rectángulo 361738" width="156" height="50" rx="25" transform="translate(1654.153 1054.346)" fill="#ffe9e1"/>
    <rect id="Rectángulo_361724" data-name="Rectángulo 361724" width="156" height="50" rx="25" transform="translate(1019.01 1110.733)" fill="#ffe9e1"/>
    <rect id="Rectángulo_361729" data-name="Rectángulo 361729" width="156" height="50" rx="25" transform="translate(1352 1336.388)" fill="#fffae3"/>
    <rect id="Rectángulo_361737" data-name="Rectángulo 361737" width="156" height="50" rx="25" transform="translate(1654.153 1109.347)" fill="#ffe9e1"/>
    <rect id="Rectángulo_361734" data-name="Rectángulo 361734" width="156" height="50" rx="25" transform="translate(1352 1392.388)" fill="#fffae3"/>
    <rect id="Rectángulo_361736" data-name="Rectángulo 361736" width="156" height="50" rx="25" transform="translate(1654.153 1165.347)" fill="#ffe9e1"/>
    <rect id="Rectángulo_361704" data-name="Rectángulo 361704" width="156" height="50" rx="25" transform="translate(321 917)" fill="#ffe9e1"/>
    <rect id="Rectángulo_361723" data-name="Rectángulo 361723" width="156" height="50" rx="25" transform="translate(1019.01 1001.732)" fill="#ffe9e1"/>
    <rect id="Rectángulo_361731" data-name="Rectángulo 361731" width="156" height="50" rx="25" transform="translate(1352 1227.387)" fill="#fffae3"/>
    <rect id="Rectángulo_361739" data-name="Rectángulo 361739" width="156" height="50" rx="25" transform="translate(1654.153 1000.346)" fill="#ffe9e1"/>
    <rect id="Rectángulo_361727" data-name="Rectángulo 361727" width="156" height="50" rx="25" transform="translate(1295.667 1002.592)" fill="#ffe9e1"/>
    <rect id="Rectángulo_361733" data-name="Rectángulo 361733" width="156" height="50" rx="25" transform="translate(1295.667 1096)" fill="#e8e8e8"/>
    <rect id="Rectángulo_361741" data-name="Rectángulo 361741" width="156" height="50" rx="25" transform="translate(1522 868.959)" fill="#cee284"/>
    <rect id="Rectángulo_361743" data-name="Rectángulo 361743" width="156" height="50" rx="25" transform="translate(1805.333 868.959)" fill="#cee284"/>
    <rect id="Rectángulo_361742" data-name="Rectángulo 361742" width="156" height="50" rx="25" transform="translate(1522 1281.387)" fill="#cee284"/>
    <rect id="Rectángulo_361715" data-name="Rectángulo 361715" width="156" height="50" rx="25" transform="translate(696.333 973.338)" fill="#ffe9e1"/>
    <text id="evitar" transform="translate(288 701)" fill="#12263f" font-size="16" font-family="Roboto-Regular, Roboto"><tspan x="-19.676" y="0">evitar</tspan></text>
    <text id="Pérdidas" transform="translate(288 819)" fill="#12263f" font-size="16" font-family="Roboto-Regular, Roboto"><tspan x="-31.309" y="0">Pérdidas</tspan></text>
    <text id="Pérdidas-2" data-name="Pérdidas" transform="translate(873.667 877.338)" fill="#12263f" font-size="16" font-family="Roboto-Regular, Roboto"><tspan x="-31.309" y="0">Pérdidas</tspan></text>
    <text id="Factores" transform="translate(1033.667 906.366)" fill="#12263f" font-size="16" font-family="Roboto-Regular, Roboto"><tspan x="-30.922" y="0">Factores</tspan></text>
    <text id="Clasificación" transform="translate(1264.974 906.366)" fill="#12263f" font-size="16" font-family="Roboto-Regular, Roboto"><tspan x="-45.641" y="0">Clasificación</tspan></text>
    <text id="Económicas" transform="translate(399 894)" fill="#12263f" font-size="16" font-family="Roboto-Regular, Roboto"><tspan x="-43.816" y="0">Económicas</tspan></text>
    <text id="Complementación" transform="translate(1097.01 978.732)" fill="#12263f" font-size="16" font-family="Roboto-Regular, Roboto"><tspan x="-65.184" y="0">Complementación</tspan></text>
    <text id="Inmersión" transform="translate(1430 1204.387)" fill="#12263f" font-size="16" font-family="Roboto-Regular, Roboto"><tspan x="-35.59" y="0">Inmersión</tspan></text>
    <text id="Proteger" transform="translate(1732.153 977.346)" fill="#12263f" font-size="16" font-family="Roboto-Regular, Roboto"><tspan x="-30.523" y="0">Proteger</tspan></text>
    <text id="Físicos" transform="translate(1373.667 979.592)" fill="#12263f" font-size="16" font-family="Roboto-Regular, Roboto"><tspan x="-25.34" y="0">Físicos</tspan></text>
    <text id="Secos" transform="translate(774.333 950.338)" fill="#12263f" font-size="16" font-family="Roboto-Regular, Roboto"><tspan x="-21.859" y="0">Secos</tspan></text>
    <text id="Indirectas" transform="translate(399 1002)" fill="#12263f" font-size="16" font-family="Roboto-Regular, Roboto"><tspan x="-35.191" y="0">Indirectas</tspan></text>
    <text id="Temperatura" transform="translate(1097.01 1086.732)" fill="#12263f" font-size="16" font-family="Roboto-Regular, Roboto"><tspan x="-45.191" y="0">Temperatura</tspan></text>
    <text id="Nebulización" transform="translate(1430 1312.387)" fill="#12263f" font-size="16" font-family="Roboto-Regular, Roboto"><tspan x="-46.145" y="0">Nebulización</tspan></text>
    <text id="Comercial" transform="translate(1732.153 1085.346)" fill="#12263f" font-size="16" font-family="Roboto-Regular, Roboto"><tspan x="-36.074" y="0">Comercial</tspan></text>
    <text id="Concentración" transform="translate(1097.01 1141.733)" fill="#12263f" font-size="16" font-family="Roboto-Regular, Roboto"><tspan x="-51.645" y="0">Concentración</tspan></text>
    <text id="Termo_nebulización" data-name="Termo nebulización" transform="translate(1430 1367.388)" fill="#12263f" font-size="16" font-family="Roboto-Regular, Roboto"><tspan x="-69.742" y="0">Termo nebulización</tspan></text>
    <text id="Comunicación" transform="translate(1732.153 1140.347)" fill="#12263f" font-size="16" font-family="Roboto-Regular, Roboto"><tspan x="-51.191" y="0">Comunicación</tspan></text>
    <text id="UVL" transform="translate(1430 1423.388)" fill="#12263f" font-size="16" font-family="Roboto-Regular, Roboto"><tspan x="-14.582" y="0">UVL</tspan></text>
    <text id="Social" transform="translate(1732.153 1196.347)" fill="#12263f" font-size="16" font-family="Roboto-Regular, Roboto"><tspan x="-21.73" y="0">Social</tspan></text>
    <text id="Directas" transform="translate(399 948)" fill="#12263f" font-size="16" font-family="Roboto-Regular, Roboto"><tspan x="-29.336" y="0">Directas</tspan></text>
    <text id="Tiempo" transform="translate(1097.01 1032.732)" fill="#12263f" font-size="16" font-family="Roboto-Regular, Roboto"><tspan x="-27.016" y="0">Tiempo</tspan></text>
    <text id="Pulverización" transform="translate(1430 1258.387)" fill="#12263f" font-size="16" font-family="Roboto-Regular, Roboto"><tspan x="-47.531" y="0">Pulverización</tspan></text>
    <text id="Conservar" transform="translate(1732.153 1031.346)" fill="#12263f" font-size="16" font-family="Roboto-Regular, Roboto"><tspan x="-36.199" y="0">Conservar</tspan></text>
    <text id="Químicos" transform="translate(1373.667 1033.592)" fill="#12263f" font-size="16" font-family="Roboto-Regular, Roboto"><tspan x="-33.715" y="0">Químicos</tspan></text>
    <text id="Formas_de_aplicación" data-name="Formas de
aplicación" transform="translate(1373.667 1118)" fill="#12263f" font-size="16" font-family="Roboto-Regular, Roboto"><tspan x="-37.828" y="0">Formas de</tspan><tspan x="-36.367" y="20">aplicación</tspan></text>
    <text id="Funciones" transform="translate(1600 899.959)" fill="#12263f" font-size="16" font-family="Roboto-Regular, Roboto"><tspan x="-36.629" y="0">Funciones</tspan></text>
    <text id="Tipos" transform="translate(1883.333 899.959)" fill="#12263f" font-size="16" font-family="Roboto-Regular, Roboto"><tspan x="-19.891" y="0">Tipos</tspan></text>
    <text id="Funciones-2" data-name="Funciones" transform="translate(1600 1312.387)" fill="#12263f" font-size="16" font-family="Roboto-Regular, Roboto"><tspan x="-36.629" y="0">Funciones</tspan></text>
    <text id="Húmedos" transform="translate(774.333 1004.338)" fill="#12263f" font-size="16" font-family="Roboto-Regular, Roboto"><tspan x="-34.563" y="0">Húmedos</tspan></text>
    <g id="Grupo_1084122" data-name="Grupo 1084122" transform="translate(-777.333 1452.332) rotate(-90)">
      <line id="Línea_154-14" data-name="Línea 154" y2="21.586" transform="translate(510.166 1069)" fill="none" stroke="#0b481e" stroke-width="3"/>
      <path id="Trazado_118034-6" data-name="Trazado 118034" d="M-11969.333-9290.667l10,6,10-6" transform="translate(12469.666 10375.586)" fill="none" stroke="#0b481e" stroke-linecap="round" stroke-width="3"/>
    </g>
    <g id="Grupo_1084139" data-name="Grupo 1084139" transform="translate(-79.323 1537.064) rotate(-90)">
      <line id="Línea_154-15" data-name="Línea 154" y2="21.586" transform="translate(510.166 1069)" fill="none" stroke="#0b481e" stroke-width="3"/>
      <path id="Trazado_118034-7" data-name="Trazado 118034" d="M-11969.333-9290.667l10,6,10-6" transform="translate(12469.666 10375.586)" fill="none" stroke="#0b481e" stroke-linecap="round" stroke-width="3"/>
    </g>
    <g id="Grupo_1084148" data-name="Grupo 1084148" transform="translate(253.667 1762.719) rotate(-90)">
      <line id="Línea_154-16" data-name="Línea 154" y2="21.586" transform="translate(510.166 1069)" fill="none" stroke="#0b481e" stroke-width="3"/>
      <path id="Trazado_118034-8" data-name="Trazado 118034" d="M-11969.333-9290.667l10,6,10-6" transform="translate(12469.666 10375.586)" fill="none" stroke="#0b481e" stroke-linecap="round" stroke-width="3"/>
    </g>
    <g id="Grupo_1084157" data-name="Grupo 1084157" transform="translate(555.82 1535.678) rotate(-90)">
      <line id="Línea_154-17" data-name="Línea 154" y2="21.586" transform="translate(510.166 1069)" fill="none" stroke="#0b481e" stroke-width="3"/>
      <path id="Trazado_118034-9" data-name="Trazado 118034" d="M-11969.333-9290.667l10,6,10-6" transform="translate(12469.666 10375.586)" fill="none" stroke="#0b481e" stroke-linecap="round" stroke-width="3"/>
    </g>
    <g id="Grupo_1084143" data-name="Grupo 1084143" transform="translate(197.333 1537.924) rotate(-90)">
      <line id="Línea_154-18" data-name="Línea 154" y2="21.586" transform="translate(510.166 1069)" fill="none" stroke="#0b481e" stroke-width="3"/>
      <path id="Trazado_118034-10" data-name="Trazado 118034" d="M-11969.333-9290.667l10,6,10-6" transform="translate(12469.666 10375.586)" fill="none" stroke="#0b481e" stroke-linecap="round" stroke-width="3"/>
    </g>
    <g id="Grupo_1084131" data-name="Grupo 1084131" transform="translate(1948.253 486.047) rotate(90)">
      <line id="Línea_154-19" data-name="Línea 154" y2="21.586" transform="translate(510.166 1069)" fill="none" stroke="#0b481e" stroke-width="3"/>
      <path id="Trazado_118034-11" data-name="Trazado 118034" d="M-11969.333-9290.667l10,6,10-6" transform="translate(12469.666 10375.586)" fill="none" stroke="#0b481e" stroke-linecap="round" stroke-width="3"/>
    </g>
    <g id="Grupo_1084130" data-name="Grupo 1084130" transform="translate(-777.333 1505.334) rotate(-90)">
      <line id="Línea_154-20" data-name="Línea 154" y2="21.586" transform="translate(510.166 1069)" fill="none" stroke="#0b481e" stroke-width="3"/>
      <path id="Trazado_118034-12" data-name="Trazado 118034" d="M-11969.333-9290.667l10,6,10-6" transform="translate(12469.666 10375.586)" fill="none" stroke="#0b481e" stroke-linecap="round" stroke-width="3"/>
    </g>
    <g id="Grupo_1084140" data-name="Grupo 1084140" transform="translate(-79.323 1590.066) rotate(-90)">
      <line id="Línea_154-21" data-name="Línea 154" y2="21.586" transform="translate(510.166 1069)" fill="none" stroke="#0b481e" stroke-width="3"/>
      <path id="Trazado_118034-13" data-name="Trazado 118034" d="M-11969.333-9290.667l10,6,10-6" transform="translate(12469.666 10375.586)" fill="none" stroke="#0b481e" stroke-linecap="round" stroke-width="3"/>
    </g>
    <g id="Grupo_1084149" data-name="Grupo 1084149" transform="translate(253.667 1815.721) rotate(-90)">
      <line id="Línea_154-22" data-name="Línea 154" y2="21.586" transform="translate(510.166 1069)" fill="none" stroke="#0b481e" stroke-width="3"/>
      <path id="Trazado_118034-14" data-name="Trazado 118034" d="M-11969.333-9290.667l10,6,10-6" transform="translate(12469.666 10375.586)" fill="none" stroke="#0b481e" stroke-linecap="round" stroke-width="3"/>
    </g>
    <g id="Grupo_1084158" data-name="Grupo 1084158" transform="translate(555.82 1588.68) rotate(-90)">
      <line id="Línea_154-23" data-name="Línea 154" y2="21.586" transform="translate(510.166 1069)" fill="none" stroke="#0b481e" stroke-width="3"/>
      <path id="Trazado_118034-15" data-name="Trazado 118034" d="M-11969.333-9290.667l10,6,10-6" transform="translate(12469.666 10375.586)" fill="none" stroke="#0b481e" stroke-linecap="round" stroke-width="3"/>
    </g>
    <g id="Grupo_1084142" data-name="Grupo 1084142" transform="translate(-79.323 1645.066) rotate(-90)">
      <line id="Línea_154-24" data-name="Línea 154" y2="21.586" transform="translate(510.166 1069)" fill="none" stroke="#0b481e" stroke-width="3"/>
      <path id="Trazado_118034-16" data-name="Trazado 118034" d="M-11969.333-9290.667l10,6,10-6" transform="translate(12469.666 10375.586)" fill="none" stroke="#0b481e" stroke-linecap="round" stroke-width="3"/>
    </g>
    <g id="Grupo_1084150" data-name="Grupo 1084150" transform="translate(253.667 1870.721) rotate(-90)">
      <line id="Línea_154-25" data-name="Línea 154" y2="21.586" transform="translate(510.166 1069)" fill="none" stroke="#0b481e" stroke-width="3"/>
      <path id="Trazado_118034-17" data-name="Trazado 118034" d="M-11969.333-9290.667l10,6,10-6" transform="translate(12469.666 10375.586)" fill="none" stroke="#0b481e" stroke-linecap="round" stroke-width="3"/>
    </g>
    <g id="Grupo_1084159" data-name="Grupo 1084159" transform="translate(555.82 1643.68) rotate(-90)">
      <line id="Línea_154-26" data-name="Línea 154" y2="21.586" transform="translate(510.166 1069)" fill="none" stroke="#0b481e" stroke-width="3"/>
      <path id="Trazado_118034-18" data-name="Trazado 118034" d="M-11969.333-9290.667l10,6,10-6" transform="translate(12469.666 10375.586)" fill="none" stroke="#0b481e" stroke-linecap="round" stroke-width="3"/>
    </g>
    <g id="Grupo_1084154" data-name="Grupo 1084154" transform="translate(253.667 1926.721) rotate(-90)">
      <line id="Línea_154-27" data-name="Línea 154" y2="21.586" transform="translate(510.166 1069)" fill="none" stroke="#0b481e" stroke-width="3"/>
      <path id="Trazado_118034-19" data-name="Trazado 118034" d="M-11969.333-9290.667l10,6,10-6" transform="translate(12469.666 10375.586)" fill="none" stroke="#0b481e" stroke-linecap="round" stroke-width="3"/>
    </g>
    <g id="Grupo_1084160" data-name="Grupo 1084160" transform="translate(555.82 1699.68) rotate(-90)">
      <line id="Línea_154-28" data-name="Línea 154" y2="21.586" transform="translate(510.166 1069)" fill="none" stroke="#0b481e" stroke-width="3"/>
      <path id="Trazado_118034-20" data-name="Trazado 118034" d="M-11969.333-9290.667l10,6,10-6" transform="translate(12469.666 10375.586)" fill="none" stroke="#0b481e" stroke-linecap="round" stroke-width="3"/>
    </g>
    <g id="Grupo_1084132" data-name="Grupo 1084132" transform="translate(1948.253 433.045) rotate(90)">
      <line id="Línea_154-29" data-name="Línea 154" y2="21.586" transform="translate(510.166 1069)" fill="none" stroke="#0b481e" stroke-width="3"/>
      <path id="Trazado_118034-21" data-name="Trazado 118034" d="M-11969.333-9290.667l10,6,10-6" transform="translate(12469.666 10375.586)" fill="none" stroke="#0b481e" stroke-linecap="round" stroke-width="3"/>
    </g>
    <g id="Grupo_1084129" data-name="Grupo 1084129" transform="translate(-777.333 1396.373) rotate(-90)">
      <line id="Línea_154-30" data-name="Línea 154" y2="21.586" transform="translate(510.166 1069)" fill="none" stroke="#0b481e" stroke-width="3"/>
      <path id="Trazado_118034-22" data-name="Trazado 118034" d="M-11969.333-9290.667l10,6,10-6" transform="translate(12469.666 10375.586)" fill="none" stroke="#0b481e" stroke-linecap="round" stroke-width="3"/>
    </g>
    <g id="Grupo_1084141" data-name="Grupo 1084141" transform="translate(-79.323 1481.105) rotate(-90)">
      <line id="Línea_154-31" data-name="Línea 154" y2="21.586" transform="translate(510.166 1069)" fill="none" stroke="#0b481e" stroke-width="3"/>
      <path id="Trazado_118034-23" data-name="Trazado 118034" d="M-11969.333-9290.667l10,6,10-6" transform="translate(12469.666 10375.586)" fill="none" stroke="#0b481e" stroke-linecap="round" stroke-width="3"/>
    </g>
    <g id="Grupo_1084152" data-name="Grupo 1084152" transform="translate(253.667 1706.76) rotate(-90)">
      <line id="Línea_154-32" data-name="Línea 154" y2="21.586" transform="translate(510.166 1069)" fill="none" stroke="#0b481e" stroke-width="3"/>
      <path id="Trazado_118034-24" data-name="Trazado 118034" d="M-11969.333-9290.667l10,6,10-6" transform="translate(12469.666 10375.586)" fill="none" stroke="#0b481e" stroke-linecap="round" stroke-width="3"/>
    </g>
    <g id="Grupo_1084162" data-name="Grupo 1084162" transform="translate(555.82 1479.719) rotate(-90)">
      <line id="Línea_154-33" data-name="Línea 154" y2="21.586" transform="translate(510.166 1069)" fill="none" stroke="#0b481e" stroke-width="3"/>
      <path id="Trazado_118034-25" data-name="Trazado 118034" d="M-11969.333-9290.667l10,6,10-6" transform="translate(12469.666 10375.586)" fill="none" stroke="#0b481e" stroke-linecap="round" stroke-width="3"/>
    </g>
    <g id="Grupo_1084146" data-name="Grupo 1084146" transform="translate(197.333 1481.965) rotate(-90)">
      <line id="Línea_154-34" data-name="Línea 154" y2="21.586" transform="translate(510.166 1069)" fill="none" stroke="#0b481e" stroke-width="3"/>
      <path id="Trazado_118034-26" data-name="Trazado 118034" d="M-11969.333-9290.667l10,6,10-6" transform="translate(12469.666 10375.586)" fill="none" stroke="#0b481e" stroke-linecap="round" stroke-width="3"/>
    </g>
    <g id="Grupo_1084156" data-name="Grupo 1084156" transform="translate(374.667 1335.625) rotate(-90)">
      <line id="Línea_154-35" data-name="Línea 154" y2="156.334" transform="translate(510.166 1069)" fill="none" stroke="#0b481e" stroke-width="3"/>
    </g>
    <g id="Grupo_1084167" data-name="Grupo 1084167" transform="translate(657.999 1335.625) rotate(-90)">
      <line id="Línea_154-36" data-name="Línea 154" y2="156.334" transform="translate(510.166 1069)" fill="none" stroke="#0b481e" stroke-width="3"/>
    </g>
    <g id="Grupo_1084123" data-name="Grupo 1084123" transform="translate(591.121 664.582)">
      <line id="Línea_154-37" data-name="Línea 154" y2="52.729" transform="translate(8.939 0)" fill="none" stroke="#0b481e" stroke-width="3"/>
      <path id="Trazado_118034-27" data-name="Trazado 118034" d="M-11969.333-9290.668l9.09,5.453,9.09-5.453" transform="translate(11969.333 9338.245)" fill="none" stroke="#0b481e" stroke-linecap="round" stroke-width="3"/>
    </g>
    <g id="Grupo_1084125" data-name="Grupo 1084125" transform="translate(1120.615 611.256)">
      <line id="Línea_154-38" data-name="Línea 154" y2="106.056" transform="translate(8.939 0)" fill="none" stroke="#0b481e" stroke-width="3"/>
      <path id="Trazado_118034-28" data-name="Trazado 118034" d="M-11969.333-9290.668l9.09,5.453,9.09-5.453" transform="translate(11969.333 9391.571)" fill="none" stroke="#0b481e" stroke-linecap="round" stroke-width="3"/>
    </g>
    <g id="Grupo_1084126" data-name="Grupo 1084126" transform="translate(868.898 664.582)">
      <line id="Línea_154-39" data-name="Línea 154" y2="52.729" transform="translate(8.938 0)" fill="none" stroke="#0b481e" stroke-width="3"/>
      <path id="Trazado_118034-29" data-name="Trazado 118034" d="M-11969.333-9290.668l9.09,5.453,9.09-5.453" transform="translate(11969.333 9338.245)" fill="none" stroke="#0b481e" stroke-linecap="round" stroke-width="3"/>
    </g>
    <g id="Grupo_1084136" data-name="Grupo 1084136" transform="translate(1020.586 817.808)">
      <line id="Línea_154-40" data-name="Línea 154" y2="52.729" transform="translate(8.938 0)" fill="none" stroke="#0b481e" stroke-width="3"/>
      <path id="Trazado_118034-30" data-name="Trazado 118034" d="M-11969.333-9290.668l9.09,5.453,9.09-5.453" transform="translate(11969.333 9338.245)" fill="none" stroke="#0b481e" stroke-linecap="round" stroke-width="3"/>
    </g>
    <g id="Grupo_1084128" data-name="Grupo 1084128" transform="translate(1433.487 664.582)">
      <line id="Línea_154-41" data-name="Línea 154" y2="52.729" transform="translate(8.939 0)" fill="none" stroke="#0b481e" stroke-width="3"/>
      <path id="Trazado_118034-31" data-name="Trazado 118034" d="M-11969.333-9290.668l9.09,5.453,9.09-5.453" transform="translate(11969.333 9338.245)" fill="none" stroke="#0b481e" stroke-linecap="round" stroke-width="3"/>
    </g>
    <line id="Línea_3880" data-name="Línea 3880" y1="55.972" x2="468.844" transform="translate(600.5 608.528)" fill="none" stroke="#0b481e" stroke-linecap="round" stroke-width="3"/>
    <line id="Línea_3881" data-name="Línea 3881" y1="57.27" x2="202.718" transform="translate(877.534 608.528)" fill="none" stroke="#0b481e" stroke-linecap="round" stroke-width="3"/>
    <line id="Línea_3885" data-name="Línea 3885" y1="57.27" x2="108.445" transform="translate(1029.222 761.754)" fill="none" stroke="#0b481e" stroke-linecap="round" stroke-width="3"/>
    <line id="Línea_3882" data-name="Línea 3882" x1="258.617" y1="57.27" transform="translate(1182.974 608.528)" fill="none" stroke="#0b481e" stroke-linecap="round" stroke-width="3"/>
    <line id="Línea_3884" data-name="Línea 3884" x1="520.424" y1="57.27" transform="translate(1205.246 608.528)" fill="none" stroke="#0b481e" stroke-linecap="round" stroke-width="3"/>
    <rect id="Rectángulo_361706" data-name="Rectángulo 361706" width="156" height="50" rx="25" transform="translate(1059 565)" fill="#cee284"/>
    <text id="Etapas" transform="translate(1137 596)" fill="#12263f" font-size="16" font-family="Roboto-Regular, Roboto"><tspan x="-24.477" y="0">Etapas</tspan></text>
    <g id="Grupo_1084127" data-name="Grupo 1084127" transform="translate(1717.487 664.581)">
      <line id="Línea_154-42" data-name="Línea 154" y2="52.729" transform="translate(8.939 0)" fill="none" stroke="#0b481e" stroke-width="3"/>
      <path id="Trazado_118034-32" data-name="Trazado 118034" d="M-11969.333-9290.668l9.09,5.453,9.09-5.453" transform="translate(11969.333 9338.246)" fill="none" stroke="#0b481e" stroke-linecap="round" stroke-width="3"/>
    </g>
    <g id="Grupo_1084137" data-name="Grupo 1084137" transform="translate(1256.487 817.808)">
      <line id="Línea_154-43" data-name="Línea 154" y2="52.729" transform="translate(9.241)" fill="none" stroke="#0b481e" stroke-width="3"/>
      <path id="Trazado_118034-33" data-name="Trazado 118034" d="M-11951.153-9290.668l-9.09,5.453-9.09-5.453" transform="translate(11969.333 9338.245)" fill="none" stroke="#0b481e" stroke-linecap="round" stroke-width="3"/>
    </g>
    <g id="Grupo_1084153" data-name="Grupo 1084153" transform="translate(1363.577 1036.969)">
      <line id="Línea_154-44" data-name="Línea 154" x2="0.318" y2="37.198" transform="translate(8.923 15.531)" fill="none" stroke="#0b481e" stroke-width="3"/>
      <path id="Trazado_118034-34" data-name="Trazado 118034" d="M-11951.153-9290.668l-9.09,5.453-9.09-5.453" transform="translate(11969.333 9338.245)" fill="none" stroke="#0b481e" stroke-linecap="round" stroke-width="3"/>
    </g>
    <g id="Grupo_1084163" data-name="Grupo 1084163" transform="translate(1589.91 809.928)">
      <line id="Línea_154-45" data-name="Línea 154" x2="0.318" y2="37.198" transform="translate(8.923 15.531)" fill="none" stroke="#0b481e" stroke-width="3"/>
      <path id="Trazado_118034-35" data-name="Trazado 118034" d="M-11951.153-9290.668l-9.09,5.453-9.09-5.453" transform="translate(11969.333 9338.245)" fill="none" stroke="#0b481e" stroke-linecap="round" stroke-width="3"/>
    </g>
    <g id="Grupo_1084166" data-name="Grupo 1084166" transform="translate(1873.243 809.928)">
      <line id="Línea_154-46" data-name="Línea 154" x2="0.318" y2="37.198" transform="translate(8.923 15.531)" fill="none" stroke="#0b481e" stroke-width="3"/>
      <path id="Trazado_118034-36" data-name="Trazado 118034" d="M-11951.153-9290.668l-9.09,5.453-9.09-5.453" transform="translate(11969.333 9338.245)" fill="none" stroke="#0b481e" stroke-linecap="round" stroke-width="3"/>
    </g>
    <g id="Grupo_1084164" data-name="Grupo 1084164" transform="translate(1589.91 901.977)">
      <line id="Línea_154-47" data-name="Línea 154" x2="0.318" y2="359.578" transform="translate(8.923 15.531)" fill="none" stroke="#0b481e" stroke-width="3"/>
      <path id="Trazado_118034-37" data-name="Trazado 118034" d="M-11951.153-9290.668l-9.09,5.453-9.09-5.453" transform="translate(11969.333 9660.625)" fill="none" stroke="#0b481e" stroke-linecap="round" stroke-width="3"/>
    </g>
    <g id="Grupo_1084165" data-name="Grupo 1084165" transform="translate(1589.91 1315.163)">
      <line id="Línea_154-48" data-name="Línea 154" x2="0.318" y2="39.086" transform="translate(8.923 15.531)" fill="none" stroke="#0b481e" stroke-width="3"/>
      <path id="Trazado_118034-38" data-name="Trazado 118034" d="M-11951.153-9290.668l-9.09,5.453-9.09-5.453" transform="translate(11969.333 9340.133)" fill="none" stroke="#0b481e" stroke-linecap="round" stroke-width="3"/>
    </g>
    <g id="Grupo_1084170" data-name="Grupo 1084170" transform="translate(1876.577 904.229)">
      <line id="Línea_154-49" data-name="Línea 154" x2="0.318" y2="39.086" transform="translate(8.923 15.531)" fill="none" stroke="#0b481e" stroke-width="3"/>
      <path id="Trazado_118034-39" data-name="Trazado 118034" d="M-11951.153-9290.668l-9.09,5.453-9.09-5.453" transform="translate(11969.333 9340.133)" fill="none" stroke="#0b481e" stroke-linecap="round" stroke-width="3"/>
    </g>
    <line id="Línea_3886" data-name="Línea 3886" x1="128.364" y1="57.27" transform="translate(1137.667 761.754)" fill="none" stroke="#0b481e" stroke-linecap="round" stroke-width="3"/>
    <rect id="Rectángulo_361718" data-name="Rectángulo 361718" width="193" height="50" rx="25" transform="translate(1038 727)" fill="#cee284"/>
    <text id="Disenfección" transform="translate(1135 758)" fill="#12263f" font-size="16" font-family="Roboto-Regular, Roboto"><tspan x="-46.18" y="0">Disenfección</tspan></text>
    <rect id="Rectángulo_361735" data-name="Rectángulo 361735" width="193" height="50" rx="25" transform="translate(1342 727)" fill="#cee284"/>
    <text id="Envase_empaque_y_embalaje" data-name="Envase, empaque 
y embalaje" transform="translate(1439 746)" fill="#12263f" font-size="16" font-family="Roboto-Regular, Roboto"><tspan x="-64.309" y="0">Envase, empaque </tspan><tspan x="-38.297" y="20">y embalaje</tspan></text>
    <rect id="Rectángulo_361681" data-name="Rectángulo 361681" width="147" height="181" rx="15" transform="translate(1535.333 1375)" fill="#ffe9e1"/>
    <rect id="Rectángulo_361745" data-name="Rectángulo 361745" width="147" height="104.28" rx="15" transform="translate(1822 964.066)" fill="#ffe9e1"/>
    <g id="Grupo_1084064" data-name="Grupo 1084064" transform="translate(1360.333 242)">
      <text id="Madera_Cartón_Papel_Vidrio_Fibras_Nat._Textil_Vidrio_Plástico_" data-name="Madera
Cartón
Papel
Vidrio
Fibras Nat.
Textil
Vidrio
Plástico
" transform="translate(207.333 1162)" fill="#12263f" font-size="16" font-family="Roboto-Regular, Roboto"><tspan x="0" y="0">Madera</tspan><tspan x="0" y="20">Cartón</tspan><tspan x="0" y="40">Papel</tspan><tspan x="0" y="60">Vidrio</tspan><tspan x="0" y="80">Fibras Nat.</tspan><tspan x="0" y="100">Textil</tspan><tspan x="0" y="120">Vidrio</tspan><tspan x="0" y="140">Plástico</tspan><tspan x="0" y="160"></tspan></text>
      <circle id="Elipse_5108" data-name="Elipse 5108" cx="3.5" cy="3.5" r="3.5" transform="translate(194 1153)" fill="#ffa686"/>
      <circle id="Elipse_5109" data-name="Elipse 5109" cx="3.5" cy="3.5" r="3.5" transform="translate(194 1173)" fill="#ffa686"/>
      <circle id="Elipse_5110" data-name="Elipse 5110" cx="3.5" cy="3.5" r="3.5" transform="translate(194 1193)" fill="#ffa686"/>
      <circle id="Elipse_5285" data-name="Elipse 5285" cx="3.5" cy="3.5" r="3.5" transform="translate(194 1251)" fill="#ffa686"/>
      <circle id="Elipse_5112" data-name="Elipse 5112" cx="3.5" cy="3.5" r="3.5" transform="translate(194 1232)" fill="#ffa686"/>
      <circle id="Elipse_5283" data-name="Elipse 5283" cx="3.5" cy="3.5" r="3.5" transform="translate(194 1290)" fill="#ffa686"/>
      <circle id="Elipse_5111" data-name="Elipse 5111" cx="3.5" cy="3.5" r="3.5" transform="translate(194 1213)" fill="#ffa686"/>
      <circle id="Elipse_5284" data-name="Elipse 5284" cx="3.5" cy="3.5" r="3.5" transform="translate(194 1271)" fill="#ffa686"/>
    </g>
    <g id="Grupo_1084169" data-name="Grupo 1084169" transform="translate(1647 -168.934)">
      <text id="Terrestre_Aéreo_Fluvial_Ferroviario" data-name="Terrestre
Aéreo
Fluvial
Ferroviario" transform="translate(207.333 1162)" fill="#12263f" font-size="16" font-family="Roboto-Regular, Roboto"><tspan x="0" y="0">Terrestre</tspan><tspan x="0" y="20">Aéreo</tspan><tspan x="0" y="40">Fluvial</tspan><tspan x="0" y="60">Ferroviario</tspan></text>
      <circle id="Elipse_5108-2" data-name="Elipse 5108" cx="3.5" cy="3.5" r="3.5" transform="translate(194 1153)" fill="#ffa686"/>
      <circle id="Elipse_5109-2" data-name="Elipse 5109" cx="3.5" cy="3.5" r="3.5" transform="translate(194 1173)" fill="#ffa686"/>
      <circle id="Elipse_5110-2" data-name="Elipse 5110" cx="3.5" cy="3.5" r="3.5" transform="translate(194 1193)" fill="#ffa686"/>
      <circle id="Elipse_5111-2" data-name="Elipse 5111" cx="3.5" cy="3.5" r="3.5" transform="translate(194 1213)" fill="#ffa686"/>
    </g>
    <rect id="Rectángulo_361744" data-name="Rectángulo 361744" width="193" height="50" rx="25" transform="translate(1629 727)" fill="#cee284"/>
    <text id="Transporte" transform="translate(1726 758)" fill="#12263f" font-size="16" font-family="Roboto-Regular, Roboto"><tspan x="-38.727" y="0">Transporte</tspan></text>
  </g>
</svg>
